<?xml version="1.0" standalone="no"?>
<!DOCTYPE svg PUBLIC "-//W3C//DTD SVG 1.1//EN" "http://www.w3.org/Graphics/SVG/1.1/DTD/svg11.dtd" >
<svg xmlns="http://www.w3.org/2000/svg">
<metadata>
This is a custom SVG webfont generated by Font Squirrel.
Copyright   : Generated by Fontographer 41
</metadata>
<defs>
<font id="BambinoRegular" horiz-adv-x="461" >
<font-face units-per-em="1000" ascent="800" descent="-200" />
<missing-glyph horiz-adv-x="191" />
<glyph unicode=" "  horiz-adv-x="191" />
<glyph unicode="&#x09;" horiz-adv-x="191" />
<glyph unicode="&#xa0;" horiz-adv-x="191" />
<glyph unicode="!" horiz-adv-x="268" d="M104 651l7 21l10 -2l11 -7l6 -7l9 -4l2 -2l3 -2l26 -21l4 -9v-9l4 -1l-11 -35v-17l-5 -31v-3l-2 -7l3 -13l-8 -30l1 -12l-3 -11l3 -14l-4 -40l-5 -9l1 -8l2 -8v-10l-1 -16l-1 -4v-4l1 -2l-2 -34l3 -17l-1 -31l-2 -12l-1 -5l1 -3l3 -6l-1 -13v-2l1 -7v-22l1 -6l-1 -4 l4 -15l-1 -16l-17 3l-15 7l-13 3l-4 4l-1 12l4 12l-3 6l1 23l4 27l2 58l2 10l-2 43l1 8v5l-3 33l2 4v17l-2 1l2 6l-1 2l-1 3v12l-2 8v1l1 6l-4 11v26l-3 1v17l-3 31l-3 9l-2 21l-6 16l-1 5l-1 3v3l1 10l6 18zM117 77h18l18 -2l11 -11l-1 -9l5 -10l4 -16l2 -4l-2 -8l-5 -10 l-14 -9h-2l-6 -1l-2 1l-5 2l-18 6l-4 2l-5 1l-1 3l-2 1l-6 10l-2 11l-1 16l3 14l3 7l6 4z" />
<glyph unicode="&#x22;" horiz-adv-x="254" d="M83 563v19l5 6l3 7h2l20 31l2 -1v1l1 1l2 -1l3 -3l10 -9l21 -30l-11 -54l-5 -4l1 -8l-5 -33l-11 -42l-14 -1l-4 10zM178 563v19l6 6l3 7h2l20 31l2 -1v1l1 1l2 -1l12 -12l22 -30l-11 -54l-5 -4l1 -8l-6 -33l-10 -42l-14 -1l-4 10z" />
<glyph unicode="$" horiz-adv-x="481" d="M459 206l1 -26l-14 -46l-9 -17l-19 -23l-20 -21l-4 -3l-3 -2l-21 -12l-5 -5l-27 -12l-6 -4l-8 -1l-10 -1l-5 -2l-5 -3l-12 -6l-3 -2l-3 -4l-32 -5l-15 -4h-9l-2 -47l-3 -24l-5 -1l-1 -1l-11 7h-2v2l-9 3l-4 8l-1 1l-1 3l4 47h-50l-17 9l-8 -1l-17 6l-2 1h-5l-13 7l-6 2 h-1l-5 -1l-17 13l-12 6l-5 4l-15 10l-4 2l-5 3l-2 3l-2 4l11 7l1 15l-1 10l-3 6v2l-19 16l-2 6l-2 5v1l2 10l1 4l1 2h2l4 -2l2 -3l3 -7l2 -1l1 -1l6 -3h3l6 -15l8 -6l5 -3l2 -1l3 -5l6 -9l4 -4l4 -1l16 -12l16 -8l2 -5l7 -5l2 1h2l6 2l7 -2l7 -3l19 -4l4 -2l5 -1l7 -2l17 -1 l8 -5l8 3v-5l5 5l1 40l1 7l-1 1v73l-2 21l2 40v73l-23 4h-2l-5 2l-2 -3l-40 4l-7 2h-13l-3 1l-2 1l-1 1l-38 14l-7 10l-3 11l-3 3l-2 5l-1 3v17l2 10l16 21l2 6l1 1l28 39l9 10l2 1h1l16 18l1 2l4 4l7 4l3 4l28 29l40 29l1 18l-2 5l2 5l2 69l-4 13l9 -1l2 -1l1 -2l3 -1l4 -6 l4 -4l4 -6l2 -4l5 -8l2 -6l-4 -5l1 -6l1 -11v-5l-2 -6l1 -3v-4l-2 -2v-5l8 8l13 6l3 6h5l30 15l13 3h19l7 -5l6 2l17 -15v-3l2 -2l3 -4l1 -6v-4l1 -13l1 -7l2 -2l1 -3l-1 -9l-4 -3l-2 -2l-2 -1l-11 15l-9 3l-7 3l-1 2l-2 2l-4 6l-7 1l-6 -5h-13l-7 -2h-5l-15 1l-3 1h-4 l-2 -1l-3 -4l-8 -2l-6 -4l-2 -2l-9 -7l-2 -37l2 -11l-4 -22l-2 -7v-2l4 -4l1 -7l-1 -13v-6l-2 -5l2 -1l-1 -12l-1 -3l-2 -1l3 -8v-2l2 -5l-5 -16v-21l3 -12l8 1l6 -2h3l7 -3l14 -7l8 1l2 -1h1l31 -6l3 -4l1 -3v-4l7 -2l4 4l9 -1l14 -7l2 1l16 -8l3 -1l6 -5l9 -4l20 -17h1 l4 -5l5 -6l4 -6l1 -1l2 -4h3v-3h2l18 -32l5 -7v-1l2 -4l3 -7l1 -2l-1 -1l2 -1zM403 125l2 29l-9 30l-6 7l-9 18l-3 2l-8 14l-12 5l-7 2l-1 1l-28 30l-25 12l-3 3l-23 5l-9 5l-5 2l-3 2l-16 2l-10 4l1 -9v-10l1 -19l-3 -27l3 -8l-2 -1l1 -3l-1 -2v-56l1 -2v-3l-1 -2l1 -3 l2 -16l-1 -66l1 -1l-1 -2v-16l1 -1h8l10 3l32 3h4l5 2l9 3l4 1h3l6 4l18 3l34 14l4 4l7 3l5 3l7 6l13 16zM205 527h-7l-6 -7l-8 -4l-3 -4l-11 -6l-6 -7l-1 -3l-6 -3l-8 -8l-7 -8l-4 -3l-1 -1h-2l-3 -4l-2 -3l-18 -19l-1 -2l-3 -4l-3 -1l-2 -4l-14 -20l-1 -11l6 -9l9 -5l3 -2 l5 -3l3 -2l4 -2l26 -6l4 -2l1 -2l1 -3l8 -2l9 2l32 -9l3 37l-1 5v12l2 4l1 4l1 3l-4 9z" />
<glyph unicode="%" horiz-adv-x="564" d="M517 584l8 26l55 35v-31l-9 -27l-24 -44l-2 -2l-28 -47l-16 -16l-16 -25l-162 -201l-71 -98l-6 -6l-31 -44l-5 -11l-28 -37l-41 -73l-17 -41v-9l-35 -18l-16 -2l-3 6l22 59l64 93l27 31l44 61l146 191l92 132l15 26l-38 -28l-13 -6l-21 -15l-5 -2l-10 -7l-56 -28l-34 -12 l-14 -12l-1 -7l14 -17l9 -26l-3 -37l-17 -35l-17 -23l-28 -26l-48 -33l-63 -12l-43 8l-21 11l-13 11l-13 15l-11 23v17l2 21l11 29l25 34l120 90l14 -7l11 -1l99 25l60 22l55 24l25 15l31 23zM397 245l35 4l22 -1l38 -16l24 -18l4 -16h3l3 -25v-27l-6 -26l-9 -21l-21 -30 l-14 -11l-17 -9l-9 -12l-41 -21l-17 -7l-22 -3l-45 9l-15 11l-17 18l-8 17l-3 41l8 31l6 12l23 36l8 6l22 25l22 19zM263 304l5 8l-19 37l-33 29l-12 4l-40 4l-18 -7l-10 1l-15 -5l-23 -27l-8 3l7 -5l-6 -9l-4 -14l-4 -34l3 -13l13 -17l25 -20l24 -12l36 3l26 4l23 8l15 7 l11 13l5 17zM421 197l-32 10l-20 -6l-20 -13l-19 -24l-8 -43l5 -32l15 -22l27 -19l30 -3l29 5l25 7l12 6l17 25l3 29l-4 33l-8 14l-21 20z" />
<glyph unicode="&#x26;" horiz-adv-x="657" d="M651 147v2l-9 8l-9 -2l-27 11l-3 -1v-3l-12 1l-2 3l-3 -1h-1l-3 1l-7 6l-20 21l-3 9l-5 3l-12 4l-6 8l-4 -1l-26 9l-13 2l-16 -3l-13 -3h-3l-7 -3l-1 -1l-5 -6l-7 -4l-5 -5l-17 -7l-15 -15l16 -16l7 -8l2 -3l52 -44l15 -19l5 -2v-1l22 -20l34 -25l2 -6l6 -4l4 -12l-3 -3 l1 -2l2 -2l-1 -4l33 -35v-14l-5 1l-2 -4l-11 9h-2v2l-4 2l-13 6l-13 7h-7l-21 24l-13 8l-7 2l-8 12l-29 23h-2l-5 8l-13 7l-15 16l-16 10l-19 23l-27 18l-12 11l-8 -5l-2 -3l-24 -15l-11 -8l-6 -3l-10 -11l-4 -3l-74 -46l-12 -9l-1 -2l-23 -14l-13 -3l-12 -10l-24 -9l-4 -2 l-7 -1l-9 -3l-2 -1l-4 1l-6 2l-26 1l-18 6l-11 6l-15 17l-8 18l-3 20l4 25l12 22l5 19l7 10l11 24l8 11l14 15l19 29l18 15l9 14l38 33l13 14l17 16l-10 14l-14 27l-1 7l-3 13l-10 18l-4 25l2 2l-4 13l2 6l-1 23l10 25l14 23l52 53l33 25l21 7l3 -1l1 -3l12 5l21 2l38 -5 l25 -12l16 -18l10 -18l2 -10l2 -7v-20l-9 -24l-12 -24l-4 -2l-3 -3l-5 -6l-3 -5l-19 -20l-6 -4l-6 -5l-26 -29l-14 -10l-5 -4l-7 -8l-11 -3l-2 -1l-1 -3v-3l-21 -16l13 -23l11 -11l11 -19l8 -9l1 -3l10 -6l35 -41l14 -10l7 -10l17 -12l23 16l10 10l10 5l38 26l8 4l3 3l24 9 l9 2h5l19 5l15 -1l34 -12l18 -12l16 -17l11 -8v-2l2 -1l6 -6l30 -48l2 -12l1 -7l-5 -4zM341 481v18l-4 11l-11 13l-5 10l-5 3l-27 9l-15 -2l-48 -16l-5 -4l-3 -4l-4 -5l-10 -10l-6 -13v-19l-2 -3l1 -25l5 -9l3 -9l4 -4v-16l9 -4l1 -2l2 -6l2 -7l4 -9l9 -17l20 14l25 28 l21 16l33 40zM298 135l33 26l-12 15l-16 9v3l-4 -1l-17 20l-23 21l-8 8l-39 48l-13 -2l-19 -12l-4 -8l-10 -5l-1 -2l-3 -2l-2 -6l-26 -22l-5 -6l-3 -3l-2 -5l-3 -4l-10 -15l-1 -3l-10 -5v-2l-12 -25l-6 -4l-6 -13l-3 -12v-31l5 -13l7 -7l19 -11l13 -3l38 4l23 7l6 1l5 2l9 5 l30 9l18 8l9 6l8 6l14 7l9 8z" />
<glyph unicode="'" horiz-adv-x="162" d="M83 563v19l5 6l3 7h2l20 31l2 -1v1l1 1l2 -1l3 -3l10 -9l21 -30l-11 -54l-5 -4l1 -8l-5 -33l-11 -42l-14 -1l-4 10z" />
<glyph unicode="(" horiz-adv-x="367" d="M319 -16l5 -8l1 -8l-4 -3l-6 2l-9 1l-2 3l-6 2l-8 10l-6 3l-4 4l-4 8l-3 5l-4 2l-13 8l-20 25l-13 26l-15 13l-2 9l-11 14l-12 23l-3 8l-1 4l-5 8l-9 32l-5 10l1 15l-3 8l-1 5l-1 2l-13 67l-1 89l4 13l2 21l10 39l21 60l16 35l3 5l4 7l6 10l4 4l27 40l1 3l1 1l39 43l5 7 h2l2 6l8 6l39 -1l6 4l6 -1l13 -3l-4 -14l-22 -27l-4 -1l-5 -5l-4 -8l-10 -6l-5 -8l-12 -13l-6 -5l-18 -31l-1 -1l-4 -5l-3 -6l-9 -14l-8 -20l-2 -7l-4 -4l-10 -25l-1 -4l-4 -12l-4 -11l-2 -6v-3l-4 -13l-8 -39l-3 -7l1 -7l-4 -16v-84l6 -49l5 -24l1 -2l4 -10l2 -4l18 -61 l1 -1l6 -9l29 -56l7 -7l1 -2l3 -3l3 -8l19 -26l5 -6l3 -5l4 -8z" />
<glyph unicode=")" horiz-adv-x="366" d="M242 377l3 -13v-40l-3 -25v-5l-2 -5l2 -12l-18 -80l-5 -9l-9 -34l-4 -4l-15 -41l-28 -50l-3 -8l-2 -1v-3l-49 -57l-5 -2l-15 -5l-7 -3l-2 -2l-11 -2h-6l-4 -1l-8 -6l-18 -6l-6 11l2 4l3 3l11 18l10 11l48 65l15 25l36 91v4l7 17l13 48v12l4 11l1 18l2 8v76l-2 26l-11 41 l-6 16v1l-1 5l-8 16l-2 2l-1 4l-13 27l-16 19l-1 4l-1 1l-9 21l-35 39l-5 11l-9 3l-3 3l-9 13h-2l-6 15l-12 12l2 6l1 2l4 2l3 -1l6 -3l32 -22l3 -1v-1l16 -13l6 -6l1 -2l11 -6l10 -10l7 -9l5 -3l8 -6l4 -6l2 -1l13 -12l7 -9l6 -15l10 -3l6 -6l4 -12l7 -13l17 -37l7 -10 l8 -22l3 -24l4 -11z" />
<glyph unicode="*" horiz-adv-x="337" d="M320 508l14 -15l-4 -5l-25 -1l-4 3h-2l-2 -2l-34 -1l-17 3l-13 -2l-4 2l-4 1l-22 -3l26 -39l17 -20l7 -16l13 -13l8 -15l3 -4l-2 -3l-12 -2l-12 -5l-9 5l-17 20l-3 2l-1 2l-5 6l-5 4l-1 1l-15 18l-3 8l-6 4l-2 5l-2 4l-15 15l-26 -34l-7 -15l-13 -12l-15 -25l-8 -10 l-3 -3l-3 7v11l-1 4l-5 10l5 11l6 9l1 6l12 16l-1 5l6 7l8 22l10 17l-27 -2h-14l-4 -1l-1 1l-3 1l-39 -3l-10 2l-10 -1l-1 2h-1l-6 6l13 14l5 13l2 2l7 1h64l9 -3l12 1l1 2l-28 35l-2 4l-4 5l-21 30l-6 12l-1 3l2 4l10 2l22 3l5 -2l6 -10l10 -9l4 -8l9 -8l6 -3v-2l2 -2 l22 -32l4 10l34 60l4 5l2 6l5 13l5 3l2 9l2 1l2 -3h2l9 -13l7 -7l7 -3l4 -9l-10 -25l-18 -29l-18 -27l-7 -12v-3l1 -2l30 1l13 -1h7l35 4l3 -1v-2l9 -2l2 -6l1 -2h10l2 -2z" />
<glyph unicode="," horiz-adv-x="219" d="M147 23l4 -16v-23l-3 -21l-7 -26l-1 -2l-1 -1l1 -6l-5 -11l-3 -15l-14 -20l-3 -13l-1 -2l-2 -3l-14 -16l-6 -6l-15 -8l-2 4l-5 2l-6 3l-1 1l-1 2l1 3l3 4l4 3l3 2l1 2l2 3l3 1l3 3l4 7l1 4l4 6v2l3 17l3 5l-1 2l2 17l3 10l-3 12l1 7l-2 13l-4 9l-2 3l-1 1l-11 21l1 5 l-8 6l-2 3l-1 3l3 8l3 7v2l1 2l4 7l9 8v10l12 17h2v1l1 1l2 -1l3 -3l24 -23l7 -9l4 -13v-5l2 -3z" />
<glyph unicode="-" horiz-adv-x="411" d="M364 247l-3 -7h-2v-13l-2 -6l-24 3h-18l-7 1h-6l-29 -1l-13 2l-48 -1l-38 2l-2 2l-11 -2l-4 -2l-11 -1h-71l-15 5l-1 23l2 4l3 5l3 13l3 6l5 1l2 3l8 3l32 -9l11 2l20 -3l41 -1l167 4l8 -9l3 -8l1 -5z" />
<glyph unicode="." horiz-adv-x="219" d="M151 27l1 -11l-7 -16l-10 -2h-3l-6 -1l-42 5l-4 5l-6 41l4 14l5 6l18 8l18 -2l17 2l5 -2l8 -3l3 -3v-26l-2 -7l-1 -3z" />
<glyph unicode="/" horiz-adv-x="295" d="M10 -39l-10 8l1 5l5 11l24 58l5 16l7 14l10 33v2l2 3l14 33l12 41l11 24l3 13l7 12l5 17l17 39l3 17l2 2l5 6l5 9l34 93l22 52l9 26l1 2l2 5l13 31v5l3 2l15 39l7 23l14 31h1l14 39l6 10l-1 1l1 3l1 2l4 1l1 -3l7 -3l1 -3l1 -4l6 -8h2l2 -6l1 -2l1 -11l-18 -38l-1 -4 l-5 -5l-13 -38l-11 -26l-1 -5l-4 -3l-9 -29l-18 -38v-4l-1 -1l-22 -54l-42 -121l-21 -45l-3 -15l-13 -30l-3 -14l-46 -128l-20 -51l-5 -20l-8 -18l-5 -10l-1 -3l-2 -3l-1 -4l-2 -3l-1 -1l-4 -1l-1 4v1l-8 12l-4 4h-2z" />
<glyph unicode="0" horiz-adv-x="393" d="M38 331v16l4 19l33 78l4 4l3 8l5 12l16 21l5 10l12 16l6 6l3 4l5 9l44 45l21 16l51 28l32 4l17 -5l17 -8l20 -19l2 -7h2v-1l3 -8l4 -6l11 -5l7 -10l1 -12l9 -13l2 -16l-2 -6l4 -2l2 -6l1 -31l-2 -27v-13l-4 -43v-10l3 -5l-6 -37l-4 -10l-20 -99l-11 -37l-13 -32l-31 -66 l-52 -72l-39 -36l-3 -1l-2 -4l-2 -2l-9 2l-23 -16l-6 -1h-6l-16 -6h-10l-6 2l-5 1l-10 4l-3 1l-12 8l-23 24l-4 9l-6 7l-4 6l-5 9l-1 10l-7 8l-4 13l-2 29l-4 5l-3 23v31l3 41v14l14 65l8 20l-10 27zM70 384l-1 -14l3 -4h6l1 1l6 7l12 30l17 23l25 43l12 17l12 4l13 -5l3 -7 l6 -8l-2 -3l-2 -1l-4 -1l-12 -13l-1 -19l-4 -2h-9l-12 -1l-16 -23l-2 -9l-27 -48v-7l-5 -10l-2 -7l2 -7v-7l-5 -22l-1 -15l-5 -16l-4 -27l1 -6l-4 -32l2 -12v-9l3 -30l-1 -14l16 -40l18 -29l9 -10l21 -14l5 -4l4 -1l15 -2l2 -8l9 1l8 -2l17 9l6 1l6 7l33 28l11 14l33 55 l16 36l9 30l6 14l2 7l1 4l2 9l2 8l18 79l-1 7l4 16v18l2 5v8l2 16l-1 1v28l-2 27l1 12l5 9l-1 6l-12 40l-5 8l-9 18l-9 9l-4 5l-3 1l-7 -1l-11 9l-34 4l-4 2h-11l-17 -1l-8 -8l-17 -3l-5 3l-12 -7l-7 -6l-9 -11l-13 -8l-17 -23l-20 -22l-6 -11l-3 -2l-1 -3l-10 -16l-20 -42 l-3 -11l-5 -7l-1 -4v-4z" />
<glyph unicode="1" horiz-adv-x="276" d="M170 597l9 6h8l1 -3v-8l-4 -42l-2 -42l-3 -14l1 -20l-3 -18l-1 -33l-6 -66l-4 -4l-1 -3v-3l1 -3l2 -4l-2 -61h3l2 -2l-6 -6l-1 -13l-1 -4l-1 -3v-2l1 -3l-4 -44l4 -26v-41l3 -65l2 -7v-12l-1 -24v-8l-2 -10l1 -6v-1l-4 -6l-2 -2v-3l-26 -33l-11 -1l-3 3v2l-2 1l3 21 l-2 85l2 6l-1 5l1 37l-2 12v6l-1 62l2 3l2 6l-2 2v19l2 7v1h-1l2 84l-2 10l1 5l-1 51l3 8l-2 56l1 1v28l-1 9l-8 -3l-2 -6l-3 -11l-15 -24l-5 -17l-13 -20l-5 -4l-4 -12v-7l-4 -7l-4 -10l-5 -6l-3 -12l-9 -16l-4 -2l-5 -3l-3 -1l-3 2l-12 -3l-2 2l4 5l1 3l2 1l-1 2l3 3l1 2 l6 7l5 6v6l30 52l6 16l8 11l28 65l10 28l1 4l4 7l8 36l3 3l7 2l9 6z" />
<glyph unicode="2" horiz-adv-x="373" d="M263 608l28 12l17 -1l9 -5l6 -13l6 -4l1 -1l4 -13l1 -20l4 -23l-2 -25l-6 -25l-15 -43l-7 -9l-16 -33l-27 -41l-4 -12l-16 -23l-9 -9l-3 -6l-15 -25l-5 -4l-2 -2l-3 -4v-6l-20 -31l-15 -17l-14 -24l-2 1l-1 -2l-4 -7l-36 -48l-16 -25l-8 -8l-12 -19l-8 -9l-5 -13l-6 -6 l-22 -39l-1 -12l4 -3l5 -2l4 1l4 2l6 5l3 4l8 4l47 52l39 41l20 17l6 9l20 7l19 -8l10 -10l5 -10v-13l7 -4l2 -4l19 -31l3 -3l4 -5l3 -6l7 -5l1 -2l6 1l17 -9h9l25 12l15 12l10 -2l-27 -27l-21 -17l-6 -1l-18 -12l-24 -7l-23 1l-10 5l-9 9l-5 10l-3 4l-2 2l-2 1l-1 1l-4 6 l-1 2l-1 1l-2 1l-1 2l-7 17l-6 9l-3 10l-5 5l-1 3l-14 7l-5 -2h-3l-17 -13l-12 -16h-2v-3h-4l-6 -4l-12 -16l-26 -23l-37 -41l-12 -9l-5 -1l-12 -13h-10l-3 1l-5 16l2 21l6 13l10 29l3 3l3 6l21 33l12 14l49 72l6 7l1 2l50 82l5 2l3 4l46 77l3 3l4 1v7l21 39l5 12l21 38 l10 47l-3 36l-6 12l-1 5l-5 7l-9 12l-10 6l-8 -3l-12 -11l-29 -43l-9 -9l-14 -24l-10 -10l-11 -20l-3 -4v-4l-8 -12l-5 -14l-10 -23l-10 -25l-2 -3l-6 2l-20 -11l-20 1l11 18l5 11l38 59l7 9l4 4l13 26l12 17l5 4l4 7l13 18l-1 5l12 14l7 4l4 6l20 24z" />
<glyph unicode="3" horiz-adv-x="383" d="M252 607l52 4h16l11 -7l5 -2l3 -5l2 -1l3 -10v-3l-2 -16l-2 -13l-10 -12l-8 -19l-6 -7l-2 -3l-14 -17l-5 -8l-27 -26l-19 -31l6 -14l28 -17l17 -7l13 -12l3 -2l9 -8l21 -36l7 -21h2l1 -11l-2 -9v-3l4 -13l-2 -13l-2 -11l-2 -5l1 -4l-4 -11l-8 -11l-5 -26l-8 -8l-2 -5 l-3 -1l-2 -4l-1 -1l1 -3l-5 -11l-7 -6l-26 -39l-40 -45l-20 -19h-3l-4 -2v-4l-34 -24h-3l-1 -2l-8 -7l-7 -5l-3 -2l-17 -10l-5 -1l-46 -23l-19 -4l-4 -4h-5l-4 1l-17 -6l-30 -2l-4 -2l-2 2h-4l-6 1l-10 4l-11 5l-2 2v8l4 5l3 6l4 6l14 14l20 9l6 -3l1 2l14 2l2 -3l4 -2l59 1 l33 9l31 13l31 20l7 5l3 2l13 12l1 3l2 3l4 4l37 47l19 49l1 27l3 12l-1 31l-4 19l-3 9l-1 8l-2 3l-6 5l-4 8l-3 2l-1 4l-10 12l-6 9l-9 4l-4 3l-2 1l-6 5l-5 3h-3l-4 1l-3 2l-2 2l-8 3l-5 2l-5 1l-2 3l-7 5l-6 8l-2 10l20 25l13 10l19 22l9 7l2 3v4l29 35l5 13l2 21l-1 5 l-7 12l-4 4l-10 5l-44 5l-12 -2l-49 -24l-23 -17l-15 -8l-18 -14l-11 -13l-20 -11l-11 -14l-12 1l-1 4l2 6l6 9l3 1l2 4l37 35l12 6l11 11l58 37l10 9l12 5l31 15l10 4h7l4 4z" />
<glyph unicode="4" horiz-adv-x="342" d="M13 174l1 11l12 39l1 5l5 12l4 7l1 9l4 10l3 14l19 55l5 22l5 10l8 34l8 17l3 12l1 8v13l1 2l2 6l11 36l1 42l7 29l1 28l13 9l28 11l1 1l2 1l8 8v1h2l2 2l10 -2v-2l2 1l-1 -15l-7 -26l-11 -30v-5l-42 -115l-15 -46l-1 -10l-10 -40l-6 -12l-10 -44l-15 -47l-2 -16l8 -5 l3 -3l3 -1l1 -1l10 6l23 8l56 29l13 4v-1l38 18h3l-1 5l6 21l12 63l5 1l4 4l14 12l36 23l-10 -28l-4 -41l5 -18l-1 -23l3 -7l1 -2l5 -2v-5l4 -4l14 -3l18 3l2 -3v-5l-8 -1l-7 -4h-7l-2 -2l-7 -3l-6 -2l-28 -5l-3 -2l-2 -1v-1l-6 -12l-1 -3l-6 -5l-18 -62v-9l-9 -26v-24 l-12 -65l-1 -25l1 -34l-6 -31l2 -8v-6l-1 -18l-4 -3l-2 5l-2 11l-9 21l-2 15l1 7l-1 5l-2 5l-1 7l2 14l-3 43l4 7l-2 8v3l1 37l-3 2l-1 12l17 87l3 4v13l7 3l1 21l-19 -4l-32 -14h-1l-6 -2l-9 -6h-4l-4 -4l-6 -7l-1 -2h-2l-3 -1l-4 2l-4 -4l-13 -7h-7l-7 -8l-22 -6l-28 -14 l-12 -2v2l-3 -1h-5l-6 7z" />
<glyph unicode="5" horiz-adv-x="296" d="M20 -46v21l6 19l1 1l5 6l3 2l3 10l5 -1l4 -12l2 -3l2 -2l6 -2l1 -2l15 -9l30 -2l11 6l8 5h4l12 5l4 9l4 4l4 3l7 7l16 28l8 9l13 38l7 28l8 74l2 7l-3 32l3 22l-8 43l-2 2l-3 2l-4 7l-21 -3l-4 -4l-6 -5l-1 -2l-5 -3l-5 -7l-5 -4l-4 -2l-1 -1l-7 -8l-15 -15l-12 -15 l-12 -10l-17 -16l-4 -1l-3 -3h-3l-3 -1l-3 2l-3 -1l-15 13l-9 24v2l-1 5l-4 35l2 18l1 6l-1 12l3 10l1 13l6 29l9 27l2 12l26 51l3 4l5 4l1 -3l8 -2l1 -13l-5 -12l-3 -13l-4 -5l-4 -23l-6 -9v-13l-5 -12v-29l-3 -10l2 -23l3 -11l3 -9l4 -5l7 -9l7 -6l-2 -1h1l10 1l10 4 l39 34l20 19l5 10l11 6l24 21l21 11l15 -2l5 -5l2 -4l3 -4l5 -12l5 -24l-3 -10l-1 -13l-3 -53l-15 -58v-9l-28 -84l-8 -16l-11 -27l-8 -9l-2 -1l-1 -5l-1 -4l-5 -6l-3 -3l-4 -8l-7 -12h-3l-4 -8l-40 -42l-9 -5h-5l-2 -1l-3 1l-8 -8h-3v-3l-5 -3l-3 -2l-9 -3h-2l-3 -2l-11 1 l-4 -3h-8l-9 1l-9 9l-3 4l-1 4l-2 5zM88 481l-5 12l7 19l13 18l6 6v2l22 17l6 10l43 27l2 3l3 1l6 5l9 5h5l12 9l55 16l24 -2l5 -4l-3 -14l-21 -19l-24 -2l-1 -1v-4l-35 -5h-4l-6 5l-6 -3l-18 -12h-11l-4 -2l-2 -5l-30 -23l-1 -4l-2 -6l-2 -8l-3 -3l-5 -14l-1 -12l-3 -5 l-3 -1l-5 -3v-3h-3l-2 -1l-1 1l-12 -3l1 1l-1 1z" />
<glyph unicode="6" horiz-adv-x="330" d="M189 541l-11 -10l-39 -57l-39 -110l1 -1l-2 -6l-6 -15l-2 -13l-5 -18l-8 -30v-20l-4 -18l1 -39l-2 -2l1 -5l8 3l19 35l12 6l7 8l2 2l3 5l2 8l5 5l17 15l28 13l26 6l29 -2l25 -11l8 -8l3 -2l1 -2l4 -2l3 -6l7 -5v-3l11 -14l10 -38l-3 -47l3 -12l-4 -10v-3l-1 -7l-3 -15 l-13 -35l-12 -25l1 -2l-5 -7l-9 -17l-7 -10l-3 -1v-3l-2 -1v-2h-1l-9 -11h-2l-11 -12l-8 -5l-1 -2l-34 -16l-18 -2l-24 4l-31 18l-2 3l-3 2h-5l-2 -1l-4 -12h-11l-6 1l-2 4l-4 2l-5 5l-3 4l-12 21l-1 12l-2 8l-2 41l-3 14v7l-2 5l-5 16l2 2v5l-1 3l-1 1l-2 3l-2 2l1 21l-3 5 v33l2 7v30l4 22l-1 10l7 15l-4 1l4 17l-2 3l1 5l6 12l5 19v5l15 53l7 14l4 5l20 44l6 8l21 41l8 12l6 7l5 11l22 29l8 6l2 1l4 3l1 2l45 32l7 6l11 7l10 2l7 1l3 -7l1 -13l10 -4l-26 -9l-12 -7l-25 -25l-15 -13zM225 256l-25 2l-21 -2l-40 -20l-30 -26l-15 -23l-17 -35 l-2 -31l9 -33l8 -10l11 -24l7 -7l6 -5l19 -12h37l36 15l23 19l6 4l3 4l4 9l12 15l15 13l13 26l5 18v34l-4 15l-5 10h-1l-1 5l-3 3v2l-13 14l-26 16zM62 59l-3 2l-3 -5l-1 -4l2 -7l1 -1l5 -3l2 -13l1 -3l8 -7l2 -1l3 2l-2 11h-1l-5 9l-2 6z" />
<glyph unicode="7" horiz-adv-x="464" d="M309 646h15l8 -10l2 -5l7 -1l3 -1l2 -3l2 -8l-3 -24l-5 -12l-13 -52l-5 -10l-7 -5l-1 -14l-13 -31l-4 -15l-4 -9l-1 -6l-20 -57l-5 -3l-7 -14l-5 -21l-29 -71l1 -17l3 -4l5 -1h1l6 1l23 7l19 -2l49 10l6 -2h29l7 -1l11 -2l8 -1l6 -2l22 1l10 -3l9 -6l12 1l10 -1l5 -3 l8 -9l-2 -4l-12 -8l-14 -1l-14 -4l-1 2h-2l-7 1l-68 1l-8 -2h-22l-4 -3v2l-2 1l-2 -1l-4 -1l-16 -3l-14 1h-2l-2 -1l-3 -2h-5l-13 -6l-18 -2l-14 -8l-8 -2l-14 -8l-7 -8l-5 -15l-29 -124l8 -36l-1 -10l-9 -19l-11 -9l-4 -1l-4 -5l-5 -5l-3 -1l-5 3l-1 5l4 20v11l5 79l-1 13 v10l-2 37l-8 42l2 10l11 15l24 21l12 3l14 9l31 90l1 10l-2 1v5l11 20l1 11l4 8l1 7l12 41l3 12l2 18l4 5l8 30l7 37l2 28l1 5l-1 8v15l-2 2l6 7l-9 1l-22 -7l-10 -7h-5l-3 -2l-4 -3l-5 -2l-18 -15l-7 -3l-20 -15l-31 -29l-3 -2l-5 -5l-27 -26l-13 -18l-11 -7l-1 -2l4 -2 l1 -3l-2 -5l-2 -2l-6 -7l-8 -16l1 -19l-18 -5l-5 -3l-5 -1l-9 -2l-5 7l-6 3l-5 11l12 19l54 65l22 21l6 7l4 3l44 40l11 7l6 6l18 10l8 9l29 21l8 4l3 2l24 13l21 7l11 2h2z" />
<glyph unicode="8" horiz-adv-x="323" d="M225 632l4 -3l13 1l17 -5l1 -2l3 -4l1 -3l7 -3l4 -3v-2l5 -9l3 -5l3 -10l1 -20l-5 -6l-4 -11l-1 -20l6 -16l-6 -20l-8 -11l-8 -22l-8 -6l-2 -5v-8l-3 -6v-3l-11 -17v-3l-2 -2v-2l-2 -1l-38 -57l-11 -12v-5l-10 -14l-2 -4l-1 -5l1 -5l2 -3h3l-1 -4l24 -26l2 -1v-2l3 -2v-1 l7 -9l23 -25l3 -5h6l9 -12l8 -16l4 -17v-6l7 -14v-9l2 -6l-1 -5l-2 -16l-4 -16l-38 -63l-18 -16l-5 -5l-3 -1l-17 -14l-35 -16l-11 -8l-18 -6h-11l-2 -3l-1 -2l-18 1l-3 -3h-27l-17 3l-2 2h-3l-9 3l-2 2l-10 4l-14 10l-5 4l-7 14v1l-1 1l-4 22l2 33l32 64l12 14l7 12h2 l17 25l1 3h4l42 55h3l11 15l3 5l1 3l-12 16l-5 10l-6 9l-14 24l-1 4v4l-7 15l-2 5l-3 9l-6 39l2 10l3 34l4 22l10 20l21 26l18 13l30 18l3 -3l9 1l4 -1l3 -3v-3l-2 -4h-3l-13 -2h-3l-4 -4h-4l-8 -13l-12 -13l-10 -21l-1 -13l-4 -10l6 -39l-1 -4l2 -8l-1 -5h3l5 -16l4 -4 l1 -4l6 -15l6 -16l3 -3l6 -2l2 -7v-2l6 -2l6 7l24 35l4 9l8 8l15 24l15 33l14 44l6 30l-1 20l-4 17l-14 19l-3 2l-5 3h-3l-10 5l-9 3l-6 1l-10 1l-5 1l-5 -1h-3l-23 -3l-49 -22l-4 -4l-3 -2l-10 -6h-8l-9 -11l-10 -3l-11 -9l-11 -7l-5 -1l-3 5l41 36l7 5l3 3l6 4l32 20l6 1 l6 7l27 13l16 4l5 5l17 7l26 1zM154 233l-17 22l-14 -14l-5 -10l-47 -61v-6l-7 -9l-10 -18l-2 -2l-4 -3l-18 -47l-3 -21l3 -3l1 -11l2 -5v-3l2 -8l10 -16l10 -8h6l4 -4l5 -4h10l2 -2l3 -1h2l3 3h3l17 1l3 -2h3l4 2l3 1l20 6l28 12l13 12l12 12l14 24l8 31v30l-3 4l1 2 l-12 33l-6 11l-4 5l-3 7l-3 1l-6 6l-17 25zM7 55l-5 3l-1 -15l9 -27l4 -2l1 1l3 6z" />
<glyph unicode="9" horiz-adv-x="366" d="M20 485l5 34l44 60l31 25l22 10l7 4l7 1l28 12l46 3l33 -9l2 -3l6 -2v-2l4 -2l6 -7l15 2l19 -12l20 -30l6 -17l2 -3l1 -2v-4l2 -7h2l8 -42v-5l1 -8l1 -5l4 -7l1 -33l1 -3l1 -9l2 -33l-3 -8l2 -6l1 -13l-17 -100l-3 -3v-6l-29 -104l-38 -71l-4 -5l-4 -7l-3 -1l-5 -11 l-12 -13l-2 -3l-5 -8l-10 -13l-28 -24h-1l-6 -5h-4l-13 -6l-4 -1l-10 -6l-12 -11l-24 -3l-11 -5l-9 1l-10 -4h-2l-2 1l-5 1l-14 -2l-3 3l-4 1h-3l-9 18l-1 1l25 -2l39 9l6 4l1 1l10 5l25 8l11 7l27 20l9 5l6 10l6 5l16 23l9 21l22 61l6 14l22 91l-2 7l11 96l-2 44l2 5l-5 1 l-11 -9l-24 -27l-37 -29l-6 -1l-4 -2l-4 1l-14 -3l-3 -2l-5 -2l-3 -2h-3l-4 1l-49 4l-17 6l-11 7l-1 1l-2 1l-3 3l-2 1v2h-2l-3 3l-2 3l-1 3l-10 21l-7 35l2 16v6l-3 3l-8 -5l-2 -1h-2l-4 1l-2 2l-4 6l-3 3l-5 9l-4 12zM47 503l3 -23l3 -1l1 -2l7 -2l11 18l2 12l6 10l2 9 l2 3l3 5l13 21l2 6l13 14l-15 4h-5l-3 -2l-4 -6l-4 -4l-2 -1l-9 -7l-4 -11l-8 -6l-7 -15l-2 -10l-3 -4zM101 500l-4 -33l4 -18l9 -27l7 -9l4 -6l4 -2v-3l4 -3l6 -4l6 -3l5 -4l3 -1l2 -1h4l8 -3h3l4 -1l5 2l19 -2l24 4l26 14l8 6l13 17l9 8l7 25l-3 29l1 4l2 4l-3 -1l2 3 l-4 4v10l1 5l-5 13l-2 3l-3 7l-3 4l-12 27l-3 -2l-9 15l-5 -2l-3 5l-2 2l-5 2l-1 5l-3 1l-5 3l-10 4l-8 5l-27 2l-2 -1l-12 -4l-1 -2l-4 1l-10 -16l-10 -9l-4 -10l-1 -15l-21 -24l-3 -10l3 -1v-3z" />
<glyph unicode=":" horiz-adv-x="219" d="M151 27l1 -11l-7 -16l-10 -2h-3l-6 -1l-42 5l-4 5l-6 41l4 14l5 6l18 8l18 -2l17 2l5 -2l8 -3l3 -3v-26l-2 -7l-1 -3zM151 341l1 -10l-7 -16l-10 -2h-3l-6 -1l-42 4l-4 6l-6 26v15l4 14l5 7l18 7l18 -2l17 2l5 -2l8 -2l3 -3v-28l-2 -7l-1 -3z" />
<glyph unicode=";" horiz-adv-x="219" d="M147 13l4 -16v-23l-3 -20l-7 -27l-1 -2l-1 -1l1 -6l-5 -11l-3 -15l-14 -20l-3 -12l-3 -6l-14 -16l-6 -6l-15 -8l-2 4l-5 2l-6 3l-1 1l-1 2l1 3l3 4l4 3l3 2l1 2l2 3l3 1l1 1l2 3l4 7l1 3l4 6v2l3 17l3 5l-1 2l2 17l3 10l-3 12l1 8l-2 12l-4 9l-2 3l-1 1l-11 22l1 4l-8 6 l-2 3l-1 3l6 16v1l5 10l9 8v9l12 17h2v1l1 1l2 -1l3 -3l24 -23l7 -8l4 -14v-5l2 -3zM144 341l1 -10l-7 -16l-9 -2h-4l-6 -1l-42 4l-4 6l-6 26l1 15l3 14l6 7l18 7l17 -2l18 2l5 -2l7 -2l3 -3v-28l-2 -7v-3z" />
<glyph unicode="?" horiz-adv-x="431" d="M403 613l3 -12l2 -11v-9l1 -10l-2 -5l2 -5l-3 -20l-3 -10l-4 -11l-11 -21l-10 -10v-2l-2 -1l-12 -18l-22 -21l-5 -6l-2 -6l-10 -7l-2 1l-1 -2l-7 -6l-19 -18l-11 -7l-19 -20l-8 -3l-30 -30l-2 -1l-6 -4l-2 -2l-1 -2v-2l-9 -8l-2 -2l-3 -2l-3 -3l-7 -4l-2 -1l-5 -1l-3 -10 l-8 -8l-1 -5l-4 -2l-3 -9v-27l5 -12l7 -8l5 -3h2l1 -2l23 -15l60 -22l41 -10l1 -3l1 -2l-4 -5l-6 -2l-26 -5l-3 -2l-6 -3l-49 5l-73 19v2l-11 4l-9 5l-5 7h-2l-5 3l-8 9l-10 17l-1 12l1 5l3 5l11 25h2l1 2l6 6l15 17l113 98l23 23l1 3l3 1l7 10l1 1l3 2l30 40l4 10l2 2l2 3 l1 3l2 8l2 1v3l2 2l2 5l5 11l2 28l-3 20l-2 2v4l-6 12l-4 4l-2 5v2h-2l-1 2l-10 11l-19 12l-11 2l-23 -2l-12 -3l-5 -1l-4 2v-2h-9l-38 -19l-1 -1l-7 -2l-9 -5l-4 -3l-5 -2l-26 -14l-12 -10l-12 -17l-5 -3l-6 -9l-5 -13l-10 -2l-7 2h-5l-3 -3l-4 -5l-5 -6l-1 -2l-3 -1l-11 7 l-3 5l-4 6v2l6 14l8 6l2 5l16 13l3 1l2 2l5 2l1 3l15 11h3l8 7l31 19l9 5v1l5 2l26 14l18 7l6 2l14 7l5 2l2 1l24 9l19 2l19 7l45 -5l36 -13l4 -5l4 -2l3 -6h2l3 -3l3 -1l6 -8l2 -3l2 -4zM253 37l4 -3v-5l-1 -2l-3 -14l-11 -12l-15 3l-16 -3h-10l-10 3l-7 11l-3 5v5l-2 2v10 l-3 3l5 26v6l13 1l8 5h4l3 1l25 -3l9 -7l1 -3l7 -7z" />
<glyph unicode="A" horiz-adv-x="429" d="M431 22l-17 -14l-9 -1l-4 -3h-2v-2l-9 -4l-6 1l-14 24l-5 3l-9 12l3 5v2l-3 5v2l-6 6l-5 16l-47 92l-7 7l-13 8l-4 4l-34 21l-25 21l-5 3l-1 2l-28 10l-12 1l-1 2h-6l-19 2l-10 -6l-11 -20l-3 -3l-2 -4l-2 -3l-5 -9l-3 -2l-1 -3l-4 -7l-4 -11l-9 -8l-5 -16l-7 -12l-4 -6 l-2 -2l-7 -17l-13 -26v-4l-6 -13l-1 -11l-7 -14l-1 -12l5 -18l-3 -11l-13 -22l-4 -2l-5 -3h-2l-6 1l-7 1l-21 32v4l2 3l4 4l3 11l8 11l4 8l3 5v3l12 29l24 41l2 1l1 1l9 28l16 21l1 7l2 1l9 8l2 11l-2 4l2 10l-9 13l-6 1l-3 3l-2 3v6l4 3l6 1l6 7h7l7 9l3 1l6 3h7l5 1l11 3 l7 1l5 10l14 12l8 13l26 28l8 15l5 -1l24 28l6 5l5 4v14l-4 21l1 14l2 1l-2 2l-2 10l-1 6v10l-1 6v8l-2 12v4l1 4l1 5l-2 2l1 22l-2 6l-1 32l-1 9l-2 5l-1 22l12 5l3 2l1 2l2 6l11 5l3 5l18 -5l7 -23l2 -26l1 -6v-6l5 -56l-1 -3v-6l1 -33l3 -13l-1 -3l2 -4l29 22v1l5 1 l31 21h6l3 1v1l2 2l5 8l15 3l-1 -13l-5 1l-7 -6l-2 -3l-3 1l-20 -24l-14 -4l-3 -4l-4 -3l-14 -16l-7 -7l-8 -7l-1 -22l-1 -4l1 -4v-10l5 -10l1 -13l2 -6l1 -7l6 -16l19 -74l10 -22l12 -35l5 -10l15 -41l7 -8l9 -6l4 -16h2v-5l3 -14l29 -51l11 -18l2 -5l-2 -4zM272 246l-6 13 l-4 19l-6 14v11l-4 2l-2 5v3l-2 1l-4 20v10l-4 14l-2 3l-2 2l-3 1h-2l-5 -5l-25 -35l-9 -6l-19 -27l-1 -3l-1 -4l15 -5l26 -6l3 -2l2 -1h1l4 1v-3l14 -6l5 -3l6 -4l18 -17l4 -2l3 1l1 4z" />
<glyph unicode="B" horiz-adv-x="469" d="M444 207l3 -10l-4 -41l-5 -19l-4 -8l-3 -2l-2 -2l-1 -2v-3l-12 -23l-2 -1l-3 -6l-18 -19l-9 -5l-7 -8l-4 -5l-5 -4l-7 -4l-13 -5l-1 -2l-17 -8l-1 -1l-3 -5l-11 -6l-18 -6l-7 -3l-8 -3l-5 -3l-17 -6l-11 1h-2l-6 -3l-64 -4l-5 -1l-20 3l-5 -1l-5 3l-27 2l-2 2l-7 2l-2 1 h-14l-23 8h-4l-12 8l-7 1l-2 3l-1 2l-16 8l-9 8l-6 8l1 5l1 2l16 14l1 3l4 2l4 3l7 -4l-2 -6v-2l1 -6l11 -12l29 -14l4 -1l10 -4h3l21 -5l3 -2h6l54 -7h12l8 -1l6 2l11 -1l32 4l5 -1l3 1l4 1l30 8l45 21l13 13l4 -2l7 13l6 5l5 5l4 6l2 2l5 9l4 10l1 13l5 3l4 50l-6 28 l-8 14l-1 1l-1 3l-5 8l-4 6l-1 2l1 3l-16 10l-10 14l-9 5l-5 1l-1 3l-2 2l-2 1h-3l-9 5l-6 2l-4 3l-1 1l-2 3l-33 11l-2 2l-17 4l-37 -1l-12 7l-2 8l11 19l2 1l1 8l4 2l5 15l6 6l1 9l3 3l1 3l3 4l5 9l2 3l8 10l7 7l2 1l15 27l3 11l-27 12l-28 10l-2 2l-3 2l-3 -1l-28 14 l-9 1l-3 2l-4 2v2l-9 4l-25 13l-13 5l-1 -2l-8 1l-5 -4l4 -13v-15l1 -3l1 -1l6 -49l2 -4l2 -28l5 -8l1 -13l3 -5l5 -3l-2 -9l4 -16l-1 -24l7 -8h5v-2l4 -10l-2 -14l1 -2l-2 -20l1 -5l-5 -44l-4 -76l-3 -11l1 -2l-1 -7l-1 -13l1 -6l-2 -19l2 -6v-12l-24 -23l-5 -1l-11 1l-7 6 l8 42l3 28v6l3 6l1 4l-1 2v3l2 74l-2 4v39l-3 11l-5 53l2 5l1 3l-2 3l-3 1l1 12l-2 3l-1 1l-1 18l1 5v2l-2 3l1 4l-1 1l-1 5l-9 30l-5 35l-2 6l-8 35v9l-4 12l-3 8l-1 1l-2 5l-1 2v6l-10 21l-2 5l-2 3l-1 2l-21 41l4 6l5 2l2 9l5 4l3 6l5 3l15 -7l26 -17v-1l2 -2l37 -23 l22 -11l48 -26l9 -6l5 -3l55 -28l31 -13l22 -6l11 -6l4 -3l6 -10l1 -3v-3l-2 -3l-17 -21l-6 -12h-1l-2 -3l-3 -3l-16 -20l-3 -8l-26 -38l-3 -14l3 -4l9 -2l19 -2l20 -6l16 -8l5 -3l5 -2l6 -3l21 -11l2 -3l3 -1l7 -5l6 -2l4 -3l13 -11l1 -2l3 -3l6 -8l5 -3l1 -1l6 -11l4 -7 l1 -3l7 -11l4 -18zM176 417l1 -9l-4 -12l-6 -8v-3l-5 -3l1 7l3 2l-2 9l1 13l4 8l-2 6l2 5l-2 2l-3 11l-10 18l2 4l11 3l4 -6l2 -4l4 -27l-1 -12l-2 -4h2zM168 374v-13l-8 -38l-3 11l6 45h2l-1 -4zM150 405h2l-1 -29l-3 2l-1 2v8l-2 -2h-1l-3 12l1 7h2l1 5h1l-2 2l-2 4l1 9v1 l-2 4l-2 2l-2 12l1 1v6l5 -1l1 1l2 -2l-1 -1l4 -10l-1 -11l4 -14zM113 461v8l-4 12l-6 8l-1 5v5l1 16l-1 5l-3 11v9l-2 4l-4 3l-5 2l-3 1l-3 -2l-1 -5v-4l2 -6l-1 -1h-1l2 -2h1l1 -4v-5l1 -5l4 -22l5 -9v-27l6 -7l3 -1l5 2z" />
<glyph unicode="C" horiz-adv-x="539" d="M537 159h3l-5 -13l-5 -10l-3 -4l-6 -5l-17 -21l-9 -9h-3l-4 -3l1 -4v-2l-1 -3v-2l-5 -3l-10 -9l-3 -2l-2 -5l-3 -1l-5 -4l-9 -3l-17 -16l-25 -19l-9 -3l-3 -3l-7 -3l-4 -2l-10 -3l-57 -26l-4 -3l-3 -1l-9 5l-5 -1l-4 -1l-1 -3l-22 -4l-45 1l-36 8l-29 13h-3l-7 4l-9 6 l-6 6v1h-1l-11 9l-5 8l-2 1l1 2l-11 10l1 3h-2l-5 8l-14 28l-7 22v15l-7 23l-12 9l-13 20l-18 54v37l2 12l1 7l6 10l3 21l4 8l2 12l4 6l1 4l3 3l10 23l5 4l2 4l5 13l9 11v1l3 3l2 4l40 52l30 32h2l9 10l23 18l16 18l9 4l20 18l41 25l44 23l5 2h2l35 12l1 1l2 1l1 -4l2 2v2 l10 4l72 8l1 -2l34 2v-2h12l4 -2l3 -6l-2 -5v-3h-3l-4 -4l-1 4l-2 -3l-4 1l-2 -5l2 2l5 -1v-3h-4l-1 -3l-4 -3l-6 -9l2 -1v-2l-2 -2l-2 -3l-23 4h-43v1h-1l-47 -6l-11 -2l-7 -1l-2 -1h-3l-8 -4h-5l-8 -2h-9l-28 -14l-5 -3l-6 -3l-26 -16l-4 -3l-2 -2l-7 -6l-24 -20h-6 l-17 -16l-3 -1l-1 -4l-3 -4v3l-1 1l-8 -7l-7 -11l-5 -6l-3 -3l-8 -10l-5 -3l-4 -14l-10 -14l1 -4l-4 -5l-17 -35l-6 -31l1 -8l-1 -6v-4l-2 -10l5 -4l5 3l2 4l15 33l4 4v2l2 1l1 4l3 6l1 6l6 12h3l1 2l1 3l1 6l22 28l34 34l7 6l2 2l6 8l10 7l6 10l15 10l2 3l16 12l2 2l7 6 l20 16l2 -1v-3l-16 -21l-6 -3l-15 -18l-16 -13l-12 -14l-4 -6v-2l-3 -2l-18 -23l-2 -2l-5 -6l-4 -5l-3 -5l-4 -6l-22 -29l-6 -12l-6 -18v-1l-1 -4l-2 -9l-5 -5l-10 -34l-1 -1l-2 -4v-6l-5 -23v-22l-4 -19l3 -62l4 -25l5 -11l2 -2l6 -12l3 -3h-1v-10l2 -3l6 -3v-2h2v-4l2 -2 l2 -5l7 -12l15 -11l2 -2l3 -5l1 -2l11 -2l8 -6l23 -10h11l9 2l7 -4l34 -1l39 6l2 3l15 3l28 11l12 6l6 1l56 28l16 17l3 4l6 3l13 10l15 16l1 2l2 1l4 1l5 4z" />
<glyph unicode="D" horiz-adv-x="465" d="M432 173l-2 -11l-6 -15l-6 -9l-10 -19l-18 -26l-3 -2v-2l-12 -15l-22 -16l-1 -3l-1 -2l-28 -17l-5 -2l-2 -2l-6 -5l-16 -11l-24 -10l-4 -1l-3 -2l-6 -3h-3l-2 -2h-1l-1 -2l-33 -13l-9 -2l-1 2l-12 -6l-12 -3l-1 -2l-8 -2h-6l-4 -1l-8 2l-6 -2l-6 -1l-16 -2l-3 3l-6 1 l-7 -6h-4l-1 2l-2 1l-14 3l-10 5l-1 1l-5 1l-6 3l-4 3l-6 2l-2 9l10 9l6 3l9 -8l25 -8l22 -3l2 6l-2 5l-3 12l-5 34l1 11l-5 37l2 18l-6 34l-2 32l4 13l-5 34l-1 2l-1 1v5l-2 12l4 1l5 -2l5 -8h7l1 2h1l2 7l-2 23l2 13l-2 2l-2 3l-1 2l-1 10l1 3v20l-1 6l-2 1l-1 13l-4 21 l2 1l1 -2l3 4l-4 36l-4 6l-3 40l-6 25l-1 11l-1 5v2l2 2l-9 33l1 11l-5 17l-2 1h-2l-4 4l-1 2h-5l-2 2l-3 -1l2 -6l-2 -13h3l2 -4l2 -2l4 -44h-3l3 -3l2 -4v-5l3 -11l-1 -9l2 -8l1 -33l-2 1l5 -14l-5 -5l-7 14v10l-1 2l-2 25l1 9l-2 4v8l-2 4v1l-1 8v3l-1 7l-2 4l-2 1l2 25 l-14 24l-6 24v5l-1 2l-6 8v5l-7 7v8l9 10l4 2l3 1l5 1l6 6l5 2l5 1l2 1l4 -1l2 -2l3 -5l14 -15l3 -6l37 -26l6 -5l12 -8l7 -4l5 -4l4 -1l24 -17l12 -2l56 -24l2 -2l6 -2h2l2 -1l24 -11l7 -6l11 1l2 -3l2 -2l6 -2l13 -6l5 -7h8v-2l5 -3l20 -2l11 -28l2 -3l3 -7l6 -20l9 -18 l4 -14l2 -2l1 -2l1 -3l1 -10l3 -9l1 -2l10 -43l4 -42v-5l2 -9l-1 -7l-1 -11v-14l-7 -36zM113 284l1 -28l-3 -2l-1 12l-2 -2h-1l-2 6l-1 8l-1 1l-2 3v11l1 3l2 1l3 1h1v-3l2 -2v-7zM106 336l5 -11l-5 -22l-2 1v4h-3l-2 4l2 10l-6 16l-3 18l2 7l-2 6l-2 19l2 3l3 -1l2 -6l2 -1 l4 -11l1 -5l1 -3l-3 -14l3 -10l1 -1v-3zM392 169l5 54l-1 36l-6 35l-9 28l-2 8l-2 3l1 10l-6 8v12l-4 3l-3 9l-3 5l-3 11h-2l-1 7l-3 7v5l-2 4l-6 5l-4 8l-1 5l-5 5l-1 2l-5 2l-2 1l-11 2l-7 7l-10 3l-1 3l-3 1l-23 12l-13 1l-4 5v-2h-2l-5 3l-12 3l-11 8l-15 5l-19 9l-20 6 l-16 8l-9 6l-11 2l-19 7l-5 -1l-1 -4l1 -8l7 -24l1 -25l3 -11l10 -66l-2 -15l4 -18l1 -44l5 -3l-1 -14l1 -4l1 -9l2 -6v-4l2 -45l3 -9l2 -4l5 -5l4 4v2l-1 3l2 1l1 16l-2 17l8 75l1 31l-2 11l2 20l-2 30l-4 24l1 6l-3 12l18 9l14 4l6 -2h6l9 -26l1 -5l-1 -80l-4 -37l1 -5 l-5 -18v-15l-4 -28v-12l-3 -14v-11l-6 -40l-3 -6l1 -5v-2l-2 -7l-2 -6l-3 -16l-3 -46l-5 -12v-24l-2 -18l2 -32l-10 -9l-2 1l-3 -3l-4 -1l-2 -1l-5 -3l-9 -3l-1 -6h31l55 15l5 2l7 4l27 11l29 15l34 27l1 2l7 4v2l4 5l1 1l3 2l18 23l2 6l1 2l8 8l9 15l8 25l1 9z" />
<glyph unicode="E" horiz-adv-x="406" d="M412 633l-5 -14l-6 -8v-19l-20 3l-3 2l-1 1l-7 2l-5 -1l-4 -1l-50 -7l-32 -13l-20 -12l-5 -1l-30 -18l-8 -7l-10 -5l-15 -13l-2 -3l-3 -3l-3 -2l-8 -6l-8 -5l-5 -2l-5 -6h-5l-13 -15l-3 -5l-2 -3l-4 -3l-3 -4l-2 -4l-3 -5l-1 -6l-4 -5l-5 -2h-3l1 5v8l12 21l6 7l1 5 l14 16l4 3l2 3l5 8l3 1v1l16 15l5 2l4 4l16 11l2 1l7 8l2 2l5 3l47 27l18 8l10 5l5 4l3 1l26 14l33 11l6 4l6 2l4 2l9 3l20 2l5 -1l2 -2l2 -7h3zM391 150l1 -4l-2 -10l-1 -6l-2 -5l-6 -8l-8 -19l-7 -7l-11 -7l-15 -16l-11 -7l-2 -4l-6 -6l-5 -1l-27 -18l-5 -2l-2 -2l-5 -2 l-4 -4l-43 -18l-41 -13h-54l-46 12l-25 12l-19 16l-4 4l-3 2l-3 7l-3 2l-2 5l-8 11l-1 10l-4 3v1l-3 9l-3 22l4 38l8 21v6l9 19l20 33l17 21l9 5l9 16l14 11l3 -1l24 24l48 33l7 4v1l-6 2l-26 8l-16 12l-5 6l-3 5l-4 4l-2 4l-5 19l8 31l6 7l1 4l2 1l2 4l5 3l3 4h1l1 6l7 11 l4 1l3 2l2 2l2 4h6l20 17l10 5l4 3l5 3l16 8h7l-1 -7l-12 -5l1 -4l-10 -4l-19 -19l-5 -6l-1 -2v-3h-3l-6 -14l-2 -4l-1 -5v-9l1 -5l2 -7l3 -6l-1 -5l1 -3l5 -5l13 -12l19 -9l10 -2l7 -4l25 -4l21 4l1 -2l2 -2l8 -23l-4 -7l-1 -3l-7 -5l-13 1l-39 -9l-35 -15l-38 -29l-14 -8 l-2 -3l-5 -5l-3 -4l-13 -14l-12 -9v-5l-11 -12l-11 -21l-4 -10l-8 -22l-3 -23l1 -15l2 -11l3 -6l3 -13h2l1 -5l3 -6l4 -7l4 -4l5 -7l17 -17l12 -5l2 -3l4 -4l-1 -6l6 -1l3 1h2l1 -1h2l11 -5l15 -4l4 -2h9l4 -3l14 1l11 -3l10 2l6 1l2 1l26 5l3 4l16 6h7l16 14l8 4l32 31l6 8 l3 3l8 10l16 28l8 5l3 7l7 7z" />
<glyph unicode="F" horiz-adv-x="453" d="M485 584l-36 11l-3 -4l-18 -2l-2 4h-8l-13 3l-5 1l-1 1l-38 1l-62 6l-2 -1l-2 1l-38 -2l-46 -12h-6l-12 -4l-2 -3h-1l-31 -14l-5 -3l-4 -4l-34 -30l-6 -13l-10 -12l-14 -39l-3 -18l-1 -3v-2l2 -6l1 -2l1 -11l8 -21l1 -1l2 -3l7 -13l4 -3l3 -1v-4l3 -4l5 -12l8 -2l1 -2 l5 -3l8 -6l4 -4l6 -9v-5l-5 -9l-14 7l-2 -5l-15 6v7l-4 -1l-5 2l-10 7l-18 15l11 3l-16 10l-7 7l-1 3l-2 2l-2 1l-1 -1l1 -3l-5 1l-10 17l-1 6l1 1v4l-1 3l-4 2l-1 12l-1 4l-3 3l-3 2l-3 13l1 19l6 21v8l1 4h3l9 24l3 3l6 8l6 4l2 4l6 15l14 2l4 5l7 5l-2 1l3 3l14 9l3 1h2 l5 5l18 11l14 2l3 2l12 6l23 6l3 -1l27 10l18 2l3 -2l4 2l5 4l8 1l5 2l6 -1l25 2l14 -2h3l28 -4l13 1l1 -2l11 -2l14 -4l32 -4l3 -1l4 -2l4 -3l4 -1h14l12 -4l10 -3l8 -4l10 -1l4 -4l7 -10l1 -2l2 -3l1 -2l-3 -3h-1l-3 1zM426 307l24 -9l-5 -8l-6 1h-15l-4 2l-5 -3l-1 3 l-10 2l-33 -2l-2 2h-4v2l-12 -7l-2 2h-8l-3 -1l-19 -1l-40 -13l-8 -5l-3 -11l3 -31v-12l1 -12l-2 -22l2 -16l-2 -11v-27l1 -4v-7l-1 -36l-1 -6l-1 -2l-1 -46h1l-1 -3l-1 -2v-4l1 -8v-4l1 -8l-3 -4l-5 -2l-3 -4l-1 2h-6l-6 1h-4l-6 -3l-10 1l-15 8l-1 11l1 4l-1 7l-2 12l3 14 l-5 12l7 12l-1 5l-2 3l-3 24l4 29l-1 16l3 23l-4 11l2 29l-1 4v2l3 4l-1 2l-2 2l-1 20l-3 3l-3 1l-6 -1l-2 -3l1 -1l-5 1l-6 -4l-14 -11l-3 -3l-4 -3v-1l-5 -12v-5l-1 -1l1 -6l-1 -3l-4 -6l-7 -6l-16 8l-11 1l-3 17l-2 4l-2 2l-2 1l8 14l16 11l5 10l21 9l43 24v19l-22 4v1 l-6 2v10h-7l-4 3l-2 4l3 4l3 -1l3 -2l22 -14h5l2 -1l4 1l-1 13l2 16l-2 5l3 22l-2 5l-1 2l1 2l1 3v13l4 23l19 5l5 2l6 -2l14 5h3l2 -2l2 -3l1 -5l6 -7l2 -16l-1 -18l1 -16l-2 -19l2 -25l-1 -5l-1 -2l1 -4l4 -3l3 -3l6 1l59 10l62 1l2 -2l4 1l9 -1l5 -2zM94 546l-6 3l-7 -8 l-3 -1l-3 -3l-8 -16h3l2 3h2l2 -1l12 9l6 2l1 5v2zM95 390l-6 2l-3 6l-3 2l-9 9l-4 22l-6 13l-2 7l-3 2l-2 1l-2 10l-1 3l-1 -3v-16l6 -2v-4l-2 -6v-6l-1 -3l2 -12l5 -5l5 -10l2 -3v-4l6 -9l1 -2l7 -3l6 -1h2l5 1l1 5l-1 4zM70 506l5 11l-4 -2l-7 -9l-3 -3l-8 -21l-1 -7 l1 -4l2 -2h2l8 7l-2 7l4 9l-1 2v2l1 5z" />
<glyph unicode="G" horiz-adv-x="536" d="M534 612l3 -17l-9 -24l-4 -21l-10 -8l-13 -3l-8 7l-4 7l-4 5l-6 4h-4l-1 2h-4l-6 -3l-15 4l-23 -11l-12 -1l-6 1l-3 -1l-4 -1l-11 -3l-6 -4l-2 -2l-4 6l-3 -2l-20 -8l-12 -2l-7 -8l-12 -3l-38 -28l-3 -4l-12 -4l-26 -24l-10 -6l-8 -11l-8 -7l-5 -9l-29 -30l-8 -12l-5 -13 l-1 -1l-1 -2l-2 -1l-5 -8l-2 -1l-5 -10l-3 -14l1 -21l11 -18l3 -12l5 -2l10 -8l6 -5l3 -3l5 -4l21 -11l12 -4l7 -1l8 -1l34 -3l60 3l61 19l20 16l5 2h2l8 -2l-2 5l6 2l13 9l3 -1l6 4l-1 2l17 14l6 2l1 -3h6l4 -2l3 -6l1 -17l7 -21l-1 -19l1 -14v-9l-1 -5l-1 -2l1 -15l-1 -6 l3 -12l3 -47l-6 -10l3 -5l-1 -6l2 -5l-6 -22l-5 -5v-19l-14 -41l-24 -41l-22 -30l-35 -33l-23 -15l-6 -3l-4 4l-20 -16l-2 -1h-2l-2 -3l-27 -4l-2 -4h-6v-2l-47 -8l-1 2l-4 1l-2 -1l-6 -1l-4 -1l-13 -1l-6 1v3l-8 -2h-12l-12 5l1 3l-1 1l-8 -2l-5 1l-10 3l-5 2l-9 3l-2 1 l-4 1l-4 2l-3 3l-4 5l-3 1l-7 6l-7 2l-3 4l-5 4l-16 12l-10 10l-1 2l-4 2l-4 4l1 3l-10 2l-8 9l-6 3l-6 4l-24 37l-4 7v2h1l-3 4l-2 2l-6 12l-4 25v3l3 8l7 14h7l3 -3l2 -19l14 -40l2 -4l2 -5l31 -34l5 -4l2 -3l5 -3l2 -1l4 -7l5 -6l4 -1l6 -2l9 -7l4 1v-3h5l8 -7l10 -4 l4 -1l4 -2l5 -2l2 -4l14 -1l11 -7h7l4 -2l4 -1h4l15 -2v-2l4 -1l3 -1h13l3 -2l3 -1l10 2l49 2l39 11l23 12l12 9v2l15 11l6 7l1 3l1 2h2l9 15l13 32l5 6l6 21v10l9 42l-1 23l6 21l1 8l-1 7l1 8v2l-1 2l-5 30v4l2 4l3 4l-5 25l-5 10l4 6l3 -1l2 2l-4 10v4l-4 6h-2l-6 4h-7 l-16 -16l-13 -6h-4l-9 -5l-10 -5l-9 -3h-14l-2 2h-2l-7 -2l-3 -2l-5 -5l-33 -10l-38 -4l-2 2l-15 -4l-2 -2h-26l-14 3l-3 5l-20 -3l-17 2l-39 17l-15 12l-2 5l-1 1l-7 9l-4 13l-2 3l-3 8l-2 7l3 10l-1 3v3l1 9l5 20l7 16l19 40l3 1l2 3l1 6l9 13l5 3v4l3 4l7 5l3 8l2 3l5 3 l5 9l42 46l25 19l10 9l2 3l16 15l7 1l8 10l11 7l5 1l6 5l1 1l14 9l4 2l3 2l4 1l9 7h7l11 9l15 7h3l3 -1l26 14l17 3l3 5h4l5 -14l-15 -10h-3l-6 -2l-29 -12l-14 -10l-8 -1l-32 -18l-20 -18l-12 -7l-6 -7l-6 -3l-12 -10l-5 -3l-10 -10l-1 -2l-3 -2l-1 -5l3 -1l42 29l10 5 l10 8l114 61l5 1l2 3l10 3l4 2l5 2l43 10l12 -2l8 1l16 -2l1 -2zM476 199l1 -4l3 1l1 4l2 4v13l2 4v8l2 3l-7 37l-2 2l-2 7v12l-4 3l-20 -10l-1 -3h-1l9 -4l4 1l2 -2l2 -3v-7l2 -12l-2 -8l2 -7l6 -7v-3l-1 -3l1 -8l-3 -4v-2l-1 -3l4 -4zM484 176h-5l1 -6l-2 -4l-1 -4v-4 l-2 -7v-5l2 -3l3 -1l5 2v11l-1 14v7z" />
<glyph unicode="H" horiz-adv-x="707" d="M753 496h1l-9 -6l-4 -4l-24 -14h-1l-6 -1l-2 -1l-4 -1l1 -3l-38 -22l-36 -18l-15 -11l-46 -23l-5 -4l-12 -6l-7 -8l-2 -11l1 -6l-2 -15l-1 -1h-1l-1 -2l-1 -1l1 -6l-3 -36l1 -2l1 -4l-1 -2l-1 -3v-39l2 -3v-44l15 -70l2 -4l2 -11l6 -20l4 -5l9 -23l3 -3l11 -19l11 -9 l3 -4l4 -1h3l2 -3v-5l-7 -10l-7 -1l-7 -10l-16 -6l-10 5l-22 24l-25 46l-2 5l-3 7l-2 6l-2 3l-5 21l1 5h-2v2h-2l-2 18l1 1l-1 9l-2 30v9l-1 2l-5 65l4 33l-1 36l3 17v1l-3 7l-1 2l-14 -7l-11 -10l-12 -3l-9 -8l-12 -2l-6 -4h-4l-2 -1l-6 -2l-1 -2l-4 1l-20 -15l-2 -3h-2 l-7 -4l-10 -8l-11 -13l-7 -3l-15 -53l-2 -4h-1l-5 -15l-3 -10l-1 -4l-6 -23l-5 -12l-9 -34l-7 -15l-5 -23l-6 -11l-9 -34l2 -12l-3 -2l-1 -3l-2 -3l-15 -11l-8 -14l-19 -10l-6 -6l-5 1l-3 17v11l10 23l14 44l5 5l1 14l5 6l3 9l4 8l3 26l-5 5l-27 11l-2 4l-3 1l-10 14l3 19 l7 17l3 1l4 7l12 8l12 16l6 4l10 3l2 -1l2 -2l4 4l2 7l3 2l6 6l7 4l10 9l3 10l3 16h-1l-1 1l2 3l1 29l2 8l1 2l2 1l-1 14v3l-1 3l3 8v9l-7 29l-6 10l-5 14l-5 9l-14 8l-28 3l-12 -4h-15l-6 -3h-3l-5 -2l-2 -3l-10 -4l-21 -16l-9 -5l-10 -8l-8 -5l-1 -2h-2l-5 -4l-7 -6l-4 -4 l-1 -2l-1 -3l-2 -1h-2l-6 -10l-5 -5l-2 -1l-3 -1l-17 -22h-5l-30 -33l-1 -2l-4 -2v-2l-3 -3l-3 -5l-17 -23l-13 -26l-6 -23v-10h-2l2 -20l5 -9l5 -1v-6l3 -7l-5 -8l-10 -2l-7 2l-3 1l-2 3l-3 1l-9 4h-2l-10 7l-7 3v11l5 12h1v3l5 4l4 15l7 7l10 20l12 16l4 6l5 8l4 3l3 4 l8 11l7 7l18 19l2 3l1 3l9 12l2 4h4l2 3l1 1l2 3l22 22l2 -2h1l1 2l3 3l3 2l3 7l2 2v2l3 3l69 53l24 15l2 2v1l5 1l13 10l55 21l2 -2l9 2l16 -1l14 -4l6 -4l3 -3v-2l9 -3l5 -6l7 -15h3l4 -7l4 -20l1 -22l-4 -24l-1 -15l-14 -59l3 -6l4 3l12 6l3 1l7 4l4 3l32 17h6l3 2l1 2 l1 4l5 1l26 13l5 3l3 1l-1 1l2 5l9 3l17 11l-1 5l-1 1l4 19l6 82l-3 4l3 4l1 3l6 48l3 44l3 1h-2v3l7 8l17 13l2 1l9 9l9 5v2l2 5l3 2l1 3h2v1l11 4l1 -2l5 -1l3 -6l-7 -29l-1 -22l-5 -10l-1 -10l-1 -6v-3l-3 -16l-1 -2l-2 -10l-1 -12v-2l-2 -2l-1 -2l-6 -41l-2 -7l-1 -2 l-6 -36l1 -16l4 -1l15 6l8 6l12 1l3 4l7 2l6 4l12 6h7l2 3l15 6h3l5 6l8 4l11 5l7 3l5 2l11 4v1l8 1l8 3l33 16zM296 210l2 7h-4l2 1l-2 2l-3 -1l-6 -5l-12 -14l-2 -2l-2 -3l-1 -4l1 -2l3 -4l1 -2h3l1 -2l2 -1h3l2 1l2 2l6 13l2 1h3z" />
<glyph unicode="I" d="M436 402l3 -14l-2 -11v-11l-2 -4h2l-4 -52l-1 -6l2 -4l-5 -18l2 -10l-2 -14l-2 -13l-3 -5l-1 -22l-2 -10l-2 -2l-1 -11l-8 -12v-13l-5 -11l-4 -24l-8 -10v-5l-12 -32l-8 -9l-5 -11l-6 -4l-19 -27l-5 -3l-6 -4l-4 -4v-1l-22 -15l-17 -4l-4 -4v-2l-4 -3l-2 -2l-51 -22v2 l-20 -6l-6 -1l-3 -1l-24 -3l-32 3l-9 4h-4l-6 1l-15 5l-2 3h-4l-10 5l-7 12h-6l-20 14l2 2v2l-4 -1l-4 3l-10 9l-3 5l-5 6l-1 4h-6l-6 9l-1 7l-1 3l-5 6l-5 4v2l-2 4l-3 3l-10 18l-6 16v3l3 4l5 -1l5 -10l9 -9l1 -3l4 -10l3 -1l3 -8l12 -8l2 -5l2 -2l6 -8l3 -2l4 -1l12 -7 l2 -3l1 -3l1 -1v-2l4 -1l5 -4l8 -1l3 -2l5 -3l5 -2l2 -2l4 -1l3 -3l3 -2l5 -4l3 -1l3 2l9 -4h11l18 -5h12l6 1l11 -2h13l6 2l4 -2h4l17 7l22 3l28 12l5 3l6 3l13 7l4 5l6 4l4 3l2 1l3 1l1 2l3 3v2l19 25l14 31h2l2 4l-1 2l13 44l3 41l3 8l1 9l-1 2l2 3h1l1 36l-2 52l3 6h-3 l2 18l-4 3v17l-3 10l2 1l1 2l-2 3l-4 19l-5 2l1 19h-2l-6 38l-15 63l-5 12v11l3 3l1 3l13 8l7 -9l2 -6l9 -5l4 -23l3 -9l-1 -2h2l9 -39h1l3 -7l2 -4l-1 -8v-2l1 -3l1 -7l11 -42v-24l-3 -6h1l6 -14l-1 -2l1 -3l4 -3l3 22l-1 4v10l-5 44l-3 13l3 1l-4 2l-2 14l-4 9l-1 5l1 8 h-2l2 4l-2 7l-2 3v5h-2l-3 19l-2 5l-2 8l-6 11l-3 23h-2l-3 6l-2 6l-1 2l2 1v1l2 5h3l2 -2l17 3l-3 -24l1 -5v-2l1 -1l4 -8l5 -6h1v-11l7 -12l1 -12h1v-8l3 -4l2 -19l3 -7v-8l4 -10l-2 -24l2 -5zM418 596l2 -1l-1 -4l-3 -4l-3 -2l-6 -2l-6 -3l-15 -3l-13 -5v1l-3 -2l-12 -1 l-10 -3l-35 -10v-3l-27 -8l-7 -1l-6 -1l-1 -2l-39 -6l-2 -1l-5 -2l-1 -1l-4 -1l-4 2l-3 1l-6 -3h-1l-9 1l-4 -1l-9 1l-7 -2l-44 1v2l-6 -1l-6 4l-6 2l-11 2l-2 1h-13l-8 5l-10 5h-5l-26 14l-1 2l-3 5v6l18 12l7 2v2l12 13h3v3l21 2l4 -5l30 -18l8 -4l39 -3l3 -1l7 1v-3l2 -2 l7 -2l21 -1l4 -2l8 1l2 -1l35 -1l6 3l3 1l32 1l50 9v1h-3l-2 4l-3 -1l-1 1l-5 4v4l2 1l3 2l2 1v4l1 8h4l15 -10l1 -2l5 -3l2 -4l-2 -2l-1 -3l36 7z" />
<glyph unicode="J" horiz-adv-x="470" d="M437 622h5l-2 -25v-45l-2 -16v-23l-2 -6v-2l-6 -3l-3 -10v-10l4 -6l3 1l2 -2l-4 -38l1 -32l-1 -7l-1 -2l-4 -24l1 -2v-30h2l-5 -58l3 -11l-4 -64l-3 1v-3l1 -6v-22h-4l-1 -1l6 -4l1 -20l-2 -47l2 -30l-1 -27l-1 -2l-1 -4l1 1l2 -1l-1 -33l-1 -7v-5l2 -4l-4 -104l-5 -12 l-5 -6l-3 -9l-5 -5l-4 -5l-8 -9l-20 -10l-7 -1l-4 -2l-12 -2l-5 2l1 2l-3 1h-2l-3 -1l-8 2l-1 1l-15 3l-7 2v3l-24 6l-7 5l-2 1l-2 3l-11 1l-29 17l-6 6l-1 3l-9 4l-11 11l-4 1l-5 6l-3 3h-10l-8 12l-4 -1l-12 12l-2 3l-3 3l-8 5l-22 23l-13 16l-4 2l-3 1l-4 12v4l-4 5v-9 l-11 11l-7 21h-4l-2 -2l-4 7l1 3l-2 3h-1v-2h-4l-13 19l1 3l2 3l-4 -1l-2 2l-3 7l-1 -1l-3 1l-13 26l-18 27l-2 6l1 1l1 2l-3 3l-8 9l-9 22l-1 14l2 3l1 3l5 5l9 5h2l5 5l11 8h4l3 -1l2 -4v-25l-2 -4l2 -3l5 -26l1 -2l2 -7l4 -6l3 -3l11 -32l6 -9l-3 -5l6 -5l1 -4l4 -5l3 -4 l3 -5l4 -7l5 -8l6 -7l1 -2l2 -2v-2l7 -5l2 -5l6 -3v-5l7 -4l9 -11v-2l1 -1l4 -2l26 -27h3l1 -16l4 -3l3 -1l1 1l3 2h3l3 -1l1 -2l30 -25l5 -2l3 -2l2 -1l2 -5l9 -4l2 -3l3 -1l1 -4l13 -5v-1l15 -8l6 -6h6l1 -2l8 -5l15 -7l8 -2l2 -1l13 -5l30 -7l19 -1l14 19l1 10v3l3 10 l1 27l-1 4l-1 3v41l2 5l-4 46l2 59l-2 26l2 5v7h3l-6 14l1 15l1 6l-1 1v14h-2l-1 5v72l1 4v4l-5 57l3 4l-2 12l1 6l-1 5l-1 55l3 3h-4l-1 8v81l-2 7v1l1 2h1l3 11l2 28l-1 2v1l-2 23l1 18l-3 -2l-8 -1l-3 -2l-20 -8l-9 2l-12 -6l-20 -3v-2l-75 -8l-3 -3l-2 -3l-1 -8l1 -2 l-3 -33l2 -10l3 -3v-29l9 -25l8 -29h2l3 -3l2 -9l-1 -3l1 -4l2 -2l4 -2l1 -7l-2 -4l-9 -7l-8 -3h-4l-3 5l-1 2l-4 4l-94 164h-3l-2 2l-15 34l-4 6l-1 1l-2 1l-1 1l-2 6l-4 4l-15 20l2 2l1 6l7 9l13 9h4l6 -5l9 -4l3 -1l2 -2l5 -4l1 -2l2 -1l3 -1l30 -14l11 -3l4 4v6l20 26 l12 -1l4 1l1 -11l3 -10l-3 -13v-4l3 -9l1 -1l30 -5h4l9 -3l41 3l44 7v-2l2 1v1l23 8l1 7l8 5v2l12 8l10 2l11 8l7 4l3 1l6 -3l1 -1l1 -2zM408 535l-2 1v4l3 6v5l-7 2l3 -20l-2 1v-2h1v-6l-4 -8l2 -11l2 -1l1 -6v-2l-1 -2l-2 -10l2 -4l2 -2l2 11l1 4v2l-2 7l-1 1l1 10l2 15v2 zM194 487l5 16l-13 53l3 2l-7 3l-3 -4v-4h-3l-1 7l-1 3l-4 2l-28 9h-2l-4 -2l-1 -6v-3l9 -18v-2l4 -2l2 -4l4 -11l6 -3l3 -7h2l12 -25l2 -3v-2z" />
<glyph unicode="K" horiz-adv-x="494" d="M493 595l-9 -4l-6 -8l-4 -5l-4 -4l-3 -5l-12 -9l-11 -17l-5 -2l-5 -1l-9 -9l-3 -8l-4 -6l-6 -8l-19 -20l-3 -4l-4 -1v-3l-10 -9l-6 -8l-6 -6l-9 -16l-14 -14l-5 -2l-10 -10l-2 -12l-9 -7l-12 -29l-11 -11l-2 -3l-4 -5l-1 -3v-2l-12 -8l-2 -4v-3l-10 -14v-19l2 -4l3 -5 l5 -8l3 -10l3 -6l4 -1l8 -9l7 -9l3 -2l4 -7l8 -10l13 -11l3 -7l9 -7l2 -6l3 -3h3l7 -7l5 -3l2 -2l5 -7h2l7 -7l4 -5l3 -2l5 -9l-1 -5h9l3 -6l2 1l15 -19l1 -5h2l2 2h2l2 -3l56 -63l3 -6l3 -1l18 -17l2 -4l6 -5l11 -9h2l4 -4l-1 -2l-3 1l-10 -8l-12 2l-3 3l-3 1l-2 2l-11 1 l-32 23l-28 11h-6l-6 4l-9 5l-3 9l-20 15l-2 1l-7 8l-7 5l-2 3l-3 2l-3 5h-1l-2 3l-4 3l-5 3l-2 3l-6 7l-12 8h-1l-3 5l-69 61l-6 7l-4 4l-5 6l-3 1l-1 2l-3 3l-8 13l-7 5l-5 1l-5 -1l-9 -8l-1 -9l-7 -8l-2 -3l-3 -3l-4 -7l-2 -4l-4 -5l-8 -8v-2h2l-12 -14l-8 -15l-5 -4v-5 l-17 -19l-27 -41l-15 -16l-7 -16l-8 -7l-24 -24l-9 -13h-1l-3 -2l-4 1l-5 -1l-4 5v8l5 6l-1 6l14 17l3 6l2 3l3 6l5 18l4 8l1 4l10 39l1 11l5 5l-2 14l5 5l-1 24l4 21h2l1 8l-1 2v2l3 8v2l-1 2l-1 4l1 21l8 54l-1 49l1 7l-2 6l-4 41l-6 16l-2 9l1 6l-2 3l-3 9l-12 31l-14 26 l4 11l-1 2l2 1h1l2 3l6 11h6l-4 11l4 19l4 11l-1 14l4 -1l3 -1v-2l15 -19l2 -6h2l14 -24h3l29 -60l6 -22l1 -14l3 -11l2 -1l-1 -15l2 -10l-2 -9v-35h-2v-16l-5 -18v-17l-3 -7l-3 -32l-8 -27l-1 -14l-6 -11v-10l-5 -11v-2l-2 -8l-4 -9v-5l-1 -8l-4 -12l-3 -3l-7 -24l-1 -9 l-1 -5l-1 -2l1 -5l2 -2l8 14l2 1l3 4l4 9l9 9l4 8l2 6l2 4l3 2l6 10l7 12l5 14l3 2l2 3l1 1l1 3h2l1 5l15 17l4 3l2 8l16 23l-6 15l-1 25l17 23l39 38l1 3h3l10 12l61 61l4 6h4l1 6l1 1l34 36l3 4l3 1l27 28l64 63l33 28l9 7l3 5l7 -2l2 -1l2 -4l-1 -2z" />
<glyph unicode="L" horiz-adv-x="504" d="M508 157l3 -3l-2 -8l-7 -17l2 -6l-4 -5l-5 -15l-6 -11l-1 -7l-3 -7l-4 -7l-5 -7l-2 -3l-1 -3l-26 -31l-16 -14l-4 -8l-3 -3l-13 -10l-3 -5l-3 -2l-3 -1l-12 -9l-19 -10l-20 -5l-4 -4l-17 -6l-38 -9l-28 -2l-10 4l-15 1l-56 18l-14 9l-5 1l-5 4l-2 2l-6 2l-28 16l-30 20 l-11 2h-16l-4 2l-1 8l1 4l3 5l15 22l11 28l5 23l5 8v5l3 6l11 28l1 5l8 24l3 4l1 3l11 36l2 1l12 35l1 5l2 5l19 58l12 59l5 8l1 1v3l3 11l6 34l-1 5l8 31l-3 1l3 3l1 15l-5 2l-3 -3l-2 -3l-8 -8l-3 -11l-8 -9l-5 -13l-26 -37l-15 -24l-9 -22l-9 -9l-8 -16l-14 -16l-3 -7 l-2 -2l-10 -15l-3 -5l-4 -6l-11 -10l-17 -4l-6 2l-2 -2l-11 -2l-12 12l33 34l2 4h1l6 8l3 1l5 5l18 19l33 44l4 8l3 2l-1 2l3 5l22 39l4 5l2 4l10 16l30 53l21 39l3 10l2 4l1 3l12 37l42 34h2l10 -13l13 -24l3 -12l3 -2l1 -3l-1 -6l-11 -32v-5l-6 -14l-1 -9l-4 -9l-2 -2 l-3 -4l-7 -19l-3 -6l-3 -4l-2 -5v-8l-1 -4v-4l-9 -14v-2l-2 -7l-8 -21l-8 -13l-6 -32l-2 -1v-3l-4 -8l-10 -21l-3 -16l-11 -20l-10 -43l-22 -52l-4 -12l-16 -32l-3 -21l-12 -29v-2l-2 -3l1 -3l-7 -11l-8 -33v-4l6 -3l20 -13l10 -6l1 -1l2 -1l2 -2h4l7 -6l15 -7l4 -3l5 -3 l36 -19l1 1l9 -3l11 -6l19 -5l5 -2h3l6 -1l40 -5l33 4l32 11l40 21l6 9l6 2l7 10l3 4l7 7l13 26l2 9l3 5l1 3l3 5l4 19v12l5 7v3l5 7l3 -1l1 -1l7 -1h2z" />
<glyph unicode="M" horiz-adv-x="729" d="M749 32l15 -29l-1 -10l-6 -1l-5 2l-5 4l-6 11l-10 3l-1 5l-9 9l-14 5h-7l-7 3l-1 2l-4 1l-7 6l-7 2l-3 2l-2 2l-2 3l-5 4l-2 3l-3 6l-6 16l-7 10l-2 8l-3 6l-5 11v7l-10 16l-6 20l-1 17l-3 6l-4 38l-2 4v6l-3 20l-14 -12l-2 -1l-1 -7l-1 -3l-17 -37l-9 -13h-3v-1l-7 -17 l-12 -14l-3 -10l-6 -2l-4 -5l-4 -6l-3 -7l-9 -6l-1 -2l-1 -3v-2h-2l-8 -7l-3 -5l-2 -2l-14 -11l-13 -4l-10 -11l-15 -10l-2 2l-2 -1l-17 4h-3v2h-2l-6 11l-4 16l3 20l-2 18l5 20l5 5v4h-2l3 25l3 3v1l3 4l2 2l-4 9l1 2l3 7l9 25l-1 5l3 3l15 49l4 8l2 2v4l2 4l3 8l7 9v8l3 4 l1 7l13 31l2 7l3 4l1 8l2 2l1 4l7 19l-2 4l-3 3l-4 -1l-9 -17l-3 -11l-20 -26l-4 -6l-1 -5l-7 -12l-1 -2l-4 -6l-4 -1l2 -2l-20 -28l-7 -12h-3l-5 -6l-18 -32l-7 -17l-19 -23v-1l-5 -6l-2 -5v-1l-18 -26l-3 2h-3v-2h2l-1 -5l-3 -6l-1 -3l-6 -3l-5 -5l-1 -5l-19 -31l1 -2 l-16 -16l-2 -6l-9 -8h-4l-2 -2l-4 -13l-4 -2l-1 -3l-4 -8l-7 -4v-3l-2 -3l-3 -5l-16 -18h-2l-1 -3l-4 -6l-3 2h-2l-3 -10l-1 -2h-4l-2 -1l-3 -2l-2 -4l-5 -3l-13 -7h-2l-5 -2h-1l-3 1l-1 2l-2 5l-1 4l5 4l2 6l2 11l4 3l2 6l7 8l18 45l5 6l2 4l5 4l8 26l33 55l-1 5l19 37h3 l-1 4l4 1l-1 2l7 16h2l32 62l9 14l7 15l1 4l2 6l3 14l9 6l2 12l3 4l3 7l2 3l5 9l11 23l-2 2l2 3l12 28l-2 2l8 17l4 4l-2 2l14 62v14l1 4l-2 6l3 4l-9 22l-9 9l-10 2l-17 -1l-7 -8h-5l-2 -1l-3 -2l-11 -4l-1 -2l-4 -3l-5 -4l-4 -1l-7 -5l-1 -2l-5 -5l-30 -22l-5 -3l-8 -4 l-2 -5l-11 -4l-15 -14l-1 -3l-10 -10l-3 -2l-20 -18l-2 -1l-8 -7l-1 -3l-2 -3l-16 -11l-1 -2l-2 -5l-6 -5l-6 -7l-5 -6l-4 -5l-7 -3l-5 -12l-4 -1v-6l-5 -5l-11 -6l-1 2l-25 -33l-11 -18l-6 -16h-3l-6 -8l-5 -5l-4 -15l-8 -14l-1 -13l-2 -6l-5 -5l-3 -7l-1 -3l-5 -2l3 -29 l-4 -32l-4 -1l-1 2l-9 4l-2 5l-2 3l-5 16l-1 2l-2 2l-3 2l-8 10l-1 15l5 1l2 2l-5 3l7 17l28 47l5 5l1 4l7 7l12 17l1 1l5 6l3 5l17 28l9 9l3 4l7 6l10 15l52 56l3 2l4 4l1 3l9 6l18 15l11 14l15 11l5 4l5 3l6 6l4 3l5 4l38 28l4 1l8 6l11 8h3l5 3l4 2v2l44 23l4 1v-3h2 l-1 4l3 2h3l8 4l27 9l18 -2l11 -6l1 -2h2v-3l2 -1h3l4 -5l4 -2l1 -5l4 -2l3 -12l2 -7v-2l4 -15l-9 -35l-3 -4l-1 -1l1 -9l-1 -4l-2 -3l-5 -4l1 -7l-10 -25l-2 -11l-1 -1l-1 -2l-8 -11l-6 -20l-18 -28l-2 -12l-9 -19l-6 -7l-4 -11l-3 -7v-2l-7 -9l-7 -17l-15 -23l-2 -4l-3 -3 v-3l-39 -74l-3 -2l-2 -7l-10 -14l-1 -4l-31 -56l-3 -7v-2h1l4 -5l11 7l17 27l47 66l40 59l3 3l16 19l12 22l2 2l2 5l6 8l3 3l1 3l20 32l4 2l1 4l3 2l43 59l3 2l3 1l13 16l5 4l3 3l11 5l7 6l3 2l8 4l4 5l7 1l7 5l2 2h3l2 -1l2 -2l1 -2v-1l-1 -11l-4 -11l-2 -10l-1 -6l-2 -3 l-10 -21l-3 -4l-1 -2l-1 -3v-5l-2 -6l-35 -71v-2l-2 -6l-3 -8l-1 -3l-2 -3l-10 -28l-5 -8l-1 -5l-4 -5v-6l-1 -2l-1 -4l-1 -8l-6 -12l-2 -8l1 -6l-5 -26l-8 -25l-2 -2v-6l-1 -34l-2 -2l1 -24l3 -9l5 -6h2l6 -1l3 4l3 3v2l21 25l9 8l2 7l6 7l5 7l6 2l-2 3l2 7l3 12l12 8l-3 2 v3l7 8l14 27l9 34l3 4l4 21l9 13l7 15l3 1v2l2 1l1 -1l2 1l13 6l23 18l13 3h2l8 -7v-2l1 -4v-68l3 -16l2 -30l6 -30l1 -1v-2l-1 -4l1 -2l2 -7l3 -6l9 -43l6 -10l7 -26l10 -21l10 -14v-7h3l1 -9l3 -3l6 -5l1 -2z" />
<glyph unicode="N" horiz-adv-x="482" d="M30 1l-3 10l27 182l3 3h-2v4l5 20v13l5 23l2 3l1 3l1 10l2 44l3 15l1 26l2 6v3l2 7l-2 10l4 65l-15 59v3l-3 6l-8 46v9l-7 39l2 11l4 4l2 13l2 4l3 3l6 3l1 2l9 10l6 -1l7 -17l2 -7l1 -7l1 -1l4 -8l4 -14l3 -13l-5 -4l-2 -2l-1 -3v-1l2 -19l15 -64l3 -8v-8l2 -8v-4l5 -20 l2 -1l4 -1v22l8 19l7 6l18 9l4 -4l1 -24l-3 -15l2 -30l-2 -6l-1 -2l-4 -31l3 -10l26 -58l3 -5l3 -4l4 -3l3 -13v-5l1 -3l6 -4l4 -9l21 -25l15 -23l4 -5l6 -3l51 -52l5 -9l6 -3l3 -4l3 -1l1 -2l3 -4l2 -8l2 -1l4 -3l4 -1l8 -8l3 -1l2 -3l1 -2l4 -1l7 -9l1 -4l2 -2h5l2 -6 l8 -4l2 -4l7 -6l5 -3l4 -6l1 1l2 -2l3 8l-5 33l-2 37l-1 6l1 4l-3 61l1 64l1 2v19l1 6l1 7v8l3 43l-1 105l4 78l-1 3l1 13l2 18l1 7l1 44l8 33h2l3 1l5 -1h24l21 -5l11 -5l10 -13l2 -10v-18l-4 -4l-3 -8l-3 -5l-14 -31l-1 -14l-1 -1l-3 -7l-3 -8v-9l-3 -4l-1 -10l-3 -1v-2 l-3 -3l-1 -3l-1 -4v-1l2 -10l-4 -9l2 -11l-2 -3h-2l-1 -18l-3 -13l-2 -2l-2 -1v-18l-3 -9l-1 -32l-4 -22l-1 -3v-31l-3 -12l-1 -27l2 -6l-3 -13l1 -10l-2 -60l3 -11l-1 -18l2 -7l1 -2l-1 -2l-2 -1l2 -2v-6l6 -50l11 -54l-2 -3l1 -3l-27 -28l-2 -4l-4 -4h-5l-3 2l-4 6l-7 6 l-2 3l-7 6l-2 3l-4 4l-2 1l-3 2l-27 24l-5 6l-5 5l-4 3l-16 16v1l-3 3l-13 12l-3 4l-2 1l-7 7l-46 49l-35 45l-6 5l-1 2l-36 46l-6 11l-4 6l-4 7l-1 1l-8 15l-2 3l-1 1h-3l-4 -4l-1 -2l-14 -61l-1 -1l-4 -13l-6 -21l-9 -23l-4 -30h-2l-14 -45v-5l-2 -4l-6 -22l-3 -21l-1 -9 v-2l1 -18l-10 -11v-1l-3 -2l-4 -3l-6 -8l-5 -4l-5 -2l-3 1l-2 1zM92 328l-1 -37l4 -12l2 -1l5 -1l6 3l3 26l10 27l1 12l-3 14l-14 27l-1 6l-2 9l-2 2h-3l-6 -19v-6h2l-1 -33l-3 -9l1 -1z" />
<glyph unicode="O" horiz-adv-x="589" d="M573 484l8 -44l2 -31l-1 -11v-26l-3 -36h-2l2 -1v-1l-3 -6l-19 -70l-4 -4l-1 -2l-1 -7l-5 -12l-4 -8l-5 -6l-2 -12l-9 -19l-4 -4l-4 -8l-33 -54l-2 -1l-6 -2l-3 -2l-2 1l-3 -6h2l-7 -11l-2 -1l-1 2l-4 -4l3 -1l-30 -30l-12 -5l-4 -5l-6 -5l-29 -22l-16 -6l-15 -9l-13 -2 l-12 -5l-7 1l-4 -4l-13 -1l-34 -12l-23 -1l-6 1l-3 -4l-2 2l-12 -2l-37 6l-4 4l-11 4l-1 2l-3 1l-3 -1h-3l-2 1l-5 -1l-3 3l-15 11l-30 27v2l-3 3l-3 1l-6 8l-3 6l-3 4l-5 6l-2 1l-2 5l-2 9l-6 3l-3 5l-5 11l-2 2v5l-3 1l-1 3l-7 13l-2 10v3l-3 28h-4v2l-4 16l1 4v1l-1 3h-1 v16l2 3l-2 3v5l-2 27l2 13v4l5 30l-3 10l2 4l1 18l4 8l2 6l8 34l15 38l7 11l2 1l2 7v4l8 18l8 9v3l4 5l1 3l-1 3l-8 8l-9 6h-9l-16 7l-2 4v5l-2 22l7 21l-1 6l29 32l19 10l1 3l5 4l1 2l38 18l20 6l3 3l33 6h4l2 -1l3 1l4 3l21 -1l12 6l25 -6h22l16 -4l10 1l16 -6l23 -3h41 l5 -4v-2h12l26 -13l7 -6l5 -2l3 -4l39 -23l3 -5l1 -1l4 -2l10 -12l1 -4l1 -3l10 -3l5 -5l7 -9l2 -13l4 -5l2 -10l3 -1l4 -3l3 -1l2 -2zM537 323l4 38l-4 36l2 8h-2l-5 15v5l-2 3l-1 16l-6 15l-3 8l-2 10l-2 3v7l-8 7l-4 16l-6 2l-12 19l-7 6v3l-22 15l-6 5l-3 2l-36 19l-6 1 l-4 2l-11 1l-9 2l-4 3l-6 2l-5 3l-14 3l-2 -3l-6 1l-5 -1l-21 7l-4 2l-11 2h-6l-2 -2l1 -13h-5l-6 4l-14 2l-12 -1l-6 -2l-3 1l-6 -3l-6 -1l-4 -2l-23 -16l-6 -5l-3 -3l-2 -1l-2 1l-5 -2l-4 -2l-4 -3l-3 -6l-15 -10l-3 -3l-5 -6l-24 -32l-6 -12l1 -10l-7 -3l-17 -34l-1 -3 l-2 -7l-5 -10l-2 -14l-6 -19l-11 -48l-1 -48l-2 -12l1 -16l1 -5l1 -8l1 -24l4 -9l1 -5v-5l5 -14v-11l5 -6l2 -8l2 -4l1 -4l21 -39l7 -10l5 -3l16 -19l6 -3l9 -9l1 -2l33 -22l4 -2v-2l3 -1l2 -1l1 -1l11 -3l5 -2l9 -4l2 -1l7 -1l38 -5l32 3l30 7l31 14l8 2l3 2l11 6l31 25 l17 21l3 2l4 4l-1 4l2 1l1 1l16 20l-1 2l3 3l5 1l8 9l5 17l9 19l7 6l5 11l-2 8l9 5l15 51l2 22l2 8l4 6l-1 1zM193 590l-3 14l-14 4l-2 1l-10 -5l-13 -2l-8 2h-7l-12 -5l-15 -8l-15 -13l-4 -28l2 -18l7 -14l3 -9l3 -3v-2l6 -3l4 1l4 4l4 6l1 4l3 3l6 10h2v2l1 1l21 23l16 14 l3 4l8 7l2 1z" />
<glyph unicode="P" horiz-adv-x="445" d="M460 554l2 -7l-2 -19h1l1 -2l-1 -4l-2 -6l-1 -7l-3 -5l-4 -17l-21 -24l-5 -7l-1 -4l-13 -12l-6 -4l-4 -2l-22 -13l-8 1l-8 -8l-3 -2l-7 -6l-3 -1h-7v2l-3 -2l-25 -4l-3 -2l-4 -1h-3l-12 -3l-4 -2l-1 -2l-27 -2l-18 -8l-20 2l-6 2h-7l-5 2h-2l-5 -1l-3 -4v-10l-2 -2v-6 l-2 -2l-1 -10l-4 -6v-14l-2 -6l-1 -17l-4 -17l1 -10l-5 -13v-9l-2 -8l-3 -5l-1 -11l-1 -13l-5 -15l-1 -4l2 -9l-9 -32l-6 -81l-3 -68l1 -9l-1 -2l-6 -5l-5 -1l-8 -1v-3l-21 -11h-6l-2 2l-2 8l-1 31l-2 14l2 11l-6 30l4 11l-6 18l-1 9l-5 27l1 12l-1 4v3l1 4v4l-3 5l-1 26 l2 2v3l-4 13v2l1 2l2 2l5 11l-9 11l1 13l1 3v3l-1 9l2 5l-1 3l-3 4l-2 1l1 13l1 4l-1 2l-3 4l-2 27h2v7l-4 12l3 18l-1 11l-10 28l3 3l15 -7l11 4l3 6l2 16l2 8v3h-3l-2 1l-7 10l-6 13l-16 5l-9 3l-2 2l-7 4l-11 16l-3 12l2 3v4l-1 2l-2 3v15l4 11l3 6l2 3l30 36l21 13h5 l9 8l15 6l13 9l52 22l19 3l7 4h2v1l36 9l-1 -2l4 -1h2l5 4l12 3h4l4 2l65 -3l1 2h3l16 -3l45 -27l12 -17l4 -1l3 -3l3 -2l12 -10l4 -7l4 -12l1 -1l-5 -6v-2l3 -2l7 -3l4 -3l2 -3l1 -2l1 -3zM411 544l1 7l-7 9v7l-1 3v5l-6 10l-4 5l-4 8l-4 3l-4 5l-7 7l-2 1v1l-2 2l-2 1 l-3 4l-8 5l-2 2l-5 3l-20 11l-16 6h-5l-9 3l-4 -3l-25 4l-3 -2l-18 1v-1l-9 -3h-3l-9 1v-2h-5l-6 -4l-17 -5l-8 1l-2 -2l-18 -9l-11 -1l-36 -16l-8 -7l-11 -7l-13 -13l-7 -4l-3 -2h3l-4 -16l2 -3l2 -2v-3l6 -9l22 -18l4 -2l1 -1l21 -12l3 -5v-2l-10 -9l-10 -3l-7 -7l-9 -5 l-9 -6l3 -11l1 -3l-3 -15l-1 -3l-1 -7v-19l3 -12l1 -19l-4 -10h2v-6l2 -9l3 -8l1 -8l1 -3l-3 -13l4 -9v-11l6 -14l-2 -12l2 -7l3 -26l4 -17l3 -6l9 1l1 6l1 2l4 45l5 13l5 33l3 9v4l-1 5v2l-2 2l1 11l4 10v3l-2 7l-1 2v15l-13 -3l-6 5l-1 5l1 2l4 5l5 1l8 -3l5 3l1 3l-1 4 l-3 8l1 11l-3 2l-2 46l14 5l9 4l10 5l4 -1l11 -5v-4l1 -3l5 -42l-4 -12l3 -25l13 -3h37l3 1l7 1l8 1l42 8l4 2l8 3h9l1 3h3l5 3l6 2l18 12l9 3v3l1 1l6 4l13 11l1 2l1 8l3 2l3 6l3 2l-1 6l8 17l-1 5l1 5l1 10l-1 9l-2 5z" />
<glyph unicode="Q" horiz-adv-x="626" d="M647 451l3 -7l-4 -21h-3l-2 -4l-1 -5h4l-7 -23l-1 -6l-5 -6l1 -4l-4 -10l-8 -12l-5 -17l-5 -4l-2 -9l-2 -4l-3 -3l-2 -1l-6 -13l-11 -13h-3l-4 -6l-6 -10l-2 -4l-3 -4l-3 -3l-9 -12l-14 -14l-7 -8l-1 -2h-4l-4 -4l-7 -6l-3 -4l1 -2l-2 -1v3l-19 -16l-7 -5l-4 -1l1 -3h-4 l-3 -3v-2l-2 -1l-1 -1l-16 -12l-17 -10l-5 -2l-5 -1l-18 -12l-5 -2l1 -3l-3 -2l-2 -1l-12 -4h-4l-5 -4h-2l-24 -12l-49 -3v-4l-14 1l-3 -2h-4l-4 -1l-10 1h-2l-13 -13l6 -10h2l48 -1l21 -5l7 -3l1 -1l2 -1l6 -1l3 -3l3 -2l3 -1l8 2l17 -10h3l6 -3l4 -3l8 -3l1 -1l3 -2l7 -1 l4 -2l1 -1l18 -8l39 -26l19 -11l9 -9l4 4l2 -1l2 -3l9 -5l2 -6l17 -7l9 -4l5 -2l29 -1l4 -2h6l3 -3l1 -3l-3 -1l-13 -5l-24 -3l-29 3l-3 2l-3 -1l-2 -1l-1 2l-10 3l-5 1h-3l-16 5l-8 4l-6 2l-9 4l-7 4l-3 -2l-12 8l-8 3l-2 1l-28 9l-37 8l-36 4l-14 -1l-2 3l-13 -1l-13 3 h-53l-44 -5l-2 1l-3 -1l-10 -1l-9 -5l-11 -3l-3 2l-2 2l-1 4l5 2l2 1l-4 4l7 10l8 9l4 16l13 5l2 7l6 8l6 7l5 5l3 2l10 6l5 7l2 3l6 6l-1 6l-23 4l-19 10l-19 2l-1 4l-8 1l-8 5l-3 1l-3 2l-9 9l-5 1l-9 9l-22 19l-15 24l-4 3l-6 6l-31 58v9l-3 7l2 4v2l-1 2v2h-2v3l-1 3 l-4 5l-5 18v7l-2 2v29l-3 11l-1 18l6 19v12l6 17v3l2 6v5l9 9l7 23l2 1v1l3 2l6 13l17 21l3 1l2 2v6l3 3l2 1l11 10l4 4l8 6l2 1l27 15l9 11l3 1l5 5l24 15l9 8l2 2h2l1 -2l11 12l6 1l7 7l6 1v3l30 13l4 1l1 -2l8 6l6 -2l17 6l41 10l51 -1l5 -1h8l4 -4l7 -11l8 -1l5 -7 l13 -5h13l21 -11l2 -3l2 -1h8l4 -2l4 -5l3 -1l10 -7l1 -1h2l3 1l4 3l4 7l-1 7h-1l-1 2l-2 6l18 -4l3 -1l2 -3l3 -4l7 -5l1 -2l5 2h4l1 -6l2 -3l6 -4l2 -1h5l8 -6l3 -4l4 -6l7 -4l4 -4l6 -13l9 -8l1 -2l6 -7l1 -3l4 -9l1 -3l2 -3l1 -5l4 -6v-4l1 -8l6 -4v-8l4 -8zM607 447 l2 13l-6 9v3l-1 2l-1 3l-5 9l-2 1l-6 12h-1v3l2 5l1 2l-2 5l-3 5l-2 1l-14 3l-5 9l-34 30l-6 4l-1 1l3 1l-2 2l-3 1l-8 6l-10 3v1l2 1l-11 2l-21 13l-5 1l-3 1l-26 10l-20 6l-5 2h-5l-38 7l-1 -2l-19 4l-43 -4v1l-3 1l-2 -1l-3 -3l-17 -5l-10 -1l-1 1h-2l-10 -2l-17 -6 l-11 -8l-11 -2v-1l-6 -3l-5 -3l-9 -6l-1 -4h25v-11l5 -5l-1 -3l5 -4l2 -5l20 -8v-2h3l-1 -5l4 2l2 -2l24 -19l5 -7l2 -2l5 -6l4 -7h5l3 -2l2 -16l-15 13l-4 5l-4 3l-3 2l-7 12h-4v1l-12 9l-6 4l-1 1v6l-1 1h-1v-4l-9 4l-6 3h-6l-10 5h-8l-7 8l-15 -1h-5l-5 2l-15 -1v-2 l-7 -3l-6 -8l-23 -22l-3 -4v-5l-21 -30l-5 -14v-19l-1 -2v-3l-1 -9l13 -20l3 -4l5 -4l17 -9l12 -1l38 -12l25 1l12 -3h6l7 3l10 -4l19 2l1 -2h19l11 5l25 -2v-2h6l3 -3h1v-5l15 3l3 -2l4 -6l3 -2l3 -1l10 -4l1 -4l6 -3l9 -13l3 -42l-3 -8l-2 -8l-2 -3l-5 -5l-10 -31l-3 -3 l-1 -4h-4l-4 -9l-14 -19l-4 -10l-1 -1l-1 -2l-2 -1l-2 -3l-5 -6l-1 -3h-1l-2 -1l-7 -7l-4 -3l-1 -9l2 -2l6 -1h11l46 9l14 -1l3 1l3 2l2 3l10 5l7 3l7 5l5 2l20 13l23 9l1 2l4 5l4 2l11 6l5 8h6l3 2l1 5l7 4l8 11l6 1l5 9h1l4 5l1 2l4 3l4 7l3 2l3 4l1 3l1 1l10 8l1 6l6 8 l1 2l3 1l20 45v4l3 4l5 15l3 16l-1 5l2 6zM358 268l4 5l-4 34l-3 3l-1 5l-2 3l-12 9l-19 6l-5 2l-4 4l-4 1l-3 -1l-3 -2l-29 1l-35 -7l-12 1l-27 -7l-5 -2h-7l-8 2h-4l-4 1l-5 -2h-16l-6 -2l-15 2l-3 2l-4 2l-10 -1v1l-7 4l-16 5l-1 -2h-1l-1 -19l2 -1l-2 -3l4 -4l5 -16v-3 l8 -26l10 -9l5 -7l5 -6v-1l8 -10l4 -4l3 -1l2 -1l3 -2l2 -14l14 -3l11 -7v-3l8 -4v-2l16 -3l9 -6l9 -8l2 -1l4 -1l3 -1l10 1l14 -7h5l8 -1h3l5 -2l21 -1l22 19l6 10h1l2 6l5 4l24 35l2 1l4 6l-1 10l4 9l2 7v2z" />
<glyph unicode="R" horiz-adv-x="413" d="M409 537l2 -7l1 -18v-14l-2 -10l-4 -14v-7l-22 -43l-3 -2l-1 -3l-10 -14l-10 -9l-16 -16l-22 -20l-3 1l-8 -8l-6 -4l-4 -3l-5 -4l-34 -23l-2 -2l-6 -1l-10 -8l-7 -8l-1 -6l-2 -33l5 -15l13 -24l20 -33l7 -4l6 -8l20 -26l8 -6l13 -16h1l4 -2l5 -13l5 -2l6 -9h2l11 -11 l10 -21l29 -27l7 -12l6 -4l2 -3l1 -4l-1 -3l-4 -3l-6 3l-11 6l-10 2l-2 -1l-1 1h-2l-17 14l-11 -1l-11 8l-5 5l-4 3l-1 4l-20 18l-1 3l-5 2l-4 5l-74 79l-5 9l-1 3h-3l-1 4l-26 44l-6 30l5 24l6 8l4 2l3 9l13 9l3 1l1 2l28 15l1 1l10 6l15 10l4 3l8 3v2l3 1l5 4l8 6v1l5 4 l10 9l4 4l1 2l6 3l5 10h2v2l7 8l17 23l1 7l2 1l9 31l1 8l1 4l-3 36l-1 1l-3 8l-5 13l-16 20l-4 1l-1 1l-7 8l-17 12l-18 8l-19 5l-24 3l-21 6l-11 -1l-4 2h-3l-1 -1h-44l-11 -2l-22 1l-14 -4h-8l-2 -2l-12 -3l-1 -1l-7 -4l-2 -2h-1v-2l1 -7v-13l9 -14l2 -25l2 -3l4 -2l3 1 l4 2l8 9l14 9h5l4 -6l2 -9l1 -4l1 -2l-1 -4l-4 -5l3 -9l-2 -70l-2 -11l1 -2v-19l-2 -6l-2 -42l1 -12l-3 -8v-3l1 -2l-2 -5v-16l-2 -12v-11l-2 -63l-6 -49l-1 -20v-7l1 -5l-3 -12v-4l1 -2l-3 -17l2 -58l3 -11l1 -1l-1 -1l1 -2l1 -5l-1 -8l-3 -4l-6 -4l-21 -13h-10l-5 9l-6 3 l1 7l2 13l-2 49l2 9l-3 5v18l3 24l-3 13l1 11l-5 35l1 16l-4 23l-1 44l-2 14l1 11l-2 5l-5 122l1 17l-5 51l-1 28l-8 36l-6 19l-11 12l-5 12l19 15l25 14l7 -3l7 3l39 2l2 1l4 1l31 1l5 1l2 1l23 1l1 -2l3 -2l9 3l32 -3v-1h10l37 -4l1 -2l34 -8l4 -5l15 -4l22 -9l4 -4l4 -5 l2 -1l9 -7l2 -1l1 -2v-3l9 -5l13 -17v-6l1 -1zM89 462l-4 56l-7 26l-1 14l-3 6l-9 5l-7 -2v-6l4 -9l4 -10l-1 -3l3 -13l-2 -18l3 -12l-1 -11l3 -21l-1 -52l2 -9l-3 -31l18 3l1 49l2 5l-1 21l1 2l-1 5v5z" />
<glyph unicode="S" horiz-adv-x="492" d="M475 297l3 -11l-2 -1l1 -14l-5 -11l-1 -15l-4 -17l-6 -9l-5 -17l-15 -37l-10 -11l-5 -6l-2 -1l-2 -10l-7 -11l-10 -10l-3 -6l-3 -8l-10 -11l-6 -2l-12 -17l-4 -4l-2 -3l-4 -3l-5 -5l-2 -1l-3 -3l-5 -2l1 -4l-3 1l-6 -6l-5 -1l-8 -8l-6 -5l-18 -14l-15 -7l-15 -12l-5 -1 l-40 -24l-3 -1l-4 -3l-12 -5l-11 -1l-1 -3h-6l-7 -2l-6 -1h-16l-15 -4l-30 2l-11 3l-23 11l-17 12l-7 7l-4 7l-2 1l-9 18v10l-10 22l1 2l-2 1l-5 10v5l-6 13l5 17l8 -3l7 -9l13 -25l2 -9l5 -3l3 -4l2 -2l3 -2l7 -9v-4h3l18 -18l36 -17l8 -1l2 -1l23 -1l58 13l22 13l10 3 l17 8l6 4l5 3v2h3l17 13l4 1v2l10 7l23 20l4 2l4 3l25 29l4 2l1 1v2l1 3l8 9l27 50v4l3 2l12 47l1 33l-8 29h-1l-4 7l-23 21l-9 1l-2 2l-11 4l-43 -4l-20 -4l-21 -7l-6 1l-13 -2l-9 -7l-12 -3l-2 -2h-4l-30 -18l-6 -2l-1 -1l-12 -2v-2l-24 -8l-5 -4l-33 -6l-12 1l-6 1l-4 -2 l-34 15l-4 5v10l5 13l4 5l7 11l3 4l14 25l31 49l3 3v1l6 10l-2 1l2 2l3 1l6 10l2 3h1l20 26l3 9l6 4l2 3l19 26v3l9 8l1 4l6 4l5 11l2 3l6 5l4 6l2 1l6 9l21 29l4 4l3 5l17 24l7 6l3 7l4 4l11 15l3 3l2 1l5 9l1 1l2 3l4 5l5 3v1l4 7l3 5v4l5 2l9 8l5 3l3 3l7 2l5 8l2 2l1 2 h12l8 5l2 -1l1 -2l1 -4v-1l-2 -14l4 -16l10 -1l3 -7l1 -4l9 -6v-6l2 -4l4 -11l2 -2l1 -5l-4 -6v-6l-11 -15h-3l-2 2l-31 3l-10 -7l-3 1l-2 -2l-7 -4l-30 -19l-4 -4l-2 -1l-4 -7l-5 -4l-2 -7l-10 -4l-9 -10l-23 -16l-5 -3l-4 -8l-5 -7l-3 -2l-1 -4l-2 -5l-8 -3l-3 -2l-2 -3 l-10 -10l-10 -8l-3 -7l-8 -6l-15 -19l1 -3h-3l-2 -4l-3 -1l-11 -21l-1 -5l-2 -3l-1 -3l-3 -1l-5 -2l-8 -17l-4 -4l-3 -4l-6 -13l-4 -5l-1 -4l-6 -11l-3 -4l-8 -16h2l-1 -3l1 -2v-3h10l6 2l6 -2l4 1l11 2l4 1l2 2l72 16l16 7l3 1h2l15 7l10 2l22 8l7 -1l3 1l4 2l5 3l15 3 l2 -1l29 7l3 -3l5 1l4 1h2l4 -2l14 2l12 -3l4 -4l14 -4l21 -18l10 -17l2 -9l3 -6v-9z" />
<glyph unicode="T" horiz-adv-x="646" d="M728 648l2 -2l-1 -6l-2 -4l-8 -13l-10 -5l-27 -7l-3 2l-5 2l-1 1l-5 -2l-18 -8l-5 1l-2 -1l-5 -5l-4 -23l1 -3l-2 -7l-24 -8l-15 -1l-6 -4l-15 2l-10 -5l-4 -1l-10 -5l-11 -3l-1 -3l-26 -2l-12 -6l-32 -9l-17 -2v-2h-3l-8 -1h-13l-7 -1l-24 -4l-3 -1l-8 -3l-1 -13l3 -4 l1 -8l-4 -11l-2 -4l-2 -7l-1 -10l-6 -15l1 -22l-7 -29l-1 -6v-6l-1 -4l-6 -29h2l-2 -9l-4 -21l1 -7l-8 -29l-2 -2l1 -1l-1 -8v-2h3l-11 -26l6 -18l-1 -14h-1v-4l-2 -2l2 -15l3 -10l-4 -8l-1 -6l4 -6l3 -9l1 -8v-27l-1 -27l-4 -21l-3 -42l-1 -3l-9 -9l-8 -4l-14 -4h-11l-4 4 l-8 16l-2 22h-1l3 59l1 5l3 30l4 10l-3 4v7l1 5l2 6l2 3v8l5 11v14l-2 2l-1 4l-1 2l1 7l-1 18l1 2v2l1 1v9l-6 10l2 8l-10 47l-4 11l-1 1v16l2 3l-1 4l-3 3l-1 12l-6 9l-2 12l-23 29l-4 4l-4 5l-16 22l-5 3l-2 3l-7 6l-8 6l-3 5l-3 2l-7 7l-4 3l-2 2l-37 26l-4 1h-6l-13 9 l-45 9l-35 14l-16 7l-26 24l-1 2l-6 5l-8 12l-2 6v2l7 3l4 1l6 11l10 2l6 2h2l3 -2l3 -1l7 5l16 -17l4 -3l1 -2l31 -20l19 -7l4 -3l4 -1l18 -6l9 -2l7 -3l11 -5l13 -1l9 -4h7l3 -1l52 -6h7l12 -1h4l34 -3l11 2l44 1l15 5l5 3l1 -1l15 5l4 4l-1 7l-2 2l-1 2v1l7 6l6 1l2 4 l25 6l6 3l7 2l3 2l45 12l26 4l73 19l25 4l28 8l13 2l8 2l24 7l37 6l3 -2l-1 -5h7zM329 463v37l-6 7l-8 2l-14 -1l-1 -2l-9 -1l-11 1l-55 -5l-12 -7l-3 -2l1 -6l7 -9l2 -1l2 -3h2l2 -2l7 -5l11 -14l16 -13l7 -9l3 -2l4 -9l9 -9l12 -19l4 -8l2 -6l14 -27l3 2l1 2l2 2l-1 23 l1 5l1 3l1 24l4 17z" />
<glyph unicode="U" horiz-adv-x="605" d="M215 618l100 32l21 1l29 -4l15 -10l10 -10l9 -17l7 -24l3 -28l-3 -41l-5 -18l-1 -12l-9 -20l-4 -23l-14 -40l-37 -88l-3 -1l-7 -18l-16 -30l-40 -77l-14 -19l-22 -45l-6 -8l-2 -12l-8 -12l-5 -12l-3 -21l18 -14l34 -7l33 1l53 6l134 44l-3 17l-7 97l4 57l9 50l23 99 l28 86l6 14h8l6 13l21 10l7 9l31 15l7 -8l-10 -19l-1 -12l-7 -24l-10 -17l-37 -107l-12 -43l-1 -18l-8 -29v-16l-3 -19l-2 -41l5 -70l17 -80l9 -24v-6l9 -28l-1 -28l-7 -6l-10 6l-20 52l-26 15v3l-21 18l-4 9l-9 1l-64 -27l-2 2l-3 -4l-22 -8l-14 -8l-20 -2l-63 -22l-70 -6 l-14 3l-18 -1l-20 7l-11 16l3 23l8 21l57 95l47 93l5 16l14 26l40 130l12 74l-1 39l-3 23l-13 27l-21 12l-27 1l-21 -3l-28 -10l-41 -20l-17 -12l-34 -36l-17 -23l-11 -24l-2 -11l-10 -11l7 -17l-1 -11l-9 -3l-5 4l-8 -3l-10 11l-21 12l-22 18l-3 20l4 10l16 17l13 9l26 24 l15 7l5 8l87 50l17 5z" />
<glyph unicode="V" horiz-adv-x="522" d="M529 503l-1 -30l-5 -28v-18l-2 -6v-3l-3 -10l2 -9l1 -1l-2 -5l-4 -9l-6 -43l-1 -3l-1 -4l-2 -3l-5 -14l-2 -8l-13 -38l-3 -6l-3 -10l-18 -40l-1 -4l-3 -9l-14 -25l-2 -10v-1l-3 -3l-3 -1l-3 -9l-5 -9l-4 -3l-28 -46l-5 -6l-12 -15h-2l-20 -25l-32 -29l-9 -2l-17 -15h-3 l-2 -2l-5 -1l-7 -4v-1l-15 -4v-2h-8l-18 -4l-45 1l-2 1h-16l-5 3l-6 35v18l-3 9l-1 10v10l-1 7l-6 70l-2 1l-1 56l-5 47l1 40l-3 41l2 9l-1 6l-1 8l-3 9l1 9l-5 81l-3 4l-1 1l-15 -27l-2 -5l-6 -7l-7 -21h-3v-3l-3 -5l-2 -11v-4l-1 -4l-3 -3l-4 -12l-7 -34l-8 -21l-1 -11h-2 l1 -1l-7 -33l-1 -16l-2 -12l1 -3l-2 -18l-2 2l-2 -11l1 -22l6 -12v-14l-4 -9l-2 -4l-8 -5h-4l-5 -1l-1 -1l-11 -2l-11 3l-4 6l10 72l13 64l12 51l5 10l5 30l7 19l7 14h1v4h-2l1 5l1 1l4 11l4 8l7 11v2l-1 3l30 57h2v3l3 5l1 2l19 30l5 10l14 21l6 -1l10 -8l2 -6l5 -6l2 -4 l2 1l9 -13v-2l3 -4l1 -11l-14 -53l-5 -5h3l-9 -91v-10l1 -3l-1 -3l-3 -29l2 -2l-1 -36l-2 -2l1 -1l1 -20l-1 -7v-10l1 -14l-2 -5l3 -6v-17l4 -23l-1 -13v-3l2 -11l6 -32l1 -20l7 -20l1 -4l-1 -6l5 -11l1 -4l2 -4l29 -5l59 8l1 1l9 3l20 12l5 2l6 1l1 2l3 3l2 3l3 1l47 40 l30 43l9 16l1 1l5 6l2 2l3 11l24 48l18 50l2 11l9 23l3 18l1 2l1 12l5 21l4 105l-7 51l-4 12v7l-12 31l-18 22h-1l-5 6l-9 9l-19 7l-22 2l-5 -5l-4 -2l-1 -1l-13 7l-7 10l14 34l4 15l4 12l2 2l3 1l1 -1l50 -12l16 -8l5 -8l1 -5l3 -2l9 -13l2 -4l2 -3l2 -8l6 -8l1 -4l-1 -4 h-1l2 -3l2 -7l8 -11l14 -84l-2 -1v-10l2 -2l-1 -10h2v-2z" />
<glyph unicode="W" horiz-adv-x="1016" d="M1029 594l-5 -2l-8 -13l-1 -6l-2 -2l-2 -9h-1l-1 -2l-5 -6l-5 -8l-13 -33v-19l-2 -2l-1 -2v-4l3 -4l1 -75l-1 -1l-1 -4v-27l-2 -3v-4l-1 -5l4 -1v2l2 -2v-2l-1 -4l-3 -2l3 -33l-4 -6l2 -68l2 -5l-2 -37l5 -6l1 -5l-5 -2l2 -27l-2 -12v-59l-1 -6l3 -5l1 -9l-1 -4l-2 -5 l-1 -5l-1 -3v-3l-7 -4l1 -2l-6 -11l-5 -6l-2 -4l-14 -19l-33 4l-93 5l-1 -1l-3 1l-10 3l-4 -2l-2 1l-59 12h-14l-11 5h-34l-9 2l-4 3l-1 -2h-2l-1 1l-8 3l-1 2h-6l-15 6l-1 2l-3 2l-5 3l-6 7l-5 6l-3 4h-2l-13 10l-12 15l-9 3h-21l-45 -13h-17l-5 -6l-7 -3l-5 -3l-4 -2 l-6 -5l-6 -3l-3 -3l-6 1l-11 -5l-15 -6l-1 -3l-6 -1l-4 -4l-25 -16l-14 -7l-29 -28l-31 -26l-2 -3l-6 -7l-4 -5l-8 -9l-9 1l-5 4l-9 10l-2 1l-1 4l-9 9l-6 3l-2 4l-1 4v2l5 6l12 10l5 2l7 4l14 16l12 9l42 42l11 16l14 12l4 8l5 6l2 5l15 14l5 10l2 1l1 4l3 3l13 19l7 5l1 2 l3 5l2 4l2 6l17 24l5 6l1 4l15 31l13 20v4l1 3v2l4 4l1 8l5 4l1 10l7 13l10 40l2 28l-5 20l-20 6h-3l-2 1l-4 -4l-31 -4l-29 -17l-18 -3l-8 -9l-27 -16l-14 -12l-8 -6l-7 -3l-5 -2l-2 -3l-8 -3l-20 -17l-6 -2l-5 -3h-5l-44 -30l-5 -5l-9 -3l-24 -21l-26 -19l-27 -24l-43 -51 l-7 -5l-4 -8l-1 -1l-4 -5l-1 -1l-3 -2l-18 -33l-1 -3v-5l-3 -6v-3l-3 -5l-10 -11l3 -5l-2 -3l4 -2l2 -3h4l3 -6l-2 -3l-5 -3l-14 3h-17l-14 7h-8l-10 6l-3 1l-9 5l-4 7l1 12l26 32l3 1l5 6l76 68h2l2 2l53 46l5 3l7 5l5 4l55 48l49 33l43 30l2 3l4 3l21 16l82 48l13 4l18 10 l2 2l3 1l4 2l5 3l3 1l5 2l11 3l6 1l4 1l3 2l10 2h22l11 -5l2 -2l4 -3l6 -4l4 -3l15 -32l-1 -19l-3 -8v-4l1 -2l-1 -1v-2l-5 -6v-9l-1 -5l-4 -4l-2 -6l-1 -6l-1 -4l-2 -9l-5 -9l-6 -12l-4 -5l-2 -1l-3 -13l-17 -25h2v-2l-13 -22l-1 -1l-7 -8l-11 -19l-36 -49l-8 -9l-7 -9 l-6 -3l1 -3l-23 -29l-5 -1l-2 -5l-11 -12l-10 -13l-3 -6l-2 -1l-8 -10v-2l-22 -24h4l1 2l2 1l2 2l15 9l4 2l5 2l4 4l7 4l8 6l10 5l4 3l3 1l6 3l5 2l30 18h4l3 2h2l1 3l6 2l45 19l9 2l4 1l11 4l60 11h5l11 3h7l13 -10l3 -7l7 -6l8 -6l15 -17l11 -5l6 -2l2 -2l48 -21l48 -17 l28 -4l26 -8h14l23 -5l31 -3l4 -1l3 1l2 1l11 41v10l2 6h-2l2 28l-1 5l1 3l2 2v6l-2 1l1 1l2 41l-2 6l2 38l2 10l-5 14v64l-2 18l2 91l2 37l2 9l-1 5l1 1l2 49l3 16l-1 3l1 5v31l-1 4v2l1 2l9 -1l7 7l21 6l2 5l21 9l5 -2l4 -7l6 -15l4 -4z" />
<glyph unicode="X" horiz-adv-x="470" d="M473 17l23 -12l-8 -12l-39 12l-7 5l-7 7l-4 -1l-13 9v2l-16 11l-26 14l-9 13l-6 -3l-3 4l-1 2l-4 1l-20 10l-3 4l-6 4l-9 11l-5 1l-19 11l-27 25l-1 4h-2l-4 3l-25 22v3l-5 4h-2v2l-23 24h-5v3l-19 -22l-11 -18l-7 -6l-11 -19l-8 -6l-5 -1l-2 -8h1v-3l-36 -50l-9 -20 l-17 -21h-3l-4 -16l-4 -4l-11 -7l-3 -9l-6 -9l-9 -6l-10 6l-3 6l11 30l8 9l3 8l2 3l1 3l-3 6l3 10l5 5l2 15l3 5v4l4 6l3 8l2 3h-1l-1 1l6 5l3 1l-3 22l1 4v3l-1 6l1 5l2 9l1 6l5 6l2 7l3 12l1 5l-3 12l-1 24l2 1l1 3l3 21l2 7l1 3v4l1 5l-4 14v21l4 1l1 22l-2 32l6 -19 l3 -30l1 -4l-3 -4l-2 1l-3 -7l1 -13l2 -15l1 -1h2l3 -7v-37l1 -3v-3l-5 -17l2 -11l-4 -34l2 -16l2 -1v-2l2 -5h3l1 -2h6l2 -1l5 4l3 2l5 11v2l3 4l3 2l11 16l6 14l3 3l6 9l20 31l-32 51l-1 3v3l-3 2l-2 10l-9 15l-9 23l-2 1l-1 4l-4 12l-3 4l-17 46l-13 52l-6 58l2 13l-7 41 l-6 18l-1 16h1l2 20l5 11l16 12l16 5l5 3l2 3l3 6l6 -1l6 -9l2 -11l1 -4l3 -7l3 -17l2 -7l1 -39l4 -16v-14l-3 -8l2 -16l5 -4l9 -63l5 -15l1 -7l2 -4v-3l4 -11l-2 -5l8 -27l1 -1l2 -5l4 -6l6 -14l-2 -2v-2l2 -2l2 -4l3 -5l2 -5v-3l-2 -3l4 -5h5l2 -3l2 -1v-3l2 -1l11 -23 l32 42l20 30l5 11l8 10l6 14l46 66l9 8l12 20l3 4l6 7l23 33l4 3l5 10l11 14l17 29l3 10l7 12l5 3l12 8l20 5l7 5l12 2l2 2l9 -2l1 -10l-3 -38l-2 -2l-1 -4l-1 -8l-12 -31l-13 -5l-4 -5l-7 -1l-11 -7l-8 -13l-17 -16l-18 -16l-9 -14l-8 -4l-2 -2l-1 -2l-3 -3l-5 -10l-3 -3 l-1 -2l-8 -13l-24 -28l-10 -9l-10 -20h-4l-3 -7l-3 -2l-22 -31l-3 -3l-3 -2l-2 -4h-2l-5 -10l-5 -6l-18 -20h2l-14 -21v-1l2 -1l3 -5v-4h5l9 -19l4 -2l3 2l7 -13l4 -5l-4 -1l1 -4l2 -2l1 -4l3 -1l10 -7l-2 -5l4 1l4 -4l8 -12l15 -20l3 -2l4 -1l2 -7l6 -5l2 -1l1 -3l2 -2 l8 -1l19 -23h3v-2l2 -4l3 -4l7 -2l4 -5l5 -3v-4h3l10 -7l7 -6h3v-3l5 -4l3 -5l2 -12l7 -1l17 -14l15 -11l7 -1l3 -1zM88 386h2l-1 -14l-3 1z" />
<glyph unicode="Y" horiz-adv-x="480" d="M424 147l2 -20l-8 -34l1 -10l-7 -22l1 -2l-1 -7l-10 -58l-8 -26l-3 -6l-5 -8l-6 -11l-21 -38l1 -3l-3 -2l-3 -5l-25 -35l-5 -4l-4 -6l-5 -11l-17 -14l-8 -11l-2 -1l-3 -5l-4 -8l-4 -3h-2l-9 -10l-37 -17l-7 -6l-16 -2l-1 -2l-3 1l-17 -3l-5 -2l-9 3h-2l-3 -1h-2l-2 -1 l-10 1l-12 4l-6 1l-4 2l-14 8l-4 3h-2l-4 1v2l-1 1v12l9 25l7 11l4 5l3 2h3l47 -15l2 -2h8l21 1l2 1l5 1l16 4l31 11l9 7h2l1 2l9 6l8 8v2l5 3l15 14l3 5l2 1v2l6 6l2 4l2 6l12 20h3l1 1l1 2l1 3h1l-1 2l2 4l4 10v3l2 2l10 31l4 7l1 6l7 40l-1 3l1 8l2 23l6 26v29l1 3l-1 8 l1 2l-4 63l-2 11l1 43l-5 3h-2l-5 -5l-10 -6l-15 -5l-4 -2v-2l-24 -13l-5 -2l-4 -3h-1l-5 -4l-4 -3l-2 -2h-2l-5 -3l-8 -8l-30 -22h-4l-9 -5l-2 -2l-9 -7l-23 -8l-18 -12l-14 -3l-11 2l-23 9l-11 11l2 3l-5 10l3 9l-2 6v12l5 17l3 22l1 4l2 4l-1 3l5 15l7 48l5 10v3l-1 2 l-1 4l3 4l3 40l5 9l-2 4l2 6l-1 10l1 26l3 2l-3 6l2 41l-2 11l3 15l-7 20l-7 13l-6 5l-6 -2l-11 -6l-15 -15l-3 -6l-32 -45l-12 -10l-11 -22l-13 -21l-1 -5l-2 -1l-1 -2h-2l-5 -2l-14 -3l15 36l3 6l14 26v4l4 6l4 7l2 1v2l2 2l21 33l6 7l2 4l15 20l6 6l2 4l7 8l25 17l4 4 l20 8l13 -1l16 -11v-2l2 -5l9 -30l1 -21l-1 -2l2 -7l-2 -48l-5 -37l-2 -1l-1 -3l-1 -23l-13 -62l-1 -13l-7 -16l-4 -28l-3 -4l-1 -2v-2l1 -2l-4 -10l-2 -19l-3 -5l1 -25l9 -12l10 -5l16 -4l20 1l21 9h6l2 3l8 4l5 3l30 15l9 9l11 4l16 12l14 5l1 2l4 -1l2 2l2 3h4l29 18 l2 10l2 2l-5 11l-1 37h1v3l-1 2l2 4l2 12l-1 2l1 9l2 68l4 18l-3 10l3 11l2 22l-2 5l4 14l2 51l-1 2v4l-1 10l-1 21l15 16l4 2l6 14l11 13l4 3l3 3l4 -2l2 -2l7 -17l6 -30l-10 -64l-3 -8l-5 -46l-1 -1v-3l1 -6v-8l-5 -16v-20l-3 -31l1 -46l-2 -19v-22l-1 -5l-1 -4l1 -2l3 -2 l6 -8l-7 -9l2 -15l-1 -22l-2 -2l3 -1l2 -52l-4 -22z" />
<glyph unicode="Z" horiz-adv-x="655" d="M645 220l8 -15l-6 -14l-1 -13h-3l-3 -4l-3 -1l-1 -9l-5 -15l-10 -14l-3 -5l-3 -4l-7 -12l-1 -2l-4 -5l-10 -14l-4 -9l-14 -18l-3 -2l-1 -2l-4 -5l-6 -4l-5 -6l-3 -3l-16 -8l-15 -14l-24 -11l-5 -11l-8 -4l-12 -3l-7 -7l-9 -3v-1l-13 -2h-3l-2 1l-2 -1l-5 -3l-4 -2l-41 -8 l-46 6l-15 5l-11 1l-17 4l-48 25l-15 10l-2 3l-1 1l-13 9l-25 19l-3 5h-2l-2 2l-4 2l-3 3l-1 2l-3 2l-8 8l-6 5l-9 5l-3 4l-12 2l-6 -3h-5l-13 -4l-10 -8l-15 -16l-10 -6l-2 -3l-1 -1l-2 -4l-1 -3l2 -1l-2 -1l-1 -6l-3 -3l-6 -4h-10l-4 -1l-4 -2l-3 -3l-11 -2l-3 -4l-3 -1 h-1l-4 1l-2 2l-5 3l2 6l39 43l7 5l26 26l7 3l2 2l1 2l4 2l44 42l6 9l5 2l20 22l1 2l14 16l8 7l3 4l33 32l19 16l18 21l5 9l1 22l-2 11l-2 1l-1 2l-2 3l-2 2h-2l-2 4l-17 22l-3 5l-3 4l-6 9l-2 8l1 2l8 10l6 16l5 3l3 1l12 -4l1 -1l3 -2l13 -5l49 -15l11 1l28 -4l26 23l5 6 l3 6l4 3l2 3l20 22l8 10l3 2l32 30l2 1l15 18l1 3l4 3l4 6l1 3l25 30l5 10l-5 2l-2 -1l-2 -2l-1 -2l-14 -4l-3 -2l-9 -3l-7 -1l-19 -6l-10 3l-40 -9l-39 5h-32l-15 2l-6 3h-5l-22 5l-28 2l-50 15l-24 1l-39 -6l-4 6l1 4l6 5l6 3l7 3l10 6l4 4l18 15l5 8l22 12l14 3h1l13 -2 l56 -16l47 -8l8 -2l4 -2l29 -4l36 -2l7 -1l7 -2h5l4 -1h54l32 9l24 4l48 21l2 3l1 1l8 4l5 2l4 1l1 -10l-2 -11l-8 -12l-9 -8l-5 -11l-37 -26l-20 -25l-12 -9l-6 -9h-1l-7 -6l-2 -2l-24 -20l-7 -11l-4 -3l-1 -2l-16 -16l-5 -4l-8 -6h-2l-2 -3l-2 -7l-31 -25l-24 -26l-1 -5 l33 -2l15 1l26 -2l6 3l3 -1l18 1l35 8l33 4v-7l-13 -7l-3 -2h-3l-26 -12l-49 -13l-38 -9l-75 -2l-8 -3l1 -2l-11 -7l-5 -4l-2 -1l-3 -3l-19 -18l-7 -6l-1 -2l-18 -18l-2 -1l-4 -3l-1 -3l-28 -27l-1 -2l-4 -6l-18 -14l-10 -12l-6 -4v-1l-34 -36l-14 -12l11 -7l28 -19l4 -4 l10 -6v-2l4 -3l4 -9l4 -1l4 -3l6 -2l12 -11l3 -8l11 -6l6 -4l2 -1v-1l9 -5l8 -8l21 -11v-3h5l1 -2l6 -3h12l24 -10l36 -11l38 -4l15 6l13 1l44 18l31 30l6 10h2v4l14 14l11 21l1 4l3 6l6 7l1 2l2 1l3 2l1 5l1 4v1l1 2l-1 2l12 19l1 3v2l-2 4l5 13l2 7l2 4l8 37l-2 2l3 5l4 6 h2l9 -4l2 -6l-2 -5v-22zM335 343l1 2l-10 5l-13 1l-6 1l-5 1l-15 -3l5 -1l6 -3l3 -7h3l1 -4h5l10 -7l10 12z" />
<glyph unicode="[" horiz-adv-x="353" d="M245 625l-27 -6l-3 -13l1 -14l-1 -6l-2 -10l1 -3l1 -7l-1 -7l2 -7l-1 -7l-4 -11l-2 -10l5 -29l-3 -4v-47l-2 -9l3 -40l-4 -9l1 -22l-2 -7l5 -6l-3 -7l-1 -27l-2 -3l2 -5l1 -24l-1 -44l2 -8l-1 -2l-1 -4v-40l1 -18l1 -48l-1 -9l1 -10l-2 -8l1 -9l-1 -25l-1 -8l-3 -4l3 -3 l3 -26l17 -5l6 2h5l15 -5l26 5l20 -3l5 -2l1 -2l-5 -9l-5 -6l-3 -9l-8 -7l-20 -2l-2 2l-11 -1l-4 -3l-11 5l-31 1l-8 -3l-8 -2h-24l-4 9l-3 2l-3 20v5l-1 25l5 9l-3 9v36h3l-3 6v15l3 9l-3 13l-1 21h4l2 -5v27h-3v-2h-2v20l1 11l2 5l-2 5v19l3 15l-4 6v47l2 4l2 1l-2 7l-3 1 l3 75l-2 7v6l2 3l-1 3l3 29l-4 31l1 18l-1 8l5 33v37l4 37l-1 12l1 12l-3 14v10l4 8l23 7l18 -3l6 -2l23 4l11 -1h4l11 -2l43 -2v-19l-11 -12l-27 -8z" />
<glyph unicode="\" horiz-adv-x="295" d="M17 652v5l9 8l2 3h2l3 5l9 11l-1 1l2 4l3 -1l1 -1l2 -3v-4l3 -3v-3l14 -28l6 -20l20 -51l2 -7l2 -6l41 -115l3 -14l13 -29l3 -16l22 -45l42 -120l21 -55l2 -1v-4l17 -38l10 -29l4 -3v-5l12 -26l13 -38l4 -5l2 -4l17 -38l-2 -11l-1 -2l-1 -6h-2l-6 -8l-1 -4v-3l-7 -3 l-1 -3l-5 1l-1 2v4l-6 11l-13 38h-2l-13 31l-8 23l-16 39l-2 2l-4 17l-10 24l-2 2l-8 26l-23 52l-34 93l-5 9l-5 6l-3 2l-2 17l-21 56l-8 13l-2 12l-11 24l-12 41l-14 33l-2 3v2l-11 33l-7 14l-5 17l-18 40l-6 17z" />
<glyph unicode="]" horiz-adv-x="353" d="M122 13l27 6l3 13l-1 13l1 7l2 10v4l-2 6l2 8l-2 7l1 7l3 10l2 10l-5 28l3 6l1 47l2 8l-4 40l4 9l-1 22l2 7l-4 7l2 6l1 26l2 5l-1 4l-2 25l1 44l-1 7v1l1 5l1 40l-2 18l-1 48l1 9l-1 10l2 8l-1 9l2 26v7l3 4l-3 4l-3 25l-18 6l-4 -2h-6l-14 4l-27 -5l-20 3l-5 2l-1 2 l6 10l5 6l2 9l8 6l20 2l2 -2l12 2l3 2l11 -4l31 -1l12 3l4 2l24 -1l4 -8l3 -3l2 -12l1 -7v-5l1 -26l-5 -9l3 -9v-35h-3l3 -7v-15l-3 -9l4 -12v-22h-4l-2 5v-26h3v2h2v-21l-1 -10l-2 -5l2 -5v-19l-2 -15l4 -6l-1 -4v-44l-2 -3l-2 -2l2 -7l3 -1l-3 -75l3 -6l-1 -7l-2 -3l1 -4 l-3 -28l4 -31l-1 -17l1 -9l-5 -32v-17l1 -21l-5 -37l2 -12l-2 -12l3 -13v-11l-4 -7l-23 -7l-24 4l-23 -4l-11 2h-3l-12 2l-43 1v19l12 13l26 7z" />
<glyph unicode="_" horiz-adv-x="477" d="M0 -191v59h494v-59h-494z" />
<glyph unicode="`" horiz-adv-x="283" d="M75 547l-9 25l1 2l5 1l13 3l2 1l1 1l-1 2l18 18l3 1l2 2l9 -1l2 -1l5 -3l1 -1l3 -7l5 -5l3 -5l3 -2l5 -6l8 -17l33 -48h1l7 -9l7 -13v-2l5 -3l3 -5l12 -17l2 -4l3 -9l-3 -2h-2l-2 1l-5 4l-3 -2l-10 4l-2 1l-4 3l-5 6l-6 4l-1 1h-1l-2 4l-4 2l-14 8l-3 3l-2 1l-2 2h-1 l-9 6l-5 3l-16 12l-13 4l-13 14v2l-8 7l-4 3l-6 5z" />
<glyph unicode="a" d="M486 33v-5l-5 -3l-5 -4l-24 -17l-20 -8l-4 -1l-1 3h-9l-13 11l-16 24l-8 9l-5 15l-12 21l-3 4l-1 5l-5 4l-1 4l-3 8l-1 11l-8 16l-1 15l-3 4l-3 9l-1 9l-6 8h-5l-3 -4v-3h-2v-2l-2 -5l-21 -33l-20 -21l-3 -7l-23 -20l-8 -11l-11 -6l-6 -8l-18 -10l-9 -3l-5 -4l-10 -4 l-3 -4l-6 -1l-17 -13l-11 -2l-15 -9l-33 -11l-10 1l-6 -5l-10 3l-22 13l-7 7h-4l-5 -3l-7 -6l-7 1l-4 -2l-13 5l-21 11l-7 15l2 29l3 4v3l15 21l3 3l5 7l8 16l32 28l3 2l1 2l7 4l5 7l10 7l11 11l17 10l4 3l2 1l1 3l3 1l7 6l2 1l1 4l4 6l13 7h4l15 9l11 3l7 5l6 2v2l19 7l1 1 l6 3l11 5l22 6l7 3l32 -1l17 -10l9 -7l4 -7h3l-7 12l-2 18l-7 11l-8 23l-7 12l-15 13l-21 2l-8 -5l-35 -40l-14 -12l-5 -4l-4 -1l-3 1l-3 3v2l9 7v2l1 3l3 4l10 12l13 11l13 16l43 40l10 1l17 11h3l3 -1l3 -2l11 -1l18 -19l8 -13l11 -27l4 -5l12 -33v-4l2 -6l2 -16l4 -9v-4 l2 -8l1 -7l2 -7l8 -26l4 -7l1 -13l8 -14l1 -18l5 -9l6 -25l17 -36l6 -7l2 -4l6 -7l1 -9l23 -17l13 2l4 2h8zM294 233v5l-9 7l-7 6l-7 2l-22 2l-24 -6l-7 -3l-10 -4l-4 -3l-3 -1l-37 -17l-4 -3l-2 -3l-6 -2l-5 -2l-2 -3l-7 -5l-1 -2l-2 -1l-1 -2l-5 -4l-19 -22l-2 -5l-2 -7 l-5 -4l-1 -4l-7 -15l-3 -2l-2 -5l-5 -8l1 -12l-6 -10l-2 -14l2 -20l6 -13l6 -3l5 -10l12 -8l14 -2l19 2l25 9l4 4l8 1l20 11l20 19l3 1l2 2l33 42l5 4l3 5l8 11l8 20l4 7l3 5v2l2 4l5 14v5l1 3l2 3v23zM65 142l-10 -6l-12 -13l-8 -5l-3 -4l-2 -5l-4 -8l-3 -3v-9l-1 -3l-2 -4 l-5 -5l-2 -10l2 -5l3 -9l6 -6l-1 3h8l4 1l4 5l1 5v4l7 21l2 7l4 5v1l2 3l1 4l3 9l15 21l4 8l-2 2l-3 2l-5 -2l-3 -3v-1z" />
<glyph unicode="b" horiz-adv-x="343" d="M350 327l-3 -33l-4 -13l-2 -3l-1 -4v-2l-4 -17l-16 -36l-3 -4l-2 -3l-3 -7h-2l-10 -22l-10 -11l-6 -12l2 -1l-18 -20l-10 -18l-27 -27l-14 -21l-2 -4l-8 -6l-7 -4l-18 -20l-15 -7l-3 -12h-4l2 -2l-20 -16l-6 -4l2 -2v-2l-1 -5l8 -113l-6 -1l-4 7l-4 20l1 4l1 1l-4 9l-2 8 v2l4 6l-3 4l-5 17l-1 5l-1 3v10l-2 7l-3 4l-5 1h-3l-3 -2l-5 -3l-3 -3h-6l-3 -1h-5l-7 3l-11 3l-9 -3l-3 2l-4 3l-1 4l1 5l-2 9l-11 24l-1 3l-1 4l-11 15l-2 4l-3 18l5 9l-2 7l-4 5l1 6l2 1v3l2 6h3l9 -16l17 -46v-2l5 -5l10 -11l23 -10l17 -2l2 1l11 3l2 1v4l-1 1v1h-2v8 l-2 3l-3 3l1 11v3l-2 5l-3 25l-13 27l-10 6l-22 2l-9 -14l-7 -1l-14 6l-7 7l-5 10l-2 6l-3 21l1 30l3 1v5l21 42l21 24l10 9l3 8l6 7v7l-4 7l1 25l-2 6v3l-2 10l3 23l-2 12l3 3l-1 6l-1 3v9l2 9v4h1l-4 10l1 3l1 8l1 13l2 11v3l-2 8l-1 3l2 4l-2 10h2v4l-2 6l-1 32l3 16 l-1 3l-3 4l1 22l-1 2l3 4l2 3l-4 22v3l4 23l-4 4l-3 26l-8 19l2 12l10 4l9 5l4 5l11 9l2 3l5 6l1 3l12 1l8 2h2l3 -1l1 -2l4 -12l4 -64l-2 -16v-17l-4 -11l4 -11l-4 -107l-2 -6l1 -8v-10l1 -9l-3 -12l1 -7l-1 -12v-9l-4 -92l48 31l6 6l4 2l5 1l4 4l6 2l28 17l5 1l2 1l8 2 l5 3h3l10 1l4 4l14 2l4 2l4 1h4l29 -7l12 -15l8 -24l3 -4zM289 272l-2 2l2 15l-2 18h-1l3 3l-2 15l-8 18l-9 12h-13l-31 -10l-33 -26l-5 -1l-21 -15l-7 -6h-3l1 -2l-10 -4l-11 -14l-7 -16l-3 -16l-1 -55l1 -5v-1l1 -2l-1 -2l1 -48l3 -30l-1 -24l4 -49l2 -3l9 7l3 2l8 6l8 8 l3 5l7 5l9 8l6 12l9 7l4 8l3 3l5 7v2l4 5l1 2l4 4h2l2 6l6 8l6 10l5 3l1 2v2l-1 4l6 8l4 5l2 4l2 5l1 6l5 6l1 6l13 24l2 12l11 36v2z" />
<glyph unicode="c" horiz-adv-x="342" d="M327 197l8 2l-7 -32l-2 -3l-3 -6v-1l-8 -11v-5l-2 -2l-3 -6l-16 -22l-5 -8l-8 -5l-4 -10l-17 -18l-5 -6l-3 -2l-3 -3l-18 -13l-7 -8l-32 -22l-46 -18l-3 -2l-6 -3l-8 1l-30 -3l-23 8l-20 15l-8 7l-4 -1l-20 4l-7 8h-1l-7 10l-6 3l-2 3h-2l-1 4l-2 2l-6 36l4 16l-3 9l3 4 l6 25l12 19l-1 2l2 3l2 5l6 10l2 4l4 6l2 4l7 9l12 24l9 11l5 4l4 3l7 12l32 35l4 3l24 26l48 43l35 24l41 20l17 1l2 -4l-3 -13l-8 -25l-17 -1l-23 -11l-7 -9l-11 -4l-21 -14l-11 -8l-2 -1l-6 -6l-6 -5l-5 -5l-15 -19l-25 -35l-6 -7l-2 -8l-8 -9l-27 -65l-9 -43v-11l5 -35 l-1 -1l-1 -3l1 -4l2 -1l3 1l3 -2l3 -9l8 -9l10 -6l8 -4l4 -4l13 -1l17 2v-1l2 -1h3l3 1h1l4 -1l12 5l16 2l26 12l25 21l14 11l2 2l4 3l18 24l2 2l2 3l3 2l14 13l7 13l20 28l6 12zM91 233l-2 6l-9 -2l-12 -11l-5 -8l-3 -6l-4 -1l-20 -35l-2 -11l-6 -6l-9 -35l-2 -16l6 -20 l-1 -7l1 -6l6 2l3 -2l5 4l1 1l4 15h-3l1 5l3 10v6l4 21l16 46l5 10h1l10 20l4 9l2 2z" />
<glyph unicode="d" horiz-adv-x="427" d="M3 83l-3 9l3 4l-3 6l3 2v3h1v4l11 17l89 100l2 -1l2 2l20 30l11 13l2 4l4 5l33 39l29 30l18 9l-1 -14l-8 -15l-8 -4l-4 -5l-4 -6l2 -5h1l2 2h2l4 4l60 35l8 1l11 5l16 -1l6 -1l3 -2h2l3 1l3 4l1 3v2l-3 14l1 19l-2 2v22l3 13l-1 9v3l-1 15l1 -1l1 2v28l-1 2l1 1l3 8 l-2 24l1 35l-2 1l4 13l2 32l1 3h3l5 41l-2 21l1 10l1 14v9l4 10l11 6l5 1l7 2h4l18 13l10 4l9 -5l2 -12l-3 -6l3 -8l-2 -8l-2 -10l-1 -4v-6l-8 -28l-1 -5v-2l2 -6l-4 -16l2 -10l-3 -4l-2 -8l1 -20l1 -4v-10l-2 -12l2 -3l2 -2v-13l1 -3v-5l3 -6l2 -18l-6 -18v-4l-1 -7l1 -11 l-9 -15l2 -5l-2 -26l-13 -74l2 -51l-1 -14l6 -105l3 -1l1 -7l1 -20l11 -52l4 -15l4 -5l-1 -4l5 -9v-2l2 -6l23 -44l-1 -4l-4 -5l-5 -2l-3 1l-2 1l-11 11l-18 -7l-11 9l-2 8l-5 4l-4 11l-4 1l-4 3l-3 4l-5 8l-1 7l-3 3l-9 18l-3 4h-2l-4 10l-6 14l1 2h1l-4 4l-3 5l-8 -3 l-4 -7l-3 -4l-1 -3l-4 -7l-1 -1l-2 -1l-3 -5l-16 -21l-53 -59l-15 -7l-40 -37l-2 -1l-5 -2l-4 -1l-3 -3l-10 -6l-3 -1l-21 -9l-17 -4l-19 3l-21 8l-8 8l-10 22l-9 38l3 19l-4 9l-1 18l-18 8l-6 7zM74 58l-2 -20l2 -17l9 -17l11 -10h2l5 -4h24l6 -2l34 13l7 1l26 16l3 3l4 3 l1 2l14 12l2 5l22 20l9 11l5 7l3 4l14 19l6 6l-1 1h2l2 2l2 4l3 9l5 4l3 11l12 14l1 4v2l-2 4h3l4 19l-1 14l-2 47l-3 4l-1 6l-4 -1l1 4h-1l-2 -3l-6 -6l-2 -1l-5 -6l-32 -35l-19 -15l-42 -43l-9 -5l-9 -9l-59 -45l-3 -4l-15 -12l-14 -6l-11 -5l-1 -2zM86 133l-1 -16l3 -1 v-2l22 3l16 9l9 2l1 -1l4 5l4 1l8 6l15 8l15 10l26 24l4 2l3 3l5 3l19 19l4 3l1 1l2 3l1 1l2 1l5 4l21 21l5 7l1 3h3l10 12l2 2l3 2l2 1l7 7l1 4l-2 5l-2 4l-7 7l-2 1l-5 3l-5 7l-7 2l-2 -1l-3 -1l-10 3l-16 -2l-32 -17l-22 -17l-26 -16l-2 -5l-9 -6l-2 -5l-4 -1h-2l-2 -2 l-1 -3l-5 -2l-10 -16l-2 -5l-10 -10l-4 -10l-1 -5l-3 -2l-14 -24z" />
<glyph unicode="e" horiz-adv-x="364" d="M351 169h7l-4 -10l-2 -4l-4 -9l-15 -15l-8 -9l-50 -45l-8 -5l-3 -4l-10 -8l-2 -3l-3 -2l-2 -1l-3 -1l-16 -13l-47 -28l-15 -5l-7 -2l-3 -1l-16 -5l-4 -1l-12 -5l-29 -3l-24 -1l-19 7l-9 12l-7 5l-16 22l-7 35l6 24v10l15 51l34 68l-9 15l1 19l10 18l14 19l17 19l32 26 l24 18l30 22l7 4l31 16l42 15l19 2l15 -3l5 -2l12 -8l3 -24l-4 -16l-19 -42l-7 -9l-10 -10l-33 -35l-13 -6l-28 -21l-57 -24l-25 -7h-7l-12 2l-5 1l-2 8l15 7l12 12l10 3l8 7l44 8l13 4l42 24l16 18l10 22l2 13l-1 22l-16 12h-20l-9 -2l-16 -12l-5 -6l-5 -1l-27 -29l-5 -6 l-8 -7l-12 -12l-14 -21l-3 -4l-3 -2l-7 -8l-12 -14l-4 -9l-12 -12l-23 -50l-12 -40v-9l-2 -11l-2 -38l6 -16l9 -12l10 -9l14 -9l6 -2l11 -3l41 -1l38 12l39 20l15 14l4 3l3 2l44 33h3v2l2 5l19 17zM147 315l3 10l-14 -8l-24 -21l-2 -10l1 -4l6 -1l13 15l5 5z" />
<glyph unicode="f" horiz-adv-x="396" d="M422 247l2 -5l-2 -14l-6 -7l-10 -4l-3 1l-22 6l-21 15l-74 4l-5 3h-2l-3 -2l-15 2l-10 -4l6 -11l-2 -13l1 -3v-5l-2 -1l-4 -1l-6 20l4 5l-7 6l-9 6h-11l-6 -2l-5 -1l-4 -1l-2 -2l-1 -3l-2 -9l6 -86v-32l2 -6h1l1 -3l4 -1l2 2l5 2l7 7l16 7l3 22l2 3l6 -1l3 -2l1 -5l2 -13 l-7 -36l1 -11l-3 -7l1 -5v-10l-4 -11l-3 -35l-9 -58l-4 -8v-7l-4 -7l3 -14l-10 -83l-1 -43l4 -22l1 -16l-5 -5l-8 -4l-8 -2h-22l-2 3l-8 4l-2 4l-1 3l7 9l-1 19l-6 22v32l-5 15l1 12v4l1 8v17l-3 10l2 12l-2 12l1 17l-3 21v2l4 11l-5 34l3 26l-2 6l1 1l-1 4v67l-5 17l1 2 l1 7l-5 89l-3 9l-31 -1v-2l-7 1l-18 1l-32 -7l-38 -1l-14 -4l-18 -1l-7 8v4l4 7l7 7l28 11l13 8l6 4l2 2l24 16h2l21 15l41 24l24 19l1 -1l4 3l21 21l8 3l4 4l1 5l13 11l2 2l1 2l3 2l16 17l3 5l4 6l4 7l1 3h2l2 4v14l-2 1l-1 2l2 8v10l1 4v4l1 4v7l1 47h2v4l-2 5v17l1 7l1 6 l-1 32l-5 11v30l-5 34l-7 31v9l8 4l4 3l1 3l3 10l8 1l3 4l25 2l1 -10l-1 -7l9 -32l-1 -9l10 -36l5 -45l2 -51l3 -11v-14l1 -5v-9l-1 -65l-13 -31l-39 -46l-4 -22l-1 -43l-3 -11l1 -12l-3 -11l1 -12l-3 -4l2 -3l2 -2h9l5 -1l7 -1h40l16 -5l56 -1l30 -3l2 -4zM194 334l-12 -6 l9 -40l1 -9l1 -2l3 -10l8 -4l37 1v32l3 12l-3 4l3 13l-2 3l-1 2l-3 11h1l-1 5l3 3h4l-2 2l-4 1l-11 -2l-5 -2l-17 -4l-8 -7zM123 288l-29 -14v-3l-1 -2h2l2 -3l2 -1h3l3 1h5l27 -1l2 6v2l-3 7l-2 5l-4 3h-7z" />
<glyph unicode="g" horiz-adv-x="331" d="M395 -149l-1 -2l3 -17l-3 -18v-7l1 -4l1 -2l-7 -41v-15l-7 -25l-3 -5v-2h2l-11 -23l-1 -4l-4 -6l-8 -10l-3 -5l-1 -4l-25 -31l-4 -3l-9 -12l-3 -5l-6 -3l-11 -8l-2 -4l-26 -17l-10 -6l-3 -2l-10 -2l-22 -14l-12 -1l-5 -2l-3 -1l-4 -2l-3 -3l-58 -11l-3 2l-12 2l-10 1 l-5 -1l-6 1l-11 -2l-12 2l-31 13l-4 -1l-12 9l-14 6l-24 17v3l3 4l2 12l14 -5l3 -6l5 -3l6 -4l7 -3l9 -7l38 -12h32l1 -2l4 -1l8 3h14l11 1h6l7 2l15 2l14 6v-2l1 1l2 1l12 4l6 3l2 2l6 1l9 3l5 5h2l24 16l4 6l3 2l4 4l3 2v2l4 1l4 6l5 4l14 20l4 3l2 3l9 15l1 3l1 2l3 5 l22 53l7 37l3 33l-8 35l1 4l-2 7l-3 17l-14 39v3l-3 6l-7 24l-25 36l-9 9l-16 15l-21 10h-5l-11 3l-8 -2l-11 -2l-24 -10l-15 -2l-11 -3l-5 -4l-23 -6l-9 -5l-9 -2l-7 -3l-5 -7l-13 -7l-18 -1l-10 6l-2 3l-7 2l-3 2l-3 6h2v3l1 2l3 3l61 50l1 3h2l5 4l6 5l1 1l15 18l1 3l1 2 l-1 3l-2 8l3 7l13 12l48 30v2l17 12l8 12l21 6l6 6l2 1l4 1h2l2 -3l3 -4l1 -11l7 -6l-1 -12l-3 -14l-12 -18l-12 -6l-2 -8l-5 -5l-5 -6l-16 -12l-1 -3l-3 -4l-1 -1h-5l-7 -8l17 -2l39 12l13 -4l9 -5l3 -1l1 -1l17 -13l30 -34l4 -12l3 -3l2 -10l4 -3l4 -2l2 -3l5 -5l1 -2 l1 -4l3 -13l6 -11l9 -11l1 -13l1 -2l4 -4zM317 341l5 -22l-5 -10l-2 -21l-10 -20l-1 -10l-5 -14l-15 -17l-15 -22l-12 -6l-44 -41l-38 -21l-13 -10l-14 -9l-13 -2l-1 -3l-3 -1l-12 -2l-12 -9l-18 -3l-18 3l-12 -2l-8 2l-9 7l-4 2h-1l-15 21l-4 16l6 30l1 3l3 3l6 10l1 4l1 2 l6 16l18 26l4 10l9 9l21 30l14 13l5 11l15 13v3l4 3l17 20l-6 14l2 16v5l1 3l-1 14l5 14l-3 55l1 2l1 7l2 4l-1 12l4 28l-1 2l1 1l2 31l2 10l-1 15v9l1 5l13 9l3 7l6 5l8 -5l13 -4v-2l3 -1l2 -43l-4 -19v-14l-2 -3l-2 -5l-3 -2l1 -10l-5 -38l-6 -9l-1 -21l-8 -35h-1l-1 -5 l-1 -2l-1 -27l4 1h3l9 6l19 22l9 3l6 10l3 3l1 2h5v-4l14 -6h2l5 -4l5 -2l22 -12l21 -17l6 -16l9 -11l2 -4l1 -3zM243 232l-1 21l-8 25l-27 50l-9 19v13h1v10l-3 4h-4l-10 -8l-22 -30l-2 -1l-9 -10l-59 -87l-26 -56l-3 -13l1 -15l5 -7l9 -6l14 -5l37 3l24 9l18 9l6 4l5 3 l15 10l36 32l11 17v3z" />
<glyph unicode="h" horiz-adv-x="352" d="M371 24l8 -8l-5 -8l-3 -3l-3 -1l-5 -1l-4 -3l-9 -7l-28 -3l-7 3l-23 19l-2 7l-8 8l-2 3l-3 1l-10 20l-2 12l-7 5l-2 6h-3l-9 61l-4 11l-3 80l2 5l-1 4l-1 2v13l3 16l-5 29v27l-6 1l-2 -1l-6 -15l-11 -40l-1 -11l-11 -36l-10 -44l-3 -35l-8 -14l-3 -22l-12 -32l-6 -9 l-7 -18l-2 -1l-1 -4v-2l-4 -14l-7 -9l-3 -10l-1 -1l-7 -10l-2 -5l-17 -14l-11 -5l-8 -6l-7 -3l-3 -3l-7 2l-8 2l-10 19l-3 16l-6 16l2 20l-2 19l-2 67l1 4v5l-1 13l2 23l2 5v16l-1 6l2 7l1 12l-1 29l3 18l1 53l-2 4l2 10l1 8l2 7v32l5 63l3 4v54l2 5v24h-2l-1 3l1 4l3 10 l-6 14l2 1l-4 27l1 33l-2 8l-2 46l-3 9l-1 2l-3 27l17 19l12 6h2v2l12 14l16 -3l9 -39l3 -69l1 -6l-1 -7l-1 -5l-2 -4l-1 -19l2 -12l-2 -35l-4 -22l-1 -34l-1 -6l-1 -8l-1 -2l-3 -58l1 -39l-1 -2l2 -3l-4 -45l-2 -8v-42l-1 -5l-1 -2l-5 -67l1 -6v-70l2 -5l-1 -30l4 -25 l-1 -7l9 -35l12 10l14 24v11l7 11l2 4v4l-2 2l2 9l11 24l17 46l1 18h3l9 36l24 84l5 9v2l4 7l3 8l13 43l17 15l3 4l24 16l8 -2l2 -2l9 -24l2 -12l3 -83h-1v-41l-1 -6l1 -7l2 -12l-1 -22l3 -5l1 -6l5 -58l8 -29l7 -19l22 -35l2 -1v-2l3 -3l18 -14l1 -2z" />
<glyph unicode="i" horiz-adv-x="171" d="M129 417l9 -10l-3 -2l-1 2h-2l-7 -13h-1l-1 -3v-3l3 -10l-1 -5l-4 -12v-5l-1 -9l-4 -34l3 -25l-2 -12l2 -25v-14h-4v2l-8 12l3 15l-2 4v1l-3 15v7l3 8l-1 14l5 94l-1 20l-1 5l-1 4l-2 2l-4 1h-4l-3 -1l-3 -3l-10 -5l-9 6l-6 9l-4 4l-2 1v4l-9 21l6 18l38 21l13 3l15 -16 l2 -9l10 -24l-2 -7l-8 -8l-4 -7v-13l5 -10zM122 78l1 -3l-6 -31l-2 -31l-19 -8l-28 -6h-3l-2 1l-1 5l-7 40v6l-1 13l1 3h-1l-2 29l1 2l-2 2l2 18l-1 2l-2 7l1 16l-5 64l3 16l-2 7v3l-1 2l2 31l1 6v6l-3 22l3 11l1 54l-1 4l1 6l6 6l19 9h2l5 -1l14 2l5 -30l-3 -43l1 -7 l-3 -17l-1 -21v-9l-1 -5l2 -27l-5 -21v-25l5 -4h2l6 3h7l5 6l1 7l3 2l3 -2l3 -6l-3 -21l1 -30l-4 -26l2 -6l-1 -23l-3 -5l1 -3h3z" />
<glyph unicode="j" horiz-adv-x="373" d="M378 212l9 -8v-3h-2l-7 -19l-15 -12h-13l-5 1l-13 1l-14 3l-9 -4l-10 -1l-31 -12l-55 -40l-2 -3l-5 -5l-4 -5l-25 -24l-11 -21l-8 -11v-17l3 2l-5 -8l-1 -7l-2 -48l-3 -9l2 -11l-2 -8l1 -5l-1 -20h2l-1 -26l-4 -6l3 -14l-2 -7v-4l2 -2l1 -2l-2 -17l4 -53l1 -3h2l4 -44 l4 -15l2 -9l2 -7v-5l2 -1l14 -50l4 -7l1 -3l3 -2l21 -39l6 -7l1 -3l3 -1l22 -28l3 -5l4 -3l5 -10l3 -2l2 -3l2 -9l-5 -13l-10 -11l-10 -6l-13 -4l-16 6l-5 3l-25 8l-4 8l-14 13h-4l-32 27l-5 6l-1 1l-5 16l-10 9l-16 23l-20 45l2 4l-1 3v3h-2l-7 22l-4 26l-3 7v2l1 3l2 4 l-6 35l3 16v22l3 27l6 23v11l5 18l1 12l5 18l4 1v1l-5 3l-1 4l3 4l13 20l3 9l3 2v3l15 33l6 5l2 13l-2 5l1 37l5 49v33l3 18l3 86l2 13l-2 8l2 23l-3 10h-8l-9 -14l-1 -21l-4 -10l-17 -11l-16 -27l-3 -6l-8 -15v-10l1 -2l1 -4l-15 -26l-3 -21l1 -21l-5 -13v-3l-2 -7l1 -9 l-4 -7l-4 -2l-4 3v13l3 28l6 21v4l1 10l8 39l9 30l2 8l4 4l-2 8l-1 7l1 4l6 6l26 45l4 12l3 4l3 6l14 27l1 6l9 9l5 9l3 3l5 7l4 7l1 1l3 2l2 1h2l6 -3l9 -6l10 -23l4 -45l-1 -10l1 -5v-1l-4 -17l1 -2l1 -3l-2 -6l-2 -62l-3 -11l2 -13l-2 -20v-11l-4 -35l-1 -2v-20l2 -1h4 l2 2l53 58l5 3l6 7l41 30l30 10l6 3h4l13 3l12 3l31 -3zM168 431l-27 8l-3 2l-5 6l-1 2l-3 27l10 26l36 -2l10 -2l3 -3l2 -1l6 -10v-6l2 -3l-2 -9l-1 -8l-2 -3l-3 -14l-2 -5l-7 -5h-13zM164 -394l-2 2l-23 54v6l-7 16l-9 40l-6 49l-3 4l-1 8l-2 2v104l-4 11l5 27v10l-2 5v8 l1 8l-3 2l-2 -4l-3 -7l-4 -5v-22l-1 -4v-2l1 -1l-2 -3l-2 -5l-2 -11l-4 -9l-11 -60l2 -12l-2 -6v-33l-3 -12l4 -10l1 -1l1 -5l3 -4v-3l3 -4v-12l4 -10v-10l8 -8v-3l8 -24l17 -26l11 -20l1 -3l6 -6l3 -11l6 -10v-1l5 -1l4 1l4 3v8z" />
<glyph unicode="k" horiz-adv-x="392" d="M433 -81l-6 -1l-14 9l-4 4l-7 8l-7 5l-20 12l-8 9l-6 3l-3 2l-4 3l-22 8l-24 14l-5 6l-20 8l-8 1l-23 10h-6l-15 6l-33 20l-17 14l-3 12l-7 8l-3 10l7 16l4 8l3 5l10 16l7 6l16 22l11 11l4 8l2 3l1 3l4 3l5 4l2 3h2l1 4l21 25l22 21l3 4l1 3l3 5l6 7l4 5l7 7l1 2l1 3v6 l3 4l3 3l8 9l10 17h2l-3 2l-4 1l-9 -8h-1v-1l-2 -1v-1l-49 -30l-1 -3l-6 -3l-27 -27l-1 -2l-1 -3l-5 -3l-6 -2l-38 -46l-2 -6l-1 -2l-5 -4h-2l-20 -33l-22 -31l-2 -9l-2 -3l-7 -17l-8 -26v-12l-1 -4l3 -13l-14 -33l-10 -7l-10 2l-10 1l-7 3l-9 7l-2 1l-3 3l-7 55l3 13l-5 6 l5 34l-3 7l2 4v21l-2 2l2 2l-2 9l1 15l-3 41l3 4l-3 52l1 2l1 11l-1 14l3 19v10l-2 5l3 12l-1 1l2 10l-2 10l2 23l-1 3l1 5l-1 1l4 54l3 14l-3 10l-2 21l3 9l1 8l-1 2l-2 13v4l1 6l2 4v8l-2 57l2 34l-1 5l3 11l1 8v23l5 11h14l1 2l4 2l3 5l3 2l3 1l4 1l3 4l6 6h1v3l18 1 l1 -3l-1 -9l1 -47l-1 -8l1 -5l-1 -5l-3 -13v-4l-4 -26l-1 -120l-6 -66l1 -7l-5 -26l-2 -73l-5 -22l1 -29v-15l-2 -47l3 -17l-1 -4l-1 -2l-1 -3l-1 -29l9 2l11 12l1 3l3 2l2 1l8 13l3 3l6 4l3 7l40 47l8 6l8 7l7 8l3 4l29 21l20 17l61 39l12 6l7 3l4 2l18 6l18 10l30 1l6 -5 l1 -5v-2l-4 -16l-7 -10l-2 -6l-2 -3l-1 -1v-3l-9 -16l-14 -12l-5 -7l-6 -5l-4 -4l-10 -8l-5 -6l-4 -4l-2 -3l-11 -12l-10 -6l-6 -8l-4 -3l-8 -7l-2 -2l-3 -9l-2 -1l-3 -3l-34 -37l-3 -6l-20 -25l-4 -9l-1 -4l-2 -18l8 -22l23 -21l27 -17l33 -19l16 -12h1l3 -2l2 -2v-3l6 -7 h1l3 -6l14 -1l17 -15l4 -5l1 -3l9 -4l12 -17l8 -16l8 -6l1 -1l5 -6z" />
<glyph unicode="l" horiz-adv-x="156" d="M153 -58l9 -10v-5l-33 11l-5 4l-11 2l-4 4l-1 2l-6 8l-4 2l-6 9l-9 9l-1 4l-28 18l-5 6l-5 19l2 14l-1 1v6l-2 36l3 16l1 30l2 3l3 24v39h-2l-1 25l4 31l-3 6l-1 91l-3 11l4 22l2 59l2 9v71l2 12l-3 19l-1 39l-1 3l-4 8h-2l1 39l3 12l-6 14v12l-1 2l-1 8v15l-1 8l1 3l2 4 l2 3l12 13l10 2l7 2v1l2 1h4l4 -4l-1 -1l3 -12l2 -18l7 -18v-23l2 -20l10 -13l11 -3l3 -7v-20l-5 -5l2 -7v-4l-1 -2l-1 -3l-7 -56v-21l-4 -11v-33l-1 -2l-1 -7v-17l1 -3l-1 -2v-39l-1 -2l-1 -7l3 -1l-1 -15l-2 -8l-2 -51l2 -37l-3 -13l2 -24l-1 -6l2 -9l-2 -6l3 -78l7 -45 l-3 -26l4 -10l-3 -10l6 -11l1 -8v-3l3 -12l11 -26l8 -7l8 -17l4 -7z" />
<glyph unicode="m" horiz-adv-x="500" d="M473 77l13 -49l13 -39h-3l-15 12l-13 6l-20 15l-6 10l-13 51l-1 16l-7 18l-1 5v4l1 1l-7 31l2 16l-13 70l-4 10l-4 3l-3 1l-3 -1l-6 -7l-5 -11l-1 -1l-4 -5l-1 -6l-1 -4l-3 -7l-2 -2l-13 -24l-4 -13l-2 -3l-3 -4l-3 -5l-13 -34h-1l-4 -4l-9 -21l-12 -14l-24 -13l-9 -7 l-18 -9l-9 -1l-4 5l-4 40l2 5h1l-2 2l-1 -1l1 2v2l1 1l-2 46l2 7l-2 2l-2 41l1 8l1 11l1 30l-2 1l2 2l1 3v4l-3 3l4 39l-4 8v6l2 14l-2 3l-3 4v2l-3 3l-7 -13l-3 -3l-1 -4l-15 -36l-1 -5l-3 -2l-5 -17l-9 -15l-26 -79l-11 -25l-3 -20l-2 -2l-4 -5l3 -1l-14 -44l-5 -10l3 -7 l-7 -11l-1 -6l-2 -3l-5 -10l-14 -15l-3 -1l-9 -6l-8 -7h-2l-4 -4l-11 -1l-4 -3l-2 -1l-3 -1l-4 3l-3 43l-1 1l1 3l2 5l-2 20v3l2 3l1 1l-2 1l1 5h-1l1 1l1 43l2 6l-6 30l1 4l2 1l-1 23l1 9l1 7v16l-1 18l2 2l-1 3l-1 4l5 1l1 17l-3 6h-2l-2 23l1 19l-4 17l1 3l1 4l2 15l3 7 l11 6l33 8l1 -16l6 -9v-3l-1 -6l-2 -14l-7 -7l-2 -5l2 -12l-1 -4v-118l-2 -5l-1 -1l1 -76l1 -5l5 -4l2 -1l5 3l2 4l3 3l5 12l16 28l3 14l11 29l1 4l4 8l2 2l5 20l3 5l3 1l6 18l4 11l4 5l-1 6l3 7l2 5h1v4l3 7l7 20l7 10v2l1 3l10 14l-2 2l22 46l8 6l19 8l5 3l1 1l16 3l6 3 l14 1l-1 -53l-2 -12l1 -9l-1 -5l3 -3l-8 -115l1 -20l-3 -11l-3 -6h-2l7 -17l1 -6l2 -3l3 -2h2l3 1l7 11h3l13 21l2 1l1 4l4 6l10 37l9 16l4 12l5 7l6 21l6 12l2 3l15 23l1 1l2 4l1 17l2 1l1 3l5 2l8 2l7 5l19 6l13 1l4 2h2l3 -1l2 -2l2 -69l3 -17l5 -80l5 -19v-59z" />
<glyph unicode="n" horiz-adv-x="389" d="M399 -17l5 -5h-3l2 -1l-5 -3l-6 -1l-7 7l-9 4l-9 12l-11 7l-12 5l-6 9l-23 15l-1 5l-2 1l3 2l-4 18l-7 9l-1 16v7l1 6l-1 7l-9 32l-6 29l2 6l-2 11l-2 18l3 108l-2 19l-3 10l-10 -13l-24 -55l-6 -10l-7 -12l-3 -7l3 -3l-39 -69l-4 -13l-11 -18l-1 -1v-3l-1 -5l-15 -24h-1 l-2 -5l-5 -6l-6 -15l-1 -1l-7 -13l-5 -4l-3 -14l-13 -26l-9 -10l-10 -1l-3 -5l-12 -7l-15 1l-3 -1l-2 -1h-3l-5 1l-4 4v5l-3 12l-4 50h3l-2 5l1 9v27l-5 14l3 14l-4 25v18l1 4v11l1 6l3 34l-5 15l2 3l2 25l-2 7l2 5l-2 15l1 77l2 1l3 13l8 6l51 11l6 -7l2 -11l-1 -18l-1 -10 l1 -2l-3 -4l-5 -18l-3 -9l-2 -7l-2 -4l-5 -46l-3 -12l-1 -22l-2 -4l-1 -4v-2l-1 -20l5 -77l-3 -12l2 -3v-12l1 -2l2 -21v-6l1 -3l5 -3h6l13 7l4 7l2 3l2 10l10 12l15 23v4l1 1l17 21l6 19l16 28l10 13l15 32v1l3 6l3 12l1 3l5 5l5 6l2 7l7 22l9 20l14 44l13 21l26 12h4l4 2 l21 3l2 -14l-3 -5l-1 -3l1 -4l6 -38l-1 -3l-1 -9l-4 -11l3 -41l-3 -13v-8l-1 -3l-1 -16l6 -20l8 -79l7 -48l2 -8l3 -13v-19l4 -10l4 -7l3 -6l3 -7l8 -20z" />
<glyph unicode="o" horiz-adv-x="379" d="M371 242l-2 -2l-7 -18v-7l-3 -6l-2 -3h-1l4 -12l-24 -42l-2 -2l-2 -5l-4 -7l-12 -12l-12 -19l-2 -5l-11 -11l-7 -11l-9 -7l-6 -8l-2 -1l-1 -2l-10 -9l-7 -8l-2 -3l-6 -5l-47 -27l-15 -3l-20 -8h-42l-20 5l-17 7l-16 15l-4 5l-13 13l-3 12l-4 6l-1 2v5l-5 15v16l-2 5l2 18 v9l1 4l4 17l1 11l-1 6l-2 4l-5 3l-3 13l-9 13v22l1 8l2 3l4 12l12 23l20 29l25 25l3 6h3v2l9 8l24 18l7 4l5 4l58 29l15 3l5 3l9 3l8 2l11 -2l13 5l12 -1l17 -5l6 -14l10 -7l5 -5l5 -4l3 -4l3 -3l2 -5l7 -7l3 -2l3 -5l9 -11l5 2l-2 5l1 2l2 2l4 1h3l4 -3l5 -8l6 -16l4 -15 v-10l2 -6l1 -14l-2 -1l1 -10zM335 286l2 2l-2 7l-5 6l-4 15h-1l-5 6l-5 10l-19 22l-6 2l-1 2l-12 5l-2 2h-2l-9 7l-5 1l-3 -3l-1 -4h-2l-10 7l-11 1l-3 -1l-3 1l-4 1l-2 2l-10 -2l-17 -7l-8 -6l-2 -1v-1l-7 -8l-2 -1l-5 -8l-11 -12l-9 -6l-19 -22l-4 -4v-2l-13 -20l-1 -3 l-2 -1l-10 -10l-6 -17l-6 -10l-5 -6l-2 -1l-2 -8l-4 -14v-2l-2 -8l3 -4v-4l6 -2l2 -2l17 -12l5 -3h1l6 2l8 -3l10 -27l-26 -4l-7 -4l-17 -2l-8 -3v-13l2 -4l5 -9l8 -16l3 -4l1 -4l12 -14l3 -1l8 -1l7 -3l10 -10l16 -1l17 -4l23 3l5 1l9 -2l12 8l4 1l6 2l5 3l4 2l5 3l13 9 l5 4h2l7 8l2 3l7 6l12 14l3 2l4 6l3 5l2 3l14 20l16 37v2l9 27l4 20l1 9l2 4l-1 8l-3 9l-1 12l-1 5l-1 6zM140 339l1 3l-6 3l-34 -27l-7 -8l-1 -4l-7 -5l-8 -11l-3 -5l-4 -4l-12 -16l-6 -15l1 -34l4 -2l3 3l-1 1h3l12 26l6 8v1l3 7l5 14l4 2l5 9l2 8l8 6l2 2l6 7l3 5l11 11 l1 2l4 4v2l2 3z" />
<glyph unicode="p" horiz-adv-x="374" d="M366 311l3 -6l-3 -7l-1 -18l-5 -10l1 -11l-5 -15l-1 -4v-7l-4 -5l-2 -7l-3 -4l-1 -9l-5 -4l-4 -14l-8 -14l-3 -10l-1 -2v-2l-2 -4l-8 -11v-6l-7 -10l-4 -5v-1l-6 -4l-15 -24l-13 -7l-1 -1l1 -4l-5 -7l-2 -5l-4 -3l-7 -9l-11 -10l-1 -2l-39 -32l-7 -2l-1 -3l-2 -2l-14 -6 h-11l-17 -7l-13 -3l-4 -2l-2 -5l-5 -58l2 -19l-1 -17l3 -25l-3 -143l3 -20l1 -9l-2 -10l-2 -7l5 -67l-1 -28l1 -16l-5 -12l-6 3l-6 8l-4 8l-2 2l-3 2l-1 2l-12 7l-14 16l-2 16l1 18l-1 43l-1 3l1 1l2 10l-3 103l-3 20l1 15v10l-1 43l1 3l3 2l-2 7l-3 1l-2 63l5 43l-2 48 l-3 3l-1 4l-1 3l1 13l2 4v3l1 5l-10 1l-3 -2l-2 -2l-8 -1h-25l-1 1l-5 1l-1 1l-5 9l-1 6l-2 5l16 48l38 62l17 22l-6 12l-2 14v2l-2 5v2l1 6l1 5v8l-4 17l15 22l4 3v6l4 5l1 2l3 5l2 4v2l9 9l2 3l5 7l3 5l4 6l5 3h7l5 -13l4 -19l-1 -17l-3 -14v-16l10 6l3 4l2 1l14 15l6 11 l12 5l28 24l18 13l26 12l15 1l2 1l6 1l7 3l18 1l3 -5l5 2l4 -1l2 -1l10 -3l7 -9l10 -7l2 -1l6 -4l10 -21l4 -18v-2l1 -10v-20zM323 231l-2 13v26l-2 3l1 5l-2 23l-2 6l-1 2l-3 3l-5 19l-1 1l-2 4l-19 21l-10 4h-9l-5 4l-8 -1l-5 2l-23 -2l-5 -1l-10 -7l-12 -10l-20 -10v-1 l-6 -2l-2 -5l-1 -3l-2 -1l-34 -40l1 -19l-2 -5l2 -44l-5 -30l2 -62l-3 -9v-23l-5 -12v-46l3 -1h1v-3l20 -2l23 6l23 10l21 17h7l5 7l1 2l4 1v3l13 12h4l2 3l1 1l14 16l2 3l-1 3l10 12l1 5l4 -1v4l25 47l3 15l8 31l2 4zM79 179l-3 37l-7 -16l-16 -19l-2 -4l-1 -3l-2 -10 l-8 -13l-5 -12l-2 -15l5 -11l12 -6l11 -1l10 9v4l3 3l3 11l-1 3l2 2l2 5v1l-5 5l-1 2l1 25z" />
<glyph unicode="q" horiz-adv-x="479" d="M476 288l2 -1l-9 -11l-3 -2l-7 -7l-3 -6l-3 -10l-1 -2l-9 -6l-10 -17l-1 -33l-5 -27l-1 -33l-4 -22l3 -31l-3 -13l1 -1h-1l-2 -12l-3 -55l2 -17l-1 -6v-4l-4 -6v-5l-1 -12l1 -10l-3 -7v-16l-2 -7l3 -13l1 -5l-3 -6l2 -66l-7 -7l5 -7l1 -4l1 -2v-2l-1 -2l-4 -5l3 -22 l-2 -33l2 -12l-2 -80l2 -14l-1 -15l1 -11l-1 -5l2 -23v-8l-2 -7l-2 -2l-28 -21l-6 -2l-2 1l-1 4l-1 2v22l-1 3l1 6v2l-2 4l-2 3l4 5v3l-1 5l-2 6l1 17l-3 18l2 4v12l-1 31l3 6l-2 1l-1 22l-3 16l1 2l-1 5l1 14l-2 4l1 4l-2 15l-1 6v18l1 12l2 10l-2 14l-6 26l2 3l2 4v9 l-2 11l2 15l-1 17l1 6l-1 4l3 10l-2 12l-1 9l1 5l-2 41l-1 2l1 3v8l-2 19l1 12l-2 49l1 4v5l1 11l-2 24h-5l-13 -9l-18 -17l-9 -6l-13 -13l-7 -3l-4 -2l-6 -2l-5 -3l-4 -5l-1 -2l-7 -3l-15 -4l-18 -12l-4 -4l-6 -3l-4 -1l-38 -8l-31 -1l-10 4l-16 3l-20 12v2l-3 1l1 3h-2 l-6 12l-3 18l-4 4l-2 14l-2 3l-1 6l2 26l3 8v7l-5 3l-3 1h-4l-10 2l-25 18l-12 14l-1 10l-2 4l1 7l8 22l20 27l3 6l10 13l13 10l6 10l16 6l2 3l5 5l4 3l10 6l5 2l4 3l48 16l38 6l8 -2l15 5l4 4l3 1l2 -4l2 -2l2 7l48 8l2 -1h4l2 1h11l8 -1l2 1l15 -5l36 -5h17l11 3l5 2l1 2 l7 10h6l3 -3l2 -3l3 -11l22 -4l2 -20l6 -6v-11l2 -4l2 -2l7 -16l-5 -12l2 -1l1 -1l1 -2h2zM399 322l-2 5l-16 8l-22 6l-10 1l-7 1l-6 1l-10 -1l-16 3l-13 -4l-5 1h-2l-4 -1l-2 -2l-9 -5l-17 -1l-9 -7l-13 -4l-31 -26l-22 -25l-6 -9l-5 -4l-17 -24l-18 -16l-6 -18l-10 -18 v-18l4 -19l-2 -3l3 1l5 -13l24 -18l2 1l2 -3l33 -3l38 3l28 6l47 21h3l3 2l2 6l2 4l4 2l7 3l22 17l12 14l5 9l1 6l2 6l-3 6l-4 12l2 10l-4 11l3 6l-2 10l17 28l10 3l1 2l3 4l5 14l3 3v6zM201 338l-7 2l-5 -4l-13 -3l-4 -5l-9 -2v2l-11 -2l-31 -16l-18 -13l-9 -11l-9 -4 l-6 -6l-10 -24l1 -8l6 -10l4 -6l5 -6l7 -3l9 -4l5 -2h1l2 1l3 1l5 6l5 8l4 4l6 7l2 4l6 8l30 37l36 36v5l-2 5z" />
<glyph unicode="r" horiz-adv-x="307" d="M320 358l5 -11v-5l-10 -7l-5 -5l-7 -1l-6 -4l-2 -1l-7 2l-9 19l-9 11l-2 3l-4 2l-2 3h-4l-2 1l-7 -1l-9 -3l-4 -3l-36 -17l-8 -3l-2 -2l-10 -7l-10 -21l-7 -29l-4 -10l-3 -7l-2 -7v-12l-8 -24l-2 -18l-4 -17l-1 -2l-2 -2v-9l-3 -6v-2l1 -3v-15l-1 -2l1 -7l-3 -11l-4 -41 l3 -6l-3 -10l2 -47l2 -2l-1 -8l-7 -6l-14 -6l-17 -1l-4 -3l-3 4l-1 3l1 16l-2 14l3 31h-2l1 4v3l1 4v28l-2 10l2 11v10l1 2l-1 1v4l2 3l-1 2h-2l3 1l-2 10l-1 7v17l-1 3l2 3l-3 11v11l1 9h-2l-5 4l-2 1l-4 -1l-7 -7l-8 -5l-3 -8l-3 -1l-19 -33l-8 -19l-5 -28l3 -15l-2 -1 l1 -2l-2 -2l-6 7l-3 3l-3 5l1 4l-1 2v3l1 3l3 7l-1 6l1 2v3l2 6l5 11l3 13l1 6l2 1l21 35l2 10l2 1l4 4l1 2l1 1l1 5l2 5l4 3l5 7l5 3l1 1l5 8l-1 11l-3 9v11l24 18h4l2 -1l1 -3l11 -5l6 1l20 18l4 6l9 7l3 2l1 2l2 5l7 8v8l4 3h3l14 7l8 -1l10 4l2 1h1l9 1l31 13l7 1l8 2 l35 15l10 2l7 -6l1 -3l-1 -15l2 -22l1 -5v-3zM144 268l-1 8l-2 2v2l-6 3h-11l-2 -5l-4 -3l6 -26h5l7 10l4 1l2 2z" />
<glyph unicode="s" horiz-adv-x="351" d="M319 382l3 -1l-1 -13l-3 -9l-2 -4l-1 -1l-1 1l1 -20l-4 -1l-2 2l-4 28l-8 9l-4 4l-2 3l-32 3l-42 -14l-34 -19l-11 -10l-9 -7l-24 -14l-1 -2h-3l-44 -46l-3 -8l-11 -16l-11 -22l4 -11l-1 -3l1 -3l1 -2l4 -9l8 -8l11 -6l44 5l52 19l14 2l19 7l31 9l28 2l2 -1l4 1l10 -1 l27 -14l5 -9v-14l-2 -3h1l3 -15l-11 -30l-11 -14l-5 -13l-35 -48v-2l-6 -5l-44 -35l-25 -17l-24 -12l-14 -3l-30 -11l-34 -2l-18 2l-7 4l-4 2l-13 2l-1 4l-15 1l-13 5l-1 3l-1 5l16 7l7 1l13 8l15 -4h8l10 -3l22 -1l3 -2l1 -1l7 1h5l16 1l13 6l12 2l19 7l17 4l14 9l7 9l13 7 l16 25l12 10l13 19l3 22l-1 11l-1 3l-2 4l-8 10h-23l-22 -7l-15 -8l-12 -2l-14 -9l-27 -8l-18 -4l-5 -2h-2l-3 2l-9 -1l-5 -3l-21 -3h-35l-27 19l-1 2l-5 13l-1 10l1 6l-1 3l7 27l20 36l3 4l1 7l28 39l7 1l7 16l12 10v3l3 2l6 6l75 64l27 17l37 17l26 2l12 3l4 -2l2 -3l9 -4 l7 -8l2 -14l-2 -4l-3 -3v-3h4v-1z" />
<glyph unicode="t" horiz-adv-x="194" d="M208 293l11 -9l-22 -4l-42 -1l-16 1l-3 3l-7 -1l3 -2l-2 -2l-3 1l-3 -27l2 -6l-4 -68l3 -3l-1 -38l-1 -2l-2 -2v-2l3 -4l1 -6l-2 -45l2 -4l-1 -2l-6 -24l4 -7v-14l2 -1l1 -4v-2l1 -7v-3h-2l2 -2l-1 -4l-18 -2l-24 -12l-4 -1l-4 1l-2 4v15l3 5v15l1 5v17l1 3v3l-1 3l-3 8 l1 17l2 5v3l-1 4l-1 3l-6 23l1 19l-2 2l3 1v13l2 29l6 4l-3 14l-1 32l1 34l-20 2l-6 3l-9 -1l-23 -3l-11 4l-7 11l-11 3l-5 4l5 4l6 -1l39 1l12 2l16 1l11 2l1 3l3 1l5 9l-4 10l-1 6v3l2 5l-2 9l2 1l-1 1l-3 6l1 5l-5 64l-2 7l7 12l-2 5l-3 3l-2 6v31l-2 1l-2 7l-3 4l4 12 l14 4l8 8l2 16l-3 12l5 26l-1 2v9l3 37l-3 12v4l-2 5l-8 2l-4 2l-4 1l-7 -2l-5 11l-1 13l4 10l-2 18l2 6l2 2l1 9l-3 3v5h-2l10 15l13 6l13 13l14 19l7 -1l2 -8l1 -15l2 -5l-1 -12l3 -10l1 -6l-2 -6l3 -9l-1 -2l-3 -5l4 -9l-4 -21l4 -14l1 -19l-1 -5l3 -6l-3 -59l4 -4 l-3 -10l2 -1l-3 -2h3l-5 -33l3 -24l-3 -7l2 -10l-2 -16l2 -14l-4 -26l1 -5l2 -7l1 -1l1 -14l-5 -18v-59l-4 -3l-2 -4l5 -4l3 -4l12 -2l7 2l6 -3l17 4l25 -2z" />
<glyph unicode="u" horiz-adv-x="444" d="M370 405v-21l-1 -10l2 -10l-2 -21l-2 -7l-1 -1l3 -1l-2 -25l5 -21l-1 -22l-1 -4l1 -2l-1 -25l2 -12v-18l-3 -15l4 -2l1 -13l4 -19l-4 -1l3 -3l5 -18l-4 -1l4 -4l2 -19l11 -21v-3h4l6 -18l8 -20v-2l12 -18l26 -13l23 6l4 -5l-9 -11l-21 -7l-9 -4l-13 -2l-11 2l-6 3l-12 5 l-6 9l-10 5l-19 11l-6 13l-6 11l-16 19l-5 5l-1 7l-5 6l1 6l-8 23l-4 16v14l3 2l-5 14l-1 14l-3 16l-1 15l-2 15l3 2l-3 1l-1 12l-8 -21l-10 -19l-10 -21l-6 -9h-2l-1 -5l-2 -5l-10 -20h-2v-3h2l-18 -36l-11 -20l-7 -14l-11 -11l-17 -24l-7 -8l-7 -5l-15 -11l-15 -7l-14 -7 l-10 -2l-9 3l-1 -2l-18 2l-12 9l-9 13l-5 11l-2 5l1 5l-2 11l-1 11l-1 21l1 18l6 4l-3 2l-1 10l2 9l5 2l-4 2v9l1 8v24l6 11l1 11l4 1v12l1 12l2 11l3 11v45l-2 1l3 2l-6 20l2 20l-4 16l-3 6l-5 5l-11 8l-14 -1l-18 -11l-3 2l-2 -4l-13 -10l-13 -6l-3 1l-9 -9l-6 2l-2 3 l8 10l11 8h1l20 16l20 15l20 16l15 10l18 8l5 2h18l14 -2l4 -9h2l5 -10l2 -16l-3 -16l-2 -1v-54l-2 -12l-3 -11l-6 -25l-4 -4l3 -3l-1 -12l-2 -11l3 -4l-1 -4l-4 -22l-8 -25v-17l-3 -17l-2 -1v-32l3 -14v-17l7 -17l6 -10l9 -5l8 -5h10l10 3l3 -3l13 9l9 9l9 12l10 12l5 11 l5 12l7 10l6 10l4 14l6 13l5 14l6 14l7 9l12 24l4 24h2l9 22l10 23l5 26l4 24v4l1 6l4 21l7 21l5 8l24 10z" />
<glyph unicode="v" horiz-adv-x="399" d="M398 351l3 -16l-2 -44l-7 -27l-5 -1l2 -2l-3 -12l-7 -15l2 -1l-8 -16l-1 -3l-2 -2l-4 -14l-3 -3l-5 -9l-17 -20l-1 -3l-3 -4l-32 -44l-7 -5l2 -2l-11 -14l-5 -4l-6 -6l-29 -36l-8 -5l-14 -20l-4 -7l-5 -3l-10 -1l-16 -10l-4 1l-3 2l-3 6l-13 25l-4 3v6l-1 1l-4 2v2 l-15 21l-5 8l-1 3l-5 12l-3 6l-3 3l-2 5l-14 23l-1 4l-4 6v4l-7 8l-17 38l-28 50l2 3l-4 3l-4 6l-34 60l-2 1v3l4 2v1l-1 1l8 10l10 7l4 9l1 4l1 2l2 2l3 2l5 9l7 1l16 -34l7 -7v-3l2 -1l1 -3l3 -3l7 -11l4 -1l14 -31l1 -1l3 -8v-3l3 -7l17 -32l6 -10l4 -10l3 -5l2 -6 l11 -22l3 -2l11 -27l5 -7l1 -2l17 -29l1 -6l4 -3l1 -2l7 -8l2 -2l4 -8l4 -3l4 -1l4 1l4 2l32 37l5 4l4 5l2 4l6 5l3 5l1 2l18 20l1 3l4 6l25 42l5 14l2 3l1 2l14 40l2 24l1 3v1l1 19l1 3l-1 5l3 2l-2 2v2l1 4l-3 1v18l-2 12l-3 8v13h-3v6l-10 13l2 1l-3 1l-1 3l-7 8l-8 4 l-16 18v4l-3 2l-6 3l-5 4l-5 -1l-2 2l-10 1l-3 1v2l-1 2l3 2l1 2l16 2l5 4l13 -4h2l2 1h2l4 -2l6 -2l12 -9l1 -3l2 -4l5 -6l1 -14l4 -4l2 -3l1 -2h10l3 3l2 4l3 3l4 -5l3 -7l2 -5l2 -4l4 -7l-1 -3l7 -19v-10l1 -2l1 -5z" />
<glyph unicode="w" horiz-adv-x="424" d="M412 343l6 -33v-87l-3 -14l-2 -25l-3 -11l-2 -4l-4 -10l-2 -3l-4 -23l-13 -22l-5 -16l-30 -50l-27 -26l-5 -4l-2 -2l-7 -5l-4 -3l-7 -2l-6 -3l-12 12l-4 6v2l-12 13l-4 3l-4 4l-27 41l-11 26l-6 9l-14 24h-2l-4 1l-7 -4l-14 -24l-8 -7l-3 -6l-3 -4l-27 -38l-9 -17l-4 -14 l-11 -16l-7 -6l-3 -1l-3 -4l-1 -1l-2 -3l-14 -7l-8 12l-2 22h-2v4l-1 1l1 1l-1 2l-2 25l-2 3l-1 4v7l-6 24l-1 38l-1 3v1l-1 10l-8 47v13l-1 1l-2 5l-6 31l-2 8l1 5l-2 4v10l-2 11v1l-1 3v7l-6 18l-4 10l-3 7l2 9l3 7l13 19l7 15l8 11l6 -2l3 -3l9 -18l3 -5v-5l3 -5l4 -3 l1 -2l5 -13l-3 -1l1 -3l1 -1l3 1l1 -34l-1 -2v-2l3 -3l-2 -3h2l-1 -48l2 -6l-1 -2l-1 -3l5 -25l-1 -32l4 -18v-3l-1 -6l-1 -5v-17l6 -44l-3 -3l3 -17l11 3v4l2 3l1 6l19 23l6 10l3 4l5 7l2 4l4 4l9 12l6 7l3 5l5 4l8 13l6 18l19 22l6 11l12 5l4 -4l8 -28h3l13 -34l3 -4l3 -3 l-3 -4l6 2l3 -20h2l5 -9l2 -2l2 -1v-1l8 -20l3 1l1 -3l2 -4l13 -9v-3l5 -4l3 -5l6 -1v-4l7 -1h5l19 19l5 9l9 18v1l4 8l14 33l2 12l2 3v3l1 5l6 24l3 4l-1 3h-2v2h1l2 22l-2 1l1 2l2 2l-3 54l-6 22l-1 13h-1l-1 3l-10 26l-6 11l-2 2l-5 10l-5 6l-1 2l-10 6l-23 -15l-4 -3 l-2 1l-1 3v6l-1 1l13 17l6 10l19 19l6 4l3 1l4 -1l4 -2l8 -7l8 -11l-1 -3l5 -4l1 -3l5 -4l12 -22l7 -19l-3 1v2l-3 2z" />
<glyph unicode="x" horiz-adv-x="354" d="M351 9l4 -3l-1 -4h-3l-5 -1l-1 -1l-7 3l-3 1l-9 9l-6 4l-31 31v6h-1l-3 1l-2 -2l-5 -2l-11 10l-1 3l-5 11l-10 6l-6 5l-3 6l-12 9l-22 24l-8 8l-1 2h-2l-3 7l-7 5l-4 3l-3 3l-4 5l-2 4l-5 4l-12 -3l-9 -10l-5 -5v-5l-8 -10l-8 -3l-16 -26l-5 -3l-8 -15l-11 -12l-10 -5 l-14 -23l-9 -6l-6 -11l-21 -24l-24 -9l-4 -4l-25 -4v7l9 6l2 3l4 4l6 7l12 9l6 9l17 17l17 24l8 7l14 21l1 3l10 7l1 3l6 7l3 5l7 7v1h3l35 48l9 10l10 6l-9 13l-3 2l-4 8l-1 3h-2l-11 22l-8 8l-7 18l-7 8l-18 37l-2 6l-3 4l-19 35h-2l-2 7l-2 22l22 9l3 4h10l13 6l4 -2 l4 -5l24 -36l1 -6l4 -5l4 -8l8 -15l3 -1l4 -12l16 -26l2 -5l3 -1l2 -5l2 -1l11 -22h3l10 11l7 13l16 23l11 23l4 6l2 5l2 2l8 29l4 6l1 -1l3 2l8 8h3l4 -6h3l3 1l3 2l2 6l8 7l2 -1l5 -1l1 -1h4l1 -5l3 1v-3l-2 -3l-15 -37l-7 -11l-3 -1l-5 -8l-5 -11l-5 -3l-2 -3l-1 -2v-3 l-6 -4l-3 -3l-3 -7l-4 -2l-27 -39l-8 -9l-3 -4l-2 -3l-1 -6l5 -10l35 -55l1 -3l7 -14l2 -2h2l12 -23l3 -3l2 -8l5 -7l23 -33l4 -7v-2l11 -16l2 -9l5 -4l3 -6h2l5 -7l7 -10z" />
<glyph unicode="y" horiz-adv-x="371" d="M345 47l-2 -27l-4 -28l-3 -11l1 -2l2 -6l-4 -36l-8 -44v-26l-7 -35v-4l-2 -8l-1 -8l-2 -5l-5 -10l4 -13l-3 -17v-7l-3 -9l-2 -46l-6 -19l-1 -1l-5 -11l-6 -12l-5 -5l-2 -4l-5 -17l-16 -26l-3 -6l-3 -2l-7 -7l-9 -5l-13 -13l-7 -12l-16 -9l-11 -11l-3 -1l-3 1l-31 -18 l-34 -10l-17 -11l-2 1v2h-8l-11 -3h-1l-3 2h-5l-11 -4l-10 2l-26 -1l-54 21l-9 10l-4 5l-1 1l-2 3l-3 9v4l-11 20v4l-1 7v1l1 4l10 10l2 5l1 8v3l1 2l4 6l5 16l6 2v5l2 6l9 8l2 2h4l5 -1v-4h2l-4 -17l-1 -24l5 -13l-2 -7l1 -4l2 -2l1 -4l1 -5l5 -11l4 -5l6 -6l-1 2l7 -10 l2 -6l7 -2l1 -3l16 -9l20 -6l32 1l13 3h2l6 1l25 11l3 1l3 3l6 2l5 4l17 11v-3l2 1l8 10l12 7l22 22l17 34l6 18l3 8l3 6l8 15v4l1 6l3 13l-1 12l4 13v4l1 2l-1 3v3l3 13l1 27l2 1l2 6v3l4 4l-2 13l2 26l-3 16l4 27l2 38l2 7l-1 6l-2 17l3 12l3 6l1 6v2l-6 28l4 29v53l-3 -1 l1 12h-2l-1 32l-2 5l1 3l1 11l-4 34l2 1l2 4l-7 4l-4 17l-1 11v2l-1 2h-1l1 5l-5 3l-9 -9l-14 -33l-3 -3l-3 -16l-9 -12l-18 -32l-9 -10l3 -1l-4 -6l-18 -25l-10 -18l-3 -4l-5 -3l-2 -1l-10 -10l-1 -2l-4 -3h-1l-6 -9l-33 -20l-4 -3h-3l-29 -14l-10 42l2 29l-2 3l-1 4l-4 24 v29l-1 3l-1 2l1 13l-3 10l-1 21l3 14v11l-3 7v2l-1 2v14l1 2l3 68l4 13l2 10l-1 8v5l3 16l-1 3l1 2v26l-1 4l2 3l3 6l3 9l12 2l15 8h10l1 -32l-3 -3l-1 -3l1 -3v-2l3 -3l-2 -11l-2 -3l-2 -10l1 -20l5 -15l-3 -52l4 -16l-1 -5l-2 -5l1 -9l-1 -8l1 -2l-1 -17l3 -3v-6l3 -6 l-1 -13l-1 -17l2 -14v-24l-1 -4l2 -3l-2 -3l4 -8l2 -15h2v-8l1 -3l3 -3l3 -1l8 4l6 5l2 8l9 15l11 10l4 10l3 2h3l3 5l-3 3l2 13l1 2l3 8l32 64l2 2l-1 3l24 62l1 16l5 7l5 16l1 1l2 5l6 9l24 9l9 11l14 3l3 2l4 2l6 1l6 -1v-14l1 -2l5 -9l-1 -5v-3l1 -9l2 -3l1 -11l5 -11 l-1 -14l7 -24l10 -90l-2 -8l2 -4l-3 -26l3 -26l-1 -26l-2 -13l1 -3z" />
<glyph unicode="z" horiz-adv-x="373" d="M361 332h14l-1 -6l-13 -15h-2l-15 -10l-7 -11l-4 -4l-3 -4l-6 -4l-2 -2l-5 -8l-21 -19l-9 -12l-20 -16l-26 -34l-16 -17l-18 -23l-12 -10h-2l-4 -4h-2l-21 -29l-6 -3l-11 -12l-11 -9l-7 -12l1 -4l9 -7l16 -3l6 -5l31 -4l5 2h2l2 -1l9 -8l22 1l18 -7l41 -4l5 -2l6 -1l6 -4 h10l9 -6l33 2l-3 -28l-40 2l-8 -3l-19 5l-29 4l-59 4l-8 -1l-2 1l-37 5l-10 -2l-6 3h-4l-13 3h-15l-13 7l-28 -2l-2 -1l-4 -3l-2 -3l-17 -14l-10 -5l-3 -3l1 -1l-13 -9l-12 -16l-14 -7l-12 -2l-3 -8l-16 -5l-5 1l-1 11l1 3l1 6l1 5l4 8l17 27h1l3 4l2 6l2 3l1 3l7 11l6 4 l8 10l6 5l15 21l50 -2l8 -2h3l7 5l33 35h3l1 5l7 7l9 10l3 6l19 17h1l17 20l2 3l9 8l20 27l21 15h1l3 3v4l5 8l2 3l1 3l9 4l6 11l6 6l16 20l1 3l4 7l3 7v7l-24 -3l-18 -7l-9 3l-6 -2l-9 -1l-7 2l-18 -3l-4 2l-4 1h-3v-2l-22 -2l-4 1h-2l-3 -2l-7 -3h-2l-4 -4l-7 -13l-3 -20 l-1 -22l4 -12l1 -7l4 -3l1 -6l4 -10l-2 -4l-4 -3l-5 2l-10 -6l-2 -2l-3 -2l-5 -4l-3 1l-1 1l-4 8l-2 7l-1 8l-1 4l-3 9l-1 13l-8 18v7l-1 3l-2 4l-8 35l2 2l-3 12l-1 2l-4 7l-3 21l-13 38l-3 15l-10 13l-2 7h-2l2 3l-2 11l3 4h4l15 5l4 -1l14 -19l3 -6l3 -1l5 -2l8 -10 l13 -10l38 -19l8 -6l1 -4l2 -1l9 -3l15 -1l20 -6l14 -1l28 -8h50l4 -1l8 4h8l11 2l15 8v2h5l2 -1v-2l-3 -12h2v-2z" />
<glyph unicode="&#xa1;" horiz-adv-x="268" d="M174 18l-8 -21l-9 2l-11 7l-7 8l-8 3l-5 5l-26 21l-4 8l-1 8l-2 1l9 37v17l6 29v3l2 7l-3 13l7 32v12l2 10l-2 13l4 41l5 10l-1 7l-2 8v26l2 3v5l-1 1l2 36l-3 16l1 30l3 18l-4 8l1 14v3l-2 6l1 22l-1 6l1 4l-4 15l1 16l17 -3l15 -7l13 -3l4 -5l1 -11l-3 -8l-1 -3l2 -7 v-22l-4 -29l-2 -56l-2 -11l2 -44l-1 -7v-4l2 -33l-1 -5v-17l2 -2l-1 -2l-1 -3l2 -6v-12l2 -6v-2l-1 -5l3 -11l1 -27l3 -1l-1 -17l3 -30l4 -10l2 -21l6 -17l1 -5l1 -2l1 -3l-3 -11l-5 -16zM161 591l-36 3l-11 10l1 9l-6 11l-3 16l-2 5l2 8l5 10l14 8h2l6 1h2l4 -3l19 -5l4 -3 l5 -1l1 -3l2 -1l6 -10l2 -10l1 -18l-3 -14l-3 -6l-3 -3l-3 -2z" />
<glyph unicode="&#xa2;" horiz-adv-x="364" d="M356 299h2v-3l-7 -13l-10 -17l-32 -38l-3 -6l-20 -25l-13 -8l-16 -19l-22 -19l-6 -2l-11 -11l-40 -15l-33 -5v-4l-3 -3l-2 -8l-5 -22l-1 -8l-12 -34l-6 -4l-6 -11l-9 1l-4 8l2 6l1 4l4 11l9 31l5 19l4 17l-21 4l-17 10h-2v3l-4 5l-2 3h-1l-3 3l-3 2l-13 3l-9 4l-9 10 l-3 6l-6 5l-2 4l-3 5l-2 9l-2 28l4 9l1 6l-2 4l4 9l5 8l3 15l12 19l6 14l3 2l2 3l21 34l85 82l-1 2l6 3l2 2l24 20l14 9l4 3l7 6l2 3l1 7l2 7l2 10l5 19l13 44l4 9l8 9l7 1l4 -3l6 -14l-2 -2l2 -2l1 -4v-1l-2 -7l-5 -4l-6 -12v-1l-2 -7l-8 -23v-11l36 19l23 7l12 -1l3 -1 l2 -2v-3l-13 -20l-2 -12l-5 1l-7 -2h-10l-22 -4l-4 -3l-8 -10l-10 -3l-6 -3l-3 -5l-1 -5l-8 -28l-1 -6l-2 -5l-11 -46l-2 -5l-2 -7l-3 -4l-10 -42v-4l-2 -4l-7 -35l-7 -16l-3 -12l-16 -60l-5 -11l-1 -4l3 -8l4 3h9l34 8l11 4l46 33l24 27l6 6l12 9l4 5l3 4l1 2l5 7l3 5l3 4 l7 6l6 8l9 18l4 4h5v-3zM209 433l2 2l-11 -2l-1 -4l-2 -4l-4 -3l-2 -2h-2l-2 -1l1 -1l-4 -5l-5 -5l-2 -4l-21 -19l-8 -13l-6 -7l-1 -2l-4 -6l-25 -45l-2 -5l-3 -3l-17 -55l-2 -14l1 -25l2 -16l7 -3l2 -13l21 -17v-5l13 -2l9 37l4 6l10 42l22 76l5 30l21 70l2 14zM113 337 l16 25l-11 2l-11 -4l-4 -6l-2 -6l-13 -13l-2 -3l-3 -4l-5 -8l-4 -3l-6 -9l-5 -12l-2 -2l-7 -11l-10 -39l4 -28l1 -4l2 -3l1 -2l2 -1h6l5 1l2 3l1 3v9l3 15v4l3 10l7 21z" />
<glyph unicode="&#xa3;" horiz-adv-x="557" d="M559 84v-6l-11 -9l-3 -9l-2 -1l-7 -1l-3 -13l-10 -3l-1 -1l-3 -2l-21 -10l-5 -1l-10 -7l-6 -1l-2 -1h-11l-2 -7l-51 -16l-6 1l-6 -5l-17 -4l-67 -5l-36 4l-7 3l-7 2l-3 1l-74 22l-20 -11l-58 -20h-15l-23 -3l-22 1l-5 2l-2 -1l-25 9l-2 3l-5 6l-4 7l-2 10l-2 3l-2 8l-1 8 l3 12l2 9l2 7l2 4l3 2l20 24l11 8h15l9 6l76 -6l21 -7l4 -3l5 -2l3 -2l29 -9l2 -1l12 -1l10 8l23 28l3 12l2 6l2 3h2l2 31l-2 3l2 1l-5 30l-1 1l-1 2l-2 5l1 6l-4 11h-2l-2 3l-2 13l-4 11h-1l-1 1l-5 8l-15 37l-14 -3l-25 1l-9 -2l-16 2l-8 2h-2l-6 -4h-49l-13 3l22 18 l20 13l28 2l46 -2l9 2l-13 15l-8 15l-7 15l-2 8l-2 2l-4 8l-3 8l-1 1l-4 21l-4 10l-3 24l3 21l1 2v6l5 10l1 4l1 6l2 13l6 13l3 5l2 2l4 1v4l-4 2l-2 2l2 4l6 4l2 2l1 8l14 8l6 7l27 19l7 7l28 16l16 5h17l19 5h22l13 -8l5 -4l1 -1l4 -2l3 -4l8 -6l5 -5l9 -14l2 -8l3 -1 l2 -4l5 -19l4 -8l-1 -13l-7 -8l-23 -16l-5 6l-2 3l-6 12l-2 12l-1 3l-15 25l-20 15l-14 7l-10 1l-4 4h-2l-6 -2l-10 -1l-27 -15l-20 -21l-4 -7l-1 -3l-1 -4l-6 -10l-3 -2l-1 -2l-1 -3v-4l-5 -12l-3 -23l2 -3l-1 -2v-2l2 -9l4 -20l3 -3v-4l6 -16l1 -5l2 -9l2 -4l1 -7l22 -32 l4 -10l11 -18l3 -6l2 -3l-1 -7l4 -3h4l81 -2l5 -2l10 2l17 -2l8 2l3 -1h2l3 -1v-5l-22 -11h-3l-5 1l-9 -5l-11 1l-9 -3l-9 1l-7 -4h-25l-6 -2h-5l-2 -2l4 -5l1 -16l10 -12l3 -10l1 -2l2 -8l2 -4l2 -27l-1 -3l1 -1l-1 -32l2 -3l-13 -41l-22 -31l-15 -16l-4 -5l-4 -2l-5 -4 l-7 -7l11 -6l17 -4l12 -5l32 -6l1 -3h12l11 -3l5 1l9 -1l5 1l15 -3l12 2l22 -1l9 3l14 1l58 13l13 8l24 7l3 3l2 1l5 2l13 5l4 2zM149 27l-1 6l-11 6l-29 8l-29 6l-2 3l-5 1l-8 -2l-18 3l-5 -5l-8 -6l-3 -2l-2 -2l-7 -14l3 -11l5 -7l7 -6l9 -4l21 2l5 -3l9 5l11 -3l26 10 l10 8l5 -1z" />
<glyph unicode="&#xa5;" horiz-adv-x="507" d="M501 436l6 -4l-7 -7l-1 -2l1 -5l-6 -9l-18 -18l-39 -3l-2 -1l-20 1l-23 -3h-4l-8 -1l-30 -2l-9 -2l-2 1l-6 -7l-8 -15l-2 -12h2l1 -4v-2h-2l-1 -2l-7 -12v-2l-1 -6l-5 -36l-1 -3v-2l1 -4l3 -2l14 2l56 4l9 -1l83 10l7 -1l4 -2l-10 -37l-1 -11l-6 -2h-5l-35 -3l-14 2 l-35 -5l-8 3h-1l-3 -1l-5 -3l-28 -1l-4 -1l-5 1l-24 -1l-1 -14l-1 -4l-1 -7l-1 -46l-1 -3v-4l1 -1l-2 -24l3 -19l-2 -7v-2l2 -25l1 -7l-1 -3l3 -37l1 -2v-6l2 -4l9 -66l-8 10l-3 7l-2 1l-2 3h-1v2l-2 6l-7 16l-11 14h-1l-1 2l-9 4l-3 2l-3 11l-3 28l-2 10v17l-5 16l1 22 l-4 9v25l1 2l-4 4l-1 7l2 52l-2 10l-5 3l-5 -1h-8l-3 -1l-16 -1h-22l-15 2h-28l-11 7l-13 1l-9 3l-2 2l-1 2l-4 1l-7 7l-16 6l-13 14l10 4l19 -1l4 1h3l10 1l25 -2l5 -1l3 -1h2l36 -3l53 2l4 -1l5 2l-1 6l1 3v20l8 24v9l-7 9v3h-3l-4 14l-2 3l-1 3l-1 14l-4 2l-20 -1l-5 2 h-10l-15 -1l-2 -1h-2l-6 1l-12 -1l-11 4l-43 3l-15 -1l-14 4l-1 3l-2 4l-3 2l-14 3l-21 8l-12 1l-3 4l4 1h4l4 3l3 1v2l32 5l44 -5l9 1l6 -1l4 1l28 -4l6 1h11l33 -1l5 3l-6 15l-4 2l-3 10l-9 13v1l-4 7l-4 5l-2 4l-1 5l-7 18l-4 6l-5 9l-8 29l-7 3l-2 4l-1 3v1l-12 33l-7 5 l-3 1l-1 3l-2 3l-1 7l8 3l3 13l6 4l6 9l3 2v1l7 10l1 5l2 1l3 1l3 -1l6 -6l2 -6v-2l2 -3l1 -4h2l1 -2l2 -5l3 -6l1 -3l2 -10l2 -4l3 -14l4 -7l2 -1l8 -21l2 -3l2 -2v-4h1v-9l7 -8l6 -16l1 -4l3 -3l2 -10l22 -32l-2 -11l9 -7l5 -5l19 -38h1l4 -10l3 -4l3 -1l3 2l4 4l3 5l2 6 l5 12l1 2l3 3l7 21l5 6l3 6l4 18l16 37l3 16l5 14l-1 3l4 10v7l2 6l1 7h1l-1 7l2 21l22 20h2l2 -1l25 17l13 3l3 -3l1 -5v-21l-1 -17l-4 -10l-1 -13h-2l-2 -3l-2 -2l-5 -34l-21 -50l-3 -9l-6 -5v-5l-2 -6l-3 -8l-2 -3l-3 -10l-6 -14l80 7l21 1h13z" />
<glyph unicode="&#xa8;" horiz-adv-x="326" d="M261 539l11 -14l1 -26l-7 -17l-9 -9l-19 -3l-7 2h-5l-1 -2l-23 2l-3 15l2 36l4 15l11 2l4 4l23 -2h10l3 -2zM134 537l4 -14l1 -23l-5 -21l-18 -7l-38 -1l-11 4l-1 28l2 6l-2 21l5 10l15 3l23 1l12 -3l9 -1z" />
<glyph unicode="&#xaa;" d="M486 33v-5l-5 -3l-5 -4l-24 -17l-20 -8l-4 -1l-1 3h-9l-13 11l-16 24l-8 9l-5 15l-12 21l-3 4l-1 5l-5 4l-1 4l-3 8l-1 11l-8 16l-1 15l-3 4l-3 9l-1 9l-6 8h-5l-3 -4v-3h-2v-2l-2 -5l-21 -33l-20 -21l-3 -7l-23 -20l-8 -11l-11 -6l-6 -8l-18 -10l-9 -3l-5 -4l-10 -4 l-3 -4l-6 -1l-17 -13l-11 -2l-15 -9l-33 -11l-10 1l-6 -5l-10 3l-22 13l-7 7h-4l-5 -3l-7 -6l-7 1l-4 -2l-13 5l-21 11l-7 15l2 29l3 4v3l15 21l3 3l5 7l8 16l32 28l3 2l1 2l7 4l5 7l10 7l11 11l17 10l4 3l2 1l1 3l3 1l7 6l2 1l1 4l4 6l13 7h4l15 9l11 3l7 5l6 2v2l19 7l1 1 l6 3l11 5l22 6l7 3l32 -1l17 -10l9 -7l4 -7h3l-7 12l-2 18l-7 11l-8 23l-7 12l-15 13l-21 2l-8 -5l-35 -40l-14 -12l-5 -4l-4 -1l-3 1l-3 3v2l9 7v2l1 3l3 4l10 12l13 11l13 16l43 40l10 1l17 11h3l3 -1l3 -2l11 -1l18 -19l8 -13l11 -27l4 -5l12 -33v-4l2 -6l2 -16l4 -9v-4 l2 -8l1 -7l2 -7l8 -26l4 -7l1 -13l8 -14l1 -18l5 -9l6 -25l17 -36l6 -7l2 -4l6 -7l1 -9l23 -17l13 2l4 2h8zM294 233v5l-9 7l-7 6l-7 2l-22 2l-24 -6l-7 -3l-10 -4l-4 -3l-3 -1l-37 -17l-4 -3l-2 -3l-6 -2l-5 -2l-2 -3l-7 -5l-1 -2l-2 -1l-1 -2l-5 -4l-19 -22l-2 -5l-2 -7 l-5 -4l-1 -4l-7 -15l-3 -2l-2 -5l-5 -8l1 -12l-6 -10l-2 -14l2 -20l6 -13l6 -3l5 -10l12 -8l14 -2l19 2l25 9l4 4l8 1l20 11l20 19l3 1l2 2l33 42l5 4l3 5l8 11l8 20l4 7l3 5v2l2 4l5 14v5l1 3l2 3v23zM65 142l-10 -6l-12 -13l-8 -5l-3 -4l-2 -5l-4 -8l-3 -3v-9l-1 -3l-2 -4 l-5 -5l-2 -10l2 -5l3 -9l6 -6l-1 3h8l4 1l4 5l1 5v4l7 21l2 7l4 5v1l2 3l1 4l3 9l15 21l4 8l-2 2l-3 2l-5 -2l-3 -3v-1z" />
<glyph unicode="&#xab;" horiz-adv-x="383" d="M327 27l-3 -13l-5 1l-7 10l-8 16l-1 1l-4 3l-32 37l-1 3l-2 1l-1 4l-17 20l-8 12l-21 28l-6 13l-5 4l-15 23l-4 2l-19 27v4l5 7l2 1l2 3l15 19l17 18l6 12l11 12l10 19l16 18l1 3l2 3l6 6l3 8l6 7l1 3l15 20l8 20l42 19l6 2l4 -4l-3 -9l-20 -31l-7 -6l-7 -12l-3 -4l-4 -6 l-11 -14v-1l-2 -1l-4 -3l-42 -53l-6 -11l-12 -12v-4l3 -7l1 -2l4 -5l1 -2l1 -1l2 -3l8 -7l2 -3l5 -7l17 -26l3 -1v-3l2 -3l34 -58l3 -3l2 -3l1 -1l7 -17l5 -4l13 -20l1 -3l4 -5l1 -10v-2l-4 -9l-4 -5v-4l-1 -2l-1 -3h-2zM223 32l-23 -26l-14 21l-14 15l-15 23l-4 9v3l-12 12 l-5 9l-2 3l-1 1l-1 2v3l-13 17l-14 24l-20 18l-2 5l-2 2l-5 2l-8 8l-3 2l-2 3l-12 6l1 7l4 2l32 34l13 19l4 4l2 4l3 3l8 10l3 4l38 54l4 11l13 16l8 17l1 5l6 7l34 14l11 4l7 -1l-2 -12l-4 -3l-9 -18l-7 -8l-25 -37l-16 -17l-2 -1l-4 -4l-8 -13l-3 -3l-3 -4l-28 -32l-7 -12 l-9 -9l-3 -4l5 -6l6 -6l1 -2l16 -17l6 -9l3 -2l4 -6l18 -25l2 -4l4 -6l3 -3l15 -25l1 -6l5 -4l6 -13l11 -17l4 -8l3 -12l3 -6l3 -4l1 -5l-1 -4l-3 -4z" />
<glyph unicode="&#xad;" horiz-adv-x="411" d="M364 247l-3 -7h-2v-13l-2 -6l-24 3h-18l-7 1h-6l-29 -1l-13 2l-48 -1l-38 2l-2 2l-11 -2l-4 -2l-11 -1h-71l-15 5l-1 23l2 4l3 5l3 13l3 6l5 1l2 3l8 3l32 -9l11 2l20 -3l41 -1l167 4l8 -9l3 -8l1 -5z" />
<glyph unicode="&#xb1;" horiz-adv-x="549" d="M506 87v-68h-462v68h462zM309 453v-122h197v-68h-197v-122h-68v122h-197v68h197v122h68z" />
<glyph unicode="&#xb2;" horiz-adv-x="373" d="M263 608l28 12l17 -1l9 -5l6 -13l6 -4l1 -1l4 -13l1 -20l4 -23l-2 -25l-6 -25l-15 -43l-7 -9l-16 -33l-27 -41l-4 -12l-16 -23l-9 -9l-3 -6l-15 -25l-5 -4l-2 -2l-3 -4v-6l-20 -31l-15 -17l-14 -24l-2 1l-1 -2l-4 -7l-36 -48l-16 -25l-8 -8l-12 -19l-8 -9l-5 -13l-6 -6 l-22 -39l-1 -12l4 -3l5 -2l4 1l4 2l6 5l3 4l8 4l47 52l39 41l20 17l6 9l20 7l19 -8l10 -10l5 -10v-13l7 -4l2 -4l19 -31l3 -3l4 -5l3 -6l7 -5l1 -2l6 1l17 -9h9l25 12l15 12l10 -2l-27 -27l-21 -17l-6 -1l-18 -12l-24 -7l-23 1l-10 5l-9 9l-5 10l-3 4l-2 2l-2 1l-1 1l-4 6 l-1 2l-1 1l-2 1l-1 2l-7 17l-6 9l-3 10l-5 5l-1 3l-14 7l-5 -2h-3l-17 -13l-12 -16h-2v-3h-4l-6 -4l-12 -16l-26 -23l-37 -41l-12 -9l-5 -1l-12 -13h-10l-3 1l-5 16l2 21l6 13l10 29l3 3l3 6l21 33l12 14l49 72l6 7l1 2l50 82l5 2l3 4l46 77l3 3l4 1v7l21 39l5 12l21 38 l10 47l-3 36l-6 12l-1 5l-5 7l-9 12l-10 6l-8 -3l-12 -11l-29 -43l-9 -9l-14 -24l-10 -10l-11 -20l-3 -4v-4l-8 -12l-5 -14l-10 -23l-10 -25l-2 -3l-6 2l-20 -11l-20 1l11 18l5 11l38 59l7 9l4 4l13 26l12 17l5 4l4 7l13 18l-1 5l12 14l7 4l4 6l20 24z" />
<glyph unicode="&#xb3;" horiz-adv-x="383" d="M252 607l52 4h16l11 -7l5 -2l3 -5l2 -1l3 -10v-3l-2 -16l-2 -13l-10 -12l-8 -19l-6 -7l-2 -3l-14 -17l-5 -8l-27 -26l-19 -31l6 -14l28 -17l17 -7l13 -12l3 -2l9 -8l21 -36l7 -21h2l1 -11l-2 -9v-3l4 -13l-2 -13l-2 -11l-2 -5l1 -4l-4 -11l-8 -11l-5 -26l-8 -8l-2 -5 l-3 -1l-2 -4l-1 -1l1 -3l-5 -11l-7 -6l-26 -39l-40 -45l-20 -19h-3l-4 -2v-4l-34 -24h-3l-1 -2l-8 -7l-7 -5l-3 -2l-17 -10l-5 -1l-46 -23l-19 -4l-4 -4h-5l-4 1l-17 -6l-30 -2l-4 -2l-2 2h-4l-6 1l-10 4l-11 5l-2 2v8l4 5l3 6l4 6l14 14l20 9l6 -3l1 2l14 2l2 -3l4 -2l59 1 l33 9l31 13l31 20l7 5l3 2l13 12l1 3l2 3l4 4l37 47l19 49l1 27l3 12l-1 31l-4 19l-3 9l-1 8l-2 3l-6 5l-4 8l-3 2l-1 4l-10 12l-6 9l-9 4l-4 3l-2 1l-6 5l-5 3h-3l-4 1l-3 2l-2 2l-8 3l-5 2l-5 1l-2 3l-7 5l-6 8l-2 10l20 25l13 10l19 22l9 7l2 3v4l29 35l5 13l2 21l-1 5 l-7 12l-4 4l-10 5l-44 5l-12 -2l-49 -24l-23 -17l-15 -8l-18 -14l-11 -13l-20 -11l-11 -14l-12 1l-1 4l2 6l6 9l3 1l2 4l37 35l12 6l11 11l58 37l10 9l12 5l31 15l10 4h7l4 4z" />
<glyph unicode="&#xb4;" horiz-adv-x="283" d="M225 574l2 -2l-8 -25l-6 -6l-6 -5l-4 -3l-8 -7l-1 -2l-12 -14l-13 -4l-17 -12l-6 -3l-3 -2l-5 -4h-1l-6 -6l-19 -10l-2 -4l-1 -1l-7 -4l-5 -6l-4 -3l-1 -1l-10 -4l-3 2l-5 -4l-2 -1h-2l-4 2l3 9l2 2l1 2l12 17l3 5l4 3l1 2l7 13l7 9h1l2 2l4 6l1 2l2 3l22 35l9 17l5 6 l12 12l3 7l1 1l5 3l2 1l9 1l2 -2l3 -1l17 -18v-2l1 -1l2 -1l13 -3z" />
<glyph unicode="&#xb5;" horiz-adv-x="576" d="M166 449v-296q0 -58 7 -78q13 -40 57 -41q72 -1 108 114q25 80 25 171v130h92v-328q0 -86 38 -87q43 -2 43 82v14h21q0 -5 1 -9v-13q0 -116 -90 -117q-99 -2 -102 172q-32 -125 -98 -158q-26 -14 -60 -14q-88 -1 -113 103v-11q-1 -10 -1 -17q-1 -54 31.5 -136t32.5 -97 q0 -41 -42 -42q-41 -1 -43 70q-1 27 1 73q3 54 3 74q0 57 -1 101l-2 95v245h92z" />
<glyph unicode="&#x3bc;" horiz-adv-x="576" d="M166 449v-296q0 -58 7 -78q13 -40 57 -41q72 -1 108 114q25 80 25 171v130h92v-328q0 -86 38 -87q43 -2 43 82v14h21q0 -5 1 -9v-13q0 -116 -90 -117q-99 -2 -102 172q-32 -125 -98 -158q-26 -14 -60 -14q-88 -1 -113 103v-11q-1 -10 -1 -17q-1 -54 31.5 -136t32.5 -97 q0 -41 -42 -42q-41 -1 -43 70q-1 27 1 73q3 54 3 74q0 57 -1 101l-2 95v245h92z" />
<glyph unicode="&#xb7;" horiz-adv-x="219" d="M151 310l1 -10l-7 -17l-10 -1h-3l-6 -1l-42 4l-4 6l-6 41l4 13l5 7l18 7l18 -2l17 3l5 -2l8 -3l3 -3v-27l-2 -8l-1 -2z" />
<glyph unicode="&#x2219;" horiz-adv-x="219" d="M151 310l1 -10l-7 -17l-10 -1h-3l-6 -1l-42 4l-4 6l-6 41l4 13l5 7l18 7l18 -2l17 3l5 -2l8 -3l3 -3v-27l-2 -8l-1 -2z" />
<glyph unicode="&#xb9;" horiz-adv-x="276" d="M170 597l9 6h8l1 -3v-8l-4 -42l-2 -42l-3 -14l1 -20l-3 -18l-1 -33l-6 -66l-4 -4l-1 -3v-3l1 -3l2 -4l-2 -61h3l2 -2l-6 -6l-1 -13l-1 -4l-1 -3v-2l1 -3l-4 -44l4 -26v-41l3 -65l2 -7v-12l-1 -24v-8l-2 -10l1 -6v-1l-4 -6l-2 -2v-3l-26 -33l-11 -1l-3 3v2l-2 1l3 21 l-2 85l2 6l-1 5l1 37l-2 12v6l-1 62l2 3l2 6l-2 2v19l2 7v1h-1l2 84l-2 10l1 5l-1 51l3 8l-2 56l1 1v28l-1 9l-8 -3l-2 -6l-3 -11l-15 -24l-5 -17l-13 -20l-5 -4l-4 -12v-7l-4 -7l-4 -10l-5 -6l-3 -12l-9 -16l-4 -2l-5 -3l-3 -1l-3 2l-12 -3l-2 2l4 5l1 3l2 1l-1 2l3 3l1 2 l6 7l5 6v6l30 52l6 16l8 11l28 65l10 28l1 4l4 7l8 36l3 3l7 2l9 6z" />
<glyph unicode="&#xba;" horiz-adv-x="379" d="M371 242l-2 -2l-7 -18v-7l-3 -6l-2 -3h-1l4 -12l-24 -42l-2 -2l-2 -5l-4 -7l-12 -12l-12 -19l-2 -5l-11 -11l-7 -11l-9 -7l-6 -8l-2 -1l-1 -2l-10 -9l-7 -8l-2 -3l-6 -5l-47 -27l-15 -3l-20 -8h-42l-20 5l-17 7l-16 15l-4 5l-13 13l-3 12l-4 6l-1 2v5l-5 15v16l-2 5l2 18 v9l1 4l4 17l1 11l-1 6l-2 4l-5 3l-3 13l-9 13v22l1 8l2 3l4 12l12 23l20 29l25 25l3 6h3v2l9 8l24 18l7 4l5 4l58 29l15 3l5 3l9 3l8 2l11 -2l13 5l12 -1l17 -5l6 -14l10 -7l5 -5l5 -4l3 -4l3 -3l2 -5l7 -7l3 -2l3 -5l9 -11l5 2l-2 5l1 2l2 2l4 1h3l4 -3l5 -8l6 -16l4 -15 v-10l2 -6l1 -14l-2 -1l1 -10zM335 286l2 2l-2 7l-5 6l-4 15h-1l-5 6l-5 10l-19 22l-6 2l-1 2l-12 5l-2 2h-2l-9 7l-5 1l-3 -3l-1 -4h-2l-10 7l-11 1l-3 -1l-3 1l-4 1l-2 2l-10 -2l-17 -7l-8 -6l-2 -1v-1l-7 -8l-2 -1l-5 -8l-11 -12l-9 -6l-19 -22l-4 -4v-2l-13 -20l-1 -3 l-2 -1l-10 -10l-6 -17l-6 -10l-5 -6l-2 -1l-2 -8l-4 -14v-2l-2 -8l3 -4v-4l6 -2l2 -2l17 -12l5 -3h1l6 2l8 -3l10 -27l-26 -4l-7 -4l-17 -2l-8 -3v-13l2 -4l5 -9l8 -16l3 -4l1 -4l12 -14l3 -1l8 -1l7 -3l10 -10l16 -1l17 -4l23 3l5 1l9 -2l12 8l4 1l6 2l5 3l4 2l5 3l13 9 l5 4h2l7 8l2 3l7 6l12 14l3 2l4 6l3 5l2 3l14 20l16 37v2l9 27l4 20l1 9l2 4l-1 8l-3 9l-1 12l-1 5l-1 6zM140 339l1 3l-6 3l-34 -27l-7 -8l-1 -4l-7 -5l-8 -11l-3 -5l-4 -4l-12 -16l-6 -15l1 -34l4 -2l3 3l-1 1h3l12 26l6 8v1l3 7l5 14l4 2l5 9l2 8l8 6l2 2l6 7l3 5l11 11 l1 2l4 4v2l2 3z" />
<glyph unicode="&#xbb;" horiz-adv-x="382" d="M76 405l4 11l5 -1l7 -10l1 -1l6 -15l1 -1l3 -5l29 -38l1 -4l2 -1v-5l15 -20l6 -12l20 -30l5 -14l5 -4l13 -24l4 -3l16 -27v-5l-5 -7l-2 -1l-2 -2l-16 -18l-20 -17l-6 -11l-13 -10l-12 -18l-18 -21l-1 -3l-7 -6l-4 -8l-6 -6l-2 -3l-16 -18l-9 -18l-44 -17l-6 -1l-4 3l4 9 l22 30l16 16l3 4l4 5l13 15l2 1l4 3l45 49l7 10l12 11l2 4l-3 7l-1 3l-4 5l-1 2l-1 1l-1 4l-7 8l-2 2l-4 8l-1 1l-14 25l-2 2l-2 6l-29 61l-3 4l-2 3l-1 1l-6 17l-5 4l-11 21l-1 3l-3 5l-1 12l5 9l4 6l2 6l3 3zM180 391l25 23l12 -21l12 -16l13 -24l3 -10v-3l2 -3l9 -10 l4 -10l3 -2l1 -1l1 -2v-2l11 -19l12 -26l18 -20l2 -4l2 -2l5 -3l7 -8l2 -3l2 -2l11 -7l-1 -6l-4 -2l-34 -33l-21 -25l-3 -3l-4 -5l-5 -4l-3 -3l-42 -52l-6 -11l-14 -14l-3 -9l-6 -6l-1 -6l-7 -6l-36 -11l-12 -5l-5 2l3 13l3 3l10 16l9 7l28 35l17 17l2 1l4 4l10 12l3 2l4 5 l30 28l8 11l9 8l3 5l-4 7l-5 6l-1 2l-16 19l-5 8l-3 3l-4 5l-10 19l-2 3l-2 4l-3 5l-3 7l-2 3l-13 27v5l-5 5l-5 12l-10 18l-2 5l-2 4l-2 8v4l-5 10l-1 5l1 5l4 4z" />
<glyph unicode="&#xbc;" horiz-adv-x="783" d="M454 174l1 11l12 39l1 5l5 12l4 7l1 9l4 10l3 14l19 55l5 22l5 10l8 34l8 17l3 12l1 8v13l1 2l2 6l11 36l1 42l7 29l1 28l13 9l28 11l1 1l2 1l8 8v1h2l2 2l10 -2v-2l2 1l-1 -15l-7 -26l-11 -30v-5l-42 -115l-15 -46l-1 -10l-10 -40l-6 -12l-10 -44l-15 -47l-2 -16l8 -5 l3 -3l3 -1l1 -1l10 6l23 8l56 29l13 4v-1l38 18h3l-1 5l6 21l12 63l5 1l4 4l14 12l36 23l-10 -28l-4 -41l5 -18l-1 -23l3 -7l1 -2l5 -2v-5l4 -4l14 -3l18 3l2 -3v-5l-8 -1l-7 -4h-7l-2 -2l-7 -3l-6 -2l-28 -5l-3 -2l-2 -1v-1l-6 -12l-1 -3l-6 -5l-18 -62v-9l-9 -26v-24 l-12 -65l-1 -25l1 -34l-6 -31l2 -8v-6l-1 -18l-4 -3l-2 5l-2 11l-9 21l-2 15l1 7l-1 5l-2 5l-1 7l2 14l-3 43l4 7l-2 8v3l1 37l-3 2l-1 12l17 87l3 4v13l7 3l1 21l-19 -4l-32 -14h-1l-6 -2l-9 -6h-4l-4 -4l-6 -7l-1 -2h-2l-3 -1l-4 2l-4 -4l-13 -7h-7l-7 -8l-22 -6l-28 -14 l-12 -2v2l-3 -1h-5l-6 7zM562 610l12 11l15 7l11 10l15 7l2 -16l-2 -15l-9 -27l-22 -44l-3 -2l-28 -47l-15 -16l-17 -25l-162 -201l-70 -98l-7 -6l-32 -44l-5 -11l-27 -37l-41 -73l-17 -41l-1 -9l-33 -18l-17 -2l-3 6l9 32l14 27l31 47l32 46l27 31l23 31l21 30l35 49l4 4 l34 43l36 48l38 47l21 33l24 32l46 67l30 48l12 23l4 14zM170 597l9 6h8l1 -3v-8l-4 -42l-2 -42l-3 -14l1 -20l-3 -18l-1 -33l-6 -66l-4 -4l-1 -3v-3l1 -3l2 -4l-2 -61h3l2 -2l-6 -6l-1 -13l-1 -4l-1 -3v-2l1 -3l-4 -44l4 -26v-41l3 -65l2 -7v-12l-1 -24v-8l-2 -10l1 -6v-1 l-4 -6l-2 -2v-3l-26 -33l-11 -1l-3 3v2l-2 1l3 21l-2 85l2 6l-1 5l1 37l-2 12v6l-1 62l2 3l2 6l-2 2v19l2 7v1h-1l2 84l-2 10l1 5l-1 51l3 8l-2 56l1 1v28l-1 9l-8 -3l-2 -6l-3 -11l-15 -24l-5 -17l-13 -20l-5 -4l-4 -12v-7l-4 -7l-4 -10l-5 -6l-3 -12l-9 -16l-4 -2l-5 -3 l-3 -1l-3 2l-12 -3l-2 2l4 5l1 3l2 1l-1 2l3 3l1 2l6 7l5 6v6l30 52l6 16l8 11l28 65l10 28l1 4l4 7l8 36l3 3l7 2l9 6z" />
<glyph unicode="&#xbd;" horiz-adv-x="814" d="M704 608l28 12l17 -1l9 -5l6 -13l6 -4l1 -1l4 -13l1 -20l4 -23l-2 -25l-6 -25l-15 -43l-7 -9l-16 -33l-27 -41l-4 -12l-16 -23l-9 -9l-3 -6l-15 -25l-5 -4l-2 -2l-3 -4v-6l-20 -31l-15 -17l-14 -24l-2 1l-1 -2l-4 -7l-36 -48l-16 -25l-8 -8l-12 -19l-8 -9l-5 -13l-6 -6 l-22 -39l-1 -12l4 -3l5 -2l4 1l4 2l6 5l3 4l8 4l47 52l39 41l20 17l6 9l20 7l19 -8l10 -10l5 -10v-13l7 -4l2 -4l19 -31l3 -3l4 -5l3 -6l7 -5l1 -2l6 1l17 -9h9l25 12l15 12l10 -2l-27 -27l-21 -17l-6 -1l-18 -12l-24 -7l-23 1l-10 5l-9 9l-5 10l-3 4l-2 2l-2 1l-1 1l-4 6 l-1 2l-1 1l-2 1l-1 2l-7 17l-6 9l-3 10l-5 5l-1 3l-14 7l-5 -2h-3l-17 -13l-12 -16h-2v-3h-4l-6 -4l-12 -16l-26 -23l-37 -41l-12 -9l-5 -1l-12 -13h-10l-3 1l-5 16l2 21l6 13l10 29l3 3l3 6l21 33l12 14l49 72l6 7l1 2l50 82l5 2l3 4l46 77l3 3l4 1v7l21 39l5 12l21 38 l10 47l-3 36l-6 12l-1 5l-5 7l-9 12l-10 6l-8 -3l-12 -11l-29 -43l-9 -9l-14 -24l-10 -10l-11 -20l-3 -4v-4l-8 -12l-5 -14l-10 -23l-10 -25l-2 -3l-6 2l-20 -11l-20 1l11 18l5 11l38 59l7 9l4 4l13 26l12 17l5 4l4 7l13 18l-1 5l12 14l7 4l4 6l20 24zM562 610l12 11l15 7 l11 10l15 7l2 -16l-2 -15l-9 -27l-22 -44l-3 -2l-28 -47l-15 -16l-17 -25l-162 -201l-70 -98l-7 -6l-32 -44l-5 -11l-27 -37l-41 -73l-17 -41l-1 -9l-33 -18l-17 -2l-3 6l9 32l14 27l31 47l32 46l27 31l23 31l21 30l35 49l4 4l34 43l36 48l38 47l21 33l24 32l46 67l30 48 l12 23l4 14zM170 597l9 6h8l1 -3v-8l-4 -42l-2 -42l-3 -14l1 -20l-3 -18l-1 -33l-6 -66l-4 -4l-1 -3v-3l1 -3l2 -4l-2 -61h3l2 -2l-6 -6l-1 -13l-1 -4l-1 -3v-2l1 -3l-4 -44l4 -26v-41l3 -65l2 -7v-12l-1 -24v-8l-2 -10l1 -6v-1l-4 -6l-2 -2v-3l-26 -33l-11 -1l-3 3v2l-2 1 l3 21l-2 85l2 6l-1 5l1 37l-2 12v6l-1 62l2 3l2 6l-2 2v19l2 7v1h-1l2 84l-2 10l1 5l-1 51l3 8l-2 56l1 1v28l-1 9l-8 -3l-2 -6l-3 -11l-15 -24l-5 -17l-13 -20l-5 -4l-4 -12v-7l-4 -7l-4 -10l-5 -6l-3 -12l-9 -16l-4 -2l-5 -3l-3 -1l-3 2l-12 -3l-2 2l4 5l1 3l2 1l-1 2l3 3 l1 2l6 7l5 6v6l30 52l6 16l8 11l28 65l10 28l1 4l4 7l8 36l3 3l7 2l9 6z" />
<glyph unicode="&#xbe;" horiz-adv-x="890" d="M561 174l1 11l12 39l1 5l5 12l4 7l1 9l4 10l3 14l19 55l5 22l5 10l8 34l8 17l3 12l1 8v13l1 2l2 6l11 36l1 42l7 29l1 28l13 9l28 11l1 1l2 1l8 8v1h2l2 2l10 -2v-2l2 1l-1 -15l-7 -26l-11 -30v-5l-42 -115l-15 -46l-1 -10l-10 -40l-6 -12l-10 -44l-15 -47l-2 -16l8 -5 l3 -3l3 -1l1 -1l10 6l23 8l56 29l13 4v-1l38 18h3l-1 5l6 21l12 63l5 1l4 4l14 12l36 23l-10 -28l-4 -41l5 -18l-1 -23l3 -7l1 -2l5 -2v-5l4 -4l14 -3l18 3l2 -3v-5l-8 -1l-7 -4h-7l-2 -2l-7 -3l-6 -2l-28 -5l-3 -2l-2 -1v-1l-6 -12l-1 -3l-6 -5l-18 -62v-9l-9 -26v-24 l-12 -65l-1 -25l1 -34l-6 -31l2 -8v-6l-1 -18l-4 -3l-2 5l-2 11l-9 21l-2 15l1 7l-1 5l-2 5l-1 7l2 14l-3 43l4 7l-2 8v3l1 37l-3 2l-1 12l17 87l3 4v13l7 3l1 21l-19 -4l-32 -14h-1l-6 -2l-9 -6h-4l-4 -4l-6 -7l-1 -2h-2l-3 -1l-4 2l-4 -4l-13 -7h-7l-7 -8l-22 -6l-28 -14 l-12 -2v2l-3 -1h-5l-6 7zM669 610l12 11l15 7l11 10l15 7l2 -16l-2 -15l-9 -27l-22 -44l-3 -2l-28 -47l-15 -16l-17 -25l-162 -201l-70 -98l-7 -6l-32 -44l-5 -11l-27 -37l-41 -73l-17 -41l-1 -9l-33 -18l-17 -2l-3 6l9 32l14 27l31 47l32 46l27 31l23 31l21 30l35 49l4 4 l34 43l36 48l38 47l21 33l24 32l46 67l30 48l12 23l4 14zM252 607l52 4h16l11 -7l5 -2l3 -5l2 -1l3 -10v-3l-2 -16l-2 -13l-10 -12l-8 -19l-6 -7l-2 -3l-14 -17l-5 -8l-27 -26l-19 -31l6 -14l28 -17l17 -7l13 -12l3 -2l9 -8l21 -36l7 -21h2l1 -11l-2 -9v-3l4 -13l-2 -13 l-2 -11l-2 -5l1 -4l-4 -11l-8 -11l-5 -26l-8 -8l-2 -5l-3 -1l-2 -4l-1 -1l1 -3l-5 -11l-7 -6l-26 -39l-40 -45l-20 -19h-3l-4 -2v-4l-34 -24h-3l-1 -2l-8 -7l-7 -5l-3 -2l-17 -10l-5 -1l-46 -23l-19 -4l-4 -4h-5l-4 1l-17 -6l-30 -2l-4 -2l-2 2h-4l-6 1l-10 4l-11 5l-2 2v8 l4 5l3 6l4 6l14 14l20 9l6 -3l1 2l14 2l2 -3l4 -2l59 1l33 9l31 13l31 20l7 5l3 2l13 12l1 3l2 3l4 4l37 47l19 49l1 27l3 12l-1 31l-4 19l-3 9l-1 8l-2 3l-6 5l-4 8l-3 2l-1 4l-10 12l-6 9l-9 4l-4 3l-2 1l-6 5l-5 3h-3l-4 1l-3 2l-2 2l-8 3l-5 2l-5 1l-2 3l-7 5l-6 8 l-2 10l20 25l13 10l19 22l9 7l2 3v4l29 35l5 13l2 21l-1 5l-7 12l-4 4l-10 5l-44 5l-12 -2l-49 -24l-23 -17l-15 -8l-18 -14l-11 -13l-20 -11l-11 -14l-12 1l-1 4l2 6l6 9l3 1l2 4l37 35l12 6l11 11l58 37l10 9l12 5l31 15l10 4h7l4 4z" />
<glyph unicode="&#xbf;" horiz-adv-x="434" d="M48 57l-3 12l-2 10v11l-1 10l3 5l-2 5l2 20l3 9l4 10l11 22l10 11v2l3 1l11 17l28 27l2 6l9 7l2 -1l1 2l6 5l21 20l10 7l19 20l8 3l32 30l6 4l2 2l2 4l10 10l3 2l3 3l7 5l2 1l5 1l3 10l8 8l2 5l3 2l3 9v26l-5 12l-7 8l-5 3h-2l-1 3l-23 15l-60 22l-41 9l-1 3v2l3 5l6 2 l26 5l10 5l48 -5l73 -18v-2l11 -4l10 -5l4 -7h2l5 -4l8 -8l11 -18v-13l-1 -4l-3 -5l-11 -24h-2l-1 -2l-6 -6l-15 -17l-112 -98l-24 -24l-1 -3l-3 -1l-7 -10l-1 -1l-3 -2l-31 -39l-3 -10l-2 -2l-2 -4l-1 -3l-1 -8l-3 -2v-2l-2 -3l-2 -4l-4 -11l-3 -27l3 -20l2 -2l1 -4l5 -13 l5 -4l1 -5v-2h2l2 -3l9 -10l20 -11l10 -2l23 2l13 2l4 1l3 -2h1v1l9 1l38 19l1 1l7 2l9 5l4 2l5 3l26 14l12 11l12 17l5 3l7 9l4 12l10 2l7 -2l2 -1l3 1l3 3l4 5l5 6l1 2l3 1l11 -7l3 -5l4 -6v-3l-6 -12l-8 -6l-2 -5l-16 -13l-2 -1l-3 -2l-5 -2l-1 -3l-11 -8l-4 -4h-3l-8 -8 l-40 -23v-2l-5 -1l-26 -13l-18 -7l-6 -3l-10 -4l-4 -2l-5 -2l-3 -1l-23 -9l-19 -2l-19 -7l-45 5l-36 13l-4 5l-4 2l-3 6h-2l-3 3l-3 1l-5 8l-3 2l-2 4zM198 634l-4 3l1 5v2l4 13l10 13l16 -4l15 4h11l9 -3l7 -11l3 -5v-5l3 -2l-1 -10l3 -3l-5 -29v-4l-12 -1l-9 -5h-3l-4 -1 l-25 3l-9 7l-1 3l-7 7z" />
<glyph unicode="&#xc0;" horiz-adv-x="429" d="M431 22l-17 -14l-9 -1l-4 -3h-2v-2l-9 -4l-6 1l-14 24l-5 3l-9 12l3 5v2l-3 5v2l-6 6l-5 16l-47 92l-7 7l-13 8l-4 4l-34 21l-25 21l-5 3l-1 2l-28 10l-12 1l-1 2h-6l-19 2l-10 -6l-11 -20l-3 -3l-2 -4l-2 -3l-5 -9l-3 -2l-1 -3l-4 -7l-4 -11l-9 -8l-5 -16l-7 -12l-4 -6 l-2 -2l-7 -17l-13 -26v-4l-6 -13l-1 -11l-7 -14l-1 -12l5 -18l-3 -11l-13 -22l-4 -2l-5 -3h-2l-6 1l-7 1l-21 32v4l2 3l4 4l3 11l8 11l4 8l3 5v3l12 29l24 41l2 1l1 1l9 28l16 21l1 7l2 1l9 8l2 11l-2 4l2 10l-9 13l-6 1l-3 3l-2 3v6l4 3l6 1l6 7h7l7 9l3 1l6 3h7l5 1l11 3 l7 1l5 10l14 12l8 13l26 28l8 15l5 -1l24 28l6 5l5 4v14l-4 21l1 14l2 1l-2 2l-2 10l-1 6v10l-1 6v8l-2 12v4l1 4l1 5l-2 2l1 22l-2 6l-1 32l-1 9l-2 5l-1 22l12 5l3 2l1 2l2 6l11 5l3 5l18 -5l7 -23l2 -26l1 -6v-6l5 -56l-1 -3v-6l1 -33l3 -13l-1 -3l2 -4l29 22v1l5 1 l31 21h6l3 1v1l2 2l5 8l15 3l-1 -13l-5 1l-7 -6l-2 -3l-3 1l-20 -24l-14 -4l-3 -4l-4 -3l-14 -16l-7 -7l-8 -7l-1 -22l-1 -4l1 -4v-10l5 -10l1 -13l2 -6l1 -7l6 -16l19 -74l10 -22l12 -35l5 -10l15 -41l7 -8l9 -6l4 -16h2v-5l3 -14l29 -51l11 -18l2 -5l-2 -4zM272 246l-6 13 l-4 19l-6 14v11l-4 2l-2 5v3l-2 1l-4 20v10l-4 14l-2 3l-2 2l-3 1h-2l-5 -5l-25 -35l-9 -6l-19 -27l-1 -3l-1 -4l15 -5l26 -6l3 -2l2 -1h1l4 1v-3l14 -6l5 -3l6 -4l18 -17l4 -2l3 1l1 4zM115 794l-9 25l1 2l5 1l13 3l2 1l1 1l-1 2l18 18l3 1l2 2l9 -1l2 -1l5 -3l1 -1l3 -7 l5 -5l3 -5l3 -2l5 -6l8 -17l33 -48h1l7 -9l7 -13v-2l5 -3l3 -5l12 -17l2 -4l3 -9l-3 -2h-2l-2 1l-5 4l-3 -2l-10 4l-2 1l-4 3l-5 6l-6 4l-1 1h-1l-2 4l-4 2l-14 8l-3 3l-2 1l-2 2h-1l-9 6l-5 3l-16 12l-13 4l-13 14v2l-8 7l-4 3l-6 5z" />
<glyph unicode="&#xc1;" horiz-adv-x="429" d="M431 22l-17 -14l-9 -1l-4 -3h-2v-2l-9 -4l-6 1l-14 24l-5 3l-9 12l3 5v2l-3 5v2l-6 6l-5 16l-47 92l-7 7l-13 8l-4 4l-34 21l-25 21l-5 3l-1 2l-28 10l-12 1l-1 2h-6l-19 2l-10 -6l-11 -20l-3 -3l-2 -4l-2 -3l-5 -9l-3 -2l-1 -3l-4 -7l-4 -11l-9 -8l-5 -16l-7 -12l-4 -6 l-2 -2l-7 -17l-13 -26v-4l-6 -13l-1 -11l-7 -14l-1 -12l5 -18l-3 -11l-13 -22l-4 -2l-5 -3h-2l-6 1l-7 1l-21 32v4l2 3l4 4l3 11l8 11l4 8l3 5v3l12 29l24 41l2 1l1 1l9 28l16 21l1 7l2 1l9 8l2 11l-2 4l2 10l-9 13l-6 1l-3 3l-2 3v6l4 3l6 1l6 7h7l7 9l3 1l6 3h7l5 1l11 3 l7 1l5 10l14 12l8 13l26 28l8 15l5 -1l24 28l6 5l5 4v14l-4 21l1 14l2 1l-2 2l-2 10l-1 6v10l-1 6v8l-2 12v4l1 4l1 5l-2 2l1 22l-2 6l-1 32l-1 9l-2 5l-1 22l12 5l3 2l1 2l2 6l11 5l3 5l18 -5l7 -23l2 -26l1 -6v-6l5 -56l-1 -3v-6l1 -33l3 -13l-1 -3l2 -4l29 22v1l5 1 l31 21h6l3 1v1l2 2l5 8l15 3l-1 -13l-5 1l-7 -6l-2 -3l-3 1l-20 -24l-14 -4l-3 -4l-4 -3l-14 -16l-7 -7l-8 -7l-1 -22l-1 -4l1 -4v-10l5 -10l1 -13l2 -6l1 -7l6 -16l19 -74l10 -22l12 -35l5 -10l15 -41l7 -8l9 -6l4 -16h2v-5l3 -14l29 -51l11 -18l2 -5l-2 -4zM272 246l-6 13 l-4 19l-6 14v11l-4 2l-2 5v3l-2 1l-4 20v10l-4 14l-2 3l-2 2l-3 1h-2l-5 -5l-25 -35l-9 -6l-19 -27l-1 -3l-1 -4l15 -5l26 -6l3 -2l2 -1h1l4 1v-3l14 -6l5 -3l6 -4l18 -17l4 -2l3 1l1 4zM364 821l2 -2l-8 -25l-6 -6l-6 -5l-4 -3l-8 -7l-1 -2l-12 -14l-13 -4l-17 -12l-6 -3 l-3 -2l-5 -4h-1l-6 -6l-19 -10l-2 -4l-1 -1l-7 -4l-5 -6l-4 -3l-1 -1l-10 -4l-3 2l-5 -4l-2 -1h-2l-4 2l3 9l2 2l1 2l12 17l3 5l4 3l1 2l7 13l7 9h1l2 2l4 6l1 2l2 3l22 35l9 17l5 6l12 12l3 7l1 1l5 3l2 1l9 1l2 -2l3 -1l17 -18v-2l1 -1l2 -1l13 -3z" />
<glyph unicode="&#xc2;" horiz-adv-x="429" d="M431 22l-17 -14l-9 -1l-4 -3h-2v-2l-9 -4l-6 1l-14 24l-5 3l-9 12l3 5v2l-3 5v2l-6 6l-5 16l-47 92l-7 7l-13 8l-4 4l-34 21l-25 21l-5 3l-1 2l-28 10l-12 1l-1 2h-6l-19 2l-10 -6l-11 -20l-3 -3l-2 -4l-2 -3l-5 -9l-3 -2l-1 -3l-4 -7l-4 -11l-9 -8l-5 -16l-7 -12l-4 -6 l-2 -2l-7 -17l-13 -26v-4l-6 -13l-1 -11l-7 -14l-1 -12l5 -18l-3 -11l-13 -22l-4 -2l-5 -3h-2l-6 1l-7 1l-21 32v4l2 3l4 4l3 11l8 11l4 8l3 5v3l12 29l24 41l2 1l1 1l9 28l16 21l1 7l2 1l9 8l2 11l-2 4l2 10l-9 13l-6 1l-3 3l-2 3v6l4 3l6 1l6 7h7l7 9l3 1l6 3h7l5 1l11 3 l7 1l5 10l14 12l8 13l26 28l8 15l5 -1l24 28l6 5l5 4v14l-4 21l1 14l2 1l-2 2l-2 10l-1 6v10l-1 6v8l-2 12v4l1 4l1 5l-2 2l1 22l-2 6l-1 32l-1 9l-2 5l-1 22l12 5l3 2l1 2l2 6l11 5l3 5l18 -5l7 -23l2 -26l1 -6v-6l5 -56l-1 -3v-6l1 -33l3 -13l-1 -3l2 -4l29 22v1l5 1 l31 21h6l3 1v1l2 2l5 8l15 3l-1 -13l-5 1l-7 -6l-2 -3l-3 1l-20 -24l-14 -4l-3 -4l-4 -3l-14 -16l-7 -7l-8 -7l-1 -22l-1 -4l1 -4v-10l5 -10l1 -13l2 -6l1 -7l6 -16l19 -74l10 -22l12 -35l5 -10l15 -41l7 -8l9 -6l4 -16h2v-5l3 -14l29 -51l11 -18l2 -5l-2 -4zM272 246l-6 13 l-4 19l-6 14v11l-4 2l-2 5v3l-2 1l-4 20v10l-4 14l-2 3l-2 2l-3 1h-2l-5 -5l-25 -35l-9 -6l-19 -27l-1 -3l-1 -4l15 -5l26 -6l3 -2l2 -1h1l4 1v-3l14 -6l5 -3l6 -4l18 -17l4 -2l3 1l1 4zM409 698l2 -4l-1 -3l-4 -3h-7l-24 -5l-12 3l-18 8l-6 7h-8l-7 7l-14 4l-9 9l-7 4l-7 8 l-5 4l-2 1l-1 2l-13 12l-2 4l-4 2l-3 4l-2 3l-3 9l-15 14h-3l-1 -1l-1 -4l-1 -1l-5 -6l-6 -8l-4 -4l-3 -5l-3 -2l-4 -4l-2 -5l-6 -4l-4 -3l-14 -17l-3 -3l-2 -1l-9 -12l-2 -2l-2 -4l-11 -5l-3 -4l-7 -2h-3l-6 -3l-13 -2l-7 -4l-18 2l11 8l4 7l4 1l2 3l16 11l15 14l70 83 l10 4v9l-3 4l7 6l8 3l4 3l5 1l3 6l10 2l4 1h1l3 -4l8 -16l2 -3l39 -56l21 -23l19 -15l2 -1l30 -23l17 -8z" />
<glyph unicode="&#xc3;" horiz-adv-x="429" d="M431 22l-17 -14l-9 -1l-4 -3h-2v-2l-9 -4l-6 1l-14 24l-5 3l-9 12l3 5v2l-3 5v2l-6 6l-5 16l-47 92l-7 7l-13 8l-4 4l-34 21l-25 21l-5 3l-1 2l-28 10l-12 1l-1 2h-6l-19 2l-10 -6l-11 -20l-3 -3l-2 -4l-2 -3l-5 -9l-3 -2l-1 -3l-4 -7l-4 -11l-9 -8l-5 -16l-7 -12l-4 -6 l-2 -2l-7 -17l-13 -26v-4l-6 -13l-1 -11l-7 -14l-1 -12l5 -18l-3 -11l-13 -22l-4 -2l-5 -3h-2l-6 1l-7 1l-21 32v4l2 3l4 4l3 11l8 11l4 8l3 5v3l12 29l24 41l2 1l1 1l9 28l16 21l1 7l2 1l9 8l2 11l-2 4l2 10l-9 13l-6 1l-3 3l-2 3v6l4 3l6 1l6 7h7l7 9l3 1l6 3h7l5 1l11 3 l7 1l5 10l14 12l8 13l26 28l8 15l5 -1l24 28l6 5l5 4v14l-4 21l1 14l2 1l-2 2l-2 10l-1 6v10l-1 6v8l-2 12v4l1 4l1 5l-2 2l1 22l-2 6l-1 32l-1 9l-2 5l-1 22l12 5l3 2l1 2l2 6l11 5l3 5l18 -5l7 -23l2 -26l1 -6v-6l5 -56l-1 -3v-6l1 -33l3 -13l-1 -3l2 -4l29 22v1l5 1 l31 21h6l3 1v1l2 2l5 8l15 3l-1 -13l-5 1l-7 -6l-2 -3l-3 1l-20 -24l-14 -4l-3 -4l-4 -3l-14 -16l-7 -7l-8 -7l-1 -22l-1 -4l1 -4v-10l5 -10l1 -13l2 -6l1 -7l6 -16l19 -74l10 -22l12 -35l5 -10l15 -41l7 -8l9 -6l4 -16h2v-5l3 -14l29 -51l11 -18l2 -5l-2 -4zM272 246l-6 13 l-4 19l-6 14v11l-4 2l-2 5v3l-2 1l-4 20v10l-4 14l-2 3l-2 2l-3 1h-2l-5 -5l-25 -35l-9 -6l-19 -27l-1 -3l-1 -4l15 -5l26 -6l3 -2l2 -1h1l4 1v-3l14 -6l5 -3l6 -4l18 -17l4 -2l3 1l1 4zM402 793l4 -2l-1 -6l-32 -34l-32 -20l-20 -8l-17 -3l-31 10l-1 1l-4 3l-40 21l-32 2 l-24 -4l-57 -17l-15 -8l-8 -3l-4 2l-2 3l17 15l17 13l2 3l5 5l14 4l3 5l6 3l17 10l12 3v2l2 1l8 3l36 8l27 -1l1 -2l7 -1l18 -9l6 -1l3 -1v-2l4 -1l12 -9l24 -8l14 2l9 -1l33 10z" />
<glyph unicode="&#xc4;" horiz-adv-x="429" d="M431 22l-17 -14l-9 -1l-4 -3h-2v-2l-9 -4l-6 1l-14 24l-5 3l-9 12l3 5v2l-3 5v2l-6 6l-5 16l-47 92l-7 7l-13 8l-4 4l-34 21l-25 21l-5 3l-1 2l-28 10l-12 1l-1 2h-6l-19 2l-10 -6l-11 -20l-3 -3l-2 -4l-2 -3l-5 -9l-3 -2l-1 -3l-4 -7l-4 -11l-9 -8l-5 -16l-7 -12l-4 -6 l-2 -2l-7 -17l-13 -26v-4l-6 -13l-1 -11l-7 -14l-1 -12l5 -18l-3 -11l-13 -22l-4 -2l-5 -3h-2l-6 1l-7 1l-21 32v4l2 3l4 4l3 11l8 11l4 8l3 5v3l12 29l24 41l2 1l1 1l9 28l16 21l1 7l2 1l9 8l2 11l-2 4l2 10l-9 13l-6 1l-3 3l-2 3v6l4 3l6 1l6 7h7l7 9l3 1l6 3h7l5 1l11 3 l7 1l5 10l14 12l8 13l26 28l8 15l5 -1l24 28l6 5l5 4v14l-4 21l1 14l2 1l-2 2l-2 10l-1 6v10l-1 6v8l-2 12v4l1 4l1 5l-2 2l1 22l-2 6l-1 32l-1 9l-2 5l-1 22l12 5l3 2l1 2l2 6l11 5l3 5l18 -5l7 -23l2 -26l1 -6v-6l5 -56l-1 -3v-6l1 -33l3 -13l-1 -3l2 -4l29 22v1l5 1 l31 21h6l3 1v1l2 2l5 8l15 3l-1 -13l-5 1l-7 -6l-2 -3l-3 1l-20 -24l-14 -4l-3 -4l-4 -3l-14 -16l-7 -7l-8 -7l-1 -22l-1 -4l1 -4v-10l5 -10l1 -13l2 -6l1 -7l6 -16l19 -74l10 -22l12 -35l5 -10l15 -41l7 -8l9 -6l4 -16h2v-5l3 -14l29 -51l11 -18l2 -5l-2 -4zM272 246l-6 13 l-4 19l-6 14v11l-4 2l-2 5v3l-2 1l-4 20v10l-4 14l-2 3l-2 2l-3 1h-2l-5 -5l-25 -35l-9 -6l-19 -27l-1 -3l-1 -4l15 -5l26 -6l3 -2l2 -1h1l4 1v-3l14 -6l5 -3l6 -4l18 -17l4 -2l3 1l1 4zM335 786l11 -14l1 -26l-7 -17l-9 -9l-19 -3l-7 2h-5l-1 -2l-23 2l-3 15l2 36l4 15 l11 2l4 4l23 -2h10l3 -2zM208 784l4 -14l1 -23l-5 -21l-18 -7l-38 -1l-11 4l-1 28l2 6l-2 21l5 10l15 3l23 1l12 -3l9 -1z" />
<glyph unicode="&#xc5;" horiz-adv-x="429" d="M431 22l-17 -14l-9 -1l-4 -3h-2v-2l-9 -4l-6 1l-14 24l-5 3l-9 12l3 5v2l-3 5v2l-6 6l-5 16l-47 92l-7 7l-13 8l-4 4l-34 21l-25 21l-5 3l-1 2l-28 10l-12 1l-1 2h-6l-19 2l-10 -6l-11 -20l-3 -3l-2 -4l-2 -3l-5 -9l-3 -2l-1 -3l-4 -7l-4 -11l-9 -8l-5 -16l-7 -12l-4 -6 l-2 -2l-7 -17l-13 -26v-4l-6 -13l-1 -11l-7 -14l-1 -12l5 -18l-3 -11l-13 -22l-4 -2l-5 -3h-2l-6 1l-7 1l-21 32v4l2 3l4 4l3 11l8 11l4 8l3 5v3l12 29l24 41l2 1l1 1l9 28l16 21l1 7l2 1l9 8l2 11l-2 4l2 10l-9 13l-6 1l-3 3l-2 3v6l4 3l6 1l6 7h7l7 9l3 1l6 3h7l5 1l11 3 l7 1l5 10l14 12l8 13l26 28l8 15l5 -1l24 28l6 5l5 4v14l-4 21l1 14l2 1l-2 2l-2 10l-1 6v10l-1 6v8l-2 12v4l1 4l1 5l-2 2l1 22l-2 6l-1 32l-1 9l-2 5l-1 22l12 5l3 2l1 2l2 6l11 5l3 5l18 -5l7 -23l2 -26l1 -6v-6l5 -56l-1 -3v-6l1 -33l3 -13l-1 -3l2 -4l29 22v1l5 1 l31 21h6l3 1v1l2 2l5 8l15 3l-1 -13l-5 1l-7 -6l-2 -3l-3 1l-20 -24l-14 -4l-3 -4l-4 -3l-14 -16l-7 -7l-8 -7l-1 -22l-1 -4l1 -4v-10l5 -10l1 -13l2 -6l1 -7l6 -16l19 -74l10 -22l12 -35l5 -10l15 -41l7 -8l9 -6l4 -16h2v-5l3 -14l29 -51l11 -18l2 -5l-2 -4zM272 246l-6 13 l-4 19l-6 14v11l-4 2l-2 5v3l-2 1l-4 20v10l-4 14l-2 3l-2 2l-3 1h-2l-5 -5l-25 -35l-9 -6l-19 -27l-1 -3l-1 -4l15 -5l26 -6l3 -2l2 -1h1l4 1v-3l14 -6l5 -3l6 -4l18 -17l4 -2l3 1l1 4zM275 836l11 -2l12 -4l4 -2l4 -1l26 -23l10 -17l7 -18l-3 -21h-1l-3 -5l-1 -4l-17 -32 l-9 -14l-8 -6l-2 1v-2l-26 -6h-15l-20 -4h-19l-7 3l-3 1l-14 5l-25 15l-8 8l-6 4l-12 21v5l-2 4l-2 12l8 34l2 2l3 5l17 15l6 8l16 10l9 2h3l7 2h13l3 2l32 1l5 -1l3 1zM207 795l-7 -13l-3 -25l1 -2l1 -4l4 -14h1l1 -5l19 -22l1 -2l22 -12h7l2 1l2 2l8 3l9 10v5l5 10l6 2 l9 8v3l2 1l4 15l-4 16l-1 6l-4 4l-4 7l-19 18l-5 3l-1 1l-26 10l-6 -2l-6 -3l-2 -2l-8 -7l-6 -8z" />
<glyph unicode="&#xc7;" horiz-adv-x="539" d="M293 -23l-4 -1v-7l-2 -4l-1 -3l-3 -37l25 1l20 -4l21 -12l10 -16l4 -16l-3 -15l-7 -13l-41 -41l-24 -11l-8 -4l-9 -1l-25 -3l-27 4l-9 6l-2 2l-4 1l-5 2l-12 13l3 11l2 2l4 6l1 1h2l3 4l8 5l13 15h2l1 1l4 -5l-2 -13l3 -7l6 -9l19 -6v-2l4 -2l21 -3l23 2l9 7l10 27l-7 8 l-1 6l-10 13l-31 16l-27 -3l-7 4l6 36l-2 12l1 30h-19l-36 8l-29 13h-3l-7 4l-9 6l-6 6v1h-1l-11 9l-5 8l-2 1l1 2l-11 10l1 3h-2l-5 8l-14 28l-7 22v15l-7 23l-12 9l-13 20l-18 54v37l2 12l1 7l6 10l3 21l4 8l2 12l4 6l1 4l3 3l10 23l5 4l2 4l5 13l9 11v1l3 3l2 4l40 52 l30 32h2l9 10l23 18l16 18l9 4l20 18l41 25l44 23l5 2h2l35 12l1 1l2 1l1 -4l2 2v2l10 4l72 8l1 -2l34 2v-2h12l4 -2l3 -6l-2 -5v-3h-3l-4 -4l-1 4l-2 -3l-4 1l-2 -5l2 2l5 -1v-3h-4l-1 -3l-4 -3l-6 -9l2 -1v-2l-2 -2l-2 -3l-23 4h-43v1h-1l-47 -6l-11 -2l-7 -1l-2 -1h-3 l-8 -4h-5l-8 -2h-9l-28 -14l-5 -3l-6 -3l-26 -16l-4 -3l-2 -2l-7 -6l-24 -20h-6l-17 -16l-3 -1l-1 -4l-3 -4v3l-1 1l-8 -7l-7 -11l-5 -6l-3 -3l-8 -10l-5 -3l-4 -14l-10 -14l1 -4l-4 -5l-17 -35l-6 -31l1 -8l-1 -6v-4l-2 -10l5 -4l5 3l2 4l15 33l4 4v2l2 1l1 4l3 6l1 6l6 12 h3l1 2l1 3l1 6l22 28l34 34l7 6l2 2l6 8l10 7l6 10l15 10l2 3l16 12l2 2l7 6l20 16l2 -1v-3l-16 -21l-6 -3l-15 -18l-16 -13l-12 -14l-4 -6v-2l-3 -2l-18 -23l-2 -2l-5 -6l-4 -5l-3 -5l-4 -6l-22 -29l-6 -12l-6 -18v-1l-1 -4l-2 -9l-5 -5l-10 -34l-1 -1l-2 -4v-6l-5 -23v-22 l-4 -19l3 -62l4 -25l5 -11l2 -2l6 -12l3 -3h-1v-10l2 -3l6 -3v-2h2v-4l2 -2l2 -5l7 -12l15 -11l2 -2l3 -5l1 -2l11 -2l8 -6l23 -10h11l9 2l7 -4l34 -1l39 6l2 3l15 3l28 11l12 6l6 1l56 28l16 17l3 4l6 3l13 10l15 16l1 2l2 1l4 1l5 4l14 16h3l-5 -13l-5 -10l-3 -4l-6 -5 l-17 -21l-9 -9h-3l-4 -3l1 -4v-2l-1 -3v-2l-5 -3l-10 -9l-3 -2l-2 -5l-3 -1l-5 -4l-9 -3l-17 -16l-25 -19l-9 -3l-3 -3l-7 -3l-4 -2l-10 -3l-57 -26l-4 -3l-3 -1l-9 5l-5 -1l-4 -1z" />
<glyph unicode="&#xc8;" horiz-adv-x="406" d="M412 633l-5 -14l-6 -8v-19l-20 3l-3 2l-1 1l-7 2l-5 -1l-4 -1l-50 -7l-32 -13l-20 -12l-5 -1l-30 -18l-8 -7l-10 -5l-15 -13l-2 -3l-3 -3l-3 -2l-8 -6l-8 -5l-5 -2l-5 -6h-5l-13 -15l-3 -5l-2 -3l-4 -3l-3 -4l-2 -4l-3 -5l-1 -6l-4 -5l-5 -2h-3l1 5v8l12 21l6 7l1 5 l14 16l4 3l2 3l5 8l3 1v1l16 15l5 2l4 4l16 11l2 1l7 8l2 2l5 3l47 27l18 8l10 5l5 4l3 1l26 14l33 11l6 4l6 2l4 2l9 3l20 2l5 -1l2 -2l2 -7h3zM391 150l1 -4l-2 -10l-1 -6l-2 -5l-6 -8l-8 -19l-7 -7l-11 -7l-15 -16l-11 -7l-2 -4l-6 -6l-5 -1l-27 -18l-5 -2l-2 -2l-5 -2 l-4 -4l-43 -18l-41 -13h-54l-46 12l-25 12l-19 16l-4 4l-3 2l-3 7l-3 2l-2 5l-8 11l-1 10l-4 3v1l-3 9l-3 22l4 38l8 21v6l9 19l20 33l17 21l9 5l9 16l14 11l3 -1l24 24l48 33l7 4v1l-6 2l-26 8l-16 12l-5 6l-3 5l-4 4l-2 4l-5 19l8 31l6 7l1 4l2 1l2 4l5 3l3 4h1l1 6l7 11 l4 1l3 2l2 2l2 4h6l20 17l10 5l4 3l5 3l16 8h7l-1 -7l-12 -5l1 -4l-10 -4l-19 -19l-5 -6l-1 -2v-3h-3l-6 -14l-2 -4l-1 -5v-9l1 -5l2 -7l3 -6l-1 -5l1 -3l5 -5l13 -12l19 -9l10 -2l7 -4l25 -4l21 4l1 -2l2 -2l8 -23l-4 -7l-1 -3l-7 -5l-13 1l-39 -9l-35 -15l-38 -29l-14 -8 l-2 -3l-5 -5l-3 -4l-13 -14l-12 -9v-5l-11 -12l-11 -21l-4 -10l-8 -22l-3 -23l1 -15l2 -11l3 -6l3 -13h2l1 -5l3 -6l4 -7l4 -4l5 -7l17 -17l12 -5l2 -3l4 -4l-1 -6l6 -1l3 1h2l1 -1h2l11 -5l15 -4l4 -2h9l4 -3l14 1l11 -3l10 2l6 1l2 1l26 5l3 4l16 6h7l16 14l8 4l32 31l6 8 l3 3l8 10l16 28l8 5l3 7l7 7zM235 794l-9 25l1 2l5 1l13 3l2 1l1 1l-1 2l18 18l3 1l2 2l9 -1l2 -1l5 -3l1 -1l3 -7l5 -5l3 -5l3 -2l5 -6l8 -17l33 -48h1l7 -9l7 -13v-2l5 -3l3 -5l12 -17l2 -4l3 -9l-3 -2h-2l-2 1l-5 4l-3 -2l-10 4l-2 1l-4 3l-5 6l-6 4l-1 1h-1l-2 4l-4 2 l-14 8l-3 3l-2 1l-2 2h-1l-9 6l-5 3l-16 12l-13 4l-13 14v2l-8 7l-4 3l-6 5z" />
<glyph unicode="&#xc9;" horiz-adv-x="406" d="M412 633l-5 -14l-6 -8v-19l-20 3l-3 2l-1 1l-7 2l-5 -1l-4 -1l-50 -7l-32 -13l-20 -12l-5 -1l-30 -18l-8 -7l-10 -5l-15 -13l-2 -3l-3 -3l-3 -2l-8 -6l-8 -5l-5 -2l-5 -6h-5l-13 -15l-3 -5l-2 -3l-4 -3l-3 -4l-2 -4l-3 -5l-1 -6l-4 -5l-5 -2h-3l1 5v8l12 21l6 7l1 5 l14 16l4 3l2 3l5 8l3 1v1l16 15l5 2l4 4l16 11l2 1l7 8l2 2l5 3l47 27l18 8l10 5l5 4l3 1l26 14l33 11l6 4l6 2l4 2l9 3l20 2l5 -1l2 -2l2 -7h3zM391 150l1 -4l-2 -10l-1 -6l-2 -5l-6 -8l-8 -19l-7 -7l-11 -7l-15 -16l-11 -7l-2 -4l-6 -6l-5 -1l-27 -18l-5 -2l-2 -2l-5 -2 l-4 -4l-43 -18l-41 -13h-54l-46 12l-25 12l-19 16l-4 4l-3 2l-3 7l-3 2l-2 5l-8 11l-1 10l-4 3v1l-3 9l-3 22l4 38l8 21v6l9 19l20 33l17 21l9 5l9 16l14 11l3 -1l24 24l48 33l7 4v1l-6 2l-26 8l-16 12l-5 6l-3 5l-4 4l-2 4l-5 19l8 31l6 7l1 4l2 1l2 4l5 3l3 4h1l1 6l7 11 l4 1l3 2l2 2l2 4h6l20 17l10 5l4 3l5 3l16 8h7l-1 -7l-12 -5l1 -4l-10 -4l-19 -19l-5 -6l-1 -2v-3h-3l-6 -14l-2 -4l-1 -5v-9l1 -5l2 -7l3 -6l-1 -5l1 -3l5 -5l13 -12l19 -9l10 -2l7 -4l25 -4l21 4l1 -2l2 -2l8 -23l-4 -7l-1 -3l-7 -5l-13 1l-39 -9l-35 -15l-38 -29l-14 -8 l-2 -3l-5 -5l-3 -4l-13 -14l-12 -9v-5l-11 -12l-11 -21l-4 -10l-8 -22l-3 -23l1 -15l2 -11l3 -6l3 -13h2l1 -5l3 -6l4 -7l4 -4l5 -7l17 -17l12 -5l2 -3l4 -4l-1 -6l6 -1l3 1h2l1 -1h2l11 -5l15 -4l4 -2h9l4 -3l14 1l11 -3l10 2l6 1l2 1l26 5l3 4l16 6h7l16 14l8 4l32 31l6 8 l3 3l8 10l16 28l8 5l3 7l7 7zM420 821l2 -2l-8 -25l-6 -6l-6 -5l-4 -3l-8 -7l-1 -2l-12 -14l-13 -4l-17 -12l-6 -3l-3 -2l-5 -4h-1l-6 -6l-19 -10l-2 -4l-1 -1l-7 -4l-5 -6l-4 -3l-1 -1l-10 -4l-3 2l-5 -4l-2 -1h-2l-4 2l3 9l2 2l1 2l12 17l3 5l4 3l1 2l7 13l7 9h1l2 2l4 6 l1 2l2 3l22 35l9 17l5 6l12 12l3 7l1 1l5 3l2 1l9 1l2 -2l3 -1l17 -18v-2l1 -1l2 -1l13 -3z" />
<glyph unicode="&#xca;" horiz-adv-x="406" d="M412 633l-5 -14l-6 -8v-19l-20 3l-3 2l-1 1l-7 2l-5 -1l-4 -1l-50 -7l-32 -13l-20 -12l-5 -1l-30 -18l-8 -7l-10 -5l-15 -13l-2 -3l-3 -3l-3 -2l-8 -6l-8 -5l-5 -2l-5 -6h-5l-13 -15l-3 -5l-2 -3l-4 -3l-3 -4l-2 -4l-3 -5l-1 -6l-4 -5l-5 -2h-3l1 5v8l12 21l6 7l1 5 l14 16l4 3l2 3l5 8l3 1v1l16 15l5 2l4 4l16 11l2 1l7 8l2 2l5 3l47 27l18 8l10 5l5 4l3 1l26 14l33 11l6 4l6 2l4 2l9 3l20 2l5 -1l2 -2l2 -7h3zM391 150l1 -4l-2 -10l-1 -6l-2 -5l-6 -8l-8 -19l-7 -7l-11 -7l-15 -16l-11 -7l-2 -4l-6 -6l-5 -1l-27 -18l-5 -2l-2 -2l-5 -2 l-4 -4l-43 -18l-41 -13h-54l-46 12l-25 12l-19 16l-4 4l-3 2l-3 7l-3 2l-2 5l-8 11l-1 10l-4 3v1l-3 9l-3 22l4 38l8 21v6l9 19l20 33l17 21l9 5l9 16l14 11l3 -1l24 24l48 33l7 4v1l-6 2l-26 8l-16 12l-5 6l-3 5l-4 4l-2 4l-5 19l8 31l6 7l1 4l2 1l2 4l5 3l3 4h1l1 6l7 11 l4 1l3 2l2 2l2 4h6l20 17l10 5l4 3l5 3l16 8h7l-1 -7l-12 -5l1 -4l-10 -4l-19 -19l-5 -6l-1 -2v-3h-3l-6 -14l-2 -4l-1 -5v-9l1 -5l2 -7l3 -6l-1 -5l1 -3l5 -5l13 -12l19 -9l10 -2l7 -4l25 -4l21 4l1 -2l2 -2l8 -23l-4 -7l-1 -3l-7 -5l-13 1l-39 -9l-35 -15l-38 -29l-14 -8 l-2 -3l-5 -5l-3 -4l-13 -14l-12 -9v-5l-11 -12l-11 -21l-4 -10l-8 -22l-3 -23l1 -15l2 -11l3 -6l3 -13h2l1 -5l3 -6l4 -7l4 -4l5 -7l17 -17l12 -5l2 -3l4 -4l-1 -6l6 -1l3 1h2l1 -1h2l11 -5l15 -4l4 -2h9l4 -3l14 1l11 -3l10 2l6 1l2 1l26 5l3 4l16 6h7l16 14l8 4l32 31l6 8 l3 3l8 10l16 28l8 5l3 7l7 7zM417 698l2 -4l-1 -3l-4 -3h-7l-24 -5l-12 3l-18 8l-6 7h-8l-7 7l-14 4l-9 9l-7 4l-7 8l-5 4l-2 1l-1 2l-13 12l-2 4l-4 2l-3 4l-2 3l-3 9l-15 14h-3l-1 -1l-1 -4l-1 -1l-5 -6l-6 -8l-4 -4l-3 -5l-3 -2l-4 -4l-2 -5l-6 -4l-4 -3l-14 -17l-3 -3 l-2 -1l-9 -12l-2 -2l-2 -4l-11 -5l-3 -4l-7 -2h-3l-6 -3l-13 -2l-7 -4l-18 2l11 8l4 7l4 1l2 3l16 11l15 14l70 83l10 4v9l-3 4l7 6l8 3l4 3l5 1l3 6l10 2l4 1h1l3 -4l8 -16l2 -3l39 -56l21 -23l19 -15l2 -1l30 -23l17 -8z" />
<glyph unicode="&#xcb;" horiz-adv-x="406" d="M412 633l-5 -14l-6 -8v-19l-20 3l-3 2l-1 1l-7 2l-5 -1l-4 -1l-50 -7l-32 -13l-20 -12l-5 -1l-30 -18l-8 -7l-10 -5l-15 -13l-2 -3l-3 -3l-3 -2l-8 -6l-8 -5l-5 -2l-5 -6h-5l-13 -15l-3 -5l-2 -3l-4 -3l-3 -4l-2 -4l-3 -5l-1 -6l-4 -5l-5 -2h-3l1 5v8l12 21l6 7l1 5 l14 16l4 3l2 3l5 8l3 1v1l16 15l5 2l4 4l16 11l2 1l7 8l2 2l5 3l47 27l18 8l10 5l5 4l3 1l26 14l33 11l6 4l6 2l4 2l9 3l20 2l5 -1l2 -2l2 -7h3zM391 150l1 -4l-2 -10l-1 -6l-2 -5l-6 -8l-8 -19l-7 -7l-11 -7l-15 -16l-11 -7l-2 -4l-6 -6l-5 -1l-27 -18l-5 -2l-2 -2l-5 -2 l-4 -4l-43 -18l-41 -13h-54l-46 12l-25 12l-19 16l-4 4l-3 2l-3 7l-3 2l-2 5l-8 11l-1 10l-4 3v1l-3 9l-3 22l4 38l8 21v6l9 19l20 33l17 21l9 5l9 16l14 11l3 -1l24 24l48 33l7 4v1l-6 2l-26 8l-16 12l-5 6l-3 5l-4 4l-2 4l-5 19l8 31l6 7l1 4l2 1l2 4l5 3l3 4h1l1 6l7 11 l4 1l3 2l2 2l2 4h6l20 17l10 5l4 3l5 3l16 8h7l-1 -7l-12 -5l1 -4l-10 -4l-19 -19l-5 -6l-1 -2v-3h-3l-6 -14l-2 -4l-1 -5v-9l1 -5l2 -7l3 -6l-1 -5l1 -3l5 -5l13 -12l19 -9l10 -2l7 -4l25 -4l21 4l1 -2l2 -2l8 -23l-4 -7l-1 -3l-7 -5l-13 1l-39 -9l-35 -15l-38 -29l-14 -8 l-2 -3l-5 -5l-3 -4l-13 -14l-12 -9v-5l-11 -12l-11 -21l-4 -10l-8 -22l-3 -23l1 -15l2 -11l3 -6l3 -13h2l1 -5l3 -6l4 -7l4 -4l5 -7l17 -17l12 -5l2 -3l4 -4l-1 -6l6 -1l3 1h2l1 -1h2l11 -5l15 -4l4 -2h9l4 -3l14 1l11 -3l10 2l6 1l2 1l26 5l3 4l16 6h7l16 14l8 4l32 31l6 8 l3 3l8 10l16 28l8 5l3 7l7 7zM400 786l11 -14l1 -26l-7 -17l-9 -9l-19 -3l-7 2h-5l-1 -2l-23 2l-3 15l2 36l4 15l11 2l4 4l23 -2h10l3 -2zM273 784l4 -14l1 -23l-5 -21l-18 -7l-38 -1l-11 4l-1 28l2 6l-2 21l5 10l15 3l23 1l12 -3l9 -1z" />
<glyph unicode="&#xcc;" d="M436 402l3 -14l-2 -11v-11l-2 -4h2l-4 -52l-1 -6l2 -4l-5 -18l2 -10l-2 -14l-2 -13l-3 -5l-1 -22l-2 -10l-2 -2l-1 -11l-8 -12v-13l-5 -11l-4 -24l-8 -10v-5l-12 -32l-8 -9l-5 -11l-6 -4l-19 -27l-5 -3l-6 -4l-4 -4v-1l-22 -15l-17 -4l-4 -4v-2l-4 -3l-2 -2l-51 -22v2 l-20 -6l-6 -1l-3 -1l-24 -3l-32 3l-9 4h-4l-6 1l-15 5l-2 3h-4l-10 5l-7 12h-6l-20 14l2 2v2l-4 -1l-4 3l-10 9l-3 5l-5 6l-1 4h-6l-6 9l-1 7l-1 3l-5 6l-5 4v2l-2 4l-3 3l-10 18l-6 16v3l3 4l5 -1l5 -10l9 -9l1 -3l4 -10l3 -1l3 -8l12 -8l2 -5l2 -2l6 -8l3 -2l4 -1l12 -7 l2 -3l1 -3l1 -1v-2l4 -1l5 -4l8 -1l3 -2l5 -3l5 -2l2 -2l4 -1l3 -3l3 -2l5 -4l3 -1l3 2l9 -4h11l18 -5h12l6 1l11 -2h13l6 2l4 -2h4l17 7l22 3l28 12l5 3l6 3l13 7l4 5l6 4l4 3l2 1l3 1l1 2l3 3v2l19 25l14 31h2l2 4l-1 2l13 44l3 41l3 8l1 9l-1 2l2 3h1l1 36l-2 52l3 6h-3 l2 18l-4 3v17l-3 10l2 1l1 2l-2 3l-4 19l-5 2l1 19h-2l-6 38l-15 63l-5 12v11l3 3l1 3l13 8l7 -9l2 -6l9 -5l4 -23l3 -9l-1 -2h2l9 -39h1l3 -7l2 -4l-1 -8v-2l1 -3l1 -7l11 -42v-24l-3 -6h1l6 -14l-1 -2l1 -3l4 -3l3 22l-1 4v10l-5 44l-3 13l3 1l-4 2l-2 14l-4 9l-1 5l1 8 h-2l2 4l-2 7l-2 3v5h-2l-3 19l-2 5l-2 8l-6 11l-3 23h-2l-3 6l-2 6l-1 2l2 1v1l2 5h3l2 -2l17 3l-3 -24l1 -5v-2l1 -1l4 -8l5 -6h1v-11l7 -12l1 -12h1v-8l3 -4l2 -19l3 -7v-8l4 -10l-2 -24l2 -5zM418 596l2 -1l-1 -4l-3 -4l-3 -2l-6 -2l-6 -3l-15 -3l-13 -5v1l-3 -2l-12 -1 l-10 -3l-35 -10v-3l-27 -8l-7 -1l-6 -1l-1 -2l-39 -6l-2 -1l-5 -2l-1 -1l-4 -1l-4 2l-3 1l-6 -3h-1l-9 1l-4 -1l-9 1l-7 -2l-44 1v2l-6 -1l-6 4l-6 2l-11 2l-2 1h-13l-8 5l-10 5h-5l-26 14l-1 2l-3 5v6l18 12l7 2v2l12 13h3v3l21 2l4 -5l30 -18l8 -4l39 -3l3 -1l7 1v-3l2 -2 l7 -2l21 -1l4 -2l8 1l2 -1l35 -1l6 3l3 1l32 1l50 9v1h-3l-2 4l-3 -1l-1 1l-5 4v4l2 1l3 2l2 1v4l1 8h4l15 -10l1 -2l5 -3l2 -4l-2 -2l-1 -3l36 7zM101 794l-9 25l1 2l5 1l13 3l2 1l1 1l-1 2l18 18l3 1l2 2l9 -1l2 -1l5 -3l1 -1l3 -7l5 -5l3 -5l3 -2l5 -6l8 -17l33 -48h1 l7 -9l7 -13v-2l5 -3l3 -5l12 -17l2 -4l3 -9l-3 -2h-2l-2 1l-5 4l-3 -2l-10 4l-2 1l-4 3l-5 6l-6 4l-1 1h-1l-2 4l-4 2l-14 8l-3 3l-2 1l-2 2h-1l-9 6l-5 3l-16 12l-13 4l-13 14v2l-8 7l-4 3l-6 5z" />
<glyph unicode="&#xcd;" d="M436 402l3 -14l-2 -11v-11l-2 -4h2l-4 -52l-1 -6l2 -4l-5 -18l2 -10l-2 -14l-2 -13l-3 -5l-1 -22l-2 -10l-2 -2l-1 -11l-8 -12v-13l-5 -11l-4 -24l-8 -10v-5l-12 -32l-8 -9l-5 -11l-6 -4l-19 -27l-5 -3l-6 -4l-4 -4v-1l-22 -15l-17 -4l-4 -4v-2l-4 -3l-2 -2l-51 -22v2 l-20 -6l-6 -1l-3 -1l-24 -3l-32 3l-9 4h-4l-6 1l-15 5l-2 3h-4l-10 5l-7 12h-6l-20 14l2 2v2l-4 -1l-4 3l-10 9l-3 5l-5 6l-1 4h-6l-6 9l-1 7l-1 3l-5 6l-5 4v2l-2 4l-3 3l-10 18l-6 16v3l3 4l5 -1l5 -10l9 -9l1 -3l4 -10l3 -1l3 -8l12 -8l2 -5l2 -2l6 -8l3 -2l4 -1l12 -7 l2 -3l1 -3l1 -1v-2l4 -1l5 -4l8 -1l3 -2l5 -3l5 -2l2 -2l4 -1l3 -3l3 -2l5 -4l3 -1l3 2l9 -4h11l18 -5h12l6 1l11 -2h13l6 2l4 -2h4l17 7l22 3l28 12l5 3l6 3l13 7l4 5l6 4l4 3l2 1l3 1l1 2l3 3v2l19 25l14 31h2l2 4l-1 2l13 44l3 41l3 8l1 9l-1 2l2 3h1l1 36l-2 52l3 6h-3 l2 18l-4 3v17l-3 10l2 1l1 2l-2 3l-4 19l-5 2l1 19h-2l-6 38l-15 63l-5 12v11l3 3l1 3l13 8l7 -9l2 -6l9 -5l4 -23l3 -9l-1 -2h2l9 -39h1l3 -7l2 -4l-1 -8v-2l1 -3l1 -7l11 -42v-24l-3 -6h1l6 -14l-1 -2l1 -3l4 -3l3 22l-1 4v10l-5 44l-3 13l3 1l-4 2l-2 14l-4 9l-1 5l1 8 h-2l2 4l-2 7l-2 3v5h-2l-3 19l-2 5l-2 8l-6 11l-3 23h-2l-3 6l-2 6l-1 2l2 1v1l2 5h3l2 -2l17 3l-3 -24l1 -5v-2l1 -1l4 -8l5 -6h1v-11l7 -12l1 -12h1v-8l3 -4l2 -19l3 -7v-8l4 -10l-2 -24l2 -5zM418 596l2 -1l-1 -4l-3 -4l-3 -2l-6 -2l-6 -3l-15 -3l-13 -5v1l-3 -2l-12 -1 l-10 -3l-35 -10v-3l-27 -8l-7 -1l-6 -1l-1 -2l-39 -6l-2 -1l-5 -2l-1 -1l-4 -1l-4 2l-3 1l-6 -3h-1l-9 1l-4 -1l-9 1l-7 -2l-44 1v2l-6 -1l-6 4l-6 2l-11 2l-2 1h-13l-8 5l-10 5h-5l-26 14l-1 2l-3 5v6l18 12l7 2v2l12 13h3v3l21 2l4 -5l30 -18l8 -4l39 -3l3 -1l7 1v-3l2 -2 l7 -2l21 -1l4 -2l8 1l2 -1l35 -1l6 3l3 1l32 1l50 9v1h-3l-2 4l-3 -1l-1 1l-5 4v4l2 1l3 2l2 1v4l1 8h4l15 -10l1 -2l5 -3l2 -4l-2 -2l-1 -3l36 7zM372 821l2 -2l-8 -25l-6 -6l-6 -5l-4 -3l-8 -7l-1 -2l-12 -14l-13 -4l-17 -12l-6 -3l-3 -2l-5 -4h-1l-6 -6l-19 -10l-2 -4 l-1 -1l-7 -4l-5 -6l-4 -3l-1 -1l-10 -4l-3 2l-5 -4l-2 -1h-2l-4 2l3 9l2 2l1 2l12 17l3 5l4 3l1 2l7 13l7 9h1l2 2l4 6l1 2l2 3l22 35l9 17l5 6l12 12l3 7l1 1l5 3l2 1l9 1l2 -2l3 -1l17 -18v-2l1 -1l2 -1l13 -3z" />
<glyph unicode="&#xce;" d="M436 402l3 -14l-2 -11v-11l-2 -4h2l-4 -52l-1 -6l2 -4l-5 -18l2 -10l-2 -14l-2 -13l-3 -5l-1 -22l-2 -10l-2 -2l-1 -11l-8 -12v-13l-5 -11l-4 -24l-8 -10v-5l-12 -32l-8 -9l-5 -11l-6 -4l-19 -27l-5 -3l-6 -4l-4 -4v-1l-22 -15l-17 -4l-4 -4v-2l-4 -3l-2 -2l-51 -22v2 l-20 -6l-6 -1l-3 -1l-24 -3l-32 3l-9 4h-4l-6 1l-15 5l-2 3h-4l-10 5l-7 12h-6l-20 14l2 2v2l-4 -1l-4 3l-10 9l-3 5l-5 6l-1 4h-6l-6 9l-1 7l-1 3l-5 6l-5 4v2l-2 4l-3 3l-10 18l-6 16v3l3 4l5 -1l5 -10l9 -9l1 -3l4 -10l3 -1l3 -8l12 -8l2 -5l2 -2l6 -8l3 -2l4 -1l12 -7 l2 -3l1 -3l1 -1v-2l4 -1l5 -4l8 -1l3 -2l5 -3l5 -2l2 -2l4 -1l3 -3l3 -2l5 -4l3 -1l3 2l9 -4h11l18 -5h12l6 1l11 -2h13l6 2l4 -2h4l17 7l22 3l28 12l5 3l6 3l13 7l4 5l6 4l4 3l2 1l3 1l1 2l3 3v2l19 25l14 31h2l2 4l-1 2l13 44l3 41l3 8l1 9l-1 2l2 3h1l1 36l-2 52l3 6h-3 l2 18l-4 3v17l-3 10l2 1l1 2l-2 3l-4 19l-5 2l1 19h-2l-6 38l-15 63l-5 12v11l3 3l1 3l13 8l7 -9l2 -6l9 -5l4 -23l3 -9l-1 -2h2l9 -39h1l3 -7l2 -4l-1 -8v-2l1 -3l1 -7l11 -42v-24l-3 -6h1l6 -14l-1 -2l1 -3l4 -3l3 22l-1 4v10l-5 44l-3 13l3 1l-4 2l-2 14l-4 9l-1 5l1 8 h-2l2 4l-2 7l-2 3v5h-2l-3 19l-2 5l-2 8l-6 11l-3 23h-2l-3 6l-2 6l-1 2l2 1v1l2 5h3l2 -2l17 3l-3 -24l1 -5v-2l1 -1l4 -8l5 -6h1v-11l7 -12l1 -12h1v-8l3 -4l2 -19l3 -7v-8l4 -10l-2 -24l2 -5zM418 596l2 -1l-1 -4l-3 -4l-3 -2l-6 -2l-6 -3l-15 -3l-13 -5v1l-3 -2l-12 -1 l-10 -3l-35 -10v-3l-27 -8l-7 -1l-6 -1l-1 -2l-39 -6l-2 -1l-5 -2l-1 -1l-4 -1l-4 2l-3 1l-6 -3h-1l-9 1l-4 -1l-9 1l-7 -2l-44 1v2l-6 -1l-6 4l-6 2l-11 2l-2 1h-13l-8 5l-10 5h-5l-26 14l-1 2l-3 5v6l18 12l7 2v2l12 13h3v3l21 2l4 -5l30 -18l8 -4l39 -3l3 -1l7 1v-3l2 -2 l7 -2l21 -1l4 -2l8 1l2 -1l35 -1l6 3l3 1l32 1l50 9v1h-3l-2 4l-3 -1l-1 1l-5 4v4l2 1l3 2l2 1v4l1 8h4l15 -10l1 -2l5 -3l2 -4l-2 -2l-1 -3l36 7zM385 698l2 -4l-1 -3l-4 -3h-7l-24 -5l-12 3l-18 8l-6 7h-8l-7 7l-14 4l-9 9l-7 4l-7 8l-5 4l-2 1l-1 2l-13 12l-2 4l-4 2 l-3 4l-2 3l-3 9l-15 14h-3l-1 -1l-1 -4l-1 -1l-5 -6l-6 -8l-4 -4l-3 -5l-3 -2l-4 -4l-2 -5l-6 -4l-4 -3l-14 -17l-3 -3l-2 -1l-9 -12l-2 -2l-2 -4l-11 -5l-3 -4l-7 -2h-3l-6 -3l-13 -2l-7 -4l-18 2l11 8l4 7l4 1l2 3l16 11l15 14l70 83l10 4v9l-3 4l7 6l8 3l4 3l5 1l3 6 l10 2l4 1h1l3 -4l8 -16l2 -3l39 -56l21 -23l19 -15l2 -1l30 -23l17 -8z" />
<glyph unicode="&#xcf;" d="M436 402l3 -14l-2 -11v-11l-2 -4h2l-4 -52l-1 -6l2 -4l-5 -18l2 -10l-2 -14l-2 -13l-3 -5l-1 -22l-2 -10l-2 -2l-1 -11l-8 -12v-13l-5 -11l-4 -24l-8 -10v-5l-12 -32l-8 -9l-5 -11l-6 -4l-19 -27l-5 -3l-6 -4l-4 -4v-1l-22 -15l-17 -4l-4 -4v-2l-4 -3l-2 -2l-51 -22v2 l-20 -6l-6 -1l-3 -1l-24 -3l-32 3l-9 4h-4l-6 1l-15 5l-2 3h-4l-10 5l-7 12h-6l-20 14l2 2v2l-4 -1l-4 3l-10 9l-3 5l-5 6l-1 4h-6l-6 9l-1 7l-1 3l-5 6l-5 4v2l-2 4l-3 3l-10 18l-6 16v3l3 4l5 -1l5 -10l9 -9l1 -3l4 -10l3 -1l3 -8l12 -8l2 -5l2 -2l6 -8l3 -2l4 -1l12 -7 l2 -3l1 -3l1 -1v-2l4 -1l5 -4l8 -1l3 -2l5 -3l5 -2l2 -2l4 -1l3 -3l3 -2l5 -4l3 -1l3 2l9 -4h11l18 -5h12l6 1l11 -2h13l6 2l4 -2h4l17 7l22 3l28 12l5 3l6 3l13 7l4 5l6 4l4 3l2 1l3 1l1 2l3 3v2l19 25l14 31h2l2 4l-1 2l13 44l3 41l3 8l1 9l-1 2l2 3h1l1 36l-2 52l3 6h-3 l2 18l-4 3v17l-3 10l2 1l1 2l-2 3l-4 19l-5 2l1 19h-2l-6 38l-15 63l-5 12v11l3 3l1 3l13 8l7 -9l2 -6l9 -5l4 -23l3 -9l-1 -2h2l9 -39h1l3 -7l2 -4l-1 -8v-2l1 -3l1 -7l11 -42v-24l-3 -6h1l6 -14l-1 -2l1 -3l4 -3l3 22l-1 4v10l-5 44l-3 13l3 1l-4 2l-2 14l-4 9l-1 5l1 8 h-2l2 4l-2 7l-2 3v5h-2l-3 19l-2 5l-2 8l-6 11l-3 23h-2l-3 6l-2 6l-1 2l2 1v1l2 5h3l2 -2l17 3l-3 -24l1 -5v-2l1 -1l4 -8l5 -6h1v-11l7 -12l1 -12h1v-8l3 -4l2 -19l3 -7v-8l4 -10l-2 -24l2 -5zM418 596l2 -1l-1 -4l-3 -4l-3 -2l-6 -2l-6 -3l-15 -3l-13 -5v1l-3 -2l-12 -1 l-10 -3l-35 -10v-3l-27 -8l-7 -1l-6 -1l-1 -2l-39 -6l-2 -1l-5 -2l-1 -1l-4 -1l-4 2l-3 1l-6 -3h-1l-9 1l-4 -1l-9 1l-7 -2l-44 1v2l-6 -1l-6 4l-6 2l-11 2l-2 1h-13l-8 5l-10 5h-5l-26 14l-1 2l-3 5v6l18 12l7 2v2l12 13h3v3l21 2l4 -5l30 -18l8 -4l39 -3l3 -1l7 1v-3l2 -2 l7 -2l21 -1l4 -2l8 1l2 -1l35 -1l6 3l3 1l32 1l50 9v1h-3l-2 4l-3 -1l-1 1l-5 4v4l2 1l3 2l2 1v4l1 8h4l15 -10l1 -2l5 -3l2 -4l-2 -2l-1 -3l36 7zM322 786l11 -14l1 -26l-7 -17l-9 -9l-19 -3l-7 2h-5l-1 -2l-23 2l-3 15l2 36l4 15l11 2l4 4l23 -2h10l3 -2zM195 784l4 -14 l1 -23l-5 -21l-18 -7l-38 -1l-11 4l-1 28l2 6l-2 21l5 10l15 3l23 1l12 -3l9 -1z" />
<glyph unicode="&#xd1;" horiz-adv-x="482" d="M30 1l-3 10l27 182l3 3h-2v4l5 20v13l5 23l2 3l1 3l1 10l2 44l3 15l1 26l2 6v3l2 7l-2 10l4 65l-15 59v3l-3 6l-8 46v9l-7 39l2 11l4 4l2 13l2 4l3 3l6 3l1 2l9 10l6 -1l7 -17l2 -7l1 -7l1 -1l4 -8l4 -14l3 -13l-5 -4l-2 -2l-1 -3v-1l2 -19l15 -64l3 -8v-8l2 -8v-4l5 -20 l2 -1l4 -1v22l8 19l7 6l18 9l4 -4l1 -24l-3 -15l2 -30l-2 -6l-1 -2l-4 -31l3 -10l26 -58l3 -5l3 -4l4 -3l3 -13v-5l1 -3l6 -4l4 -9l21 -25l15 -23l4 -5l6 -3l51 -52l5 -9l6 -3l3 -4l3 -1l1 -2l3 -4l2 -8l2 -1l4 -3l4 -1l8 -8l3 -1l2 -3l1 -2l4 -1l7 -9l1 -4l2 -2h5l2 -6 l8 -4l2 -4l7 -6l5 -3l4 -6l1 1l2 -2l3 8l-5 33l-2 37l-1 6l1 4l-3 61l1 64l1 2v19l1 6l1 7v8l3 43l-1 105l4 78l-1 3l1 13l2 18l1 7l1 44l8 33h2l3 1l5 -1h24l21 -5l11 -5l10 -13l2 -10v-18l-4 -4l-3 -8l-3 -5l-14 -31l-1 -14l-1 -1l-3 -7l-3 -8v-9l-3 -4l-1 -10l-3 -1v-2 l-3 -3l-1 -3l-1 -4v-1l2 -10l-4 -9l2 -11l-2 -3h-2l-1 -18l-3 -13l-2 -2l-2 -1v-18l-3 -9l-1 -32l-4 -22l-1 -3v-31l-3 -12l-1 -27l2 -6l-3 -13l1 -10l-2 -60l3 -11l-1 -18l2 -7l1 -2l-1 -2l-2 -1l2 -2v-6l6 -50l11 -54l-2 -3l1 -3l-27 -28l-2 -4l-4 -4h-5l-3 2l-4 6l-7 6 l-2 3l-7 6l-2 3l-4 4l-2 1l-3 2l-27 24l-5 6l-5 5l-4 3l-16 16v1l-3 3l-13 12l-3 4l-2 1l-7 7l-46 49l-35 45l-6 5l-1 2l-36 46l-6 11l-4 6l-4 7l-1 1l-8 15l-2 3l-1 1h-3l-4 -4l-1 -2l-14 -61l-1 -1l-4 -13l-6 -21l-9 -23l-4 -30h-2l-14 -45v-5l-2 -4l-6 -22l-3 -21l-1 -9 v-2l1 -18l-10 -11v-1l-3 -2l-4 -3l-6 -8l-5 -4l-5 -2l-3 1l-2 1zM92 328l-1 -37l4 -12l2 -1l5 -1l6 3l3 26l10 27l1 12l-3 14l-14 27l-1 6l-2 9l-2 2h-3l-6 -19v-6h2l-1 -33l-3 -9l1 -1zM442 793l4 -2l-1 -6l-32 -34l-32 -20l-20 -8l-17 -3l-31 10l-1 1l-4 3l-40 21l-32 2 l-24 -4l-57 -17l-15 -8l-8 -3l-4 2l-2 3l17 15l17 13l2 3l5 5l14 4l3 5l6 3l17 10l12 3v2l2 1l8 3l36 8l27 -1l1 -2l7 -1l18 -9l6 -1l3 -1v-2l4 -1l12 -9l24 -8l14 2l9 -1l33 10z" />
<glyph unicode="&#xd2;" horiz-adv-x="589" d="M573 484l8 -44l2 -31l-1 -11v-26l-3 -36h-2l2 -1v-1l-3 -6l-19 -70l-4 -4l-1 -2l-1 -7l-5 -12l-4 -8l-5 -6l-2 -12l-9 -19l-4 -4l-4 -8l-33 -54l-2 -1l-6 -2l-3 -2l-2 1l-3 -6h2l-7 -11l-2 -1l-1 2l-4 -4l3 -1l-30 -30l-12 -5l-4 -5l-6 -5l-29 -22l-16 -6l-15 -9l-13 -2 l-12 -5l-7 1l-4 -4l-13 -1l-34 -12l-23 -1l-6 1l-3 -4l-2 2l-12 -2l-37 6l-4 4l-11 4l-1 2l-3 1l-3 -1h-3l-2 1l-5 -1l-3 3l-15 11l-30 27v2l-3 3l-3 1l-6 8l-3 6l-3 4l-5 6l-2 1l-2 5l-2 9l-6 3l-3 5l-5 11l-2 2v5l-3 1l-1 3l-7 13l-2 10v3l-3 28h-4v2l-4 16l1 4v1l-1 3h-1 v16l2 3l-2 3v5l-2 27l2 13v4l5 30l-3 10l2 4l1 18l4 8l2 6l8 34l15 38l7 11l2 1l2 7v4l8 18l8 9v3l4 5l1 3l-1 3l-8 8l-9 6h-9l-16 7l-2 4v5l-2 22l7 21l-1 6l29 32l19 10l1 3l5 4l1 2l38 18l20 6l3 3l33 6h4l2 -1l3 1l4 3l21 -1l12 6l25 -6h22l16 -4l10 1l16 -6l23 -3h41 l5 -4v-2h12l26 -13l7 -6l5 -2l3 -4l39 -23l3 -5l1 -1l4 -2l10 -12l1 -4l1 -3l10 -3l5 -5l7 -9l2 -13l4 -5l2 -10l3 -1l4 -3l3 -1l2 -2zM537 323l4 38l-4 36l2 8h-2l-5 15v5l-2 3l-1 16l-6 15l-3 8l-2 10l-2 3v7l-8 7l-4 16l-6 2l-12 19l-7 6v3l-22 15l-6 5l-3 2l-36 19l-6 1 l-4 2l-11 1l-9 2l-4 3l-6 2l-5 3l-14 3l-2 -3l-6 1l-5 -1l-21 7l-4 2l-11 2h-6l-2 -2l1 -13h-5l-6 4l-14 2l-12 -1l-6 -2l-3 1l-6 -3l-6 -1l-4 -2l-23 -16l-6 -5l-3 -3l-2 -1l-2 1l-5 -2l-4 -2l-4 -3l-3 -6l-15 -10l-3 -3l-5 -6l-24 -32l-6 -12l1 -10l-7 -3l-17 -34l-1 -3 l-2 -7l-5 -10l-2 -14l-6 -19l-11 -48l-1 -48l-2 -12l1 -16l1 -5l1 -8l1 -24l4 -9l1 -5v-5l5 -14v-11l5 -6l2 -8l2 -4l1 -4l21 -39l7 -10l5 -3l16 -19l6 -3l9 -9l1 -2l33 -22l4 -2v-2l3 -1l2 -1l1 -1l11 -3l5 -2l9 -4l2 -1l7 -1l38 -5l32 3l30 7l31 14l8 2l3 2l11 6l31 25 l17 21l3 2l4 4l-1 4l2 1l1 1l16 20l-1 2l3 3l5 1l8 9l5 17l9 19l7 6l5 11l-2 8l9 5l15 51l2 22l2 8l4 6l-1 1zM193 590l-3 14l-14 4l-2 1l-10 -5l-13 -2l-8 2h-7l-12 -5l-15 -8l-15 -13l-4 -28l2 -18l7 -14l3 -9l3 -3v-2l6 -3l4 1l4 4l4 6l1 4l3 3l6 10h2v2l1 1l21 23l16 14 l3 4l8 7l2 1zM173 794l-9 25l1 2l5 1l13 3l2 1l1 1l-1 2l18 18l3 1l2 2l9 -1l2 -1l5 -3l1 -1l3 -7l5 -5l3 -5l3 -2l5 -6l8 -17l33 -48h1l7 -9l7 -13v-2l5 -3l3 -5l12 -17l2 -4l3 -9l-3 -2h-2l-2 1l-5 4l-3 -2l-10 4l-2 1l-4 3l-5 6l-6 4l-1 1h-1l-2 4l-4 2l-14 8l-3 3l-2 1 l-2 2h-1l-9 6l-5 3l-16 12l-13 4l-13 14v2l-8 7l-4 3l-6 5z" />
<glyph unicode="&#xd3;" horiz-adv-x="589" d="M573 484l8 -44l2 -31l-1 -11v-26l-3 -36h-2l2 -1v-1l-3 -6l-19 -70l-4 -4l-1 -2l-1 -7l-5 -12l-4 -8l-5 -6l-2 -12l-9 -19l-4 -4l-4 -8l-33 -54l-2 -1l-6 -2l-3 -2l-2 1l-3 -6h2l-7 -11l-2 -1l-1 2l-4 -4l3 -1l-30 -30l-12 -5l-4 -5l-6 -5l-29 -22l-16 -6l-15 -9l-13 -2 l-12 -5l-7 1l-4 -4l-13 -1l-34 -12l-23 -1l-6 1l-3 -4l-2 2l-12 -2l-37 6l-4 4l-11 4l-1 2l-3 1l-3 -1h-3l-2 1l-5 -1l-3 3l-15 11l-30 27v2l-3 3l-3 1l-6 8l-3 6l-3 4l-5 6l-2 1l-2 5l-2 9l-6 3l-3 5l-5 11l-2 2v5l-3 1l-1 3l-7 13l-2 10v3l-3 28h-4v2l-4 16l1 4v1l-1 3h-1 v16l2 3l-2 3v5l-2 27l2 13v4l5 30l-3 10l2 4l1 18l4 8l2 6l8 34l15 38l7 11l2 1l2 7v4l8 18l8 9v3l4 5l1 3l-1 3l-8 8l-9 6h-9l-16 7l-2 4v5l-2 22l7 21l-1 6l29 32l19 10l1 3l5 4l1 2l38 18l20 6l3 3l33 6h4l2 -1l3 1l4 3l21 -1l12 6l25 -6h22l16 -4l10 1l16 -6l23 -3h41 l5 -4v-2h12l26 -13l7 -6l5 -2l3 -4l39 -23l3 -5l1 -1l4 -2l10 -12l1 -4l1 -3l10 -3l5 -5l7 -9l2 -13l4 -5l2 -10l3 -1l4 -3l3 -1l2 -2zM537 323l4 38l-4 36l2 8h-2l-5 15v5l-2 3l-1 16l-6 15l-3 8l-2 10l-2 3v7l-8 7l-4 16l-6 2l-12 19l-7 6v3l-22 15l-6 5l-3 2l-36 19l-6 1 l-4 2l-11 1l-9 2l-4 3l-6 2l-5 3l-14 3l-2 -3l-6 1l-5 -1l-21 7l-4 2l-11 2h-6l-2 -2l1 -13h-5l-6 4l-14 2l-12 -1l-6 -2l-3 1l-6 -3l-6 -1l-4 -2l-23 -16l-6 -5l-3 -3l-2 -1l-2 1l-5 -2l-4 -2l-4 -3l-3 -6l-15 -10l-3 -3l-5 -6l-24 -32l-6 -12l1 -10l-7 -3l-17 -34l-1 -3 l-2 -7l-5 -10l-2 -14l-6 -19l-11 -48l-1 -48l-2 -12l1 -16l1 -5l1 -8l1 -24l4 -9l1 -5v-5l5 -14v-11l5 -6l2 -8l2 -4l1 -4l21 -39l7 -10l5 -3l16 -19l6 -3l9 -9l1 -2l33 -22l4 -2v-2l3 -1l2 -1l1 -1l11 -3l5 -2l9 -4l2 -1l7 -1l38 -5l32 3l30 7l31 14l8 2l3 2l11 6l31 25 l17 21l3 2l4 4l-1 4l2 1l1 1l16 20l-1 2l3 3l5 1l8 9l5 17l9 19l7 6l5 11l-2 8l9 5l15 51l2 22l2 8l4 6l-1 1zM193 590l-3 14l-14 4l-2 1l-10 -5l-13 -2l-8 2h-7l-12 -5l-15 -8l-15 -13l-4 -28l2 -18l7 -14l3 -9l3 -3v-2l6 -3l4 1l4 4l4 6l1 4l3 3l6 10h2v2l1 1l21 23l16 14 l3 4l8 7l2 1zM455 821l2 -2l-8 -25l-6 -6l-6 -5l-4 -3l-8 -7l-1 -2l-12 -14l-13 -4l-17 -12l-6 -3l-3 -2l-5 -4h-1l-6 -6l-19 -10l-2 -4l-1 -1l-7 -4l-5 -6l-4 -3l-1 -1l-10 -4l-3 2l-5 -4l-2 -1h-2l-4 2l3 9l2 2l1 2l12 17l3 5l4 3l1 2l7 13l7 9h1l2 2l4 6l1 2l2 3l22 35 l9 17l5 6l12 12l3 7l1 1l5 3l2 1l9 1l2 -2l3 -1l17 -18v-2l1 -1l2 -1l13 -3z" />
<glyph unicode="&#xd4;" horiz-adv-x="589" d="M573 484l8 -44l2 -31l-1 -11v-26l-3 -36h-2l2 -1v-1l-3 -6l-19 -70l-4 -4l-1 -2l-1 -7l-5 -12l-4 -8l-5 -6l-2 -12l-9 -19l-4 -4l-4 -8l-33 -54l-2 -1l-6 -2l-3 -2l-2 1l-3 -6h2l-7 -11l-2 -1l-1 2l-4 -4l3 -1l-30 -30l-12 -5l-4 -5l-6 -5l-29 -22l-16 -6l-15 -9l-13 -2 l-12 -5l-7 1l-4 -4l-13 -1l-34 -12l-23 -1l-6 1l-3 -4l-2 2l-12 -2l-37 6l-4 4l-11 4l-1 2l-3 1l-3 -1h-3l-2 1l-5 -1l-3 3l-15 11l-30 27v2l-3 3l-3 1l-6 8l-3 6l-3 4l-5 6l-2 1l-2 5l-2 9l-6 3l-3 5l-5 11l-2 2v5l-3 1l-1 3l-7 13l-2 10v3l-3 28h-4v2l-4 16l1 4v1l-1 3h-1 v16l2 3l-2 3v5l-2 27l2 13v4l5 30l-3 10l2 4l1 18l4 8l2 6l8 34l15 38l7 11l2 1l2 7v4l8 18l8 9v3l4 5l1 3l-1 3l-8 8l-9 6h-9l-16 7l-2 4v5l-2 22l7 21l-1 6l29 32l19 10l1 3l5 4l1 2l38 18l20 6l3 3l33 6h4l2 -1l3 1l4 3l21 -1l12 6l25 -6h22l16 -4l10 1l16 -6l23 -3h41 l5 -4v-2h12l26 -13l7 -6l5 -2l3 -4l39 -23l3 -5l1 -1l4 -2l10 -12l1 -4l1 -3l10 -3l5 -5l7 -9l2 -13l4 -5l2 -10l3 -1l4 -3l3 -1l2 -2zM537 323l4 38l-4 36l2 8h-2l-5 15v5l-2 3l-1 16l-6 15l-3 8l-2 10l-2 3v7l-8 7l-4 16l-6 2l-12 19l-7 6v3l-22 15l-6 5l-3 2l-36 19l-6 1 l-4 2l-11 1l-9 2l-4 3l-6 2l-5 3l-14 3l-2 -3l-6 1l-5 -1l-21 7l-4 2l-11 2h-6l-2 -2l1 -13h-5l-6 4l-14 2l-12 -1l-6 -2l-3 1l-6 -3l-6 -1l-4 -2l-23 -16l-6 -5l-3 -3l-2 -1l-2 1l-5 -2l-4 -2l-4 -3l-3 -6l-15 -10l-3 -3l-5 -6l-24 -32l-6 -12l1 -10l-7 -3l-17 -34l-1 -3 l-2 -7l-5 -10l-2 -14l-6 -19l-11 -48l-1 -48l-2 -12l1 -16l1 -5l1 -8l1 -24l4 -9l1 -5v-5l5 -14v-11l5 -6l2 -8l2 -4l1 -4l21 -39l7 -10l5 -3l16 -19l6 -3l9 -9l1 -2l33 -22l4 -2v-2l3 -1l2 -1l1 -1l11 -3l5 -2l9 -4l2 -1l7 -1l38 -5l32 3l30 7l31 14l8 2l3 2l11 6l31 25 l17 21l3 2l4 4l-1 4l2 1l1 1l16 20l-1 2l3 3l5 1l8 9l5 17l9 19l7 6l5 11l-2 8l9 5l15 51l2 22l2 8l4 6l-1 1zM193 590l-3 14l-14 4l-2 1l-10 -5l-13 -2l-8 2h-7l-12 -5l-15 -8l-15 -13l-4 -28l2 -18l7 -14l3 -9l3 -3v-2l6 -3l4 1l4 4l4 6l1 4l3 3l6 10h2v2l1 1l21 23l16 14 l3 4l8 7l2 1zM468 698l2 -4l-1 -3l-4 -3h-7l-24 -5l-12 3l-18 8l-6 7h-8l-7 7l-14 4l-9 9l-7 4l-7 8l-5 4l-2 1l-1 2l-13 12l-2 4l-4 2l-3 4l-2 3l-3 9l-15 14h-3l-1 -1l-1 -4l-1 -1l-5 -6l-6 -8l-4 -4l-3 -5l-3 -2l-4 -4l-2 -5l-6 -4l-4 -3l-14 -17l-3 -3l-2 -1l-9 -12 l-2 -2l-2 -4l-11 -5l-3 -4l-7 -2h-3l-6 -3l-13 -2l-7 -4l-18 2l11 8l4 7l4 1l2 3l16 11l15 14l70 83l10 4v9l-3 4l7 6l8 3l4 3l5 1l3 6l10 2l4 1h1l3 -4l8 -16l2 -3l39 -56l21 -23l19 -15l2 -1l30 -23l17 -8z" />
<glyph unicode="&#xd5;" horiz-adv-x="589" d="M573 484l8 -44l2 -31l-1 -11v-26l-3 -36h-2l2 -1v-1l-3 -6l-19 -70l-4 -4l-1 -2l-1 -7l-5 -12l-4 -8l-5 -6l-2 -12l-9 -19l-4 -4l-4 -8l-33 -54l-2 -1l-6 -2l-3 -2l-2 1l-3 -6h2l-7 -11l-2 -1l-1 2l-4 -4l3 -1l-30 -30l-12 -5l-4 -5l-6 -5l-29 -22l-16 -6l-15 -9l-13 -2 l-12 -5l-7 1l-4 -4l-13 -1l-34 -12l-23 -1l-6 1l-3 -4l-2 2l-12 -2l-37 6l-4 4l-11 4l-1 2l-3 1l-3 -1h-3l-2 1l-5 -1l-3 3l-15 11l-30 27v2l-3 3l-3 1l-6 8l-3 6l-3 4l-5 6l-2 1l-2 5l-2 9l-6 3l-3 5l-5 11l-2 2v5l-3 1l-1 3l-7 13l-2 10v3l-3 28h-4v2l-4 16l1 4v1l-1 3h-1 v16l2 3l-2 3v5l-2 27l2 13v4l5 30l-3 10l2 4l1 18l4 8l2 6l8 34l15 38l7 11l2 1l2 7v4l8 18l8 9v3l4 5l1 3l-1 3l-8 8l-9 6h-9l-16 7l-2 4v5l-2 22l7 21l-1 6l29 32l19 10l1 3l5 4l1 2l38 18l20 6l3 3l33 6h4l2 -1l3 1l4 3l21 -1l12 6l25 -6h22l16 -4l10 1l16 -6l23 -3h41 l5 -4v-2h12l26 -13l7 -6l5 -2l3 -4l39 -23l3 -5l1 -1l4 -2l10 -12l1 -4l1 -3l10 -3l5 -5l7 -9l2 -13l4 -5l2 -10l3 -1l4 -3l3 -1l2 -2zM537 323l4 38l-4 36l2 8h-2l-5 15v5l-2 3l-1 16l-6 15l-3 8l-2 10l-2 3v7l-8 7l-4 16l-6 2l-12 19l-7 6v3l-22 15l-6 5l-3 2l-36 19l-6 1 l-4 2l-11 1l-9 2l-4 3l-6 2l-5 3l-14 3l-2 -3l-6 1l-5 -1l-21 7l-4 2l-11 2h-6l-2 -2l1 -13h-5l-6 4l-14 2l-12 -1l-6 -2l-3 1l-6 -3l-6 -1l-4 -2l-23 -16l-6 -5l-3 -3l-2 -1l-2 1l-5 -2l-4 -2l-4 -3l-3 -6l-15 -10l-3 -3l-5 -6l-24 -32l-6 -12l1 -10l-7 -3l-17 -34l-1 -3 l-2 -7l-5 -10l-2 -14l-6 -19l-11 -48l-1 -48l-2 -12l1 -16l1 -5l1 -8l1 -24l4 -9l1 -5v-5l5 -14v-11l5 -6l2 -8l2 -4l1 -4l21 -39l7 -10l5 -3l16 -19l6 -3l9 -9l1 -2l33 -22l4 -2v-2l3 -1l2 -1l1 -1l11 -3l5 -2l9 -4l2 -1l7 -1l38 -5l32 3l30 7l31 14l8 2l3 2l11 6l31 25 l17 21l3 2l4 4l-1 4l2 1l1 1l16 20l-1 2l3 3l5 1l8 9l5 17l9 19l7 6l5 11l-2 8l9 5l15 51l2 22l2 8l4 6l-1 1zM193 590l-3 14l-14 4l-2 1l-10 -5l-13 -2l-8 2h-7l-12 -5l-15 -8l-15 -13l-4 -28l2 -18l7 -14l3 -9l3 -3v-2l6 -3l4 1l4 4l4 6l1 4l3 3l6 10h2v2l1 1l21 23l16 14 l3 4l8 7l2 1zM474 793l4 -2l-1 -6l-32 -34l-32 -20l-20 -8l-17 -3l-31 10l-1 1l-4 3l-40 21l-32 2l-24 -4l-57 -17l-15 -8l-8 -3l-4 2l-2 3l17 15l17 13l2 3l5 5l14 4l3 5l6 3l17 10l12 3v2l2 1l8 3l36 8l27 -1l1 -2l7 -1l18 -9l6 -1l3 -1v-2l4 -1l12 -9l24 -8l14 2l9 -1 l33 10z" />
<glyph unicode="&#xd6;" horiz-adv-x="589" d="M573 484l8 -44l2 -31l-1 -11v-26l-3 -36h-2l2 -1v-1l-3 -6l-19 -70l-4 -4l-1 -2l-1 -7l-5 -12l-4 -8l-5 -6l-2 -12l-9 -19l-4 -4l-4 -8l-33 -54l-2 -1l-6 -2l-3 -2l-2 1l-3 -6h2l-7 -11l-2 -1l-1 2l-4 -4l3 -1l-30 -30l-12 -5l-4 -5l-6 -5l-29 -22l-16 -6l-15 -9l-13 -2 l-12 -5l-7 1l-4 -4l-13 -1l-34 -12l-23 -1l-6 1l-3 -4l-2 2l-12 -2l-37 6l-4 4l-11 4l-1 2l-3 1l-3 -1h-3l-2 1l-5 -1l-3 3l-15 11l-30 27v2l-3 3l-3 1l-6 8l-3 6l-3 4l-5 6l-2 1l-2 5l-2 9l-6 3l-3 5l-5 11l-2 2v5l-3 1l-1 3l-7 13l-2 10v3l-3 28h-4v2l-4 16l1 4v1l-1 3h-1 v16l2 3l-2 3v5l-2 27l2 13v4l5 30l-3 10l2 4l1 18l4 8l2 6l8 34l15 38l7 11l2 1l2 7v4l8 18l8 9v3l4 5l1 3l-1 3l-8 8l-9 6h-9l-16 7l-2 4v5l-2 22l7 21l-1 6l29 32l19 10l1 3l5 4l1 2l38 18l20 6l3 3l33 6h4l2 -1l3 1l4 3l21 -1l12 6l25 -6h22l16 -4l10 1l16 -6l23 -3h41 l5 -4v-2h12l26 -13l7 -6l5 -2l3 -4l39 -23l3 -5l1 -1l4 -2l10 -12l1 -4l1 -3l10 -3l5 -5l7 -9l2 -13l4 -5l2 -10l3 -1l4 -3l3 -1l2 -2zM537 323l4 38l-4 36l2 8h-2l-5 15v5l-2 3l-1 16l-6 15l-3 8l-2 10l-2 3v7l-8 7l-4 16l-6 2l-12 19l-7 6v3l-22 15l-6 5l-3 2l-36 19l-6 1 l-4 2l-11 1l-9 2l-4 3l-6 2l-5 3l-14 3l-2 -3l-6 1l-5 -1l-21 7l-4 2l-11 2h-6l-2 -2l1 -13h-5l-6 4l-14 2l-12 -1l-6 -2l-3 1l-6 -3l-6 -1l-4 -2l-23 -16l-6 -5l-3 -3l-2 -1l-2 1l-5 -2l-4 -2l-4 -3l-3 -6l-15 -10l-3 -3l-5 -6l-24 -32l-6 -12l1 -10l-7 -3l-17 -34l-1 -3 l-2 -7l-5 -10l-2 -14l-6 -19l-11 -48l-1 -48l-2 -12l1 -16l1 -5l1 -8l1 -24l4 -9l1 -5v-5l5 -14v-11l5 -6l2 -8l2 -4l1 -4l21 -39l7 -10l5 -3l16 -19l6 -3l9 -9l1 -2l33 -22l4 -2v-2l3 -1l2 -1l1 -1l11 -3l5 -2l9 -4l2 -1l7 -1l38 -5l32 3l30 7l31 14l8 2l3 2l11 6l31 25 l17 21l3 2l4 4l-1 4l2 1l1 1l16 20l-1 2l3 3l5 1l8 9l5 17l9 19l7 6l5 11l-2 8l9 5l15 51l2 22l2 8l4 6l-1 1zM193 590l-3 14l-14 4l-2 1l-10 -5l-13 -2l-8 2h-7l-12 -5l-15 -8l-15 -13l-4 -28l2 -18l7 -14l3 -9l3 -3v-2l6 -3l4 1l4 4l4 6l1 4l3 3l6 10h2v2l1 1l21 23l16 14 l3 4l8 7l2 1zM415 786l11 -14l1 -26l-7 -17l-9 -9l-19 -3l-7 2h-5l-1 -2l-23 2l-3 15l2 36l4 15l11 2l4 4l23 -2h10l3 -2zM288 784l4 -14l1 -23l-5 -21l-18 -7l-38 -1l-11 4l-1 28l2 6l-2 21l5 10l15 3l23 1l12 -3l9 -1z" />
<glyph unicode="&#xd9;" horiz-adv-x="605" d="M215 618l100 32l21 1l29 -4l15 -10l10 -10l9 -17l7 -24l3 -28l-3 -41l-5 -18l-1 -12l-9 -20l-4 -23l-14 -40l-37 -88l-3 -1l-7 -18l-16 -30l-40 -77l-14 -19l-22 -45l-6 -8l-2 -12l-8 -12l-5 -12l-3 -21l18 -14l34 -7l33 1l53 6l134 44l-3 17l-7 97l4 57l9 50l23 99 l28 86l6 14h8l6 13l21 10l7 9l31 15l7 -8l-10 -19l-1 -12l-7 -24l-10 -17l-37 -107l-12 -43l-1 -18l-8 -29v-16l-3 -19l-2 -41l5 -70l17 -80l9 -24v-6l9 -28l-1 -28l-7 -6l-10 6l-20 52l-26 15v3l-21 18l-4 9l-9 1l-64 -27l-2 2l-3 -4l-22 -8l-14 -8l-20 -2l-63 -22l-70 -6 l-14 3l-18 -1l-20 7l-11 16l3 23l8 21l57 95l47 93l5 16l14 26l40 130l12 74l-1 39l-3 23l-13 27l-21 12l-27 1l-21 -3l-28 -10l-41 -20l-17 -12l-34 -36l-17 -23l-11 -24l-2 -11l-10 -11l7 -17l-1 -11l-9 -3l-5 4l-8 -3l-10 11l-21 12l-22 18l-3 20l4 10l16 17l13 9l26 24 l15 7l5 8l87 50l17 5zM341 794l-9 25l1 2l5 1l13 3l2 1l1 1l-1 2l18 18l3 1l2 2l9 -1l2 -1l5 -3l1 -1l3 -7l5 -5l3 -5l3 -2l5 -6l8 -17l33 -48h1l7 -9l7 -13v-2l5 -3l3 -5l12 -17l2 -4l3 -9l-3 -2h-2l-2 1l-5 4l-3 -2l-10 4l-2 1l-4 3l-5 6l-6 4l-1 1h-1l-2 4l-4 2l-14 8 l-3 3l-2 1l-2 2h-1l-9 6l-5 3l-16 12l-13 4l-13 14v2l-8 7l-4 3l-6 5z" />
<glyph unicode="&#xda;" horiz-adv-x="605" d="M215 618l100 32l21 1l29 -4l15 -10l10 -10l9 -17l7 -24l3 -28l-3 -41l-5 -18l-1 -12l-9 -20l-4 -23l-14 -40l-37 -88l-3 -1l-7 -18l-16 -30l-40 -77l-14 -19l-22 -45l-6 -8l-2 -12l-8 -12l-5 -12l-3 -21l18 -14l34 -7l33 1l53 6l134 44l-3 17l-7 97l4 57l9 50l23 99 l28 86l6 14h8l6 13l21 10l7 9l31 15l7 -8l-10 -19l-1 -12l-7 -24l-10 -17l-37 -107l-12 -43l-1 -18l-8 -29v-16l-3 -19l-2 -41l5 -70l17 -80l9 -24v-6l9 -28l-1 -28l-7 -6l-10 6l-20 52l-26 15v3l-21 18l-4 9l-9 1l-64 -27l-2 2l-3 -4l-22 -8l-14 -8l-20 -2l-63 -22l-70 -6 l-14 3l-18 -1l-20 7l-11 16l3 23l8 21l57 95l47 93l5 16l14 26l40 130l12 74l-1 39l-3 23l-13 27l-21 12l-27 1l-21 -3l-28 -10l-41 -20l-17 -12l-34 -36l-17 -23l-11 -24l-2 -11l-10 -11l7 -17l-1 -11l-9 -3l-5 4l-8 -3l-10 11l-21 12l-22 18l-3 20l4 10l16 17l13 9l26 24 l15 7l5 8l87 50l17 5zM615 821l2 -2l-8 -25l-6 -6l-6 -5l-4 -3l-8 -7l-1 -2l-12 -14l-13 -4l-17 -12l-6 -3l-3 -2l-5 -4h-1l-6 -6l-19 -10l-2 -4l-1 -1l-7 -4l-5 -6l-4 -3l-1 -1l-10 -4l-3 2l-5 -4l-2 -1h-2l-4 2l3 9l2 2l1 2l12 17l3 5l4 3l1 2l7 13l7 9h1l2 2l4 6l1 2l2 3 l22 35l9 17l5 6l12 12l3 7l1 1l5 3l2 1l9 1l2 -2l3 -1l17 -18v-2l1 -1l2 -1l13 -3z" />
<glyph unicode="&#xdb;" horiz-adv-x="605" d="M215 618l100 32l21 1l29 -4l15 -10l10 -10l9 -17l7 -24l3 -28l-3 -41l-5 -18l-1 -12l-9 -20l-4 -23l-14 -40l-37 -88l-3 -1l-7 -18l-16 -30l-40 -77l-14 -19l-22 -45l-6 -8l-2 -12l-8 -12l-5 -12l-3 -21l18 -14l34 -7l33 1l53 6l134 44l-3 17l-7 97l4 57l9 50l23 99 l28 86l6 14h8l6 13l21 10l7 9l31 15l7 -8l-10 -19l-1 -12l-7 -24l-10 -17l-37 -107l-12 -43l-1 -18l-8 -29v-16l-3 -19l-2 -41l5 -70l17 -80l9 -24v-6l9 -28l-1 -28l-7 -6l-10 6l-20 52l-26 15v3l-21 18l-4 9l-9 1l-64 -27l-2 2l-3 -4l-22 -8l-14 -8l-20 -2l-63 -22l-70 -6 l-14 3l-18 -1l-20 7l-11 16l3 23l8 21l57 95l47 93l5 16l14 26l40 130l12 74l-1 39l-3 23l-13 27l-21 12l-27 1l-21 -3l-28 -10l-41 -20l-17 -12l-34 -36l-17 -23l-11 -24l-2 -11l-10 -11l7 -17l-1 -11l-9 -3l-5 4l-8 -3l-10 11l-21 12l-22 18l-3 20l4 10l16 17l13 9l26 24 l15 7l5 8l87 50l17 5zM620 698l2 -4l-1 -3l-4 -3h-7l-24 -5l-12 3l-18 8l-6 7h-8l-7 7l-14 4l-9 9l-7 4l-7 8l-5 4l-2 1l-1 2l-13 12l-2 4l-4 2l-3 4l-2 3l-3 9l-15 14h-3l-1 -1l-1 -4l-1 -1l-5 -6l-6 -8l-4 -4l-3 -5l-3 -2l-4 -4l-2 -5l-6 -4l-4 -3l-14 -17l-3 -3l-2 -1 l-9 -12l-2 -2l-2 -4l-11 -5l-3 -4l-7 -2h-3l-6 -3l-13 -2l-7 -4l-18 2l11 8l4 7l4 1l2 3l16 11l15 14l70 83l10 4v9l-3 4l7 6l8 3l4 3l5 1l3 6l10 2l4 1h1l3 -4l8 -16l2 -3l39 -56l21 -23l19 -15l2 -1l30 -23l17 -8z" />
<glyph unicode="&#xdc;" horiz-adv-x="605" d="M215 618l100 32l21 1l29 -4l15 -10l10 -10l9 -17l7 -24l3 -28l-3 -41l-5 -18l-1 -12l-9 -20l-4 -23l-14 -40l-37 -88l-3 -1l-7 -18l-16 -30l-40 -77l-14 -19l-22 -45l-6 -8l-2 -12l-8 -12l-5 -12l-3 -21l18 -14l34 -7l33 1l53 6l134 44l-3 17l-7 97l4 57l9 50l23 99 l28 86l6 14h8l6 13l21 10l7 9l31 15l7 -8l-10 -19l-1 -12l-7 -24l-10 -17l-37 -107l-12 -43l-1 -18l-8 -29v-16l-3 -19l-2 -41l5 -70l17 -80l9 -24v-6l9 -28l-1 -28l-7 -6l-10 6l-20 52l-26 15v3l-21 18l-4 9l-9 1l-64 -27l-2 2l-3 -4l-22 -8l-14 -8l-20 -2l-63 -22l-70 -6 l-14 3l-18 -1l-20 7l-11 16l3 23l8 21l57 95l47 93l5 16l14 26l40 130l12 74l-1 39l-3 23l-13 27l-21 12l-27 1l-21 -3l-28 -10l-41 -20l-17 -12l-34 -36l-17 -23l-11 -24l-2 -11l-10 -11l7 -17l-1 -11l-9 -3l-5 4l-8 -3l-10 11l-21 12l-22 18l-3 20l4 10l16 17l13 9l26 24 l15 7l5 8l87 50l17 5zM586 786l11 -14l1 -26l-7 -17l-9 -9l-19 -3l-7 2h-5l-1 -2l-23 2l-3 15l2 36l4 15l11 2l4 4l23 -2h10l3 -2zM459 784l4 -14l1 -23l-5 -21l-18 -7l-38 -1l-11 4l-1 28l2 6l-2 21l5 10l15 3l23 1l12 -3l9 -1z" />
<glyph unicode="&#xdd;" horiz-adv-x="480" d="M577 864l2 -2l-8 -25l-6 -6l-6 -5l-4 -3l-8 -7l-1 -2l-12 -14l-13 -4l-17 -12l-6 -3l-3 -2l-5 -4h-1l-6 -6l-19 -10l-2 -4l-1 -1l-7 -4l-5 -6l-4 -3l-1 -1l-10 -4l-3 2l-5 -4l-2 -1h-2l-4 2l3 9l2 2l1 2l12 17l3 5l4 3l1 2l7 13l7 9h1l2 2l4 6l1 2l2 3l22 35l9 17l5 6 l12 12l3 7l1 1l5 3l2 1l9 1l2 -2l3 -1l17 -18v-2l1 -1l2 -1l13 -3zM424 147l2 -20l-8 -34l1 -10l-7 -22l1 -2l-1 -7l-10 -58l-8 -26l-3 -6l-5 -8l-6 -11l-21 -38l1 -3l-3 -2l-3 -5l-25 -35l-5 -4l-4 -6l-5 -11l-17 -14l-8 -11l-2 -1l-3 -5l-4 -8l-4 -3h-2l-9 -10l-37 -17 l-7 -6l-16 -2l-1 -2l-3 1l-17 -3l-5 -2l-9 3h-2l-3 -1h-2l-2 -1l-10 1l-12 4l-6 1l-4 2l-14 8l-4 3h-2l-4 1v2l-1 1v12l9 25l7 11l4 5l3 2h3l47 -15l2 -2h8l21 1l2 1l5 1l16 4l31 11l9 7h2l1 2l9 6l8 8v2l5 3l15 14l3 5l2 1v2l6 6l2 4l2 6l12 20h3l1 1l1 2l1 3h1l-1 2l2 4 l4 10v3l2 2l10 31l4 7l1 6l7 40l-1 3l1 8l2 23l6 26v29l1 3l-1 8l1 2l-4 63l-2 11l1 43l-5 3h-2l-5 -5l-10 -6l-15 -5l-4 -2v-2l-24 -13l-5 -2l-4 -3h-1l-5 -4l-4 -3l-2 -2h-2l-5 -3l-8 -8l-30 -22h-4l-9 -5l-2 -2l-9 -7l-23 -8l-18 -12l-14 -3l-11 2l-23 9l-11 11l2 3 l-5 10l3 9l-2 6v12l5 17l3 22l1 4l2 4l-1 3l5 15l7 48l5 10v3l-1 2l-1 4l3 4l3 40l5 9l-2 4l2 6l-1 10l1 26l3 2l-3 6l2 41l-2 11l3 15l-7 20l-7 13l-6 5l-6 -2l-11 -6l-15 -15l-3 -6l-32 -45l-12 -10l-11 -22l-13 -21l-1 -5l-2 -1l-1 -2h-2l-5 -2l-14 -3l15 36l3 6l14 26v4 l4 6l4 7l2 1v2l2 2l21 33l6 7l2 4l15 20l6 6l2 4l7 8l25 17l4 4l20 8l13 -1l16 -11v-2l2 -5l9 -30l1 -21l-1 -2l2 -7l-2 -48l-5 -37l-2 -1l-1 -3l-1 -23l-13 -62l-1 -13l-7 -16l-4 -28l-3 -4l-1 -2v-2l1 -2l-4 -10l-2 -19l-3 -5l1 -25l9 -12l10 -5l16 -4l20 1l21 9h6l2 3 l8 4l5 3l30 15l9 9l11 4l16 12l14 5l1 2l4 -1l2 2l2 3h4l29 18l2 10l2 2l-5 11l-1 37h1v3l-1 2l2 4l2 12l-1 2l1 9l2 68l4 18l-3 10l3 11l2 22l-2 5l4 14l2 51l-1 2v4l-1 10l-1 21l15 16l4 2l6 14l11 13l4 3l3 3l4 -2l2 -2l7 -17l6 -30l-10 -64l-3 -8l-5 -46l-1 -1v-3l1 -6 v-8l-5 -16v-20l-3 -31l1 -46l-2 -19v-22l-1 -5l-1 -4l1 -2l3 -2l6 -8l-7 -9l2 -15l-1 -22l-2 -2l3 -1l2 -52l-4 -22z" />
<glyph unicode="&#xdf;" horiz-adv-x="356" d="M347 326l3 -9v-8l-1 -5l-3 -6v-5h3l-2 -19l-1 -3l-1 -9l-13 -39h-3v-4l-3 -3l-1 -8l-2 -3l-5 -10l-2 -2l-1 -2l-1 -1l-13 -22h-4l-5 -6l-18 -20l1 -3l-3 -3l-15 -14l-5 -7h-4l-13 -16l-43 -40l-15 -9l-13 -15l-15 -11l-1 -5l-45 -38l-1 -12l1 -10l-2 -4l-1 -20l-3 -7 l4 -16l-2 -19l1 -58l-1 -3v-9l2 -28l-4 -22l2 -52l-2 -7l2 -10l-2 -66l1 -2l-3 -6l2 -11l-10 -3l-5 -9l-18 -1l-3 2l-1 3l1 5l-4 31l1 12l-3 6l1 4l-2 40l-2 8l1 2l1 3l1 11l-4 19l2 39l-5 17l3 16l3 10l-1 6l-3 1l-2 4l1 8l4 7v2l-1 2l1 19l-3 14l1 3l-2 4l1 12l-1 3l-3 3 l-2 1l-4 -1l-7 -6l-9 -6l-7 -2l-8 -6l-1 -4l-8 -1l-10 -14h-4l-2 -3l-14 -10l-9 -8l-7 -8h-2v1h-3l-6 1v5l-2 2l8 8l3 5l4 4l7 3l5 6l22 18l22 22l27 22l2 1l4 3l9 9l-2 15v9l3 7v3l1 2h-1l-1 4l-4 10l-2 15l4 17l-4 39l4 9v2l-2 4l-1 31h2v4l1 5l1 15v3l-1 5v2l-2 2l-1 18 v9l4 6l-1 11l-2 5l-2 3l-1 39l1 4v5l2 23l-3 17l-1 43l3 14l-3 1l4 14l-5 40l5 2h-6l3 33l2 -1v1h-1l-1 3h-2v26l-2 4v21l-2 10v24l-5 6l-5 8l-6 1l-1 2l-21 8l-8 12l1 20l14 15l7 5l1 2l2 3l8 5l6 4h4l4 2l15 10h1l2 1l7 -2l5 -3l4 -21l-1 -11l2 -2h4l2 -4l3 -3l5 -3l10 -1 l65 15l46 5l21 -11l5 -8l2 -3l1 -5v-6l-1 -22l-2 -6v-2l-1 -4l-9 -23l-2 -3l-2 -4l-4 -6l-2 -6l-1 -1l-7 -14l-4 -3l-6 -11l-3 -9l-2 -3v-1l-2 -3v-5l-3 -4l2 -11l1 -1l-1 -2l5 -10l9 -5l45 -19h5l5 -2l3 -2l9 -2l26 -12l23 -18l7 -8l2 -3v-7l6 -3l2 -4l3 -9h1l2 -4z M310 251l1 22l-6 30h-2v4l-2 3l-4 10l-3 3l-2 3l-4 5l-3 4l-2 -1v2l-5 5l-7 10h-1l-4 6l-9 1l-7 7l-7 1h-2l-5 3l-29 11h-2l-8 3l-6 2l-26 9l-22 15l-4 9l-1 8v2l2 17l8 15l22 58l4 6h1l4 24l-2 14l-2 8l-13 5l-47 -8l-16 -8l-7 -18l-1 -13l1 -2l1 -5l-3 -9l5 -11l2 -34 l-1 -30l1 -1l1 -8l1 -3v-4h2l-2 -26l1 -14l1 -4l3 -2l2 -2h6l6 3l2 -1l4 -4l5 -32v-27l-3 -17l-1 -8l3 -12v-2l-1 -2l-1 -4v-1l-5 -56l-6 -19l-1 -16l2 -10l-1 -7l1 -9l-2 -1l-2 -2l-2 -6l-1 -21l1 -4l4 -4l-4 -24l2 -10l-1 -4v-5l2 -10v-3l-4 -4l-5 -21l-1 -31l3 1l3 4l9 5 l1 4l2 2l3 2l2 1l49 40l7 11l1 1l3 2l3 1l25 26l2 3l2 2l36 40l2 4l2 2l23 26h-2v3l1 3l3 2l15 28l10 28v4l1 5z" />
<glyph unicode="&#xe0;" d="M486 33v-5l-5 -3l-5 -4l-24 -17l-20 -8l-4 -1l-1 3h-9l-13 11l-16 24l-8 9l-5 15l-12 21l-3 4l-1 5l-5 4l-1 4l-3 8l-1 11l-8 16l-1 15l-3 4l-3 9l-1 9l-6 8h-5l-3 -4v-3h-2v-2l-2 -5l-21 -33l-20 -21l-3 -7l-23 -20l-8 -11l-11 -6l-6 -8l-18 -10l-9 -3l-5 -4l-10 -4 l-3 -4l-6 -1l-17 -13l-11 -2l-15 -9l-33 -11l-10 1l-6 -5l-10 3l-22 13l-7 7h-4l-5 -3l-7 -6l-7 1l-4 -2l-13 5l-21 11l-7 15l2 29l3 4v3l15 21l3 3l5 7l8 16l32 28l3 2l1 2l7 4l5 7l10 7l11 11l17 10l4 3l2 1l1 3l3 1l7 6l2 1l1 4l4 6l13 7h4l15 9l11 3l7 5l6 2v2l19 7l1 1 l6 3l11 5l22 6l7 3l32 -1l17 -10l9 -7l4 -7h3l-7 12l-2 18l-7 11l-8 23l-7 12l-15 13l-21 2l-8 -5l-35 -40l-14 -12l-5 -4l-4 -1l-3 1l-3 3v2l9 7v2l1 3l3 4l10 12l13 11l13 16l43 40l10 1l17 11h3l3 -1l3 -2l11 -1l18 -19l8 -13l11 -27l4 -5l12 -33v-4l2 -6l2 -16l4 -9v-4 l2 -8l1 -7l2 -7l8 -26l4 -7l1 -13l8 -14l1 -18l5 -9l6 -25l17 -36l6 -7l2 -4l6 -7l1 -9l23 -17l13 2l4 2h8zM294 233v5l-9 7l-7 6l-7 2l-22 2l-24 -6l-7 -3l-10 -4l-4 -3l-3 -1l-37 -17l-4 -3l-2 -3l-6 -2l-5 -2l-2 -3l-7 -5l-1 -2l-2 -1l-1 -2l-5 -4l-19 -22l-2 -5l-2 -7 l-5 -4l-1 -4l-7 -15l-3 -2l-2 -5l-5 -8l1 -12l-6 -10l-2 -14l2 -20l6 -13l6 -3l5 -10l12 -8l14 -2l19 2l25 9l4 4l8 1l20 11l20 19l3 1l2 2l33 42l5 4l3 5l8 11l8 20l4 7l3 5v2l2 4l5 14v5l1 3l2 3v23zM65 142l-10 -6l-12 -13l-8 -5l-3 -4l-2 -5l-4 -8l-3 -3v-9l-1 -3l-2 -4 l-5 -5l-2 -10l2 -5l3 -9l6 -6l-1 3h8l4 1l4 5l1 5v4l7 21l2 7l4 5v1l2 3l1 4l3 9l15 21l4 8l-2 2l-3 2l-5 -2l-3 -3v-1zM142 547l-9 25l1 2l5 1l13 3l2 1l1 1l-1 2l18 18l3 1l2 2l9 -1l2 -1l5 -3l1 -1l3 -7l5 -5l3 -5l3 -2l5 -6l8 -17l33 -48h1l7 -9l7 -13v-2l5 -3l3 -5 l12 -17l2 -4l3 -9l-3 -2h-2l-2 1l-5 4l-3 -2l-10 4l-2 1l-4 3l-5 6l-6 4l-1 1h-1l-2 4l-4 2l-14 8l-3 3l-2 1l-2 2h-1l-9 6l-5 3l-16 12l-13 4l-13 14v2l-8 7l-4 3l-6 5z" />
<glyph unicode="&#xe1;" d="M486 33v-5l-5 -3l-5 -4l-24 -17l-20 -8l-4 -1l-1 3h-9l-13 11l-16 24l-8 9l-5 15l-12 21l-3 4l-1 5l-5 4l-1 4l-3 8l-1 11l-8 16l-1 15l-3 4l-3 9l-1 9l-6 8h-5l-3 -4v-3h-2v-2l-2 -5l-21 -33l-20 -21l-3 -7l-23 -20l-8 -11l-11 -6l-6 -8l-18 -10l-9 -3l-5 -4l-10 -4 l-3 -4l-6 -1l-17 -13l-11 -2l-15 -9l-33 -11l-10 1l-6 -5l-10 3l-22 13l-7 7h-4l-5 -3l-7 -6l-7 1l-4 -2l-13 5l-21 11l-7 15l2 29l3 4v3l15 21l3 3l5 7l8 16l32 28l3 2l1 2l7 4l5 7l10 7l11 11l17 10l4 3l2 1l1 3l3 1l7 6l2 1l1 4l4 6l13 7h4l15 9l11 3l7 5l6 2v2l19 7l1 1 l6 3l11 5l22 6l7 3l32 -1l17 -10l9 -7l4 -7h3l-7 12l-2 18l-7 11l-8 23l-7 12l-15 13l-21 2l-8 -5l-35 -40l-14 -12l-5 -4l-4 -1l-3 1l-3 3v2l9 7v2l1 3l3 4l10 12l13 11l13 16l43 40l10 1l17 11h3l3 -1l3 -2l11 -1l18 -19l8 -13l11 -27l4 -5l12 -33v-4l2 -6l2 -16l4 -9v-4 l2 -8l1 -7l2 -7l8 -26l4 -7l1 -13l8 -14l1 -18l5 -9l6 -25l17 -36l6 -7l2 -4l6 -7l1 -9l23 -17l13 2l4 2h8zM294 233v5l-9 7l-7 6l-7 2l-22 2l-24 -6l-7 -3l-10 -4l-4 -3l-3 -1l-37 -17l-4 -3l-2 -3l-6 -2l-5 -2l-2 -3l-7 -5l-1 -2l-2 -1l-1 -2l-5 -4l-19 -22l-2 -5l-2 -7 l-5 -4l-1 -4l-7 -15l-3 -2l-2 -5l-5 -8l1 -12l-6 -10l-2 -14l2 -20l6 -13l6 -3l5 -10l12 -8l14 -2l19 2l25 9l4 4l8 1l20 11l20 19l3 1l2 2l33 42l5 4l3 5l8 11l8 20l4 7l3 5v2l2 4l5 14v5l1 3l2 3v23zM65 142l-10 -6l-12 -13l-8 -5l-3 -4l-2 -5l-4 -8l-3 -3v-9l-1 -3l-2 -4 l-5 -5l-2 -10l2 -5l3 -9l6 -6l-1 3h8l4 1l4 5l1 5v4l7 21l2 7l4 5v1l2 3l1 4l3 9l15 21l4 8l-2 2l-3 2l-5 -2l-3 -3v-1zM419 574l2 -2l-8 -25l-6 -6l-6 -5l-4 -3l-8 -7l-1 -2l-12 -14l-13 -4l-17 -12l-6 -3l-3 -2l-5 -4h-1l-6 -6l-19 -10l-2 -4l-1 -1l-7 -4l-5 -6l-4 -3 l-1 -1l-10 -4l-3 2l-5 -4l-2 -1h-2l-4 2l3 9l2 2l1 2l12 17l3 5l4 3l1 2l7 13l7 9h1l2 2l4 6l1 2l2 3l22 35l9 17l5 6l12 12l3 7l1 1l5 3l2 1l9 1l2 -2l3 -1l17 -18v-2l1 -1l2 -1l13 -3z" />
<glyph unicode="&#xe2;" d="M486 33v-5l-5 -3l-5 -4l-24 -17l-20 -8l-4 -1l-1 3h-9l-13 11l-16 24l-8 9l-5 15l-12 21l-3 4l-1 5l-5 4l-1 4l-3 8l-1 11l-8 16l-1 15l-3 4l-3 9l-1 9l-6 8h-5l-3 -4v-3h-2v-2l-2 -5l-21 -33l-20 -21l-3 -7l-23 -20l-8 -11l-11 -6l-6 -8l-18 -10l-9 -3l-5 -4l-10 -4 l-3 -4l-6 -1l-17 -13l-11 -2l-15 -9l-33 -11l-10 1l-6 -5l-10 3l-22 13l-7 7h-4l-5 -3l-7 -6l-7 1l-4 -2l-13 5l-21 11l-7 15l2 29l3 4v3l15 21l3 3l5 7l8 16l32 28l3 2l1 2l7 4l5 7l10 7l11 11l17 10l4 3l2 1l1 3l3 1l7 6l2 1l1 4l4 6l13 7h4l15 9l11 3l7 5l6 2v2l19 7l1 1 l6 3l11 5l22 6l7 3l32 -1l17 -10l9 -7l4 -7h3l-7 12l-2 18l-7 11l-8 23l-7 12l-15 13l-21 2l-8 -5l-35 -40l-14 -12l-5 -4l-4 -1l-3 1l-3 3v2l9 7v2l1 3l3 4l10 12l13 11l13 16l43 40l10 1l17 11h3l3 -1l3 -2l11 -1l18 -19l8 -13l11 -27l4 -5l12 -33v-4l2 -6l2 -16l4 -9v-4 l2 -8l1 -7l2 -7l8 -26l4 -7l1 -13l8 -14l1 -18l5 -9l6 -25l17 -36l6 -7l2 -4l6 -7l1 -9l23 -17l13 2l4 2h8zM294 233v5l-9 7l-7 6l-7 2l-22 2l-24 -6l-7 -3l-10 -4l-4 -3l-3 -1l-37 -17l-4 -3l-2 -3l-6 -2l-5 -2l-2 -3l-7 -5l-1 -2l-2 -1l-1 -2l-5 -4l-19 -22l-2 -5l-2 -7 l-5 -4l-1 -4l-7 -15l-3 -2l-2 -5l-5 -8l1 -12l-6 -10l-2 -14l2 -20l6 -13l6 -3l5 -10l12 -8l14 -2l19 2l25 9l4 4l8 1l20 11l20 19l3 1l2 2l33 42l5 4l3 5l8 11l8 20l4 7l3 5v2l2 4l5 14v5l1 3l2 3v23zM65 142l-10 -6l-12 -13l-8 -5l-3 -4l-2 -5l-4 -8l-3 -3v-9l-1 -3l-2 -4 l-5 -5l-2 -10l2 -5l3 -9l6 -6l-1 3h8l4 1l4 5l1 5v4l7 21l2 7l4 5v1l2 3l1 4l3 9l15 21l4 8l-2 2l-3 2l-5 -2l-3 -3v-1zM454 451l2 -4l-1 -3l-4 -3h-7l-24 -5l-12 3l-18 8l-6 7h-8l-7 7l-14 4l-9 9l-7 4l-7 8l-5 4l-2 1l-1 2l-13 12l-2 4l-4 2l-3 4l-2 3l-3 9l-15 14h-3 l-1 -1l-1 -4l-1 -1l-5 -6l-6 -8l-4 -4l-3 -5l-3 -2l-4 -4l-2 -5l-6 -4l-4 -3l-14 -17l-3 -3l-2 -1l-9 -12l-2 -2l-2 -4l-11 -5l-3 -4l-7 -2h-3l-6 -3l-13 -2l-7 -4l-18 2l11 8l4 7l4 1l2 3l16 11l15 14l70 83l10 4v9l-3 4l7 6l8 3l4 3l5 1l3 6l10 2l4 1h1l3 -4l8 -16l2 -3 l39 -56l21 -23l19 -15l2 -1l30 -23l17 -8z" />
<glyph unicode="&#xe3;" d="M486 33v-5l-5 -3l-5 -4l-24 -17l-20 -8l-4 -1l-1 3h-9l-13 11l-16 24l-8 9l-5 15l-12 21l-3 4l-1 5l-5 4l-1 4l-3 8l-1 11l-8 16l-1 15l-3 4l-3 9l-1 9l-6 8h-5l-3 -4v-3h-2v-2l-2 -5l-21 -33l-20 -21l-3 -7l-23 -20l-8 -11l-11 -6l-6 -8l-18 -10l-9 -3l-5 -4l-10 -4 l-3 -4l-6 -1l-17 -13l-11 -2l-15 -9l-33 -11l-10 1l-6 -5l-10 3l-22 13l-7 7h-4l-5 -3l-7 -6l-7 1l-4 -2l-13 5l-21 11l-7 15l2 29l3 4v3l15 21l3 3l5 7l8 16l32 28l3 2l1 2l7 4l5 7l10 7l11 11l17 10l4 3l2 1l1 3l3 1l7 6l2 1l1 4l4 6l13 7h4l15 9l11 3l7 5l6 2v2l19 7l1 1 l6 3l11 5l22 6l7 3l32 -1l17 -10l9 -7l4 -7h3l-7 12l-2 18l-7 11l-8 23l-7 12l-15 13l-21 2l-8 -5l-35 -40l-14 -12l-5 -4l-4 -1l-3 1l-3 3v2l9 7v2l1 3l3 4l10 12l13 11l13 16l43 40l10 1l17 11h3l3 -1l3 -2l11 -1l18 -19l8 -13l11 -27l4 -5l12 -33v-4l2 -6l2 -16l4 -9v-4 l2 -8l1 -7l2 -7l8 -26l4 -7l1 -13l8 -14l1 -18l5 -9l6 -25l17 -36l6 -7l2 -4l6 -7l1 -9l23 -17l13 2l4 2h8zM294 233v5l-9 7l-7 6l-7 2l-22 2l-24 -6l-7 -3l-10 -4l-4 -3l-3 -1l-37 -17l-4 -3l-2 -3l-6 -2l-5 -2l-2 -3l-7 -5l-1 -2l-2 -1l-1 -2l-5 -4l-19 -22l-2 -5l-2 -7 l-5 -4l-1 -4l-7 -15l-3 -2l-2 -5l-5 -8l1 -12l-6 -10l-2 -14l2 -20l6 -13l6 -3l5 -10l12 -8l14 -2l19 2l25 9l4 4l8 1l20 11l20 19l3 1l2 2l33 42l5 4l3 5l8 11l8 20l4 7l3 5v2l2 4l5 14v5l1 3l2 3v23zM65 142l-10 -6l-12 -13l-8 -5l-3 -4l-2 -5l-4 -8l-3 -3v-9l-1 -3l-2 -4 l-5 -5l-2 -10l2 -5l3 -9l6 -6l-1 3h8l4 1l4 5l1 5v4l7 21l2 7l4 5v1l2 3l1 4l3 9l15 21l4 8l-2 2l-3 2l-5 -2l-3 -3v-1zM455 546l4 -2l-1 -6l-32 -34l-32 -20l-20 -8l-17 -3l-31 10l-1 1l-4 3l-40 21l-32 2l-24 -4l-57 -17l-15 -8l-8 -3l-4 2l-2 3l17 15l17 13l2 3l5 5l14 4 l3 5l6 3l17 10l12 3v2l2 1l8 3l36 8l27 -1l1 -2l7 -1l18 -9l6 -1l3 -1v-2l4 -1l12 -9l24 -8l14 2l9 -1l33 10z" />
<glyph unicode="&#xe4;" d="M486 33v-5l-5 -3l-5 -4l-24 -17l-20 -8l-4 -1l-1 3h-9l-13 11l-16 24l-8 9l-5 15l-12 21l-3 4l-1 5l-5 4l-1 4l-3 8l-1 11l-8 16l-1 15l-3 4l-3 9l-1 9l-6 8h-5l-3 -4v-3h-2v-2l-2 -5l-21 -33l-20 -21l-3 -7l-23 -20l-8 -11l-11 -6l-6 -8l-18 -10l-9 -3l-5 -4l-10 -4 l-3 -4l-6 -1l-17 -13l-11 -2l-15 -9l-33 -11l-10 1l-6 -5l-10 3l-22 13l-7 7h-4l-5 -3l-7 -6l-7 1l-4 -2l-13 5l-21 11l-7 15l2 29l3 4v3l15 21l3 3l5 7l8 16l32 28l3 2l1 2l7 4l5 7l10 7l11 11l17 10l4 3l2 1l1 3l3 1l7 6l2 1l1 4l4 6l13 7h4l15 9l11 3l7 5l6 2v2l19 7l1 1 l6 3l11 5l22 6l7 3l32 -1l17 -10l9 -7l4 -7h3l-7 12l-2 18l-7 11l-8 23l-7 12l-15 13l-21 2l-8 -5l-35 -40l-14 -12l-5 -4l-4 -1l-3 1l-3 3v2l9 7v2l1 3l3 4l10 12l13 11l13 16l43 40l10 1l17 11h3l3 -1l3 -2l11 -1l18 -19l8 -13l11 -27l4 -5l12 -33v-4l2 -6l2 -16l4 -9v-4 l2 -8l1 -7l2 -7l8 -26l4 -7l1 -13l8 -14l1 -18l5 -9l6 -25l17 -36l6 -7l2 -4l6 -7l1 -9l23 -17l13 2l4 2h8zM294 233v5l-9 7l-7 6l-7 2l-22 2l-24 -6l-7 -3l-10 -4l-4 -3l-3 -1l-37 -17l-4 -3l-2 -3l-6 -2l-5 -2l-2 -3l-7 -5l-1 -2l-2 -1l-1 -2l-5 -4l-19 -22l-2 -5l-2 -7 l-5 -4l-1 -4l-7 -15l-3 -2l-2 -5l-5 -8l1 -12l-6 -10l-2 -14l2 -20l6 -13l6 -3l5 -10l12 -8l14 -2l19 2l25 9l4 4l8 1l20 11l20 19l3 1l2 2l33 42l5 4l3 5l8 11l8 20l4 7l3 5v2l2 4l5 14v5l1 3l2 3v23zM65 142l-10 -6l-12 -13l-8 -5l-3 -4l-2 -5l-4 -8l-3 -3v-9l-1 -3l-2 -4 l-5 -5l-2 -10l2 -5l3 -9l6 -6l-1 3h8l4 1l4 5l1 5v4l7 21l2 7l4 5v1l2 3l1 4l3 9l15 21l4 8l-2 2l-3 2l-5 -2l-3 -3v-1zM388 539l11 -14l1 -26l-7 -17l-9 -9l-19 -3l-7 2h-5l-1 -2l-23 2l-3 15l2 36l4 15l11 2l4 4l23 -2h10l3 -2zM261 537l4 -14l1 -23l-5 -21l-18 -7l-38 -1 l-11 4l-1 28l2 6l-2 21l5 10l15 3l23 1l12 -3l9 -1z" />
<glyph unicode="&#xe5;" d="M486 33v-5l-5 -3l-5 -4l-24 -17l-20 -8l-4 -1l-1 3h-9l-13 11l-16 24l-8 9l-5 15l-12 21l-3 4l-1 5l-5 4l-1 4l-3 8l-1 11l-8 16l-1 15l-3 4l-3 9l-1 9l-6 8h-5l-3 -4v-3h-2v-2l-2 -5l-21 -33l-20 -21l-3 -7l-23 -20l-8 -11l-11 -6l-6 -8l-18 -10l-9 -3l-5 -4l-10 -4 l-3 -4l-6 -1l-17 -13l-11 -2l-15 -9l-33 -11l-10 1l-6 -5l-10 3l-22 13l-7 7h-4l-5 -3l-7 -6l-7 1l-4 -2l-13 5l-21 11l-7 15l2 29l3 4v3l15 21l3 3l5 7l8 16l32 28l3 2l1 2l7 4l5 7l10 7l11 11l17 10l4 3l2 1l1 3l3 1l7 6l2 1l1 4l4 6l13 7h4l15 9l11 3l7 5l6 2v2l19 7l1 1 l6 3l11 5l22 6l7 3l32 -1l17 -10l9 -7l4 -7h3l-7 12l-2 18l-7 11l-8 23l-7 12l-15 13l-21 2l-8 -5l-35 -40l-14 -12l-5 -4l-4 -1l-3 1l-3 3v2l9 7v2l1 3l3 4l10 12l13 11l13 16l43 40l10 1l17 11h3l3 -1l3 -2l11 -1l18 -19l8 -13l11 -27l4 -5l12 -33v-4l2 -6l2 -16l4 -9v-4 l2 -8l1 -7l2 -7l8 -26l4 -7l1 -13l8 -14l1 -18l5 -9l6 -25l17 -36l6 -7l2 -4l6 -7l1 -9l23 -17l13 2l4 2h8zM294 233v5l-9 7l-7 6l-7 2l-22 2l-24 -6l-7 -3l-10 -4l-4 -3l-3 -1l-37 -17l-4 -3l-2 -3l-6 -2l-5 -2l-2 -3l-7 -5l-1 -2l-2 -1l-1 -2l-5 -4l-19 -22l-2 -5l-2 -7 l-5 -4l-1 -4l-7 -15l-3 -2l-2 -5l-5 -8l1 -12l-6 -10l-2 -14l2 -20l6 -13l6 -3l5 -10l12 -8l14 -2l19 2l25 9l4 4l8 1l20 11l20 19l3 1l2 2l33 42l5 4l3 5l8 11l8 20l4 7l3 5v2l2 4l5 14v5l1 3l2 3v23zM65 142l-10 -6l-12 -13l-8 -5l-3 -4l-2 -5l-4 -8l-3 -3v-9l-1 -3l-2 -4 l-5 -5l-2 -10l2 -5l3 -9l6 -6l-1 3h8l4 1l4 5l1 5v4l7 21l2 7l4 5v1l2 3l1 4l3 9l15 21l4 8l-2 2l-3 2l-5 -2l-3 -3v-1zM295 589l11 -2l12 -4l4 -2l4 -1l26 -23l10 -17l7 -18l-3 -21h-1l-3 -5l-1 -4l-17 -32l-9 -14l-8 -6l-2 1v-2l-26 -6h-15l-20 -4h-19l-7 3l-3 1l-14 5 l-25 15l-8 8l-6 4l-12 21v5l-2 4l-2 12l8 34l2 2l3 5l17 15l6 8l16 10l9 2h3l7 2h13l3 2l32 1l5 -1l3 1zM227 548l-7 -13l-3 -25l1 -2l1 -4l4 -14h1l1 -5l19 -22l1 -2l22 -12h7l2 1l2 2l8 3l9 10v5l5 10l6 2l9 8v3l2 1l4 15l-4 16l-1 6l-4 4l-4 7l-19 18l-5 3l-1 1l-26 10 l-6 -2l-6 -3l-2 -2l-8 -7l-6 -8z" />
<glyph unicode="&#xe6;" horiz-adv-x="628" d="M641 167l4 -2l-11 -23l-2 -3l-4 -4l2 -3h-3l-7 -11l-4 -2l-5 -6l-9 -7l-11 -13l-5 -3l-3 -4l-36 -25l-12 -10l-6 -3l-26 -15l-4 -3l-6 -5l-2 -1h-2l-31 -15l-53 -16l-18 1l-25 6l-13 6l-3 2l-4 4l-4 8l-6 4l-5 13l-6 10l-2 2l-6 11l-5 13l-2 6l-2 10l-2 5l-1 16l-4 12v10 l-2 7l-6 62h-5l-4 -9l-4 -11l-2 -12l-3 -4h-1l-4 -13l-9 -13l-1 -1l-9 -10l-26 -33l-1 -3l-1 -1l-26 -33l-41 -36l-30 -17l-24 -10l-11 -2l-4 -1l-8 -1l-25 3v2l-5 1l-1 2l-16 13l-9 20l-1 27l4 31l-10 6l-3 4h-1l-8 17l2 28l21 33l10 12l3 5l3 1l11 12l67 53l44 24l40 14 l23 11l10 4l7 1h4l6 -4l18 -8l1 2l4 1l-8 30l-6 4l-3 7l-1 1l-10 11l-17 8l-23 1l-9 -3l-18 -4l-7 -2l-7 -3l-9 -4h-2l-11 -4l-7 -5l-2 -4l-14 -8h-6l-4 6h3v3l2 2l7 3l2 3l6 3l36 23l6 2l8 4l33 12h9l13 4l10 -1l7 1l26 -6l11 -7l8 -8h2l16 -24l2 -24l5 -5l1 -4l11 -46 l3 -47l2 -7v-26l5 -18l10 16l4 15l13 18v2l2 2l6 10l2 1l7 21l1 6l5 15l30 36l14 12l6 9l2 2l5 3l8 7l12 9l46 34l8 4l3 1l4 3l48 12h23l5 -1l4 -1l8 -9l3 -8l-1 -17l2 -1v-3l1 -6l-3 -19l-4 -13l-7 -13l-10 -16l2 -2l-36 -41l-15 -12l-9 -8l-4 -3l-2 -2l-22 -10l-5 -3 l-11 -3l-31 -15l-5 -1l-4 -2l-11 -2l-4 -3l-33 -12l-11 -8l-11 1l-13 -13l-7 -22l-4 -30l2 -36l5 -11v-5l3 -3l2 -3l3 -3l-3 -1h3l2 -3l2 -2l3 -2v-2l3 -1l4 -4l14 -4l5 -1l11 -3l46 8l1 1l11 3l20 9l3 3l24 12l12 10l1 2h2l2 2l9 4l35 27l8 9l4 4l8 7l6 7l2 3l3 5l3 1l1 1 l7 14l7 2zM574 335l2 22l-7 13l-8 2v3l-26 -8l-11 -7l-6 -5l-4 -1l-4 -4h-2v-2l-13 -11l-2 -5l-2 -1l-23 -21l-15 -20l-5 -2l-8 -15l-12 -12l-25 -37l-2 -1l-2 -4l-2 -2v-4l2 -4h9l3 1l6 5l6 8h22l59 23l17 14l27 26l1 4l4 5l12 19zM263 200l4 15l-1 14l-1 10v3l-6 10l-7 8 l-15 8l-9 3l-3 2l-27 -1l-25 -12l-13 -12l-5 -3l-4 -4l-10 -12l-5 -2l-1 -2l-4 -3l-6 -5l-6 -9l-5 -5l-5 -6l-20 -26l-16 -25l-2 -4l-6 -9l-1 -9v-5l-9 -19l-4 -19l2 -4v-7l4 -13l1 -2l3 -3l9 -10l5 -3l2 -1h16l30 5l25 12l9 5l8 5l9 7l35 33l30 38l16 35l4 7l3 4l2 4z M110 220l25 23l-6 3l-16 -9v-2h-3l-17 -10l-7 -7l-16 -13l-4 -6l-6 -3l-2 -3h-4l-2 -3l-18 -20l-7 -22l2 -13h9l3 3l3 7h1l13 15l11 24l20 18z" />
<glyph unicode="&#xe7;" horiz-adv-x="342" d="M139 -6l-1 -1l-2 -28l20 1l17 -3l17 -9l8 -13l3 -13l-2 -13l-6 -11l-34 -33l-19 -8l-6 -3l-7 -1l-20 -2l-23 3l-7 5l-2 1l-3 1l-4 1l-10 11l2 8l2 2l4 5l2 1l2 3l7 4l10 12l3 1l3 -4l-1 -10l2 -6l6 -7l14 -5l1 -2l3 -1l17 -3l18 2l7 6l8 21l-5 7l-9 16l-25 12l-22 -2 l-5 4l5 28l-2 21l-6 -1l-23 8l-20 15l-8 7l-4 -1l-20 4l-7 8h-1l-7 10l-6 3l-2 3h-2l-1 4l-2 2l-6 36l4 16l-3 9l3 4l6 25l12 19l-1 2l2 3l2 5l6 10l2 4l4 6l2 4l7 9l12 24l9 11l5 4l4 3l7 12l32 35l4 3l24 26l48 43l35 24l41 20l17 1l2 -4l-3 -13l-8 -25l-17 -1l-23 -11 l-7 -9l-11 -4l-21 -14l-11 -8l-2 -1l-6 -6l-6 -5l-5 -5l-15 -19l-25 -35l-6 -7l-2 -8l-8 -9l-27 -65l-9 -43v-11l5 -35l-1 -1l-1 -3l1 -4l2 -1l3 1l3 -2l3 -9l8 -9l10 -6l8 -4l4 -4l13 -1l17 2v-1l2 -1h3l3 1h1l4 -1l12 5l16 2l26 12l25 21l14 11l2 2l4 3l18 24l2 2l2 3l3 2 l14 13l7 13l20 28l6 12l4 13l8 2l-7 -32l-2 -3l-3 -6v-1l-8 -11v-5l-2 -2l-3 -6l-16 -22l-5 -8l-8 -5l-4 -10l-17 -18l-5 -6l-3 -2l-3 -3l-18 -13l-7 -8l-32 -22l-46 -18l-3 -2zM91 233l-2 6l-9 -2l-12 -11l-5 -8l-3 -6l-4 -1l-20 -35l-2 -11l-6 -6l-9 -35l-2 -16l6 -20 l-1 -7l1 -6l6 2l3 -2l5 4l1 1l4 15h-3l1 5l3 10v6l4 21l16 46l5 10h1l10 20l4 9l2 2z" />
<glyph unicode="&#xe8;" horiz-adv-x="364" d="M351 169h7l-4 -10l-2 -4l-4 -9l-15 -15l-8 -9l-50 -45l-8 -5l-3 -4l-10 -8l-2 -3l-3 -2l-2 -1l-3 -1l-16 -13l-47 -28l-15 -5l-7 -2l-3 -1l-16 -5l-4 -1l-12 -5l-29 -3l-24 -1l-19 7l-9 12l-7 5l-16 22l-7 35l6 24v10l15 51l34 68l-9 15l1 19l10 18l14 19l17 19l32 26 l24 18l30 22l7 4l31 16l42 15l19 2l15 -3l5 -2l12 -8l3 -24l-4 -16l-19 -42l-7 -9l-10 -10l-33 -35l-13 -6l-28 -21l-57 -24l-25 -7h-7l-12 2l-5 1l-2 8l15 7l12 12l10 3l8 7l44 8l13 4l42 24l16 18l10 22l2 13l-1 22l-16 12h-20l-9 -2l-16 -12l-5 -6l-5 -1l-27 -29l-5 -6 l-8 -7l-12 -12l-14 -21l-3 -4l-3 -2l-7 -8l-12 -14l-4 -9l-12 -12l-23 -50l-12 -40v-9l-2 -11l-2 -38l6 -16l9 -12l10 -9l14 -9l6 -2l11 -3l41 -1l38 12l39 20l15 14l4 3l3 2l44 33h3v2l2 5l19 17zM147 315l3 10l-14 -8l-24 -21l-2 -10l1 -4l6 -1l13 15l5 5zM128 547l-9 25 l1 2l5 1l13 3l2 1l1 1l-1 2l18 18l3 1l2 2l9 -1l2 -1l5 -3l1 -1l3 -7l5 -5l3 -5l3 -2l5 -6l8 -17l33 -48h1l7 -9l7 -13v-2l5 -3l3 -5l12 -17l2 -4l3 -9l-3 -2h-2l-2 1l-5 4l-3 -2l-10 4l-2 1l-4 3l-5 6l-6 4l-1 1h-1l-2 4l-4 2l-14 8l-3 3l-2 1l-2 2h-1l-9 6l-5 3l-16 12 l-13 4l-13 14v2l-8 7l-4 3l-6 5z" />
<glyph unicode="&#xe9;" horiz-adv-x="364" d="M351 169h7l-4 -10l-2 -4l-4 -9l-15 -15l-8 -9l-50 -45l-8 -5l-3 -4l-10 -8l-2 -3l-3 -2l-2 -1l-3 -1l-16 -13l-47 -28l-15 -5l-7 -2l-3 -1l-16 -5l-4 -1l-12 -5l-29 -3l-24 -1l-19 7l-9 12l-7 5l-16 22l-7 35l6 24v10l15 51l34 68l-9 15l1 19l10 18l14 19l17 19l32 26 l24 18l30 22l7 4l31 16l42 15l19 2l15 -3l5 -2l12 -8l3 -24l-4 -16l-19 -42l-7 -9l-10 -10l-33 -35l-13 -6l-28 -21l-57 -24l-25 -7h-7l-12 2l-5 1l-2 8l15 7l12 12l10 3l8 7l44 8l13 4l42 24l16 18l10 22l2 13l-1 22l-16 12h-20l-9 -2l-16 -12l-5 -6l-5 -1l-27 -29l-5 -6 l-8 -7l-12 -12l-14 -21l-3 -4l-3 -2l-7 -8l-12 -14l-4 -9l-12 -12l-23 -50l-12 -40v-9l-2 -11l-2 -38l6 -16l9 -12l10 -9l14 -9l6 -2l11 -3l41 -1l38 12l39 20l15 14l4 3l3 2l44 33h3v2l2 5l19 17zM147 315l3 10l-14 -8l-24 -21l-2 -10l1 -4l6 -1l13 15l5 5zM385 574l2 -2 l-8 -25l-6 -6l-6 -5l-4 -3l-8 -7l-1 -2l-12 -14l-13 -4l-17 -12l-6 -3l-3 -2l-5 -4h-1l-6 -6l-19 -10l-2 -4l-1 -1l-7 -4l-5 -6l-4 -3l-1 -1l-10 -4l-3 2l-5 -4l-2 -1h-2l-4 2l3 9l2 2l1 2l12 17l3 5l4 3l1 2l7 13l7 9h1l2 2l4 6l1 2l2 3l22 35l9 17l5 6l12 12l3 7l1 1l5 3 l2 1l9 1l2 -2l3 -1l17 -18v-2l1 -1l2 -1l13 -3z" />
<glyph unicode="&#xea;" horiz-adv-x="364" d="M351 169h7l-4 -10l-2 -4l-4 -9l-15 -15l-8 -9l-50 -45l-8 -5l-3 -4l-10 -8l-2 -3l-3 -2l-2 -1l-3 -1l-16 -13l-47 -28l-15 -5l-7 -2l-3 -1l-16 -5l-4 -1l-12 -5l-29 -3l-24 -1l-19 7l-9 12l-7 5l-16 22l-7 35l6 24v10l15 51l34 68l-9 15l1 19l10 18l14 19l17 19l32 26 l24 18l30 22l7 4l31 16l42 15l19 2l15 -3l5 -2l12 -8l3 -24l-4 -16l-19 -42l-7 -9l-10 -10l-33 -35l-13 -6l-28 -21l-57 -24l-25 -7h-7l-12 2l-5 1l-2 8l15 7l12 12l10 3l8 7l44 8l13 4l42 24l16 18l10 22l2 13l-1 22l-16 12h-20l-9 -2l-16 -12l-5 -6l-5 -1l-27 -29l-5 -6 l-8 -7l-12 -12l-14 -21l-3 -4l-3 -2l-7 -8l-12 -14l-4 -9l-12 -12l-23 -50l-12 -40v-9l-2 -11l-2 -38l6 -16l9 -12l10 -9l14 -9l6 -2l11 -3l41 -1l38 12l39 20l15 14l4 3l3 2l44 33h3v2l2 5l19 17zM147 315l3 10l-14 -8l-24 -21l-2 -10l1 -4l6 -1l13 15l5 5zM399 451l2 -4 l-1 -3l-4 -3h-7l-24 -5l-12 3l-18 8l-6 7h-8l-7 7l-14 4l-9 9l-7 4l-7 8l-5 4l-2 1l-1 2l-13 12l-2 4l-4 2l-3 4l-2 3l-3 9l-15 14h-3l-1 -1l-1 -4l-1 -1l-5 -6l-6 -8l-4 -4l-3 -5l-3 -2l-4 -4l-2 -5l-6 -4l-4 -3l-14 -17l-3 -3l-2 -1l-9 -12l-2 -2l-2 -4l-11 -5l-3 -4 l-7 -2h-3l-6 -3l-13 -2l-7 -4l-18 2l11 8l4 7l4 1l2 3l16 11l15 14l70 83l10 4v9l-3 4l7 6l8 3l4 3l5 1l3 6l10 2l4 1h1l3 -4l8 -16l2 -3l39 -56l21 -23l19 -15l2 -1l30 -23l17 -8z" />
<glyph unicode="&#xeb;" horiz-adv-x="364" d="M351 169h7l-4 -10l-2 -4l-4 -9l-15 -15l-8 -9l-50 -45l-8 -5l-3 -4l-10 -8l-2 -3l-3 -2l-2 -1l-3 -1l-16 -13l-47 -28l-15 -5l-7 -2l-3 -1l-16 -5l-4 -1l-12 -5l-29 -3l-24 -1l-19 7l-9 12l-7 5l-16 22l-7 35l6 24v10l15 51l34 68l-9 15l1 19l10 18l14 19l17 19l32 26 l24 18l30 22l7 4l31 16l42 15l19 2l15 -3l5 -2l12 -8l3 -24l-4 -16l-19 -42l-7 -9l-10 -10l-33 -35l-13 -6l-28 -21l-57 -24l-25 -7h-7l-12 2l-5 1l-2 8l15 7l12 12l10 3l8 7l44 8l13 4l42 24l16 18l10 22l2 13l-1 22l-16 12h-20l-9 -2l-16 -12l-5 -6l-5 -1l-27 -29l-5 -6 l-8 -7l-12 -12l-14 -21l-3 -4l-3 -2l-7 -8l-12 -14l-4 -9l-12 -12l-23 -50l-12 -40v-9l-2 -11l-2 -38l6 -16l9 -12l10 -9l14 -9l6 -2l11 -3l41 -1l38 12l39 20l15 14l4 3l3 2l44 33h3v2l2 5l19 17zM147 315l3 10l-14 -8l-24 -21l-2 -10l1 -4l6 -1l13 15l5 5zM314 539l11 -14 l1 -26l-7 -17l-9 -9l-19 -3l-7 2h-5l-1 -2l-23 2l-3 15l2 36l4 15l11 2l4 4l23 -2h10l3 -2zM187 537l4 -14l1 -23l-5 -21l-18 -7l-38 -1l-11 4l-1 28l2 6l-2 21l5 10l15 3l23 1l12 -3l9 -1z" />
<glyph unicode="&#xec;" horiz-adv-x="143" d="M89 408l10 7l11 1l-2 -18l-6 -19v-15l2 -16l1 -17v-21l-4 -21l-3 -2l3 -44l-2 -15l-2 -21l1 -17l-4 -18h-3l1 -15v-28l-5 -15l3 -13l2 -12v-22l-1 -21h-3l-2 3v-6l5 -3l2 -18l-2 -19l-4 -3l1 -9l-22 1l-10 -3h-11l-2 8v27l-2 13l-1 18l2 19l-1 18l3 19l3 1l-4 4l2 17 l2 15l-2 9l1 9v19l-2 15l2 15l5 4l-5 1l-1 14l1 14l-2 14l-1 18v16l2 16l2 3h5l9 3l-1 19v9l2 10h-5l-6 2l2 4h-5l3 9l5 6l2 12l4 10l8 7l7 3l9 2zM-31 547l-9 25l2 2l4 1l13 3l2 1l1 1v2l17 18l3 1l2 2l9 -1l2 -1l5 -3l1 -1l3 -7l12 -12l5 -6l8 -17l30 -46l2 -2h1l7 -9 l8 -15l4 -3l3 -5l12 -17l2 -2l1 -2l3 -9l-4 -2h-2l-2 1l-5 4l-3 -2l-10 4l-1 1l-4 3l-5 6l-7 4l-1 1l-2 4l-4 2l-15 8l-4 4l-3 2h-1l-4 4l-3 2l-6 3l-16 12l-14 4l-12 14l-1 2l-8 7l-4 3l-6 5z" />
<glyph unicode="&#xed;" horiz-adv-x="143" d="M89 408l10 7l11 1l-2 -18l-6 -19v-15l2 -16l1 -17v-21l-4 -21l-3 -2l3 -44l-2 -15l-2 -21l1 -17l-4 -18h-3l1 -15v-28l-5 -15l3 -13l2 -12v-22l-1 -21h-3l-2 3v-6l5 -3l2 -18l-2 -19l-4 -3l1 -9l-22 1l-10 -3h-11l-2 8v27l-2 13l-1 18l2 19l-1 18l3 19l3 1l-4 4l2 17 l2 15l-2 9l1 9v19l-2 15l2 15l5 4l-5 1l-1 14l1 14l-2 14l-1 18v16l2 16l2 3h5l9 3l-1 19v9l2 10h-5l-6 2l2 4h-5l3 9l5 6l2 12l4 10l8 7l7 3l9 2zM213 574l2 -2l-10 -25l-5 -6l-6 -5l-4 -3l-8 -7l-1 -2l-13 -14l-13 -4l-16 -12l-5 -3l-3 -2l-5 -4h-2l-6 -6l-19 -10l-2 -4 l-1 -1l-7 -4l-5 -6l-4 -3l-1 -1l-10 -4l-4 2l-4 -4l-2 -1h-2l-4 2v3l4 8l2 2l12 17l3 5l4 3l1 2l6 13l8 9l2 2l5 6v2l3 3l23 35l8 17l4 6l3 2l4 5l3 2l3 3l3 7l1 1l4 3l3 1l8 1l2 -2l3 -1l18 -18v-2l2 -2l13 -3z" />
<glyph unicode="&#xee;" horiz-adv-x="143" d="M89 408l10 7l11 1l-2 -18l-6 -19v-15l2 -16l1 -17v-21l-4 -21l-3 -2l3 -44l-2 -15l-2 -21l1 -17l-4 -18h-3l1 -15v-28l-5 -15l3 -13l2 -12v-22l-1 -21h-3l-2 3v-6l5 -3l2 -18l-2 -19l-4 -3l1 -9l-22 1l-10 -3h-11l-2 8v27l-2 13l-1 18l2 19l-1 18l3 19l3 1l-4 4l2 17 l2 15l-2 9l1 9v19l-2 15l2 15l5 4l-5 1l-1 14l1 14l-2 14l-1 18v16l2 16l2 3h5l9 3l-1 19v9l2 10h-5l-6 2l2 4h-5l3 9l5 6l2 12l4 10l8 7l7 3l9 2zM254 451l3 -4l-2 -3l-4 -3h-7l-22 -5l-13 3l-18 8l-7 7h-8l-6 7l-15 4l-8 9l-8 4l-6 8l-4 4l-3 1l-1 2l-13 12l-2 4l-4 2 l-2 4l-3 3l-4 9l-15 14h-3l-1 -1l-1 -4l-1 -1l-5 -6l-6 -8l-4 -4l-3 -5l-6 -6l-3 -5l-4 -4l-4 -3l-14 -17l-4 -3l-2 -1l-9 -12l-3 -2l-2 -4l-11 -5l-3 -4l-7 -2h-2l-7 -3l-13 -2l-7 -4l-16 2l11 8l3 7l3 1l2 3l16 11l16 14l69 83l10 4v9l-2 4l6 6l8 3l4 3l5 1l3 6l12 2l3 1 h2l3 -4l2 -6l3 -4v-2l3 -4l1 -3l39 -56l21 -23l14 -11l6 -4l1 -1l30 -23l16 -8z" />
<glyph unicode="&#xef;" horiz-adv-x="143" d="M89 408l10 7l11 1l-2 -18l-6 -19v-15l2 -16l1 -17v-21l-4 -21l-3 -2l3 -44l-2 -15l-2 -21l1 -17l-4 -18h-3l1 -15v-28l-5 -15l3 -13l2 -12v-22l-1 -21h-3l-2 3v-6l5 -3l2 -18l-2 -19l-4 -3l1 -9l-22 1l-10 -3h-11l-2 8v27l-2 13l-1 18l2 19l-1 18l3 19l3 1l-4 4l2 17 l2 15l-2 9l1 9v19l-2 15l2 15l5 4l-5 1l-1 14l1 14l-2 14l-1 18v16l2 16l2 3h5l9 3l-1 19v9l2 10h-5l-6 2l2 4h-5l3 9l5 6l2 12l4 10l8 7l7 3l9 2zM175 539l12 -14v-26l-6 -17l-10 -9l-19 -3l-7 2h-5l-2 -2l-22 2l-3 15l2 36l5 15l10 2l5 4l23 -2h9l4 -2zM47 537l5 -14 l2 -23l-7 -21l-16 -7l-39 -1l-11 4l-1 28l2 6l-1 21l4 10l15 3l24 1l12 -3l9 -1z" />
<glyph unicode="&#xf1;" horiz-adv-x="389" d="M399 -17l5 -5h-3l2 -1l-5 -3l-6 -1l-7 7l-9 4l-9 12l-11 7l-12 5l-6 9l-23 15l-1 5l-2 1l3 2l-4 18l-7 9l-1 16v7l1 6l-1 7l-9 32l-6 29l2 6l-2 11l-2 18l3 108l-2 19l-3 10l-10 -13l-24 -55l-6 -10l-7 -12l-3 -7l3 -3l-39 -69l-4 -13l-11 -18l-1 -1v-3l-1 -5l-15 -24h-1 l-2 -5l-5 -6l-6 -15l-1 -1l-7 -13l-5 -4l-3 -14l-13 -26l-9 -10l-10 -1l-3 -5l-12 -7l-15 1l-3 -1l-2 -1h-3l-5 1l-4 4v5l-3 12l-4 50h3l-2 5l1 9v27l-5 14l3 14l-4 25v18l1 4v11l1 6l3 34l-5 15l2 3l2 25l-2 7l2 5l-2 15l1 77l2 1l3 13l8 6l51 11l6 -7l2 -11l-1 -18l-1 -10 l1 -2l-3 -4l-5 -18l-3 -9l-2 -7l-2 -4l-5 -46l-3 -12l-1 -22l-2 -4l-1 -4v-2l-1 -20l5 -77l-3 -12l2 -3v-12l1 -2l2 -21v-6l1 -3l5 -3h6l13 7l4 7l2 3l2 10l10 12l15 23v4l1 1l17 21l6 19l16 28l10 13l15 32v1l3 6l3 12l1 3l5 5l5 6l2 7l7 22l9 20l14 44l13 21l26 12h4l4 2 l21 3l2 -14l-3 -5l-1 -3l1 -4l6 -38l-1 -3l-1 -9l-4 -11l3 -41l-3 -13v-8l-1 -3l-1 -16l6 -20l8 -79l7 -48l2 -8l3 -13v-19l4 -10l4 -7l3 -6l3 -7l8 -20zM361 546l4 -2l-1 -6l-32 -34l-32 -20l-20 -8l-17 -3l-31 10l-1 1l-4 3l-40 21l-32 2l-24 -4l-57 -17l-15 -8l-8 -3 l-4 2l-2 3l17 15l17 13l2 3l5 5l14 4l3 5l6 3l17 10l12 3v2l2 1l8 3l36 8l27 -1l1 -2l7 -1l18 -9l6 -1l3 -1v-2l4 -1l12 -9l24 -8l14 2l9 -1l33 10z" />
<glyph unicode="&#xf2;" horiz-adv-x="379" d="M371 242l-2 -2l-7 -18v-7l-3 -6l-2 -3h-1l4 -12l-24 -42l-2 -2l-2 -5l-4 -7l-12 -12l-12 -19l-2 -5l-11 -11l-7 -11l-9 -7l-6 -8l-2 -1l-1 -2l-10 -9l-7 -8l-2 -3l-6 -5l-47 -27l-15 -3l-20 -8h-42l-20 5l-17 7l-16 15l-4 5l-13 13l-3 12l-4 6l-1 2v5l-5 15v16l-2 5l2 18 v9l1 4l4 17l1 11l-1 6l-2 4l-5 3l-3 13l-9 13v22l1 8l2 3l4 12l12 23l20 29l25 25l3 6h3v2l9 8l24 18l7 4l5 4l58 29l15 3l5 3l9 3l8 2l11 -2l13 5l12 -1l17 -5l6 -14l10 -7l5 -5l5 -4l3 -4l3 -3l2 -5l7 -7l3 -2l3 -5l9 -11l5 2l-2 5l1 2l2 2l4 1h3l4 -3l5 -8l6 -16l4 -15 v-10l2 -6l1 -14l-2 -1l1 -10zM335 286l2 2l-2 7l-5 6l-4 15h-1l-5 6l-5 10l-19 22l-6 2l-1 2l-12 5l-2 2h-2l-9 7l-5 1l-3 -3l-1 -4h-2l-10 7l-11 1l-3 -1l-3 1l-4 1l-2 2l-10 -2l-17 -7l-8 -6l-2 -1v-1l-7 -8l-2 -1l-5 -8l-11 -12l-9 -6l-19 -22l-4 -4v-2l-13 -20l-1 -3 l-2 -1l-10 -10l-6 -17l-6 -10l-5 -6l-2 -1l-2 -8l-4 -14v-2l-2 -8l3 -4v-4l6 -2l2 -2l17 -12l5 -3h1l6 2l8 -3l10 -27l-26 -4l-7 -4l-17 -2l-8 -3v-13l2 -4l5 -9l8 -16l3 -4l1 -4l12 -14l3 -1l8 -1l7 -3l10 -10l16 -1l17 -4l23 3l5 1l9 -2l12 8l4 1l6 2l5 3l4 2l5 3l13 9 l5 4h2l7 8l2 3l7 6l12 14l3 2l4 6l3 5l2 3l14 20l16 37v2l9 27l4 20l1 9l2 4l-1 8l-3 9l-1 12l-1 5l-1 6zM140 339l1 3l-6 3l-34 -27l-7 -8l-1 -4l-7 -5l-8 -11l-3 -5l-4 -4l-12 -16l-6 -15l1 -34l4 -2l3 3l-1 1h3l12 26l6 8v1l3 7l5 14l4 2l5 9l2 8l8 6l2 2l6 7l3 5l11 11 l1 2l4 4v2l2 3zM121 547l-9 25l1 2l5 1l13 3l2 1l1 1l-1 2l18 18l3 1l2 2l9 -1l2 -1l5 -3l1 -1l3 -7l5 -5l3 -5l3 -2l5 -6l8 -17l33 -48h1l7 -9l7 -13v-2l5 -3l3 -5l12 -17l2 -4l3 -9l-3 -2h-2l-2 1l-5 4l-3 -2l-10 4l-2 1l-4 3l-5 6l-6 4l-1 1h-1l-2 4l-4 2l-14 8l-3 3 l-2 1l-2 2h-1l-9 6l-5 3l-16 12l-13 4l-13 14v2l-8 7l-4 3l-6 5z" />
<glyph unicode="&#xf3;" horiz-adv-x="379" d="M371 242l-2 -2l-7 -18v-7l-3 -6l-2 -3h-1l4 -12l-24 -42l-2 -2l-2 -5l-4 -7l-12 -12l-12 -19l-2 -5l-11 -11l-7 -11l-9 -7l-6 -8l-2 -1l-1 -2l-10 -9l-7 -8l-2 -3l-6 -5l-47 -27l-15 -3l-20 -8h-42l-20 5l-17 7l-16 15l-4 5l-13 13l-3 12l-4 6l-1 2v5l-5 15v16l-2 5l2 18 v9l1 4l4 17l1 11l-1 6l-2 4l-5 3l-3 13l-9 13v22l1 8l2 3l4 12l12 23l20 29l25 25l3 6h3v2l9 8l24 18l7 4l5 4l58 29l15 3l5 3l9 3l8 2l11 -2l13 5l12 -1l17 -5l6 -14l10 -7l5 -5l5 -4l3 -4l3 -3l2 -5l7 -7l3 -2l3 -5l9 -11l5 2l-2 5l1 2l2 2l4 1h3l4 -3l5 -8l6 -16l4 -15 v-10l2 -6l1 -14l-2 -1l1 -10zM335 286l2 2l-2 7l-5 6l-4 15h-1l-5 6l-5 10l-19 22l-6 2l-1 2l-12 5l-2 2h-2l-9 7l-5 1l-3 -3l-1 -4h-2l-10 7l-11 1l-3 -1l-3 1l-4 1l-2 2l-10 -2l-17 -7l-8 -6l-2 -1v-1l-7 -8l-2 -1l-5 -8l-11 -12l-9 -6l-19 -22l-4 -4v-2l-13 -20l-1 -3 l-2 -1l-10 -10l-6 -17l-6 -10l-5 -6l-2 -1l-2 -8l-4 -14v-2l-2 -8l3 -4v-4l6 -2l2 -2l17 -12l5 -3h1l6 2l8 -3l10 -27l-26 -4l-7 -4l-17 -2l-8 -3v-13l2 -4l5 -9l8 -16l3 -4l1 -4l12 -14l3 -1l8 -1l7 -3l10 -10l16 -1l17 -4l23 3l5 1l9 -2l12 8l4 1l6 2l5 3l4 2l5 3l13 9 l5 4h2l7 8l2 3l7 6l12 14l3 2l4 6l3 5l2 3l14 20l16 37v2l9 27l4 20l1 9l2 4l-1 8l-3 9l-1 12l-1 5l-1 6zM140 339l1 3l-6 3l-34 -27l-7 -8l-1 -4l-7 -5l-8 -11l-3 -5l-4 -4l-12 -16l-6 -15l1 -34l4 -2l3 3l-1 1h3l12 26l6 8v1l3 7l5 14l4 2l5 9l2 8l8 6l2 2l6 7l3 5l11 11 l1 2l4 4v2l2 3zM359 574l2 -2l-8 -25l-6 -6l-6 -5l-4 -3l-8 -7l-1 -2l-12 -14l-13 -4l-17 -12l-6 -3l-3 -2l-5 -4h-1l-6 -6l-19 -10l-2 -4l-1 -1l-7 -4l-5 -6l-4 -3l-1 -1l-10 -4l-3 2l-5 -4l-2 -1h-2l-4 2l3 9l2 2l1 2l12 17l3 5l4 3l1 2l7 13l7 9h1l2 2l4 6l1 2l2 3l22 35 l9 17l5 6l12 12l3 7l1 1l5 3l2 1l9 1l2 -2l3 -1l17 -18v-2l1 -1l2 -1l13 -3z" />
<glyph unicode="&#xf4;" horiz-adv-x="379" d="M371 242l-2 -2l-7 -18v-7l-3 -6l-2 -3h-1l4 -12l-24 -42l-2 -2l-2 -5l-4 -7l-12 -12l-12 -19l-2 -5l-11 -11l-7 -11l-9 -7l-6 -8l-2 -1l-1 -2l-10 -9l-7 -8l-2 -3l-6 -5l-47 -27l-15 -3l-20 -8h-42l-20 5l-17 7l-16 15l-4 5l-13 13l-3 12l-4 6l-1 2v5l-5 15v16l-2 5l2 18 v9l1 4l4 17l1 11l-1 6l-2 4l-5 3l-3 13l-9 13v22l1 8l2 3l4 12l12 23l20 29l25 25l3 6h3v2l9 8l24 18l7 4l5 4l58 29l15 3l5 3l9 3l8 2l11 -2l13 5l12 -1l17 -5l6 -14l10 -7l5 -5l5 -4l3 -4l3 -3l2 -5l7 -7l3 -2l3 -5l9 -11l5 2l-2 5l1 2l2 2l4 1h3l4 -3l5 -8l6 -16l4 -15 v-10l2 -6l1 -14l-2 -1l1 -10zM335 286l2 2l-2 7l-5 6l-4 15h-1l-5 6l-5 10l-19 22l-6 2l-1 2l-12 5l-2 2h-2l-9 7l-5 1l-3 -3l-1 -4h-2l-10 7l-11 1l-3 -1l-3 1l-4 1l-2 2l-10 -2l-17 -7l-8 -6l-2 -1v-1l-7 -8l-2 -1l-5 -8l-11 -12l-9 -6l-19 -22l-4 -4v-2l-13 -20l-1 -3 l-2 -1l-10 -10l-6 -17l-6 -10l-5 -6l-2 -1l-2 -8l-4 -14v-2l-2 -8l3 -4v-4l6 -2l2 -2l17 -12l5 -3h1l6 2l8 -3l10 -27l-26 -4l-7 -4l-17 -2l-8 -3v-13l2 -4l5 -9l8 -16l3 -4l1 -4l12 -14l3 -1l8 -1l7 -3l10 -10l16 -1l17 -4l23 3l5 1l9 -2l12 8l4 1l6 2l5 3l4 2l5 3l13 9 l5 4h2l7 8l2 3l7 6l12 14l3 2l4 6l3 5l2 3l14 20l16 37v2l9 27l4 20l1 9l2 4l-1 8l-3 9l-1 12l-1 5l-1 6zM140 339l1 3l-6 3l-34 -27l-7 -8l-1 -4l-7 -5l-8 -11l-3 -5l-4 -4l-12 -16l-6 -15l1 -34l4 -2l3 3l-1 1h3l12 26l6 8v1l3 7l5 14l4 2l5 9l2 8l8 6l2 2l6 7l3 5l11 11 l1 2l4 4v2l2 3zM380 451l2 -4l-1 -3l-4 -3h-7l-24 -5l-12 3l-18 8l-6 7h-8l-7 7l-14 4l-9 9l-7 4l-7 8l-5 4l-2 1l-1 2l-13 12l-2 4l-4 2l-3 4l-2 3l-3 9l-15 14h-3l-1 -1l-1 -4l-1 -1l-5 -6l-6 -8l-4 -4l-3 -5l-3 -2l-4 -4l-2 -5l-6 -4l-4 -3l-14 -17l-3 -3l-2 -1l-9 -12 l-2 -2l-2 -4l-11 -5l-3 -4l-7 -2h-3l-6 -3l-13 -2l-7 -4l-18 2l11 8l4 7l4 1l2 3l16 11l15 14l70 83l10 4v9l-3 4l7 6l8 3l4 3l5 1l3 6l10 2l4 1h1l3 -4l8 -16l2 -3l39 -56l21 -23l19 -15l2 -1l30 -23l17 -8z" />
<glyph unicode="&#xf5;" horiz-adv-x="379" d="M371 242l-2 -2l-7 -18v-7l-3 -6l-2 -3h-1l4 -12l-24 -42l-2 -2l-2 -5l-4 -7l-12 -12l-12 -19l-2 -5l-11 -11l-7 -11l-9 -7l-6 -8l-2 -1l-1 -2l-10 -9l-7 -8l-2 -3l-6 -5l-47 -27l-15 -3l-20 -8h-42l-20 5l-17 7l-16 15l-4 5l-13 13l-3 12l-4 6l-1 2v5l-5 15v16l-2 5l2 18 v9l1 4l4 17l1 11l-1 6l-2 4l-5 3l-3 13l-9 13v22l1 8l2 3l4 12l12 23l20 29l25 25l3 6h3v2l9 8l24 18l7 4l5 4l58 29l15 3l5 3l9 3l8 2l11 -2l13 5l12 -1l17 -5l6 -14l10 -7l5 -5l5 -4l3 -4l3 -3l2 -5l7 -7l3 -2l3 -5l9 -11l5 2l-2 5l1 2l2 2l4 1h3l4 -3l5 -8l6 -16l4 -15 v-10l2 -6l1 -14l-2 -1l1 -10zM335 286l2 2l-2 7l-5 6l-4 15h-1l-5 6l-5 10l-19 22l-6 2l-1 2l-12 5l-2 2h-2l-9 7l-5 1l-3 -3l-1 -4h-2l-10 7l-11 1l-3 -1l-3 1l-4 1l-2 2l-10 -2l-17 -7l-8 -6l-2 -1v-1l-7 -8l-2 -1l-5 -8l-11 -12l-9 -6l-19 -22l-4 -4v-2l-13 -20l-1 -3 l-2 -1l-10 -10l-6 -17l-6 -10l-5 -6l-2 -1l-2 -8l-4 -14v-2l-2 -8l3 -4v-4l6 -2l2 -2l17 -12l5 -3h1l6 2l8 -3l10 -27l-26 -4l-7 -4l-17 -2l-8 -3v-13l2 -4l5 -9l8 -16l3 -4l1 -4l12 -14l3 -1l8 -1l7 -3l10 -10l16 -1l17 -4l23 3l5 1l9 -2l12 8l4 1l6 2l5 3l4 2l5 3l13 9 l5 4h2l7 8l2 3l7 6l12 14l3 2l4 6l3 5l2 3l14 20l16 37v2l9 27l4 20l1 9l2 4l-1 8l-3 9l-1 12l-1 5l-1 6zM140 339l1 3l-6 3l-34 -27l-7 -8l-1 -4l-7 -5l-8 -11l-3 -5l-4 -4l-12 -16l-6 -15l1 -34l4 -2l3 3l-1 1h3l12 26l6 8v1l3 7l5 14l4 2l5 9l2 8l8 6l2 2l6 7l3 5l11 11 l1 2l4 4v2l2 3zM381 546l4 -2l-1 -6l-32 -34l-32 -20l-20 -8l-17 -3l-31 10l-1 1l-4 3l-40 21l-32 2l-24 -4l-57 -17l-15 -8l-8 -3l-4 2l-2 3l17 15l17 13l2 3l5 5l14 4l3 5l6 3l17 10l12 3v2l2 1l8 3l36 8l27 -1l1 -2l7 -1l18 -9l6 -1l3 -1v-2l4 -1l12 -9l24 -8l14 2l9 -1 l33 10z" />
<glyph unicode="&#xf6;" horiz-adv-x="379" d="M371 242l-2 -2l-7 -18v-7l-3 -6l-2 -3h-1l4 -12l-24 -42l-2 -2l-2 -5l-4 -7l-12 -12l-12 -19l-2 -5l-11 -11l-7 -11l-9 -7l-6 -8l-2 -1l-1 -2l-10 -9l-7 -8l-2 -3l-6 -5l-47 -27l-15 -3l-20 -8h-42l-20 5l-17 7l-16 15l-4 5l-13 13l-3 12l-4 6l-1 2v5l-5 15v16l-2 5l2 18 v9l1 4l4 17l1 11l-1 6l-2 4l-5 3l-3 13l-9 13v22l1 8l2 3l4 12l12 23l20 29l25 25l3 6h3v2l9 8l24 18l7 4l5 4l58 29l15 3l5 3l9 3l8 2l11 -2l13 5l12 -1l17 -5l6 -14l10 -7l5 -5l5 -4l3 -4l3 -3l2 -5l7 -7l3 -2l3 -5l9 -11l5 2l-2 5l1 2l2 2l4 1h3l4 -3l5 -8l6 -16l4 -15 v-10l2 -6l1 -14l-2 -1l1 -10zM335 286l2 2l-2 7l-5 6l-4 15h-1l-5 6l-5 10l-19 22l-6 2l-1 2l-12 5l-2 2h-2l-9 7l-5 1l-3 -3l-1 -4h-2l-10 7l-11 1l-3 -1l-3 1l-4 1l-2 2l-10 -2l-17 -7l-8 -6l-2 -1v-1l-7 -8l-2 -1l-5 -8l-11 -12l-9 -6l-19 -22l-4 -4v-2l-13 -20l-1 -3 l-2 -1l-10 -10l-6 -17l-6 -10l-5 -6l-2 -1l-2 -8l-4 -14v-2l-2 -8l3 -4v-4l6 -2l2 -2l17 -12l5 -3h1l6 2l8 -3l10 -27l-26 -4l-7 -4l-17 -2l-8 -3v-13l2 -4l5 -9l8 -16l3 -4l1 -4l12 -14l3 -1l8 -1l7 -3l10 -10l16 -1l17 -4l23 3l5 1l9 -2l12 8l4 1l6 2l5 3l4 2l5 3l13 9 l5 4h2l7 8l2 3l7 6l12 14l3 2l4 6l3 5l2 3l14 20l16 37v2l9 27l4 20l1 9l2 4l-1 8l-3 9l-1 12l-1 5l-1 6zM140 339l1 3l-6 3l-34 -27l-7 -8l-1 -4l-7 -5l-8 -11l-3 -5l-4 -4l-12 -16l-6 -15l1 -34l4 -2l3 3l-1 1h3l12 26l6 8v1l3 7l5 14l4 2l5 9l2 8l8 6l2 2l6 7l3 5l11 11 l1 2l4 4v2l2 3zM301 539l11 -14l1 -26l-7 -17l-9 -9l-19 -3l-7 2h-5l-1 -2l-23 2l-3 15l2 36l4 15l11 2l4 4l23 -2h10l3 -2zM174 537l4 -14l1 -23l-5 -21l-18 -7l-38 -1l-11 4l-1 28l2 6l-2 21l5 10l15 3l23 1l12 -3l9 -1z" />
<glyph unicode="&#xf7;" horiz-adv-x="549" d="M275 158q25 0 40.5 -16t15.5 -41q0 -24 -16 -40.5t-40 -16.5q-25 0 -41 17t-16 40q0 24 16.5 40.5t40.5 16.5zM506 270v-68h-463v68h463zM275 427q22 1 39 -17t17 -40q0 -24 -16 -40.5t-40 -16.5t-40.5 16.5t-16.5 40.5t16 40t41 17z" />
<glyph unicode="&#xf8;" horiz-adv-x="383" d="M376 296l2 -41l-2 -17l-4 -13l1 -2l-3 -7v-19l2 -6l-1 -2l-4 -6l-4 -10l-2 -3l-1 -11l-3 -8l-32 -50h-3v-2l2 -1l-53 -59l-45 -27l-26 -10l-23 -7l-21 2l-5 -11l-3 -15l-3 -3l-3 -4l-6 -18l-2 -2l-7 2l-10 1l-9 5l17 38l1 7h-2l-1 1l-17 7l-5 3l-9 6l-2 1l-6 14l-12 14 l-1 2h-2l-8 31l-3 2l-2 10l-2 2l-2 4l2 41l-2 8v5l1 16l-5 5h-2l-1 3l-1 2l-6 5l-5 3l-3 4l-4 6l-6 10l1 39l10 19l15 24l34 40l29 27l41 32l60 29l27 2l9 2h24l1 -3h3l3 -1l5 6l2 7l3 5l3 14l10 19l5 6l3 2h6l1 -2l2 -6l3 -34l-11 -17l-2 -7l-2 -4l1 -4l4 -1v-2h6l4 -1 l23 -16l12 -24l5 -3l6 -18l3 -15v-6zM355 263l-7 17l-1 14l-4 6l-4 8l-4 5v2l-6 11v3l-5 4l-3 7l-13 13l-4 5l-10 6l-7 -2v-12l-11 -32l-3 -12l-8 -20l-7 -9v-6l-6 -13l-3 -17l-5 -11l-1 -5l-4 -7l-9 -19l-1 -6l-4 -8l-7 -15l-1 -13l-2 -2l-1 -2l-1 -1l-3 -14l-4 -5l-8 -17 l-2 -11l-21 -56l-2 -13l7 -1l40 12l31 17l27 19l9 9l2 4l5 4l13 14l21 29l12 30v4l6 16l6 33v16l3 10v11zM267 375l1 2l-8 1l-2 1l-7 -2l-18 2l-37 -5l-22 -15l-27 -36l-8 -7l-5 -9l-1 -3l-16 -22l-16 -34l-14 -41l1 -5l5 -4l6 -8l-1 -13l-11 -23l-7 -23l8 -32v-2l2 -2 l6 -10l3 -4l4 -12l2 -3l5 -7l8 -6l1 -2v-3l14 -2l2 -1h7l7 15l24 69h-4l3 1l2 3l6 15l3 6v2l2 6l14 37l11 22l3 10l12 28l1 4l4 8l2 11l7 14v7l5 6l3 11l19 46zM127 318l15 22l-10 2l-12 -7l-16 -17l-4 -5l-6 -7l-3 -3l-7 -4l-18 -26l-8 -24l3 -12l1 -8l2 -5h6l4 1l5 14 l5 10l14 25l3 6l2 5l12 17z" />
<glyph unicode="&#xf9;" horiz-adv-x="444" d="M370 405v-21l-1 -10l2 -10l-2 -21l-2 -7l-1 -1l3 -1l-2 -25l5 -21l-1 -22l-1 -4l1 -2l-1 -25l2 -12v-18l-3 -15l4 -2l1 -13l4 -19l-4 -1l3 -3l5 -18l-4 -1l4 -4l2 -19l11 -21v-3h4l6 -18l8 -20v-2l12 -18l26 -13l23 6l4 -5l-9 -11l-21 -7l-9 -4l-13 -2l-11 2l-6 3l-12 5 l-6 9l-10 5l-19 11l-6 13l-6 11l-16 19l-5 5l-1 7l-5 6l1 6l-8 23l-4 16v14l3 2l-5 14l-1 14l-3 16l-1 15l-2 15l3 2l-3 1l-1 12l-8 -21l-10 -19l-10 -21l-6 -9h-2l-1 -5l-2 -5l-10 -20h-2v-3h2l-18 -36l-11 -20l-7 -14l-11 -11l-17 -24l-7 -8l-7 -5l-15 -11l-15 -7l-14 -7 l-10 -2l-9 3l-1 -2l-18 2l-12 9l-9 13l-5 11l-2 5l1 5l-2 11l-1 11l-1 21l1 18l6 4l-3 2l-1 10l2 9l5 2l-4 2v9l1 8v24l6 11l1 11l4 1v12l1 12l2 11l3 11v45l-2 1l3 2l-6 20l2 20l-4 16l-3 6l-5 5l-11 8l-14 -1l-18 -11l-3 2l-2 -4l-13 -10l-13 -6l-3 1l-9 -9l-6 2l-2 3 l8 10l11 8h1l20 16l20 15l20 16l15 10l18 8l5 2h18l14 -2l4 -9h2l5 -10l2 -16l-3 -16l-2 -1v-54l-2 -12l-3 -11l-6 -25l-4 -4l3 -3l-1 -12l-2 -11l3 -4l-1 -4l-4 -22l-8 -25v-17l-3 -17l-2 -1v-32l3 -14v-17l7 -17l6 -10l9 -5l8 -5h10l10 3l3 -3l13 9l9 9l9 12l10 12l5 11 l5 12l7 10l6 10l4 14l6 13l5 14l6 14l7 9l12 24l4 24h2l9 22l10 23l5 26l4 24v4l1 6l4 21l7 21l5 8l24 10zM128 547l-9 25l1 2l5 1l13 3l2 1l1 1l-1 2l18 18l3 1l2 2l9 -1l2 -1l5 -3l1 -1l3 -7l5 -5l3 -5l3 -2l5 -6l8 -17l33 -48h1l7 -9l7 -13v-2l5 -3l3 -5l12 -17l2 -4 l3 -9l-3 -2h-2l-2 1l-5 4l-3 -2l-10 4l-2 1l-4 3l-5 6l-6 4l-1 1h-1l-2 4l-4 2l-14 8l-3 3l-2 1l-2 2h-1l-9 6l-5 3l-16 12l-13 4l-13 14v2l-8 7l-4 3l-6 5z" />
</font>
</defs>
</svg>
